<svg width="171" height="32" viewBox="0 0 171 32" fill="none" xmlns="http://www.w3.org/2000/svg">
<path d="M16.628 0C12.0304 0 0.707031 11.3792 0.707031 15.9999C0.707031 20.6206 12.0304 32 16.628 32C21.2257 32 32.5492 20.6204 32.5492 15.9999C32.5492 11.3794 21.2258 0 16.628 0ZM14.147 25.1492C12.2082 24.6183 6.99567 15.455 7.52407 13.5066C8.05247 11.5581 17.1704 6.31979 19.1092 6.8508C21.048 7.38173 26.2606 16.5449 25.7322 18.4934C25.2038 20.4418 16.0858 25.6802 14.147 25.1492Z" fill="black"/>
<path d="M54.8044 19.5465V19.5407L45.758 2.77265C45.58 2.44259 45.0878 2.52164 45.021 2.89103L40.5158 27.7944C40.4716 28.0384 40.6582 28.2631 40.905 28.2631H44.3907C44.5819 28.2631 44.7458 28.1256 44.7799 27.9365L47.4036 13.4058L54.4556 26.9167C54.6038 27.2006 55.0082 27.2006 55.1563 26.9167L62.2084 13.4058L64.832 27.9365C64.8661 28.1256 65.03 28.2631 65.2213 28.2631H68.7069C68.9538 28.2631 69.1403 28.0384 69.0962 27.7944L64.591 2.89103C64.5241 2.52164 64.032 2.44259 63.8539 2.77265L54.8044 19.5465Z" fill="black"/>
<path d="M83.7522 3.2416C76.5764 3.2416 70.9552 8.84552 70.9552 16.0009C70.9552 23.1563 76.5764 28.7633 83.7522 28.7633C90.9095 28.7633 96.5167 23.1578 96.5167 16.0009C96.5167 8.84396 90.9095 3.2416 83.7522 3.2416ZM83.7522 24.491C79.0728 24.491 75.4065 20.7613 75.4065 16.0009C75.4065 11.2405 79.0728 7.51392 83.7522 7.51392C88.4131 7.51392 92.0654 11.2421 92.0654 16.0009C92.0654 20.7597 88.4131 24.491 83.7522 24.491Z" fill="black"/>
<path d="M116.241 18.9277L101.236 2.6968C100.991 2.43211 100.55 2.60612 100.55 2.96742V27.8653C100.55 28.0849 100.727 28.2629 100.946 28.2629H104.573C104.792 28.2629 104.969 28.0849 104.969 27.8653V13.0463L119.941 29.3078C120.186 29.5733 120.627 29.3995 120.627 29.0378V4.13983C120.627 3.92025 120.45 3.74224 120.232 3.74224H116.637C116.418 3.74224 116.241 3.92025 116.241 4.13983V18.9277Z" fill="black"/>
<path d="M124.474 28.2634H128.369C128.524 28.2634 128.664 28.1732 128.729 28.0325L131.647 21.6818H140.977L143.83 28.0294C143.894 28.1718 144.035 28.2634 144.19 28.2634H148.416C148.708 28.2634 148.9 27.9568 148.773 27.6928L136.802 2.79643C136.658 2.49696 136.233 2.49696 136.089 2.79643L124.118 27.6928C123.991 27.9568 124.183 28.2634 124.474 28.2634ZM133.476 17.7416L136.376 11.4173L139.221 17.7416H133.476Z" fill="black"/>
<path d="M158.227 3.74254H152.241C152.022 3.74254 151.845 3.92054 151.845 4.14012V27.8656C151.845 28.0852 152.022 28.2632 152.241 28.2632H158.227C165.648 28.2632 170.259 23.5652 170.259 16.0013C170.259 8.43743 165.648 3.74254 158.227 3.74254ZM158.227 24.0564H156.296V7.91663H158.227C163.044 7.91663 165.807 10.8636 165.807 16.0013C165.807 21.1203 163.044 24.0564 158.227 24.0564Z" fill="black"/>
</svg>
