<svg width="905" height="253" viewBox="0 0 905 253" fill="none" xmlns="http://www.w3.org/2000/svg">
<path d="M344.128 69.9224C327.264 69.9224 314.268 79.7664 314.268 94.3801C314.268 108.588 325.28 113.459 338.969 116.098L356.23 118.939C379.145 122.796 394.918 133.553 394.918 159.127C394.918 185.817 373.491 201.446 346.211 201.446C321.609 201.446 298.396 186.629 295.024 157.605C294.726 155.169 296.611 153.038 298.992 153.038H309.308C311.292 153.038 312.979 154.56 313.276 156.59C315.459 177.089 331.033 185.208 346.31 185.208C362.976 185.208 376.169 176.785 376.169 159.736C376.169 144.513 365.555 139.236 351.468 136.496L334.406 133.451C310.499 129.392 295.52 117.62 295.52 95.2934C295.52 69.415 317.542 53.5835 344.028 53.5835C365.158 53.5835 388.47 65.7616 393.033 94.6845C393.43 97.1201 391.545 99.4543 389.065 99.4543H378.352C376.467 99.4543 374.78 98.0335 374.483 96.1053C371.408 76.9249 357.718 69.9224 344.128 69.9224Z" fill="#101010"/>
<path d="M463.559 85.7543C489.054 85.7543 507.207 99.6576 513.655 122.39C514.35 124.927 512.465 127.566 509.786 127.566H497.783C496.097 127.566 494.609 126.449 494.014 124.826C489.55 111.836 479.233 104.427 463.559 104.427C442.231 104.427 430.327 122.187 430.327 143.6C430.327 164.912 442.331 182.773 463.559 182.773C479.233 182.773 489.55 175.365 494.014 162.375C494.609 160.751 496.097 159.635 497.783 159.635H509.786C512.465 159.635 514.35 162.273 513.556 164.81C506.711 188.558 489.153 201.446 463.559 201.446C430.724 201.446 409.892 175.466 409.892 143.6C409.793 111.836 430.724 85.7543 463.559 85.7543Z" fill="#101010"/>
<path d="M532.902 182.975H558.595V109.907H535.68C533.497 109.907 531.712 108.08 531.712 105.847V95.496C531.712 93.2634 533.497 91.4367 535.68 91.4367H566.928C573.475 91.4367 578.832 96.9168 578.832 103.615V106.558C584.486 92.6545 596.688 89.204 615.635 89.204C622.876 89.204 627.737 90.4218 630.515 91.4367C632.102 92.0456 633.094 93.5678 633.094 95.1916V105.949C633.094 108.689 630.515 110.719 627.936 109.805C624.563 108.689 619.801 107.674 613.552 107.674C593.315 107.674 578.931 121.78 578.931 146.238V182.975H611.965C614.147 182.975 615.933 184.802 615.933 187.035V197.386C615.933 199.619 614.147 201.445 611.965 201.445H533.001C530.819 201.445 529.033 199.619 529.033 197.386V187.035C528.934 184.802 530.72 182.975 532.902 182.975Z" fill="#101010"/>
<path d="M648.173 143.6C648.173 111.835 668.807 85.7539 702.336 85.7539C735.866 85.7539 756.499 111.734 756.499 143.6C756.499 175.466 735.866 201.446 702.336 201.446C668.807 201.446 648.173 175.466 648.173 143.6ZM702.336 182.773C723.863 182.773 736.263 165.013 736.263 143.6C736.263 122.288 723.863 104.427 702.336 104.427C680.81 104.427 668.41 122.187 668.41 143.6C668.41 165.013 680.81 182.773 702.336 182.773Z" fill="#101010"/>
<path d="M832.386 183.89C834.568 183.89 836.354 185.717 836.354 187.95V197.489C836.354 199.722 834.568 201.548 832.386 201.548H785.861C783.679 201.548 781.893 199.722 781.893 197.489V72.2579H766.418C764.236 72.2579 762.45 70.4311 762.45 68.1985V58.659C762.45 56.4263 764.236 54.5996 766.418 54.5996H789.333C795.88 54.5996 801.237 60.0798 801.237 66.7777V183.89H832.386Z" fill="#101010"/>
<path d="M901.032 183.89C903.214 183.89 905 185.717 905 187.95V197.489C905 199.722 903.214 201.548 901.032 201.548H854.507C852.325 201.548 850.539 199.722 850.539 197.489V72.2579H835.064C832.882 72.2579 831.096 70.4311 831.096 68.1985V58.659C831.096 56.4263 832.882 54.5996 835.064 54.5996H857.979C864.526 54.5996 869.883 60.0798 869.883 66.7777V183.89H901.032Z" fill="#101010"/>
<path d="M233.516 171.711V22.5294C233.318 10.0469 223.596 0 211.395 0H59.2223C26.3872 0.50742 0 28.0096 0 61.7022C0 73.0684 2.976 82.8109 7.53919 91.3355C11.408 98.4394 17.4592 105.137 23.4112 110.11C25.0976 111.531 24.304 110.922 29.4624 114.169C36.6047 118.635 44.7391 120.867 44.7391 120.867L44.6399 210.072C44.8383 214.334 45.2351 218.393 46.3263 222.148C49.6991 234.732 58.2303 244.373 69.8367 249.042C74.6974 250.97 80.1535 252.289 86.0062 252.391L207.526 252.796C231.731 252.796 251.372 232.703 251.372 207.839C251.472 193.124 244.329 179.931 233.516 171.711Z" fill="#FFEEDA"/>
<path d="M236.49 208.955C235.994 224.888 223.197 237.675 207.523 237.675L123.898 237.37C130.544 229.454 134.612 219.205 134.612 208.041C134.612 190.485 124.394 178.408 124.394 178.408H207.623C223.594 178.408 236.589 191.702 236.589 208.041L236.49 208.955Z" fill="#EBC28E"/>
<path d="M31.3472 97.5253C21.7248 88.1888 14.9792 76.1122 14.9792 61.803V60.2807C15.7728 35.8231 35.4143 16.1352 59.3215 15.4248H211.494C215.462 15.6278 218.636 18.4693 218.636 22.6302V154.356C222.108 154.965 223.795 155.473 227.168 156.69C229.846 157.705 233.516 159.836 233.516 159.836V22.6302C233.318 10.1477 223.596 0.100767 211.395 0.100767H59.2223C26.3872 0.608186 0 28.1103 0 61.803C0 81.3894 8.7296 98.1342 23.0144 109.906C24.0064 110.718 24.8992 111.733 27.4784 111.733C31.9424 111.733 35.1167 108.08 34.9184 104.122C34.8191 100.773 33.4303 99.555 31.3472 97.5253Z" fill="#101010"/>
<path d="M207.528 162.984H88.1906C80.1554 163.085 73.7074 169.682 73.7074 177.902V195.459C73.9058 203.577 80.6514 210.478 88.6866 210.478H97.5154V195.459H88.6866V178.308C88.6866 178.308 90.869 178.308 93.5474 178.308C108.626 178.308 119.736 192.617 119.736 207.941C119.736 221.54 107.634 238.894 87.397 237.473C69.4418 236.255 59.7202 219.916 59.7202 207.941V59.1657C59.7202 52.4677 54.3635 46.9876 47.8163 46.9876H35.9123V62.2102H44.7411V208.043C44.2451 237.676 65.3746 252.594 87.397 252.594L207.627 253C231.832 253 251.473 232.906 251.473 208.043C251.473 183.179 231.733 162.984 207.528 162.984ZM236.494 208.956C235.998 224.889 223.202 237.676 207.528 237.676L123.903 237.372C130.549 229.456 134.616 219.206 134.616 208.043C134.616 190.486 124.399 178.409 124.399 178.409H207.627C223.598 178.409 236.594 191.704 236.594 208.043L236.494 208.956Z" fill="#101010"/>
<path d="M175.384 64.9495H85.4101V49.727H175.384C179.452 49.727 182.824 53.0759 182.824 57.3382C182.824 61.4991 179.551 64.9495 175.384 64.9495Z" fill="#101010"/>
<path d="M175.384 136.597H85.4101V121.375H175.384C179.452 121.375 182.824 124.724 182.824 128.986C182.824 133.147 179.551 136.597 175.384 136.597Z" fill="#101010"/>
<path d="M191.256 100.773H85.4101V85.5505H191.157C195.224 85.5505 198.597 88.8995 198.597 93.1618C198.696 97.3226 195.324 100.773 191.256 100.773Z" fill="#101010"/>
</svg>
