<?xml version="1.0" encoding="utf-8"?>
<!-- Generator: Adobe Illustrator 25.2.3, SVG Export Plug-In . SVG Version: 6.00 Build 0)  -->
<svg version="1.1" id="Layer_1" xmlns="http://www.w3.org/2000/svg" xmlns:xlink="http://www.w3.org/1999/xlink" x="0px" y="0px"
	 viewBox="0 0 1500 1384.6" style="enable-background:new 0 0 1500 1384.6;" xml:space="preserve">
<style type="text/css">
	.st0{fill:#FFFFFF;}
	.st1{fill:#558203;}
	.st2{fill:#9FD22D;}
	.st3{fill:#FBCC06;}
</style>
<path d="M1249.3,410c-0.8-3.4-2.7-6.5-5.4-8.6c-2.7-2.2-6.1-3.4-9.6-3.4c-3.5,0-6.9,1.1-9.7,3.3c-2.8,2.2-4.7,5.2-5.5,8.6
	c-12.2,42.6-32.6,82.3-60.3,116.9c-58.2,71-136.8,96.1-233.8,74.6c-2-0.5-4.1-0.6-6.2-0.3c-2.1,0.3-4,1-5.8,2.1
	c-1.8,1.1-3.3,2.5-4.5,4.2c-1.2,1.7-2.1,3.6-2.5,5.7c-0.4,2-0.5,4.1-0.1,6.2s1.2,4,2.3,5.7c1.2,1.7,2.6,3.2,4.4,4.4s3.7,1.9,5.8,2.3
	c136.6,30.2,219.6-30.3,265.2-86.2c30.3-37.9,52.7-81.5,65.8-128.3C1249.8,414.8,1249.9,412.4,1249.3,410z"/>
<path class="st0" d="M1348.5,358.3c0,0,25.6-8.7,39-47.5c13.4-38.8-28.6-46.6-35.7-41.5c0.5-5.5-0.4-11-2.5-16
	c-2.1-5.1-5.4-9.5-9.7-13c-14.7-13-34.5,2.5-34.5,2.5s-0.8-29.8-27.1-24.9c-26.2,4.9-47.8,37.8-43.9,51.9c0,0-41.9,12.4-47.1,39.6
	c-5.1,27.2,17.1,48.3,17.1,48.3s-35.2,13.9-8.4,42.9c26.8,29.1,99.5,66.6,107.5,13.7C1303.2,414.3,1354.4,417.7,1348.5,358.3z"/>
<path d="M1391.3,312.1c-11.3,32.9-31.1,45.1-38.6,48.7c1.4,18.9-2.9,33.5-12.4,43.5c-11.3,11.7-26.7,13.6-33.5,13.8
	c-3.5,16.3-13.2,22.6-21,24.9c-27,8.2-72.1-17.7-92.6-39.9c-9-9.8-12.4-19.2-10.5-28c2.1-9.3,10.1-15.5,15.5-18.7
	c-6.5-7.7-18.7-25.7-14.6-47.8c4.7-24.9,36.2-37.9,46.6-41.6c0.2-8.2,2.8-16.1,7.5-22.8c7.7-12.4,22.3-26.9,40-30.3
	c3.6-0.9,7.3-1,11-0.2c3.6,0.7,7,2.3,10,4.5c5.2,4.7,8.7,11,9.9,17.8c9-4.9,23-8.5,34.2,1.2c3.9,3.3,7.2,7.4,9.5,12
	c2.3,4.6,3.7,9.6,4.1,14.8c9.3-0.5,18.4,2.2,25.9,7.7c5.7,4.2,9.8,10.3,11.5,17.3C1395.1,296.8,1394.3,304.8,1391.3,312.1z"/>
<path class="st0" d="M1391.3,312.1c-11.3,32.9-31.1,45.1-38.6,48.7c1.4,18.9-2.9,33.5-12.4,43.5c-11.3,11.7-26.7,13.6-33.5,13.8
	c-3.5,16.3-13.2,22.6-21,24.9c-27,8.2-72.1-17.7-92.6-39.9c-9-9.8-12.4-19.2-10.5-28c2.1-9.3,10.1-15.5,15.5-18.7
	c-6.5-7.7-18.7-25.7-14.6-47.8c4.7-24.9,36.2-37.9,46.6-41.6c0.2-8.2,2.8-16.1,7.5-22.8c7.7-12.4,22.3-26.9,40-30.3
	c3.6-0.9,7.3-1,11-0.2c3.6,0.7,7,2.3,10,4.5c5.2,4.7,8.7,11,9.9,17.8c9-4.9,23-8.5,34.2,1.2c3.9,3.3,7.2,7.4,9.5,12
	c2.3,4.6,3.7,9.6,4.1,14.8c9.3-0.5,18.4,2.2,25.9,7.7c5.7,4.2,9.8,10.3,11.5,17.3C1395.1,296.8,1394.3,304.8,1391.3,312.1z"/>
<path d="M1274,448.6c-28.8,0-66-23.3-83.9-42.7c-9.9-10.8-13.8-21.4-11.5-31.6c2.1-7.7,6.9-14.3,13.5-18.7
	c-7.4-9.9-16.6-27-12.7-47.6c4.7-25.1,34.2-38.8,46.6-43.5c0.9-7.9,3.7-15.5,8.1-22.1c8.1-13.1,23.6-28.4,42.6-32
	c4.1-1,8.5-1.1,12.6-0.2c4.2,0.9,8.1,2.7,11.5,5.3c4.8,4,8.2,9.3,10,15.3c12.7-5.3,25.2-4,34.2,3.8c7.7,6.6,12.8,15.7,14.5,25.7
	c8.9,0.3,17.5,3.3,24.7,8.6c6.4,4.8,10.9,11.6,12.7,19.4c1.7,8.4,1,17.1-2.1,25.1c-10.7,31.1-28.9,44.6-38.2,49.7
	c0.9,18.7-3.7,33.6-13.8,44c-9,8.7-20.8,14-33.3,14.8c-4.4,16.1-14.8,22.5-22.9,24.9C1282.5,448,1278.3,448.6,1274,448.6z
	 M1283.6,217.3c-1.9,0-3.8,0.2-5.6,0.6c-16.5,3.1-30.1,16.8-37.3,28.5c-4.2,6-6.6,13.2-6.9,20.6c0,0.8-0.2,1.7-0.7,2.4
	c-0.5,0.7-1.1,1.2-1.9,1.5c-9.3,3.1-39.7,15.5-44.1,38.6c-3.8,20.1,7,36.6,13.7,44.6c0.4,0.4,0.6,0.9,0.8,1.5
	c0.1,0.5,0.2,1.1,0.1,1.6c-0.1,0.6-0.3,1.1-0.6,1.6c-0.3,0.5-0.7,0.9-1.2,1.1c-4.3,2.5-11.8,7.9-13.6,16.1
	c-1.7,7.5,1.5,15.8,9.6,24.6c19.3,21,63.5,46.6,88.6,38.8c9.6-3,15.8-10.4,18.3-22c0.2-0.8,0.6-1.6,1.3-2.2c0.7-0.6,1.5-0.9,2.4-0.9
	c5.8-0.2,20.5-1.8,30.9-12.7c8.9-9.3,12.8-22.9,11.5-40.6c-0.1-0.8,0.1-1.6,0.5-2.2c0.4-0.7,1-1.2,1.7-1.5
	c7.4-3.6,25.8-15.2,36.6-46.5c2.6-6.6,3.2-13.8,1.9-20.8c-1.5-6-5-11.4-10-15c-6.7-4.9-14.9-7.3-23.2-6.9c-0.5,0.1-1,0-1.5-0.2
	c-0.5-0.2-1-0.4-1.4-0.7c-0.4-0.3-0.7-0.7-1-1.2c-0.2-0.5-0.4-1-0.4-1.5c-0.3-4.7-1.6-9.2-3.8-13.3c-2.1-4.2-5.1-7.8-8.7-10.8
	c-10.6-9.3-24.3-3.6-29.6-0.7c-0.5,0.3-1.1,0.4-1.7,0.4s-1.2-0.1-1.7-0.4c-0.6-0.3-1-0.6-1.4-1.1c-0.4-0.5-0.7-1-0.8-1.6
	c-1-6-4-11.5-8.5-15.5C1292.3,218.6,1288,217.2,1283.6,217.3z"/>
<path d="M1324.3,354.9h-1.1c-3.5-0.3-6.8-1.4-9.8-3.3c-2.9-1.9-5.3-4.5-7-7.6c-17.3-27.1,40.1-77.1,46.6-82.8
	c0.4-0.3,0.8-0.6,1.3-0.7c0.5-0.2,1-0.2,1.5-0.2c0.5,0,1,0.2,1.5,0.4c0.5,0.2,0.9,0.6,1.2,0.9c0.3,0.4,0.6,0.8,0.7,1.3
	s0.2,1,0.2,1.5c0,0.5-0.2,1-0.4,1.5c-0.2,0.5-0.5,0.9-0.9,1.2c-16.5,14-56.8,54.4-45.2,72.7c1,2,2.5,3.7,4.4,5
	c1.9,1.3,4,2.1,6.2,2.3c10.2,0.5,22.7-12.1,26.6-17c0.3-0.4,0.7-0.8,1.1-1.1c0.5-0.3,1-0.4,1.5-0.5c0.5-0.1,1.1,0,1.6,0.1
	c0.5,0.1,1,0.4,1.4,0.7c0.4,0.3,0.8,0.7,1,1.2c0.2,0.5,0.4,1,0.4,1.5c0,0.5,0,1.1-0.2,1.6c-0.2,0.5-0.4,1-0.8,1.4
	C1355.7,335.8,1340.2,354.9,1324.3,354.9z"/>
<path d="M1292.6,262.2c-0.8,0-1.5-0.2-2.1-0.6c-0.4-0.3-0.8-0.6-1.1-1.1c-0.3-0.4-0.5-0.9-0.6-1.4c-0.1-0.5-0.1-1,0-1.5
	c0.1-0.5,0.3-1,0.6-1.4c8.2-12.7,15.5-22,15.7-22.4c0.3-0.4,0.7-0.8,1.2-1c0.4-0.3,0.9-0.4,1.5-0.5c0.5-0.1,1,0,1.5,0.1
	c0.5,0.1,1,0.4,1.4,0.7c0.4,0.3,0.8,0.7,1,1.2c0.3,0.4,0.4,0.9,0.5,1.5c0.1,0.5,0,1-0.1,1.5c-0.1,0.5-0.4,1-0.7,1.4
	c0,0-7.3,9.3-15.3,21.8c-0.3,0.6-0.8,1.1-1.4,1.4C1293.9,262,1293.3,262.2,1292.6,262.2z"/>
<path d="M1296.4,335.7c-9,0-20.7-2.5-26.9-14.2c-0.4-0.9-0.5-1.9-0.2-2.9c0.3-0.9,1-1.7,1.9-2.2c0.9-0.5,1.9-0.6,2.9-0.3
	c1,0.3,1.8,0.9,2.3,1.7c7.8,14.6,29.7,9,29.9,9c1-0.3,2.1-0.1,2.9,0.4c0.9,0.5,1.5,1.4,1.8,2.4c0.1,0.5,0.2,1,0.1,1.5
	c-0.1,0.5-0.2,1-0.5,1.4c-0.3,0.4-0.6,0.8-1,1.1c-0.4,0.3-0.9,0.5-1.4,0.7C1304.4,335.2,1300.4,335.7,1296.4,335.7z"/>
<path d="M1262.6,388.9c-0.7,0-1.4-0.2-2.1-0.6c-0.4-0.3-0.8-0.6-1.1-1c-0.3-0.4-0.5-0.9-0.6-1.4c-0.1-0.5-0.1-1,0-1.5
	c0.1-0.5,0.3-1,0.5-1.4c8.4-13.3,11.3-25.1,8.6-35c-2.1-7.2-6.9-13.3-13.4-17.1c-0.7-0.3-1.2-0.9-1.6-1.5c-0.4-0.7-0.6-1.4-0.5-2.2
	c0.1-0.8,0.3-1.5,0.8-2.1c0.4-0.6,1.1-1.1,1.8-1.3c0.6-0.2,54.8-20.5,47.3-50.1c-0.5-2.3-1.6-4.4-3-6.3c-1.5-1.8-3.3-3.3-5.4-4.3
	c-19.5-9.8-61.9,7.6-62.2,7.7c-0.5,0.2-1,0.3-1.5,0.3s-1-0.1-1.5-0.3c-0.5-0.2-0.9-0.5-1.3-0.8c-0.4-0.4-0.6-0.8-0.8-1.3
	c-0.4-1-0.4-2,0-3c0.4-1,1.1-1.7,2.1-2.1c1.9-0.8,46-18.9,68.8-7.5c3.1,1.5,5.8,3.7,8,6.4c2.2,2.7,3.7,5.8,4.5,9.2
	c7.5,29.6-29.7,49.7-45.5,56.6c5.4,4.6,9.3,10.7,11.2,17.5c3.4,12.2,0.2,26.1-9.3,41.3c-0.4,0.6-0.9,1.1-1.5,1.4
	C1264,388.8,1263.3,388.9,1262.6,388.9z"/>
<path class="st0" d="M1075.3,1131.9l83.9,8.3l14,10.1c0,0,121.7-71.8,148.1,16.6c22.7,75.3-87.7,88-159.1,81
	C1090.8,1240.9,1012.5,1247.9,1075.3,1131.9z"/>
<path d="M1197.3,1253.5c-12.2,0-24.3-0.6-35.5-1.7c-7-0.7-14.1-1.2-21-1.8c-38.3-3.1-74.6-5.8-87.6-29.8
	c-10.3-19-4.4-47.6,18.7-90.2c0.4-0.7,0.9-1.2,1.6-1.6c0.7-0.4,1.4-0.5,2.2-0.4l83.9,8.3c0.7,0.1,1.3,0.3,1.9,0.7l11.9,8.6
	c12.4-7,73.2-38.7,115.7-22c17.6,6.9,29.7,21,36,42.1c6.2,20.4,3.4,37.8-8.1,51.7C1294.9,1244.3,1244.4,1253.5,1197.3,1253.5z
	 M1077.5,1136c-20.4,38.2-26.1,64.5-17.4,80.5c10.9,20.2,45.1,23,81.4,25.7c6.9,0.6,14.1,1.1,21.1,1.8
	c56.4,5.5,124.2-2.1,148.3-31.4c9.8-11.9,12-26.9,6.7-44.6c-5.6-18.7-16.2-31.1-31.4-37.1c-43.1-16.9-110.4,22.4-111.1,22.8
	c-0.7,0.4-1.4,0.6-2.2,0.5s-1.5-0.3-2.1-0.7l-13.1-9.3L1077.5,1136z"/>
<path class="st0" d="M1055.5,1117.4c-0.6,6.9,5.6,12.4,11,16c24.6,16,76.8,20.7,98,8.8c5.9-3.3,8.7-7.5,8.6-12.7
	c-0.5-18.4-33.9-30.5-65.8-31.6c-20.3-0.7-42.3,3.4-49.4,13.5C1056.5,1113.1,1055.7,1115.2,1055.5,1117.4z"/>
<path d="M1129.8,1152.7c-23.1,0-49.3-5.8-65.3-16.1c-9-5.8-13.4-12.6-12.7-19.6c0.3-2.9,1.4-5.7,3.1-8c8.6-12.1,32.8-15.7,52.9-15.1
	c33.3,1.1,69.1,13.9,69.6,35.4c0,6.7-3.4,12.2-10.6,16.2C1157.8,1150.4,1144.4,1152.7,1129.8,1152.7z M1103,1101.6
	c-19.9,0-36.8,4.7-41.9,11.9c-0.9,1.2-1.5,2.7-1.6,4.2c-0.5,5.2,5.6,10,9.3,12.4c23.2,15.1,74.1,19.8,94,8.7c6-3.3,6.7-6.7,6.6-9.3
	c-0.4-15.5-32.5-26.8-62.2-27.8C1105.8,1101.6,1104.4,1101.6,1103,1101.6z"/>
<path d="M1166.5,1179.6c-0.3,0-0.7,0-1,0c-0.5-0.1-1-0.4-1.4-0.7c-0.4-0.3-0.8-0.7-1-1.1c-0.3-0.4-0.4-0.9-0.5-1.4
	c-0.1-0.5,0-1,0.1-1.5l4.5-17.3c-5.3,2.7-10.1,6.1-14.4,10.3c-0.7,0.7-1.7,1.1-2.8,1.1c-1,0-2-0.4-2.7-1.1c-0.4-0.4-0.7-0.8-0.8-1.3
	c-0.2-0.5-0.3-1-0.3-1.5s0.1-1,0.3-1.5c0.2-0.5,0.5-0.9,0.8-1.3c7.1-6.6,15.4-11.9,24.4-15.5c0.7-0.3,1.4-0.3,2.1-0.2
	c0.7,0.1,1.4,0.4,1.9,0.9c0.5,0.5,0.9,1.1,1.1,1.8c0.2,0.7,0.2,1.4,0,2.1l-6.6,25.4c-0.2,0.8-0.8,1.5-1.4,2
	C1168.2,1179.4,1167.4,1179.6,1166.5,1179.6z"/>
<path d="M1233.7,927.5c0.9-21.7-4.3-40.4-15.8-56c-5.8-7.8-13.1-14.4-21.4-19.2s-17.7-8-27.3-9.1c-75.6-10.9-188.3,73.8-193.1,77.4
	c-3.3,2.5-5.5,6.2-6.1,10.2c-0.6,4.1,0.5,8.2,2.9,11.5c2.5,3.3,6.2,5.5,10.2,6.1c4.1,0.6,8.2-0.5,11.5-2.9
	c29.6-22.4,117.8-78.9,169.9-71.5c5.6,0.6,10.9,2.3,15.8,5.1s9.1,6.5,12.4,11c39.1,52.9-49.1,170.6-86.4,211.4
	c-1.5,1.5-2.6,3.3-3.4,5.2c-0.8,1.9-1.1,4-1.1,6.1c0.1,2.1,0.5,4.1,1.4,6c0.9,1.9,2.1,3.6,3.6,5c1.5,1.4,3.3,2.5,5.3,3.2
	c2,0.7,4,1,6.1,0.9c2.1-0.1,4.1-0.7,6-1.6c1.9-0.9,3.5-2.2,4.9-3.8c24.8-28,47-58.1,66.3-90.2C1219.8,992,1232.5,956.9,1233.7,927.5
	z"/>
<path class="st1" d="M771.8,51.9c-169.7,0-244.2,119.9-267.2,222.3c-24,106.7-74,210.1-121.3,308.6c-37.8,78.5-75.6,197.8-3.6,325.2
	c72.7,128.7,239.5,192.2,392.2,179.1L771.8,51.9z"/>
<path d="M733.4,1089.6c-64.4,0.1-128.2-12.4-187.8-36.9c-76-31.8-134.6-81.2-169.4-143c-56.2-99.5-55.1-207,3.5-328.8l1.1-2.3
	c47.3-98.4,96.4-200.1,120-305.5c9.3-42.2,31.1-102.6,79.6-151.5C629,72.8,693.8,47.8,771.8,47.8c1,0,2,0.4,2.7,1.1
	c0.7,0.7,1.1,1.7,1.1,2.7c0,1-0.4,2-1.1,2.7c-0.7,0.7-1.7,1.1-2.7,1.1c-193.3,0-248.7,153.3-263.4,219.3
	C484.6,381.1,435.4,483.2,387.9,582l-1.1,2.3c-57.4,119.3-58.7,224.5-3.8,321.6c65.9,116.6,226.8,188.2,391.2,174.1
	c0.5-0.1,1,0,1.5,0.1c0.5,0.1,1,0.4,1.3,0.7c0.4,0.3,0.7,0.7,1,1.2c0.2,0.5,0.4,1,0.4,1.5c0.1,1-0.2,2-0.9,2.8
	c-0.7,0.8-1.6,1.3-2.6,1.4C761.1,1089,747.3,1089.6,733.4,1089.6z"/>
<path class="st2" d="M1080.4,589.8c-56.2-104.3-95.7-216.6-122.4-332.1C933.4,150.9,881.4,42.8,771.8,51.9
	C644.3,62.4,589.8,171,566.8,273.4c-23.9,106.6-58,210.9-105.4,309.4c-37.8,78.5-61.2,190.6-3.7,325.2
	c104.6,244.6,524.6,230.1,641.6-15.5C1153.4,778.9,1123.7,670.2,1080.4,589.8z"/>
<path d="M761.6,1088H753c-65.3-1.3-126.7-17.3-177.9-46.1c-55.3-31.1-97.1-76.9-120.9-132.4c-60-140.3-31.1-256,3.7-328.4
	c44.5-92.4,79.9-196.3,105.1-308.6C594.1,134.4,666.1,56.8,771.3,48.1c91.4-7.6,157.2,64.7,190.6,209c28,121.3,69.1,232.8,122,331.1
	c39.9,74.1,75.5,187.3,19,306c-29.5,61.9-79.8,112.8-145.7,147.2C896.6,1072.2,829.5,1088.2,761.6,1088z M784.2,55.2
	c-3.9,0-8,0.2-12.1,0.5C643.8,66.3,591.8,180.4,570.6,274.2c-25.4,112.9-60.9,217.3-105.7,310.3c-34.2,70.9-62.4,184.3-3.6,322
	c44.7,104.5,156.5,171,291.8,173.8h9c148.2,0,278.5-73.8,333.7-189.6c55.2-115.9,20.2-226.5-18.7-299c-53.2-98.9-94.5-211-122.7-333
	C932.6,164.8,885.5,55.2,784.2,55.2z"/>
<path class="st3" d="M784.7,460.6c-254.1,0-374.5,449,0,486.2C1159.3,984,1080.6,460.5,784.7,460.6z"/>
<path d="M822.3,952.6c-12,0-24.6-0.6-38-2c-185.6-18.4-246.2-136.4-241-240.8c3.7-64.2,28.9-125.4,71.5-173.6
	c45.8-51.4,106.1-79.6,169.8-79.7c92.3,0,172.3,50.6,219.4,138.8c48.6,90.7,49,199.5,1.1,271C978,907.1,924.6,952.6,822.3,952.6z
	 M784.8,464.5C648,464.5,557,592.2,551.2,710.3c-5,100.7,53.9,214.7,234.1,232.6c123.6,12.4,184.4-37.3,213.6-80.8
	c46.3-69.2,45.7-174.9-1.4-262.9C951.6,513.5,874.2,464.4,784.8,464.5L784.8,464.5z"/>
<path class="st0" d="M884.3,770.1c31.1,0,56.3-41.9,56.3-93.5c0-51.6-25.2-93.5-56.3-93.5c-31.1,0-56.3,41.9-56.3,93.5
	C828,728.3,853.2,770.1,884.3,770.1z"/>
<path d="M884.3,774c-33.2,0-60.2-43.5-60.2-97.4c0-53.8,27-97.4,60.2-97.4c33.2,0,60.2,43.7,60.2,97.5
	C944.5,730.7,917.5,774,884.3,774z M884.3,587.1c-28.9,0-52.5,40.2-52.5,89.6c0,49.4,23.5,89.6,52.5,89.6
	c28.9,0,52.4-40.2,52.4-89.4C936.7,627.6,913.2,587.1,884.3,587.1z"/>
<path d="M873.2,585c3.6-1.2,7.3-1.8,11.1-1.8c31.1,0,56.3,41.8,56.3,93.5c0,51.6-25.2,93.4-56.3,93.4c-3.8,0-7.5-0.6-11.1-1.8V585z"
	/>
<path d="M884.3,587.1c-0.5,0-1-0.1-1.5-0.3c-0.5-0.2-0.9-0.5-1.3-0.8c-0.4-0.4-0.7-0.8-0.8-1.3c-0.2-0.5-0.3-1-0.3-1.5v-27
	c0-1,0.4-2,1.1-2.7c0.7-0.7,1.7-1.1,2.7-1.1c1,0,2,0.4,2.7,1.1c0.7,0.7,1.1,1.7,1.1,2.7v27c0,1-0.4,2-1.1,2.7
	C886.3,586.6,885.4,587.1,884.3,587.1z"/>
<path d="M907.7,593.7c-0.7,0-1.3-0.2-1.9-0.5c-0.4-0.3-0.8-0.6-1.1-1c-0.3-0.4-0.5-0.9-0.7-1.4c-0.1-0.5-0.2-1-0.1-1.5
	c0.1-0.5,0.2-1,0.5-1.4l13.5-23.3c0.5-0.9,1.4-1.5,2.4-1.8c1-0.3,2.1-0.1,3,0.4c0.9,0.5,1.5,1.4,1.8,2.4c0.3,1,0.1,2.1-0.4,3
	l-13.5,23.3c-0.3,0.6-0.8,1.1-1.4,1.4C909,593.6,908.4,593.8,907.7,593.7z"/>
<path d="M860.9,593.7c-0.7,0-1.4-0.2-2-0.5c-0.6-0.3-1.1-0.8-1.4-1.4l-13.5-23.3c-0.3-0.4-0.4-0.9-0.5-1.4c-0.1-0.5,0-1,0.1-1.5
	c0.1-0.5,0.4-1,0.7-1.4c0.3-0.4,0.7-0.7,1.1-1c0.4-0.3,0.9-0.4,1.4-0.5c0.5-0.1,1,0,1.5,0.1c0.5,0.1,1,0.4,1.4,0.7
	c0.4,0.3,0.7,0.7,1,1.1l13.5,23.3c0.3,0.4,0.4,0.9,0.5,1.4c0.1,0.5,0,1-0.1,1.5c-0.1,0.5-0.4,1-0.7,1.4c-0.3,0.4-0.7,0.7-1.1,1
	C862.3,593.6,861.6,593.8,860.9,593.7z"/>
<path class="st0" d="M907.7,668.5l-41.7,15.7v-31.4L907.7,668.5z"/>
<path class="st0" d="M712.7,770.1c31.1,0,56.3-41.9,56.3-93.5c0-51.6-25.2-93.5-56.3-93.5c-31.1,0-56.3,41.9-56.3,93.5
	C656.3,728.3,681.6,770.1,712.7,770.1z"/>
<path d="M712.7,774c-33.2,0-60.2-43.5-60.2-97.4c0-53.8,27-97.4,60.2-97.4s60.2,43.7,60.2,97.4C772.8,730.4,745.9,774,712.7,774z
	 M712.7,587.1c-28.9,0-52.4,40.2-52.4,89.6c0,49.4,23.5,89.6,52.4,89.6c28.9,0,52.4-40.2,52.4-89.6
	C765.1,627.3,741.5,587.1,712.7,587.1z"/>
<path d="M701.6,585c3.6-1.2,7.3-1.8,11.1-1.8c31.1,0,56.3,41.8,56.3,93.5c0,51.6-25.2,93.4-56.3,93.4c-3.8,0-7.5-0.6-11.1-1.8V585z"
	/>
<path d="M712.6,587.1c-1,0-2-0.4-2.7-1.1c-0.7-0.7-1.1-1.7-1.1-2.7v-27c0-1,0.4-2,1.1-2.7c0.7-0.7,1.7-1.1,2.7-1.1
	c1,0,2,0.4,2.7,1.1c0.7,0.7,1.1,1.7,1.1,2.7v27c0,1-0.4,2-1.1,2.7C714.7,586.6,713.7,587.1,712.6,587.1z"/>
<path d="M736,593.7c-0.7,0-1.3-0.2-1.9-0.5c-0.4-0.3-0.8-0.6-1.1-1c-0.3-0.4-0.5-0.9-0.7-1.4c-0.1-0.5-0.2-1-0.1-1.5
	c0.1-0.5,0.2-1,0.5-1.4l13.5-23.3c0.2-0.5,0.6-0.9,1-1.2c0.4-0.3,0.9-0.6,1.4-0.7c0.5-0.2,1-0.2,1.6-0.1c0.5,0.1,1,0.2,1.5,0.5
	c0.5,0.3,0.9,0.6,1.2,1c0.3,0.4,0.5,0.9,0.7,1.4c0.1,0.5,0.1,1.1,0,1.6c-0.1,0.5-0.3,1-0.6,1.5l-13.5,23.3c-0.3,0.6-0.8,1.1-1.4,1.4
	C737.4,593.6,736.7,593.7,736,593.7z"/>
<path d="M689.3,593.7c-0.7,0-1.4-0.2-1.9-0.5c-0.6-0.3-1.1-0.8-1.4-1.4l-13.5-23.3c-0.5-0.9-0.7-2-0.4-3c0.3-1,0.9-1.8,1.8-2.4
	c0.9-0.5,2-0.7,3-0.4c1,0.3,1.8,0.9,2.4,1.8l13.5,23.3c0.3,0.4,0.4,0.9,0.5,1.4c0.1,0.5,0,1-0.1,1.5c-0.1,0.5-0.4,1-0.7,1.4
	c-0.3,0.4-0.7,0.7-1.1,1C690.6,593.6,690,593.8,689.3,593.7z"/>
<path class="st0" d="M736,668.5l-41.6,15.7v-31.4L736,668.5z"/>
<path d="M802.9,891.8c-51,0-68.7-48.4-68.9-48.9c-0.3-1-0.3-2,0.2-3c0.4-0.9,1.2-1.6,2.2-2c1-0.3,2-0.3,3,0.2c0.9,0.4,1.7,1.2,2,2.2
	c0.7,1.8,16.2,43.7,61.6,43.7c45.4,0,61.8-43.3,61.9-43.7c0.4-0.9,1.1-1.7,2-2.1c0.9-0.4,2-0.5,2.9-0.1c1,0.3,1.7,1,2.2,2
	c0.4,0.9,0.5,2,0.2,2.9C872.1,843.4,853.8,891.8,802.9,891.8z"/>
<path d="M727.2,845.5c-4.3,0-8.5-1.1-12.2-3s-7-4.8-9.5-8.3c-0.5-0.8-0.6-1.8-0.4-2.7c0.2-0.9,0.7-1.8,1.5-2.3
	c0.8-0.6,1.7-0.8,2.7-0.7c0.9,0.1,1.8,0.5,2.5,1.2c1.8,2.5,4.1,4.5,6.8,5.9c2.7,1.4,5.7,2.1,8.7,2.2c5-0.1,9.8-2.1,13.4-5.5
	c3.6-3.5,5.8-8.1,6.1-13.1c0-0.5,0.1-1,0.4-1.5c0.2-0.5,0.5-0.9,0.9-1.3s0.8-0.6,1.3-0.8c0.5-0.2,1-0.2,1.5-0.2c0.5,0,1,0.2,1.5,0.4
	c0.5,0.2,0.9,0.6,1.2,1c0.3,0.4,0.6,0.9,0.7,1.4c0.1,0.5,0.2,1,0.1,1.6c-0.5,6.9-3.6,13.4-8.6,18.2
	C740.8,842.7,734.2,845.4,727.2,845.5z"/>
<path d="M874.5,845.5c-6.4-0.1-12.5-2.3-17.4-6.4c-4.9-4.1-8.2-9.7-9.4-16c-0.2-1,0.1-2,0.6-2.8c0.6-0.8,1.4-1.4,2.4-1.6
	c1-0.2,2,0,2.9,0.5c0.8,0.5,1.4,1.4,1.7,2.4c0.8,4.5,3.2,8.6,6.7,11.5c3.5,2.9,7.9,4.6,12.5,4.7c3.2,0,6.4-0.8,9.2-2.4
	c2.8-1.6,5.2-3.8,7-6.5c0.3-0.4,0.6-0.8,1.1-1.1c0.4-0.3,0.9-0.5,1.4-0.6c0.5-0.1,1-0.1,1.5,0c0.5,0.1,1,0.3,1.4,0.6
	c0.4,0.3,0.8,0.6,1.1,1.1c0.3,0.4,0.5,0.9,0.6,1.4c0.1,0.5,0.1,1,0,1.5c-0.1,0.5-0.3,1-0.6,1.4c-2.4,3.8-5.8,6.9-9.8,9.1
	C883.5,844.4,879.1,845.5,874.5,845.5z"/>
<path d="M804.8,790.3c-0.9,0-1.7-0.3-2.4-0.9c-0.7-0.6-1.2-1.3-1.3-2.2c-0.2-0.9-0.1-1.7,0.3-2.5c0.4-0.8,1-1.4,1.8-1.8
	c3.1-1.4,11.8-6.5,13.9-12.7c0.4-1.3,0.5-2.6,0.4-3.9c-0.1-1.3-0.5-2.6-1.2-3.7c-0.5-1.1-1.3-2.1-2.2-2.9c-1-0.8-2.1-1.4-3.3-1.6
	c-5.7-1.2-13.5,3.8-16,5.8c-0.4,0.3-0.9,0.6-1.4,0.8c-0.5,0.2-1,0.2-1.5,0.2c-0.5,0-1-0.2-1.5-0.4c-0.5-0.2-0.9-0.6-1.2-1
	c-0.3-0.4-0.6-0.9-0.7-1.4c-0.1-0.5-0.2-1-0.1-1.6c0.1-0.5,0.2-1,0.5-1.5c0.3-0.4,0.6-0.8,1.1-1.1c1.2-1,12.1-9.3,22.4-7.3
	c2.3,0.5,4.5,1.5,6.4,3c1.9,1.5,3.4,3.4,4.4,5.5c1.2,2.1,1.9,4.4,2.1,6.7c0.2,2.4,0,4.8-0.8,7c-3.7,10.7-17.4,17-18,17.3
	C805.9,790.2,805.3,790.3,804.8,790.3z"/>
<path d="M226.9,640.3c-40-8-70.2-29.3-89-63.2c-16-28.9-19.5-59.1-10.5-89.3C149.9,411.9,244,361.3,248,359.2c1.8-1,3.8-1.5,5.8-1.7
	c2-0.2,4.1,0,6,0.6c2,0.6,3.8,1.6,5.3,2.9c1.6,1.3,2.9,2.9,3.8,4.7c1,1.8,1.5,3.8,1.7,5.8c0.2,2,0,4.1-0.6,6c-0.6,2-1.6,3.8-2.9,5.3
	c-1.3,1.6-2.9,2.9-4.7,3.8c-0.8,0.5-86.7,46.6-105.4,110.1c-6.6,22.4-4,43.7,7.9,65.3c56.7,102.6,235.8,18,237.6,17.1
	c3.7-1.6,7.8-1.7,11.6-0.3c3.8,1.4,6.8,4.2,8.6,7.8c1.7,3.6,2,7.8,0.8,11.6c-1.2,3.8-3.9,7-7.5,8.9c-34.7,15.9-71.4,27.1-109.1,33.4
	C277.1,645.1,250.3,645,226.9,640.3z"/>
<path class="st0" d="M435.2,244.7c33.5,3.1,21.8,28.9,21.8,28.9l0.4,0.3c5.4,3.5,12.2,8.5,12,15.7c-0.3,10.7-12.8,17.9-21,22.7
	c-12.1,7.1-24.9,12.7-37.3,19.6c-5.2,3.1-10.3,6.2-15.3,9.3c-2.8,1.8-5.6,3.7-8.3,5.6c-1.4,1-2.8,2-8.3,5.8
	c14.6,1.7,54,11.6,51,30.1c-1.7,10.6-15.2,17.4-33.5,19.1c-29.4,2.9-78.9-11.1-87.7-14.6c0.8,9.3-0.9,16.5-6.2,19.5
	c-28.6,16.4-86.8-82.2-57-99.5c7-4.1,15.2-1.5,23.3,4.9c2.7-11.3,13.9-45.4,56.1-72.8c21.1-13.7,50.3-17.1,75.4-16.6
	c9.9,0.2,30.7,1.3,35.3,12.4C437.3,238.2,436,241.6,435.2,244.7z"/>
<path d="M296,412.6c-15.9,0-34.6-19.7-47-41.1c-15.2-26.2-22.6-57.3-5-67.5c4.8-2.8,12.4-4.5,22.9,1.9c4.9-15.8,18.7-45.2,56.3-69.7
	c23.2-15.1,55-17.7,77.7-17.2c22.1,0.5,34.8,5.3,38.8,14.8c0.9,2.5,1.1,5.2,0.5,7.7c9.8,1.6,16.5,5.6,20,11.7
	c1.5,2.9,2.4,6.1,2.6,9.3c0.3,3.3-0.2,6.5-1.2,9.6c4.9,3.3,11.9,9,11.6,17.7c-0.4,12.7-13.8,20.6-22.7,25.8
	c-6.7,3.9-13.5,7.3-20,10.6c-5.8,2.9-11.8,5.9-17.4,9.1c-5,2.9-10.1,6-15,9.3c-2.8,1.8-5.5,3.7-8.2,5.6l-0.6,0.4
	c13.2,2.8,33.2,9,41.3,19.8c1.5,1.8,2.6,3.9,3.2,6.2c0.6,2.3,0.7,4.6,0.3,6.9c-2,11.9-15.8,20.3-37,22.4c-26.7,2.6-68-7.9-83.9-13
	c-0.3,10.4-4.5,15.2-8.3,17.4C302.2,411.9,299.1,412.6,296,412.6z M253.2,309.2c-1.9,0-3.7,0.5-5.3,1.4c-12.4,7.2-5.4,34,7.8,56.9
	c13.2,22.9,33.3,42.8,45.3,35.9c4.7-2.7,4.6-11,4.2-15.8c-0.1-0.7,0.1-1.3,0.3-1.9c0.3-0.6,0.7-1.1,1.2-1.5c0.5-0.4,1.2-0.7,1.8-0.7
	c0.7-0.1,1.3,0,1.9,0.2c7.8,3.1,57,17.1,85.9,14.3c17.2-1.6,28.7-7.7,30-15.9c0.2-1.3,0.1-2.6-0.2-3.8s-1-2.4-1.8-3.4
	c-8.1-10.8-34.7-17.2-45.5-18.4c-0.8-0.1-1.5-0.4-2.1-0.9c-0.6-0.5-1-1.2-1.2-2c-0.2-0.8-0.2-1.6,0.1-2.3c0.3-0.7,0.8-1.4,1.4-1.8
	l6.2-4.4l2-1.4c2.8-2,5.6-3.9,8.4-5.7c5.1-3.4,10.3-6.6,15.5-9.5c5.8-3.3,11.9-6.2,17.8-9.3c6.4-3.1,13.1-6.6,19.4-10.3
	c7.6-4.5,18.7-11,19.1-19.5c0.2-4.9-5.1-9-10.2-12.4c-0.8-0.5-1.5-1.3-1.8-2.3c-0.3-0.9-0.3-2,0-2.9c0,0,3.8-8.5,0-15
	c-2.7-4.7-9-7.6-18.5-8.4c-0.6,0-1.1-0.2-1.6-0.5c-0.5-0.3-0.9-0.7-1.2-1.1c-0.3-0.4-0.5-1-0.6-1.5c-0.1-0.5-0.1-1.1,0-1.6
	c0.2-0.5,0.3-1.1,0.4-1.6c0.7-1.7,0.9-3.6,0.6-5.5c-1.8-4.3-8.8-9.6-31.8-10c-21.5-0.5-51.6,1.9-73.2,15.9
	c-41.5,27-52.3,60.7-54.5,70.5c-0.1,0.6-0.5,1.2-0.9,1.7c-0.4,0.5-1,0.9-1.6,1.1c-0.6,0.2-1.3,0.3-1.9,0.2c-0.6-0.1-1.2-0.4-1.7-0.8
	C263,311.7,258.2,309.6,253.2,309.2L253.2,309.2z"/>
<path class="st0" d="M352.3,267.5c25.4-13.2,53.2-21.1,81.8-23.3L352.3,267.5z"/>
<path d="M352.3,271.4c-0.9,0-1.7-0.3-2.4-0.8c-0.7-0.5-1.2-1.3-1.4-2.1c-0.2-0.8-0.2-1.7,0.2-2.5c0.3-0.8,0.9-1.5,1.7-1.9
	c25.9-13.5,54.2-21.6,83.3-23.8c1-0.1,2,0.3,2.8,1c0.8,0.7,1.3,1.6,1.4,2.6c0,0.5,0,1-0.2,1.5c-0.2,0.5-0.4,0.9-0.8,1.3
	c-0.3,0.4-0.7,0.7-1.2,0.9c-0.5,0.2-1,0.4-1.5,0.4c-28,2.2-55.2,10-80.1,22.8C353.6,271.2,353,271.4,352.3,271.4z"/>
<path class="st0" d="M381.5,299.2c0,0,35.3-22.9,74.2-26.1L381.5,299.2z"/>
<path d="M381.5,303.1c-0.8,0-1.7-0.3-2.3-0.8c-0.7-0.5-1.2-1.2-1.4-2s-0.2-1.7,0.1-2.5c0.3-0.8,0.8-1.5,1.5-1.9
	c1.5-1,36.6-23.4,76-26.7c0.5-0.1,1,0,1.5,0.1c0.5,0.1,1,0.4,1.4,0.7c0.4,0.3,0.7,0.7,1,1.2c0.2,0.5,0.4,1,0.4,1.5
	c0,0.5,0,1-0.2,1.5c-0.2,0.5-0.4,1-0.8,1.3c-0.3,0.4-0.8,0.7-1.2,0.9c-0.5,0.2-1,0.4-1.5,0.4c-37.3,3.1-72.1,25.2-72.4,25.5
	C383,302.9,382.3,303.1,381.5,303.1z"/>
<path class="st0" d="M347.3,1131.9l-83.9,8.3l-14,10.1c0,0-121.6-71.8-148.2,16.6c-22.6,75.3,87.8,88,159.1,81
	C331.7,1240.9,410.2,1247.9,347.3,1131.9z"/>
<path d="M225.4,1253.5c-47,0-97.7-9.3-119.7-36c-11.5-14-14.2-31.4-8.1-51.7c6.2-21.1,18.5-35.3,36-42.1
	c42.6-16.6,103.2,15,115.7,22l11.9-8.6c0.6-0.4,1.2-0.7,1.9-0.7l83.9-8.3c0.8-0.1,1.5,0.1,2.2,0.4c0.7,0.4,1.2,0.9,1.6,1.6
	c23,42.5,29,71.2,18.7,90.2c-13.1,24-49.3,26.8-87.6,29.8c-6.9,0.5-14,1.1-21,1.8C249.6,1252.8,237.6,1253.5,225.4,1253.5z
	 M161.1,1126.7c-8.4-0.1-16.7,1.3-24.6,4.2c-15.2,6.1-25.8,18.5-31.4,37.2c-5.3,17.7-3.1,32.7,6.7,44.6
	c24.2,29.4,91.9,37,148.4,31.4c7.1-0.7,14.2-1.2,21.1-1.8c36.2-2.8,70.3-5.5,81.4-25.7c8.6-15.9,3-42.2-17.4-80.5L265,1144
	l-13.2,9.3c-0.6,0.4-1.3,0.7-2.1,0.7c-0.8,0-1.5-0.1-2.1-0.5C247.2,1153.3,201.3,1126.7,161.1,1126.7z"/>
<path class="st0" d="M364.7,1111.3c-7.1-10.1-29.1-14.1-49.4-13.5c-32,1.1-65.3,13.2-65.9,31.6c0,5.2,2.7,9.3,8.6,12.7
	c21.2,11.9,73.4,7.2,98-8.8c5.4-3.5,11.6-9.1,11-16C366.8,1115.2,366,1113.1,364.7,1111.3z"/>
<path d="M292.9,1152.7c-14.6,0-28-2.3-36.7-7.2c-7.2-4-10.7-9.5-10.6-16.2c0.6-21.5,36.3-34.2,69.6-35.4
	c19.9-0.7,44.1,2.9,52.7,15.1c1.7,2.3,2.8,5.1,3.1,8c0.7,7-3.8,13.7-12.7,19.6C342.2,1147,316,1152.7,292.9,1152.7z M319.7,1101.6
	c-1.4,0-2.8,0-4.2,0c-29.7,1-61.7,12.4-62.2,27.8c0,2.6,0.6,5.9,6.6,9.3c19.8,11.1,70.8,6.4,94-8.7c3.7-2.4,9.7-7.1,9.3-12.4
	c-0.1-1.5-0.7-3-1.6-4.2C356.5,1106.3,339.6,1101.6,319.7,1101.6z"/>
<path d="M256.2,1179.6c-0.9,0-1.7-0.3-2.4-0.8c-0.7-0.5-1.2-1.3-1.4-2.1l-6.7-25.4c-0.2-0.7-0.2-1.4,0-2.1c0.2-0.7,0.6-1.3,1.2-1.8
	c0.5-0.5,1.2-0.8,1.9-0.9c0.7-0.1,1.4,0,2.1,0.2c9,3.7,17.3,9,24.4,15.5c0.7,0.8,1,1.7,1,2.7c0,1-0.5,1.9-1.2,2.6
	c-0.7,0.7-1.7,1.1-2.7,1.1c-1,0-2-0.4-2.7-1c-4.3-4.1-9.1-7.6-14.4-10.3l4.5,17.3c0.3,1,0.1,2.1-0.4,2.9c-0.5,0.9-1.4,1.5-2.4,1.8
	C256.9,1179.5,256.5,1179.6,256.2,1179.6z"/>
<path d="M188.9,927.5c-0.9-21.7,4.3-40.4,15.8-56c5.8-7.8,13.1-14.4,21.5-19.2c8.4-4.9,17.7-8,27.3-9.1
	c75.6-10.9,188.3,73.8,193.1,77.4c1.6,1.2,3,2.8,4,4.5c1,1.8,1.7,3.7,2,5.7c0.3,2,0.2,4.1-0.3,6.1c-0.5,2-1.4,3.8-2.6,5.5
	c-1.2,1.6-2.8,3-4.5,4c-1.8,1-3.7,1.7-5.7,2c-2,0.3-4.1,0.2-6.1-0.3c-2-0.5-3.8-1.4-5.5-2.6c-29.6-22.4-117.8-78.9-169.9-71.5
	c-5.6,0.6-10.9,2.3-15.8,5.1c-4.9,2.8-9.1,6.5-12.4,11c-39,52.9,49.1,170.6,86.4,211.4c2.8,3,4.2,7.1,4,11.2c-0.2,4.1-2,8-5.1,10.8
	c-3,2.8-7.1,4.2-11.2,4c-4.1-0.2-8-2-10.8-5.1c-24.8-28-47-58.2-66.3-90.2C202.9,992,190.2,956.9,188.9,927.5z"/>
</svg>
