<?xml version="1.0" encoding="utf-8"?>
<!-- Generator: Adobe Illustrator 25.2.3, SVG Export Plug-In . SVG Version: 6.00 Build 0)  -->
<svg version="1.1" id="Layer_1" xmlns="http://www.w3.org/2000/svg" xmlns:xlink="http://www.w3.org/1999/xlink" x="0px" y="0px"
	 viewBox="0 0 1500 1421.1" style="enable-background:new 0 0 1500 1421.1;" xml:space="preserve">
<style type="text/css">
	.st0{fill:#FFFFFF;}
	.st1{fill:#FA646B;}
	.st2{fill:#558203;}
</style>
<path class="st0" d="M1027.7,1122.2l-65.2,14.5l-10.1,9.3c0,0-102.5-45-115.1,27.1c-10.7,61.4,77.4,60.9,132.9,48.6
	C1025.9,1209.5,1088.2,1207.6,1027.7,1122.2z"/>
<path d="M912.6,1231.5c-27.1,0-52.6-5.1-67.1-18.9c-10.4-9.9-14.2-23.3-11.3-40c3-17.3,11.2-29.6,24.3-36.6c32-17.1,82.6,2,93.2,6.4
	l8.6-7.9c0.4-0.4,0.9-0.6,1.4-0.7l65.2-14.5c0.6-0.1,1.2-0.1,1.8,0.1c0.6,0.2,1.1,0.6,1.4,1.1c22.2,31.3,29.6,53.3,23.2,69.2
	c-8,20.1-36.2,25.8-66.1,31.8c-5.4,1.1-10.9,2.2-16.3,3.4C951.8,1229.1,932.3,1231.3,912.6,1231.5z M890.5,1135.3
	c-10-0.3-19.9,1.8-28.9,6.2c-11.4,6.1-18.5,17-21.2,32.2c-2.5,14.4,0.7,26,9.5,34.5c21.8,20.8,75.9,20.4,119.8,10.6
	c5.5-1.2,11-2.3,16.5-3.4c28.2-5.6,54.9-11,61.6-28c5.3-13.4-1.7-33.6-21.3-61.6l-62.4,13.7l-9.4,8.7c-0.4,0.4-1,0.7-1.6,0.8
	c-0.6,0.1-1.2,0-1.7-0.2C950.8,1148.6,919.7,1135.2,890.5,1135.3L890.5,1135.3z"/>
<path class="st0" d="M1039.4,1104.3c-6.6-7.3-24.3-8.4-40.2-5.9c-25.1,3.9-50.2,16.6-48.8,31.1c0.4,4.2,3,7.2,8,9.2
	c17.8,7.4,58.5-1.3,76.4-16.2c3.9-3.2,8.3-8.2,7.1-13.6C1041.5,1107.2,1040.7,1105.6,1039.4,1104.3z"/>
<path d="M975.3,1144.5c-6.2,0.2-12.3-0.8-18.1-2.9c-6-2.5-9.4-6.5-9.9-11.8c-1.6-17,25.3-30.4,51.4-34.5c15.6-2.5,35-1.8,42.9,6.9
	c1.6,1.7,2.6,3.8,3.1,6c1.2,5.4-1.7,11.2-8.2,16.6C1022.6,1136.7,996,1144.5,975.3,1144.5z M1014.1,1100.4c-4.8,0-9.6,0.4-14.4,1.1
	c-23.2,3.6-47.4,15.6-46.2,27.8c0.2,2,1.1,4.6,6.1,6.7c16.7,6.9,56.3-1.7,73.1-15.8c2.7-2.2,7-6.5,6.1-10.6
	c-0.3-1.2-0.8-2.3-1.7-3.2C1033.6,1102.5,1024.9,1100.4,1014.1,1100.4z"/>
<path d="M960.1,1168.5c-0.6,0-1.2-0.2-1.7-0.5c-0.5-0.3-0.9-0.8-1.1-1.4l-7.6-19.4c-0.2-0.5-0.3-1.1-0.2-1.7
	c0.1-0.6,0.3-1.1,0.7-1.5c0.4-0.4,0.9-0.7,1.4-0.9c0.6-0.2,1.1-0.2,1.7,0c7.4,2,14.4,5.4,20.7,9.9c0.3,0.2,0.6,0.6,0.8,0.9
	c0.2,0.4,0.4,0.8,0.4,1.2c0.1,0.4,0,0.8-0.1,1.2c-0.1,0.4-0.3,0.8-0.6,1.1c-0.3,0.3-0.6,0.6-1,0.8c-0.4,0.2-0.8,0.3-1.2,0.3
	c-0.4,0-0.8,0-1.2-0.2c-0.4-0.1-0.8-0.4-1.1-0.6c-3.8-2.8-7.9-5.1-12.3-6.7l5.2,13.2c0.3,0.8,0.3,1.6-0.1,2.4
	c-0.3,0.7-0.9,1.3-1.7,1.6C960.8,1168.3,960.5,1168.4,960.1,1168.5z"/>
<path class="st0" d="M471.8,1151.7l-66.6,6.6l-11.1,8c0,0-96.4-56.9-117.5,13.2c-17.7,59.8,69.7,69.6,126.3,64.2
	C459.5,1238.2,521.7,1243.7,471.8,1151.7z"/>
<path d="M375.1,1248.1c-37.3,0-77.4-7.4-94.9-28.5c-9.1-11.1-11.3-24.9-6.4-41c4.9-16.7,14.6-28,28.6-33.4
	c33.7-13.2,81.8,11.9,91.7,17.5l9.5-6.8c0.4-0.3,0.9-0.5,1.5-0.6l66.6-6.6c0.6-0.1,1.2,0.1,1.7,0.4c0.5,0.3,1,0.7,1.3,1.2
	c18.3,33.7,23,56.4,14.8,71.5c-10.3,19-39,21.2-69.4,23.6c-5.5,0.4-11.1,0.9-16.6,1.4C394.3,1247.6,384.8,1248.1,375.1,1248.1z
	 M324.1,1147.5c-6.7-0.1-13.3,1-19.5,3.4c-12.1,4.7-20.4,14.6-24.9,29.4c-4.2,14-2.5,25.9,5.3,35.3c19.2,23.3,72.9,29.3,117.6,24.9
	c5.6-0.5,11.3-1,16.8-1.4c28.7-2.2,55.8-4.3,64.5-20.4c6.9-12.6,2.5-33.5-13.8-63.8l-63.6,6.3l-10.4,7.4c-0.5,0.3-1.1,0.6-1.7,0.6
	c-0.6,0-1.2-0.1-1.7-0.4C392.3,1168.7,356,1147.5,324.1,1147.5z"/>
<path class="st0" d="M485.7,1135.3c-5.6-8-23.1-11.2-39.2-10.7c-25.4,0.8-51.8,10.4-52.2,25c0,4.2,2.1,7.4,6.8,10.1
	c16.8,9.4,58.2,5.7,77.7-7c4.2-2.8,9.2-7.2,8.7-12.6C487.4,1138.4,486.7,1136.7,485.7,1135.3z"/>
<path d="M428.6,1168.2c-11.6,0-22.2-1.8-29.1-5.7c-5.7-3.2-8.5-7.4-8.4-12.9c0.4-17.1,28.8-27.1,55.2-28c15.7-0.5,35,2.5,41.9,12
	c1.4,1.9,2.2,4,2.5,6.3c0.5,5.5-3,10.9-10.1,15.5C467.8,1163.6,446.9,1168.2,428.6,1168.2z M449.9,1127.7h-3.4
	c-23.5,0.8-48.9,9.9-49.3,22c0,2.1,0.5,4.7,5.2,7.4c15.7,8.8,56.1,4.9,74.5-6.9c2.9-1.9,7.7-5.7,7.4-9.9c-0.1-1.2-0.6-2.4-1.3-3.4
	C479.1,1131.4,465.7,1127.7,449.9,1127.7z"/>
<path d="M399.5,1189.5c-0.7,0-1.3-0.2-1.9-0.6c-0.5-0.4-0.9-1-1.1-1.7l-5.3-20.2c-0.1-0.6-0.1-1.1,0-1.7c0.2-0.6,0.5-1,0.9-1.4
	c0.4-0.4,1-0.6,1.5-0.7c0.6-0.1,1.1,0,1.7,0.2c7.1,2.9,13.7,7.1,19.4,12.3c0.3,0.3,0.5,0.6,0.7,1c0.1,0.4,0.2,0.8,0.2,1.2
	c0,0.4-0.1,0.8-0.3,1.2c-0.2,0.4-0.4,0.7-0.7,1c-0.3,0.3-0.6,0.5-1,0.7c-0.4,0.1-0.8,0.2-1.2,0.2c-0.4,0-0.8-0.1-1.2-0.3
	c-0.4-0.2-0.7-0.4-1-0.7c-3.4-3.3-7.2-6-11.4-8.1l3.6,13.7c0.2,0.8,0.1,1.6-0.3,2.3c-0.4,0.7-1.1,1.2-1.9,1.4
	C400.1,1189.4,399.8,1189.5,399.5,1189.5z"/>
<path class="st0" d="M680.8,1034.2l-38.4,54.7l-1.2,13.6c0,0-106,35.9-66.8,97.6c33.5,52.6,98.3-7.1,131-53.6
	C738.2,1100,783,1056.5,680.8,1034.2z"/>
<path d="M608.1,1223.6h-1c-14.3-0.3-26.2-7.7-35.3-21.9c-9.4-14.8-11.6-29.3-6.7-43.4c12-34.1,62.4-54.2,73.1-58.1l1-11.6
	c0-0.5,0.2-1.1,0.5-1.5l38.4-54.6c0.4-0.5,0.8-0.9,1.4-1.1c0.6-0.2,1.2-0.3,1.8-0.1c37.5,8.2,57.7,19.5,63.8,35.5
	c7.6,20.2-9.4,43.4-27.5,68c-3.2,4.4-6.6,9-9.9,13.5C683.4,1183.1,642.6,1223.6,608.1,1223.6z M645.4,1089.9l-1.1,12.8
	c-0.1,0.6-0.3,1.2-0.6,1.6c-0.4,0.5-0.9,0.8-1.4,1c-0.6,0.2-59,20.3-71.2,55c-4.3,12.3-2.3,25,6.1,38.1c7.9,12.3,18,18.8,30.2,19.1
	c30.2,0.7,69.8-36.1,95.7-72.8c3.2-4.6,6.6-9.2,9.9-13.6c17-23.2,33.1-45.1,26.7-62.2c-5.1-13.4-23.8-23.7-57.3-31.2L645.4,1089.9z"
	/>
<path class="st0" d="M677.4,1013c-9.9-0.9-23.5,10.2-33.6,22.7c-15.9,19.7-26,46.1-15.1,55.9c3.1,2.8,7.1,3.3,12.1,1.4
	c18.1-6.6,42.3-40.4,45.4-63.4c0.7-4.9,0.6-11.7-3.9-14.8C680.8,1013.8,679.2,1013.2,677.4,1013z"/>
<path d="M635.2,1097.3c-3.2,0-6.3-1.2-8.7-3.4c-12.6-11.5-1.8-39.4,14.8-60.1c9.9-12.3,24.7-24.9,36.3-23.8c2.3,0.2,4.5,1.1,6.4,2.5
	c4.5,3.2,6.3,9.4,5.2,17.8c-3.3,24.4-28.2,58.9-47.4,65.9C639.7,1096.9,637.4,1097.3,635.2,1097.3z M676.2,1016.1
	c-7.4,0-19.7,8.7-30.1,21.6c-14.8,18.3-24.7,43.5-15.5,51.8c1.5,1.4,3.9,2.7,9,0.8c16.9-6.2,40.5-39.2,43.4-60.9
	c0.5-3.4,0.7-9.5-2.6-12c-1-0.7-2.2-1.1-3.4-1.2h-0.9V1016.1z"/>
<path d="M659.9,1114.7c-0.5,0-0.9-0.1-1.4-0.3l-18.7-9.2c-0.5-0.3-0.9-0.7-1.2-1.1c-0.3-0.5-0.5-1-0.5-1.6s0.2-1.1,0.5-1.6
	c0.3-0.5,0.7-0.9,1.2-1.1c6.9-3.5,14.3-5.7,22-6.6c0.8,0,1.5,0.3,2.1,0.8c0.6,0.5,0.9,1.3,1,2.1c0,0.8-0.2,1.6-0.7,2.2s-1.2,1-2,1.1
	c-4.7,0.4-9.3,1.6-13.6,3.4l12.7,6.2c0.4,0.2,0.7,0.4,1,0.7c0.3,0.3,0.5,0.7,0.6,1c0.1,0.4,0.2,0.8,0.2,1.2c0,0.4-0.1,0.8-0.3,1.2
	c-0.3,0.5-0.7,1-1.2,1.3C661.1,1114.5,660.5,1114.7,659.9,1114.7z"/>
<path d="M440.3,1150.8c1.2,0,2.4-0.2,3.6-0.5c3.1-1,5.7-3.1,7.3-6c1.5-2.9,1.9-6.3,0.9-9.4c-29.4-97-39-230.9,5.8-311.4
	c1.6-2.9,2-6.2,1.1-9.4c-0.9-3.1-3-5.8-5.9-7.4c-2.9-1.6-6.2-2-9.4-1.1c-3.1,0.9-5.8,3-7.4,5.9c-48.3,86.8-38.7,228.5-7.8,330.5
	c0.8,2.5,2.3,4.8,4.5,6.3C435.1,1150,437.6,1150.8,440.3,1150.8z"/>
<path d="M994.4,1124.7c1.2-0.2,2.4-0.5,3.5-1c3-1.3,5.3-3.8,6.5-6.8c1.2-3,1.1-6.4-0.2-9.4c-40.8-92.6-66.4-224.5-31.6-309.8
	c0.6-1.5,0.9-3.1,0.9-4.7c0-1.6-0.3-3.2-1-4.7c-0.6-1.5-1.5-2.8-2.7-4c-1.2-1.1-2.5-2-4-2.7c-1.5-0.6-3.1-0.9-4.7-0.9
	c-1.6,0-3.2,0.3-4.7,1s-2.8,1.5-4,2.7c-1.1,1.2-2,2.5-2.7,4c-37.5,92-11.1,231.5,31.8,329.1c1.1,2.4,2.9,4.4,5.2,5.7
	C989.1,1124.5,991.7,1125,994.4,1124.7z"/>
<path d="M652.3,1062c3.3,0.1,6.4-1.1,8.8-3.4c2.4-2.3,3.7-5.4,3.8-8.6c0.1-3.3-1.1-6.4-3.4-8.8c-2.3-2.4-5.4-3.7-8.6-3.8
	c-35.2-1.8-93.1-33.4-125-81.4c-15.4-23.1-30.7-59.3-15.9-100.6c1.1-3.1,0.9-6.5-0.5-9.4c-1.4-3-3.9-5.2-7-6.3
	c-3.1-1.1-6.5-0.9-9.4,0.5c-3,1.4-5.2,3.9-6.3,7c-14.4,40.3-8,82.7,18.6,122.5c36.7,55,102.2,90.2,144.3,92.3H652.3z"/>
<path class="st0" d="M1183.3,773.3l44.1,50.2l12.9,4.4c0,0,9.9,111.6,79.1,87.9c59-20.1,16.2-97.2-21.2-140
	C1260.8,733,1229.2,679.2,1183.3,773.3z"/>
<path d="M1301.2,922.1c-8.7,0.1-17.2-2.5-24.5-7.2c-30.3-19.7-37.9-73.4-39.2-84.7l-11.1-3.8c-0.5-0.2-1-0.5-1.3-0.9l-44.1-50.2
	c-0.4-0.5-0.7-1-0.7-1.6c-0.1-0.6,0-1.2,0.3-1.8c16.8-34.5,32.5-51.5,49.5-53.6c21.4-2.7,40,19.4,59.6,42.7
	c3.5,4.2,7.2,8.5,10.8,12.7c28.4,32.5,58.5,82.3,49.5,115.9c-3.7,13.9-13.7,23.6-29.6,29.1C1314.4,920.9,1307.8,922.1,1301.2,922.1z
	 M1229.3,820.8l12.2,4.1c0.6,0.2,1.1,0.5,1.4,1c0.4,0.5,0.6,1,0.6,1.6c0,0.6,5.9,62.1,36.6,82.1c10.8,7.1,23.8,8.1,38.4,3.1
	c13.9-4.7,22.5-13.1,25.6-24.9c7.8-29.1-18.6-76.4-48.2-110.1c-3.7-4.2-7.4-8.6-10.9-12.8c-18.5-22-36-42.8-54.2-40.6
	c-14.2,1.8-28.6,17.6-43.8,48.4L1229.3,820.8z"/>
<path class="st0" d="M1162.1,771.6c-3.2,9.2,4.4,25.3,14.1,38.1c15.5,20.1,38.7,36.1,50.8,27.9c3.5-2.5,4.9-6.1,4.3-11.4
	c-2.1-19.1-29.3-50.6-50.9-59.2c-4.7-1.8-11.2-3.3-15.4,0.3C1163.7,768.4,1162.7,769.9,1162.1,771.6z"/>
<path d="M1219.4,842.8c-14.1,0-32.6-14.4-45.6-31.3c-9.6-12.5-18.5-29.8-14.6-40.9c0.7-2.2,2-4.1,3.8-5.6c4.2-3.6,10.6-3.9,18.5-0.8
	c22.9,9,50.6,41.2,52.9,61.6c0.7,6.5-1.2,11.3-5.6,14.3C1225.9,841.9,1222.7,842.9,1219.4,842.8z M1165,772.6
	c-2.5,7,3.2,21.5,13.7,35.2c14.3,18.7,36.4,34.1,46.6,27.1c1.7-1.2,3.5-3.2,2.9-8.6c-2-17.9-28.5-48.6-49-56.7
	c-3.2-1.3-9.1-3-12.3-0.2c-0.9,0.8-1.6,1.8-2,3L1165,772.6z"/>
<path d="M1240.4,831c-0.2,0-0.5,0-0.7,0c-0.6-0.1-1.1-0.4-1.5-0.8c-0.4-0.4-0.7-0.9-0.8-1.5c-1.7-7.5-2.2-15.3-1.2-22.9
	c0.2-0.8,0.6-1.5,1.3-2c0.7-0.5,1.5-0.6,2.3-0.5c0.8,0.1,1.5,0.6,2,1.3c0.5,0.7,0.6,1.5,0.5,2.3c-0.7,4.7-0.7,9.4,0,14l9.1-10.9
	c0.5-0.6,1.3-1,2.1-1.1c0.8-0.1,1.6,0.2,2.3,0.7c0.6,0.5,1,1.3,1.1,2.1c0.1,0.8-0.2,1.6-0.7,2.3l-13.3,16c-0.3,0.3-0.7,0.6-1.1,0.8
	C1241.3,830.9,1240.9,831,1240.4,831z"/>
<path d="M1124.8,969.8c-13.5,10.6-28,15.8-43.3,15.5c-7.7-0.1-15.3-1.8-22.3-4.9c-7-3.2-13.3-7.7-18.5-13.4
	c-41.9-43.7-39.4-155.5-39.2-160.2c0-1.6,0.4-3.2,1.1-4.7c0.7-1.5,1.6-2.8,2.8-3.9c2.4-2.2,5.5-3.5,8.8-3.4c1.6,0,3.2,0.4,4.7,1.1
	c1.5,0.7,2.8,1.6,3.9,2.8c1.1,1.2,2,2.6,2.6,4.1c0.6,1.5,0.9,3.1,0.8,4.7c-0.8,29.4,3.5,112.4,32.3,142.5c2.9,3.3,6.5,6,10.5,7.8
	c4,1.9,8.4,2.9,12.8,3c52.1,0.8,87.3-110.4,96.4-153.3c0.3-1.6,0.9-3.1,1.9-4.5c0.9-1.4,2.1-2.5,3.4-3.4c1.4-0.9,2.9-1.5,4.5-1.8
	c1.6-0.3,3.3-0.3,4.9,0.1c1.6,0.3,3.1,1,4.5,1.9c1.3,0.9,2.5,2.1,3.4,3.5c0.9,1.4,1.5,2.9,1.8,4.5c0.3,1.6,0.2,3.3-0.1,4.9
	c-6.6,28.9-15.8,57.1-27.5,84.3C1159.9,931.1,1143.1,955.4,1124.8,969.8z"/>
<path d="M336.2,648.3c3-1,5.5-3.1,7-6c1.5-2.8,1.8-6.1,0.9-9.2c-0.9-3.1-2.9-5.7-5.7-7.2c-2.8-1.6-6-2.1-9.1-1.3
	c-59.8,15.4-99.7,11.2-118.6-12.3c-36.6-45.5,7.6-158.7,27.7-198.5c1.5-2.9,1.7-6.3,0.7-9.4c-1-3.1-3.2-5.7-6.2-7.2
	c-2.9-1.5-6.3-1.7-9.4-0.7c-3.1,1-5.7,3.2-7.2,6.2c-3.2,6.4-78.9,158-24.9,225c25.5,31.8,74,38.7,144,20.7L336.2,648.3z"/>
<path class="st0" d="M172.2,316.7c12.1-29.6,40.2-13.5,42.8-6.5c2.9-27.7,7.9-79.4,34.7-71.3c33.4,10.1,4.6,86.9,4.6,86.9
	s37-69.6,61.9-47.8c19.1,16.7-16.6,74.3-33,90.9c0,0,20.3,32.9,9.2,51.8c-11.2,18.9-35.4,19.7-35.4,19.7s13.7,26.7-17.5,30
	c-31.2,3.3-94.1-12.3-71.2-48c0,0-32.3-24.8,2.3-57C170.6,365.5,159.9,346.8,172.2,316.7z"/>
<path d="M230.7,474.1c-23.9,0-56.7-8.3-67-25.1c-3.4-5.5-5.9-14.3,0.6-25.8c-3.9-3.7-12.1-12.9-12.7-25.8
	c-0.5-11.1,4.6-22,15.3-32.5c-2.5-6-8-23.6,2.5-49.2c6.9-16.9,18.6-19.1,25-19.1c6.6,0.3,13,2.6,18.3,6.5c2.5-23.7,6.9-55.1,21.7-65
	c2.4-1.6,5.1-2.6,7.9-2.9c2.8-0.4,5.7-0.1,8.4,0.9c3.1,0.9,6,2.5,8.4,4.6c2.4,2.1,4.4,4.7,5.7,7.7c7.2,14.6,3.6,38.4-0.7,56
	c9.9-14,24-30.6,37.8-33.2c2.9-0.6,5.9-0.4,8.7,0.4c2.8,0.8,5.5,2.3,7.6,4.3c2.1,2,3.8,4.4,4.9,7c1.1,2.7,1.7,5.5,1.6,8.4
	c0.9,24.1-23.5,62.8-37.7,78.2c4.4,7.8,18.4,35.3,8,52.9c-9.1,15.4-25.8,19.7-33.7,20.9c1.6,4.6,3.1,12.3-0.5,19.2
	c-3.6,6.9-10.5,10.1-21,11.2C236.7,474,233.7,474.1,230.7,474.1z M193.9,302.7c-8.4,0-14.8,5.1-18.9,15.3
	c-11.6,28.4-1.9,45.8-1.8,46c0.3,0.6,0.5,1.3,0.4,2c-0.1,0.7-0.4,1.3-0.9,1.8c-10.4,9.7-15.5,19.6-15,29.3c0.7,13.9,12.3,23,12.3,23
	c0.6,0.5,1,1.1,1.2,1.9c0.1,0.8,0,1.5-0.4,2.2c-5.2,8.1-5.8,15.2-1.9,21.6c10.3,16.7,48.4,24.1,70.2,21.8c8.4-0.9,13.8-3.6,16.2-8
	c3.9-7.2-1.1-17.3-1.2-17.5c-0.2-0.5-0.4-1-0.3-1.5c0-0.5,0.2-1,0.4-1.5c0.3-0.4,0.6-0.8,1.1-1.1c0.4-0.3,0.9-0.4,1.5-0.4
	c0.2,0,22.8-1.1,32.9-18.3c10.2-17.2-8.9-48.3-9.1-48.6c-0.4-0.6-0.5-1.3-0.4-2c0.1-0.7,0.4-1.3,0.9-1.8
	c13.4-13.5,38.4-53.4,37.6-75.4c0.1-2.1-0.3-4.1-1-6c-0.8-1.9-1.9-3.6-3.4-5.1c-1.5-1.4-3.3-2.4-5.2-3c-1.9-0.6-4-0.6-6-0.2
	c-21.1,3.9-45.7,49.7-46,50.2c-0.4,0.6-1,1.1-1.7,1.4c-0.7,0.2-1.5,0.2-2.2-0.1c-0.7-0.3-1.2-0.8-1.6-1.5c-0.3-0.7-0.4-1.5-0.2-2.2
	c0.2-0.5,19-51.4,7.8-74c-1-2.2-2.4-4.1-4.2-5.7c-1.8-1.6-3.9-2.7-6.2-3.4c-1.8-0.7-3.8-0.9-5.7-0.7c-1.9,0.2-3.8,0.9-5.4,2
	c-13.7,9.1-17.5,46.5-19.6,66.6v0.8c-0.1,0.7-0.4,1.3-0.9,1.8c-0.5,0.5-1.1,0.8-1.8,0.9c-0.7,0.1-1.4-0.1-2-0.4
	c-0.6-0.4-1-0.9-1.3-1.5c-0.9-2.5-8.8-8.5-17.8-8.7L193.9,302.7z"/>
<path d="M208.8,430.6h-0.3c-0.8-0.1-1.6-0.5-2.1-1.1c-0.5-0.6-0.8-1.4-0.7-2.3c1.1-12.3,5.3-21.6,12.8-27.7c5.4-4.3,12-6.9,18.9-7.4
	c-5.2-11.9-17.1-43.9,0.1-57.3c1.9-1.6,4.2-2.7,6.6-3.2c2.4-0.6,4.9-0.6,7.3,0c17.3,3.7,32.8,33,33.5,34.2c0.4,0.7,0.5,1.6,0.2,2.3
	c-0.2,0.8-0.8,1.4-1.5,1.8c-0.7,0.4-1.6,0.5-2.3,0.2c-0.8-0.2-1.4-0.8-1.8-1.5c-4.1-7.8-17.4-28.5-29.3-31.1c-1.5-0.4-3.1-0.4-4.6,0
	c-1.5,0.4-2.9,1.1-4.2,2.1c-14,10.9-2.1,42.7,3.7,54.1c0.3,0.5,0.4,1,0.3,1.6c0,0.6-0.2,1.1-0.5,1.6c-0.3,0.5-0.7,0.8-1.3,1.1
	c-0.5,0.2-1.1,0.3-1.6,0.3c-7-0.4-14,1.7-19.6,6.1c-6,4.9-9.6,12.9-10.5,23.4c-0.1,0.8-0.4,1.5-1,2
	C210.3,430.3,209.5,430.6,208.8,430.6z"/>
<path class="st0" d="M214,309.3c0,0,14,60.6-4.3,66.3c-18.3,5.7-26.3-37-26.3-37"/>
<path d="M206.4,379.3c-2.5,0-5-0.7-7.1-2.1c-13-7.8-18.6-36.7-18.8-38c-0.1-0.4-0.1-0.8,0-1.2c0.1-0.4,0.2-0.8,0.5-1.1
	c0.2-0.3,0.5-0.6,0.9-0.8s0.7-0.4,1.1-0.4c0.4-0.1,0.8-0.1,1.2,0c0.4,0.1,0.8,0.2,1.1,0.5c0.3,0.2,0.6,0.5,0.8,0.9
	c0.2,0.3,0.4,0.7,0.4,1.1c1.4,7.6,7.1,28.5,15.9,33.8c0.9,0.6,2,1,3.1,1.1c1.1,0.1,2.2,0,3.3-0.3c10.7-3.4,7.7-38.7,2.2-62.7
	c-0.1-0.4-0.2-0.8-0.1-1.2c0.1-0.4,0.2-0.8,0.4-1.2c0.2-0.4,0.5-0.7,0.8-0.9c0.3-0.2,0.7-0.4,1.1-0.5c0.4-0.1,0.8-0.1,1.2,0
	c0.4,0.1,0.8,0.2,1.2,0.5c0.3,0.2,0.6,0.5,0.9,0.9c0.2,0.4,0.4,0.7,0.5,1.2c2.5,10.6,13.7,63.7-6.3,70
	C209.3,379.1,207.9,379.3,206.4,379.3z"/>
<path d="M795.3,448.2c-1.3,0-2.7-0.3-3.9-0.8c-1.2-0.5-2.4-1.3-3.3-2.3C713.6,365.6,680.6,275,669.4,238
	c-53.7,58.6-108.6,170.8-109.2,172c-0.5,1.2-1.3,2.3-2.3,3.2c-1,0.9-2.1,1.6-3.3,2c-1.2,0.4-2.6,0.6-3.9,0.6c-1.3-0.1-2.6-0.4-3.8-1
	c-1.2-0.6-2.2-1.4-3.1-2.4c-0.9-1-1.5-2.2-1.9-3.4c-0.4-1.3-0.6-2.6-0.5-3.9c0.1-1.3,0.5-2.6,1.1-3.8
	c2.6-5.4,65.4-133.6,125.2-189.6c1.3-1.2,2.8-2,4.5-2.4c1.7-0.4,3.4-0.3,5.1,0.2c1.7,0.5,3.2,1.4,4.3,2.7c1.2,1.3,2,2.8,2.4,4.5
	c0.3,1.2,28.1,118.3,118.6,214.9c1.3,1.4,2.2,3.2,2.5,5.1c0.3,1.9,0.1,3.8-0.7,5.6c-0.8,1.8-2,3.3-3.6,4.3
	C799.1,447.5,797.3,448.1,795.3,448.2L795.3,448.2z"/>
<path class="st1" d="M390.9,800.4c-16.6,14-22.8,35.8-12.5,43.2c15.7,11.3,35.3-14.8,35.3-14.8s-5.8,23.4,5.4,27.7
	c11.2,4.3,24.2-13.3,24.2-13.3s-6.9,27.7,5.7,30.6c12.6,2.9,22.6-21.8,22.6-21.8s-5.8,27.5,11.2,29.2c14.5,1.5,19-24.8,19-24.8
	s1.9,24.5,16.2,21.7c11.9-2.3,10-22.4,10-22.4s15.5,29.2,30.7,17.3c9.5-7.4,0.6-26.7-7.1-39.4c52.5-8.7,100.4-35.5,135.2-75.8
	c34.8-40.3,54.5-91.5,55.5-144.7c1-53.2-16.6-105.2-49.8-146.8s-80-70.3-132.1-81.1c-52.2-10.8-106.4-2.9-153.4,22.1
	S323.2,473,303,522.4c-20.1,49.3-22.4,104.1-6.3,154.9S346.1,771.6,390.9,800.4z"/>
<path class="st0" d="M473.6,577.6c10.2-40.2-1.1-77.7-25.3-83.9c-24.2-6.2-52.1,21.4-62.4,61.6c-10.2,40.2,1.1,77.7,25.3,83.9
	C435.5,645.3,463.4,617.8,473.6,577.6z"/>
<path d="M418.3,643.1c-2.6,0-5.2-0.3-7.8-1c-12.8-3.3-22.6-14.4-27.7-31.3c-4.9-16.4-4.9-36.4,0.2-56.4
	c10.6-41.8,40.3-70.4,66.1-63.8c12.8,3.3,22.6,14.4,27.7,31.3c4.9,16.4,4.9,36.4-0.2,56.4c-5.1,20-14.6,37.6-26.8,49.6
	C439.8,637.9,428.8,643.1,418.3,643.1z M441.3,495.9c-20.9,0-43.5,25.2-52.4,60.1c-4.9,18.9-4.9,37.7-0.3,53.1
	c4.5,14.8,12.7,24.4,23.4,27.1c10.6,2.7,22.5-1.8,33.5-12.6c11.4-11.2,20.3-27.8,25.1-46.8c4.9-18.9,4.9-37.7,0.3-53.1
	c-4.4-14.8-12.7-24.4-23.3-27.1C445.5,496.1,443.4,495.8,441.3,495.9z"/>
<path d="M456.7,497.3c-2.5-1.7-5.3-2.9-8.3-3.6c-24.2-6.2-52.1,21.4-62.4,61.6s1.1,77.8,25.3,83.9c2.9,0.7,6,1,9,0.8L456.7,497.3z"
	/>
<path d="M448.4,496.8c-0.3,0-0.5,0-0.8,0c-0.8-0.2-1.5-0.7-1.9-1.4c-0.4-0.7-0.5-1.5-0.3-2.3l5.3-21c0.2-0.8,0.7-1.4,1.4-1.8
	c0.7-0.4,1.5-0.5,2.3-0.3c0.8,0.2,1.4,0.7,1.9,1.4c0.4,0.7,0.6,1.5,0.4,2.3l-5.3,21c-0.2,0.6-0.6,1.2-1.1,1.6
	C449.7,496.6,449,496.8,448.4,496.8z"/>
<path d="M428.9,497.3c-0.7,0-1.3-0.2-1.9-0.6c-0.5-0.4-0.9-1-1.1-1.6l-5.9-20.9c-0.2-0.8-0.1-1.6,0.3-2.3c0.4-0.7,1.1-1.2,1.9-1.5
	c0.8-0.2,1.6-0.1,2.3,0.3c0.7,0.4,1.2,1.1,1.5,1.9l5.8,20.9c0.1,0.4,0.1,0.8,0.1,1.2c0,0.4-0.2,0.8-0.4,1.1
	c-0.2,0.4-0.5,0.7-0.8,0.9c-0.3,0.2-0.7,0.4-1.1,0.5C429.4,497.3,429.1,497.3,428.9,497.3z"/>
<path d="M465.2,506.6c-0.6,0-1.2-0.2-1.7-0.5c-0.5-0.3-0.9-0.8-1.1-1.4c-0.2-0.6-0.3-1.2-0.2-1.8c0.1-0.6,0.4-1.1,0.8-1.6l15.1-15.5
	c0.3-0.3,0.6-0.6,1-0.8c0.4-0.2,0.8-0.3,1.2-0.3c0.4,0,0.8,0.1,1.2,0.2c0.4,0.1,0.7,0.4,1,0.7c0.3,0.3,0.5,0.6,0.7,1
	c0.2,0.4,0.2,0.8,0.2,1.2c0,0.4-0.1,0.8-0.3,1.2c-0.2,0.4-0.4,0.7-0.7,1l-15.1,15.5c-0.3,0.3-0.6,0.5-1,0.7S465.7,506.6,465.2,506.6
	z"/>
<path d="M405.6,664.5c-0.2,0-0.5,0-0.7,0c-0.4-0.1-0.8-0.3-1.1-0.5c-0.3-0.2-0.6-0.5-0.8-0.9c-0.2-0.3-0.3-0.7-0.4-1.1
	c-0.1-0.4,0-0.8,0.1-1.2l5.3-21c0.2-0.8,0.7-1.5,1.4-1.9c0.7-0.4,1.5-0.5,2.3-0.3c0.8,0.2,1.5,0.7,1.9,1.4c0.4,0.7,0.5,1.5,0.3,2.3
	l-5.4,21c-0.2,0.6-0.6,1.2-1.1,1.6C406.9,664.3,406.3,664.5,405.6,664.5z"/>
<path d="M436.4,663.8c-0.7,0-1.3-0.2-1.9-0.6c-0.5-0.4-0.9-1-1.1-1.6l-5.9-20.9c-0.2-0.8-0.1-1.6,0.3-2.3c0.4-0.7,1.1-1.2,1.9-1.5
	c0.8-0.2,1.6-0.1,2.3,0.3c0.7,0.4,1.2,1.1,1.5,1.9l5.8,20.9c0.2,0.8,0.1,1.6-0.3,2.3c-0.4,0.7-1.1,1.2-1.8,1.5
	C437,663.7,436.7,663.8,436.4,663.8z"/>
<path d="M379,649.1c-0.6,0-1.2-0.2-1.7-0.5c-0.5-0.3-0.9-0.8-1.1-1.4c-0.2-0.6-0.3-1.2-0.2-1.8c0.1-0.6,0.4-1.1,0.8-1.6l15.1-15.5
	c0.6-0.6,1.4-0.9,2.2-0.9c0.8,0,1.6,0.3,2.2,0.9c0.6,0.6,0.9,1.4,0.9,2.2c0,0.8-0.3,1.6-0.9,2.2l-15.1,15.5c-0.3,0.3-0.6,0.5-1,0.7
	C379.8,649.1,379.4,649.1,379,649.1z"/>
<path class="st0" d="M413.2,555.4l29.3,20.5l6.2-24.5L413.2,555.4z"/>
<path class="st0" d="M605.5,611.2c10.2-40.2-1.1-77.7-25.3-83.9c-24.2-6.2-52.1,21.4-62.4,61.6c-10.2,40.2,1.1,77.7,25.3,83.9
	S595.3,651.4,605.5,611.2z"/>
<path d="M550.1,676.8c-2.6,0-5.2-0.3-7.7-1c-12.8-3.3-22.6-14.4-27.7-31.3c-4.9-16.4-4.9-36.4,0.2-56.4
	c10.6-41.8,40.4-70.4,66.1-63.8c12.8,3.3,22.7,14.4,27.8,31.3c4.9,16.4,4.9,36.4-0.3,56.4c-5.2,20-14.6,37.6-26.6,49.6
	C571.6,671.6,560.7,676.8,550.1,676.8z M573.2,529.5c-20.9,0-43.5,25.2-52.4,60.1c-4.9,18.9-4.9,37.7-0.3,53.1
	c4.5,14.8,12.7,24.4,23.4,27.1c10.6,2.7,22.5-1.8,33.5-12.6c11.4-11.2,20.3-27.9,25.1-46.8c4.8-19,4.9-37.7,0.3-53.1
	c-4.4-14.8-12.7-24.4-23.3-27.1C577.4,529.7,575.3,529.5,573.2,529.5z"/>
<path d="M588.5,531c-2.6-1.7-5.4-2.9-8.3-3.6c-24.2-6.2-52.1,21.4-62.4,61.6c-10.3,40.2,1.1,77.8,25.3,83.8c2.9,0.8,6,1,9,0.8
	L588.5,531z"/>
<path d="M580.3,530.4c-0.3,0-0.5,0-0.8,0c-0.4-0.1-0.8-0.3-1.1-0.5c-0.3-0.2-0.6-0.5-0.8-0.9c-0.2-0.3-0.3-0.7-0.4-1.1
	s0-0.8,0.1-1.2l5.4-21c0.1-0.4,0.3-0.8,0.5-1.1c0.2-0.3,0.5-0.6,0.9-0.8c0.3-0.2,0.7-0.3,1.1-0.4c0.4-0.1,0.8,0,1.2,0.1
	c0.4,0.1,0.8,0.3,1.1,0.5c0.3,0.2,0.6,0.5,0.8,0.9c0.2,0.3,0.3,0.7,0.4,1.1c0.1,0.4,0,0.8-0.1,1.2l-5.3,21c-0.2,0.6-0.6,1.2-1.1,1.6
	C581.6,530.2,580.9,530.4,580.3,530.4z"/>
<path d="M560.7,531c-0.7,0-1.3-0.2-1.9-0.6c-0.5-0.4-0.9-1-1.1-1.6l-5.8-20.9c-0.2-0.8,0-1.6,0.4-2.2c0.4-0.7,1-1.2,1.8-1.4
	s1.6-0.1,2.3,0.2c0.7,0.4,1.2,1,1.5,1.7l5.9,20.9c0.1,0.5,0.1,0.9,0,1.4c-0.1,0.5-0.3,0.9-0.6,1.3c-0.3,0.4-0.7,0.7-1.1,0.9
	C561.7,530.8,561.2,531,560.7,531z"/>
<path d="M597.1,540.2c-0.8,0-1.6-0.3-2.2-0.9c-0.6-0.6-0.9-1.4-0.9-2.2c0-0.8,0.3-1.6,0.9-2.2l15.1-15.5c0.3-0.3,0.6-0.5,1-0.7
	c0.4-0.2,0.8-0.2,1.2-0.2c0.4,0,0.8,0.1,1.2,0.2c0.4,0.2,0.7,0.4,1,0.7c0.3,0.3,0.5,0.6,0.7,1c0.2,0.4,0.2,0.8,0.2,1.2
	c0,0.4-0.1,0.8-0.2,1.2c-0.2,0.4-0.4,0.7-0.7,1l-15.1,15.5c-0.3,0.3-0.6,0.5-1,0.7C598,540.2,597.5,540.2,597.1,540.2z"/>
<path d="M537.5,698.1c-0.3,0-0.5,0-0.8,0c-0.8-0.2-1.5-0.7-1.9-1.4c-0.4-0.7-0.5-1.5-0.3-2.3l5.3-21c0.1-0.4,0.3-0.8,0.5-1.1
	c0.2-0.3,0.5-0.6,0.9-0.8c0.4-0.2,0.7-0.4,1.2-0.4c0.4-0.1,0.8,0,1.2,0.1c0.4,0.1,0.8,0.3,1.1,0.5c0.3,0.3,0.6,0.6,0.8,0.9
	s0.3,0.8,0.4,1.2c0,0.4,0,0.8-0.1,1.2l-5.3,21c-0.2,0.6-0.6,1.2-1.1,1.6C538.8,697.9,538.1,698.1,537.5,698.1z"/>
<path d="M568.2,697.4c-0.7,0-1.3-0.2-1.9-0.6c-0.5-0.4-0.9-1-1.1-1.6l-5.8-20.9c-0.1-0.4-0.2-0.8-0.2-1.3c0-0.4,0.1-0.8,0.3-1.2
	c0.2-0.4,0.5-0.7,0.8-1c0.3-0.3,0.7-0.5,1.1-0.6c0.4-0.1,0.8-0.1,1.3-0.1c0.4,0.1,0.8,0.2,1.2,0.4c0.4,0.2,0.7,0.5,0.9,0.9
	c0.2,0.4,0.4,0.7,0.5,1.2l5.9,20.9c0.1,0.5,0.2,0.9,0.1,1.4c-0.1,0.5-0.3,0.9-0.6,1.3c-0.3,0.4-0.7,0.7-1.1,0.9
	C569.2,697.3,568.7,697.4,568.2,697.4z"/>
<path d="M510.8,682.8c-0.8,0-1.6-0.3-2.1-0.9c-0.3-0.3-0.5-0.6-0.7-1c-0.2-0.4-0.2-0.8-0.2-1.2c0-0.4,0.1-0.8,0.2-1.2
	c0.2-0.4,0.4-0.7,0.7-1l15.1-15.5c0.3-0.3,0.6-0.5,1-0.7c0.4-0.2,0.8-0.2,1.2-0.2c0.4,0,0.8,0.1,1.2,0.2c0.4,0.2,0.7,0.4,1,0.7
	c0.3,0.3,0.5,0.6,0.7,1c0.2,0.4,0.2,0.8,0.2,1.2c0,0.4-0.1,0.8-0.2,1.2c-0.1,0.4-0.4,0.7-0.7,1l-15.1,15.5c-0.3,0.3-0.6,0.5-1,0.7
	C511.7,682.7,511.2,682.8,510.8,682.8z"/>
<path class="st0" d="M545.1,589l29.3,20.5l6.2-24.5L545.1,589z"/>
<path d="M518.9,738.3c-2.3,0-4.5-0.4-6.7-1.1c-5.3-1.8-9.7-5.5-12.4-10.5c-2.7-4.9-3.4-10.7-2-16.1c0.2-0.8,0.7-1.5,1.4-1.9
	c0.7-0.4,1.5-0.6,2.3-0.4c0.8,0.2,1.5,0.7,1.9,1.4c0.4,0.7,0.6,1.5,0.4,2.3c-1,3.9-0.5,8.1,1.4,11.6s5.1,6.3,8.9,7.6
	c2.3,0.8,4.8,1,7.3,0.6c2.4-0.4,4.7-1.4,6.7-2.8c0.3-0.2,0.7-0.4,1.1-0.5c0.4-0.1,0.8-0.1,1.2,0c0.4,0.1,0.8,0.2,1.1,0.4
	c0.3,0.2,0.6,0.5,0.9,0.8c0.2,0.3,0.4,0.7,0.5,1.1c0.1,0.4,0.1,0.8,0,1.2c-0.1,0.4-0.2,0.8-0.4,1.1c-0.2,0.3-0.5,0.6-0.8,0.9
	C527.9,736.8,523.5,738.3,518.9,738.3z"/>
<path d="M469.5,666.8c-0.7,0-1.4-0.2-1.9-0.7c-0.4-0.3-9.9-7.9-10.6-17c-0.2-1.9,0.1-3.8,0.7-5.6c0.6-1.8,1.7-3.4,3-4.8
	c1.2-1.5,2.8-2.6,4.5-3.4c1.7-0.8,3.6-1.1,5.5-1.1c8.4,0.4,15.2,9.1,15.9,10.1c0.5,0.7,0.7,1.5,0.6,2.3c-0.1,0.8-0.5,1.5-1.2,2
	c-0.7,0.5-1.5,0.7-2.3,0.6c-0.8-0.1-1.5-0.5-2-1.2c-1.6-2.1-6.7-7.4-11.3-7.7c-1,0-2,0.2-2.9,0.6c-0.9,0.4-1.7,1-2.3,1.8
	c-0.8,0.8-1.3,1.7-1.7,2.7c-0.4,1-0.5,2.1-0.4,3.1c0.4,5.3,6.1,11,8.3,12.7c0.5,0.4,0.9,0.9,1,1.6c0.2,0.6,0.2,1.3-0.1,1.9
	c-0.2,0.6-0.6,1.1-1.1,1.5C470.7,666.6,470.1,666.8,469.5,666.8z"/>
<path d="M461.5,744.7c-21.4-0.1-42-8-58-22.2c-0.6-0.6-0.9-1.4-0.9-2.2c0-0.8,0.3-1.6,0.9-2.2c0.6-0.6,1.4-0.9,2.2-0.9
	s1.6,0.3,2.2,0.9c1.6,1.6,39.8,38.9,96.1,9.2c0.7-0.4,1.6-0.5,2.4-0.2c0.8,0.2,1.4,0.8,1.8,1.5c0.4,0.7,0.5,1.6,0.2,2.4
	c-0.2,0.8-0.8,1.4-1.5,1.8C493,740.4,477.4,744.5,461.5,744.7z"/>
<path d="M461.9,761.3c-6.2,0-12.4-0.6-18.5-2c-0.8-0.2-1.5-0.7-1.9-1.4c-0.4-0.7-0.5-1.5-0.3-2.3c0.2-0.8,0.7-1.5,1.4-1.9
	c0.7-0.4,1.5-0.5,2.3-0.3c0.2,0,22.3,5.5,42.8-2.9c0.4-0.2,0.8-0.2,1.2-0.3c0.4,0,0.8,0.1,1.2,0.2c0.4,0.2,0.7,0.4,1,0.7
	c0.3,0.3,0.5,0.6,0.7,1c0.2,0.4,0.2,0.8,0.3,1.2c0,0.4-0.1,0.8-0.2,1.2c-0.1,0.4-0.4,0.7-0.7,1c-0.3,0.3-0.6,0.5-1,0.7
	C481.2,759.7,471.5,761.5,461.9,761.3z"/>
<path d="M514.7,839.7c-12.2,0-24.3-0.9-36.3-2.8c-58.8-9.3-111.7-41-147.6-88.5c-35.9-47.5-52.1-107-45.1-166.1
	c7-59.1,36.6-113.2,82.6-151c46-37.8,104.8-56.3,164.2-51.7c59.3,4.6,114.6,32.1,154.2,76.5c39.6,44.5,60.4,102.5,58.1,162
	c-2.3,59.5-27.5,115.8-70.4,157.1C631.5,816.5,574.3,839.6,514.7,839.7z M514.1,383.4c-58.2,0-114.1,22.5-156.1,62.9
	c-41.9,40.3-66.6,95.3-68.9,153.5c-2.3,58.1,18.1,114.9,56.7,158.4c38.7,43.5,92.7,70.3,150.7,74.8c58,4.5,115.5-13.6,160.5-50.5
	c45-36.9,73.9-89.9,80.7-147.7s-9.1-116-44.2-162.3c-35.2-46.4-86.9-77.3-144.4-86.4C537.5,384.3,525.8,383.4,514.1,383.4z"/>
<path d="M484,884.4h-1.5c-2.1-0.2-4.2-0.8-6-1.8c-1.9-1-3.5-2.5-4.7-4.2c-2.5-3.8-3.9-8.1-4-12.6c-4.6,6.6-11.3,13-19.4,11.2
	c-1.5-0.3-2.9-1-4.1-1.9c-1.2-0.9-2.2-2-3-3.3c-3.1-4.9-3.3-12.6-2.7-18.9c-5.4,4.8-13.1,9.4-20.6,6.6c-8.2-3.1-9.3-13.1-8.9-21.1
	c-7.8,7.4-20.8,16.2-32.6,7.7c-2-1.5-3.6-3.4-4.7-5.7c-1.1-2.2-1.6-4.7-1.6-7.2c-0.5-11.4,6.9-25.5,18.6-35.4
	c0.6-0.5,1.4-0.8,2.3-0.7c0.8,0.1,1.6,0.5,2.1,1.1c0.5,0.6,0.8,1.4,0.7,2.2c-0.1,0.8-0.5,1.6-1.1,2.1c-10,8.5-16.8,20.9-16.4,30.3
	c-0.1,1.5,0.2,3.1,0.9,4.5s1.6,2.6,2.8,3.6c13.1,9.4,30.9-13.9,31.1-14.2c0.4-0.6,1-1,1.7-1.2c0.7-0.2,1.4-0.1,2.1,0.2
	c0.6,0.3,1.2,0.8,1.5,1.5c0.3,0.6,0.4,1.4,0.2,2.1c-1.3,5.4-3.5,21.4,3.6,24.1c7.1,2.7,17.3-7.9,20.6-12.3c0.4-0.6,1-0.9,1.7-1.1
	c0.7-0.2,1.4-0.1,2,0.2c0.6,0.3,1.2,0.8,1.5,1.4c0.3,0.6,0.4,1.3,0.3,2c-1.2,4.8-3.4,18.5,0.2,24.4c0.3,0.6,0.8,1.2,1.3,1.6
	c0.6,0.4,1.2,0.7,1.9,0.9c8.2,1.9,16.7-14.1,19.1-19.9c0.3-0.7,0.8-1.3,1.5-1.6c0.7-0.3,1.5-0.4,2.2-0.2c0.7,0.2,1.4,0.7,1.7,1.4
	c0.4,0.7,0.5,1.4,0.4,2.2c-0.9,4.1-2.2,16.1,2.1,22c0.7,1,1.7,1.9,2.8,2.5c1.1,0.6,2.3,0.9,3.6,1c11.4,1.2,15.6-22.1,15.7-22.2
	c0.1-0.7,0.5-1.4,1.1-1.9c0.6-0.5,1.3-0.7,2.1-0.7c0.8,0,1.5,0.3,2,0.9c0.5,0.5,0.9,1.2,0.9,2c0.3,3.7,2.1,14,7,17.7
	c0.8,0.6,1.7,1,2.6,1.2c1,0.2,1.9,0.2,2.9,0c8.9-1.8,7.6-18.9,7.6-19.1c-0.1-0.7,0.1-1.4,0.5-2c0.4-0.6,1-1,1.7-1.2s1.4-0.2,2.1,0.1
	c0.7,0.3,1.2,0.8,1.5,1.4c2.5,4.5,10.4,16.6,18.4,18.3c1.3,0.3,2.7,0.2,4-0.1c1.3-0.3,2.5-1,3.6-1.9c5.8-4.5,2.9-17.5-7.9-35.5
	c-0.4-0.7-0.5-1.5-0.3-2.3c0.2-0.8,0.7-1.5,1.4-1.9c0.7-0.4,1.5-0.5,2.3-0.3c0.8,0.2,1.5,0.7,1.9,1.4c12.9,21.6,15.1,36.6,6.4,43.5
	c-1.7,1.5-3.8,2.5-6,3.1c-2.2,0.6-4.5,0.6-6.7,0.1c-7-1.5-13.1-7.8-17.3-13.2c-1,6.5-4,14.1-12.1,15.7c-1.8,0.4-3.7,0.4-5.5,0
	c-1.8-0.4-3.5-1.2-4.9-2.3c-3.2-2.7-5.5-6.2-6.8-10.1C498.3,876.2,492.9,884.4,484,884.4z"/>
<path class="st1" d="M899.9,817.9c-4.4,21.3,4.2,42.3,16.8,41.7c19.3-0.8,18.6-33.5,18.6-33.5s9.9,22,21.4,18.4
	c11.5-3.6,10.8-25.4,10.8-25.4s11.7,26,23.4,20.6c11.7-5.5,4.3-31.1,4.3-31.1s12.3,25.2,26.8,16.1c12.3-7.8-0.4-31.3-0.4-31.3
	s16.7,18.1,26.1,7c7.9-9.2-5.9-23.8-5.9-23.8s30.2,13.4,34.8-5.4c2.9-11.8-16-21.3-30-26.6c35.9-39.3,56.9-90,59.4-143.2
	c2.5-53.2-13.7-105.6-45.9-148.1c-32.1-42.5-78.1-72.4-129.9-84.6c-51.9-12.2-106.3-5.8-154,18c-47.7,23.8-85.5,63.5-106.9,112.3
	c-21.4,48.8-25.1,103.5-10.5,154.7c14.7,51.2,46.8,95.7,90.8,125.7C793.7,809.3,846.8,822.9,899.9,817.9z"/>
<path d="M878.7,821.9c-56.2,0.1-110.5-20.4-152.7-57.5c-42.2-37.1-69.5-88.3-76.7-144c-7.2-55.7,6.2-112.2,37.6-158.8
	c31.4-46.6,78.8-80.1,133.1-94.3c54.4-14.2,112.1-8.1,162.3,17.2c50.2,25.3,89.5,68,110.5,120.1c21,52.1,22.3,110.1,3.6,163.1
	c-18.7,53-56.1,97.4-105.1,124.8C956.9,811.7,918.1,821.9,878.7,821.9z M878,365.6c-57.2,0-112.3,21.6-154.1,60.6
	s-67.3,92.4-71.3,149.5c-4,57.1,13.8,113.5,49.8,158c36,44.4,87.6,73.6,144.2,81.5s114.2-6,161-38.8c46.8-32.9,79.4-82.3,91.2-138.3
	c11.8-56,1.9-114.3-27.7-163.3c-29.6-49-76.6-84.9-131.7-100.5C919.5,368.5,898.8,365.6,878,365.6z"/>
<path d="M916.3,862.7c-2.4-0.1-4.7-0.7-6.9-1.7c-2.1-1.1-4-2.6-5.4-4.5c-7.4-8.6-10.2-24.4-7.1-39.2c0.1-0.4,0.2-0.8,0.5-1.1
	c0.2-0.3,0.5-0.6,0.9-0.8c0.3-0.2,0.7-0.4,1.1-0.5c0.4-0.1,0.8-0.1,1.2,0c0.4,0.1,0.8,0.2,1.1,0.5c0.3,0.2,0.6,0.5,0.8,0.9
	c0.2,0.3,0.4,0.7,0.5,1.1c0.1,0.4,0.1,0.8,0,1.2c-2.6,12.9-0.2,26.8,5.8,33.9c0.9,1.3,2.1,2.3,3.4,3c1.4,0.7,2.9,1.1,4.4,1.1
	c16.1-0.7,15.7-30,15.7-30.3c0-0.7,0.2-1.4,0.7-2c0.4-0.6,1.1-0.9,1.8-1.1c0.7-0.2,1.4-0.1,2.1,0.2c0.6,0.3,1.1,0.8,1.4,1.5
	c2.3,5.1,10.5,19,17.7,16.8c7.2-2.2,8.8-16.9,8.6-22.3c0-0.7,0.2-1.4,0.6-2s1.1-1,1.7-1.1c0.7-0.2,1.4-0.1,2.1,0.2
	c0.6,0.3,1.2,0.8,1.4,1.5c2,4.5,8.8,16.7,15.3,19.1c0.6,0.3,1.3,0.4,2,0.4c0.7,0,1.4-0.1,2-0.4c7.6-3.5,4.4-21.4,2.7-27.4
	c-0.2-0.7-0.1-1.5,0.2-2.2c0.3-0.7,0.9-1.2,1.6-1.5c0.7-0.3,1.5-0.3,2.2,0c0.7,0.3,1.3,0.8,1.6,1.5c1.8,3.8,8.2,14,15.3,16
	c1.2,0.3,2.5,0.4,3.7,0.2c1.2-0.2,2.4-0.7,3.4-1.4c9.6-6.1-1.3-27.1-1.4-27.1c-0.3-0.7-0.4-1.4-0.2-2.1c0.2-0.7,0.6-1.3,1.2-1.8
	c0.6-0.4,1.3-0.6,2-0.6c0.7,0.1,1.4,0.4,1.9,0.9c2.5,2.7,10.3,9.6,16.3,9.6h0.1c1,0,1.9-0.2,2.7-0.7c0.9-0.4,1.6-1,2.2-1.8
	c5.9-6.9-5.7-19.5-5.8-19.7c-0.5-0.5-0.7-1.2-0.8-1.9c0-0.7,0.2-1.4,0.6-2s1-1,1.7-1.2c0.7-0.2,1.4-0.2,2,0.1
	c4.7,2.1,18.4,6.6,25.8,3c1.2-0.6,2.3-1.5,3.1-2.6c0.8-1.1,1.4-2.3,1.6-3.7c1.7-7.1-8.5-15.6-28.1-23.1c-0.4-0.1-0.7-0.4-1-0.6
	c-0.3-0.3-0.5-0.6-0.7-1c-0.2-0.4-0.3-0.8-0.3-1.2c0-0.4,0.1-0.8,0.2-1.2c0.1-0.4,0.4-0.7,0.6-1c0.3-0.3,0.6-0.5,1-0.7
	c0.4-0.2,0.8-0.3,1.2-0.3c0.4,0,0.8,0.1,1.2,0.2c23.5,9,34.5,19.5,31.9,30.3c-0.5,2.2-1.4,4.3-2.8,6.1c-1.4,1.8-3.2,3.2-5.2,4.2
	c-6.4,3.2-15.1,2-21.7,0.3c3.2,5.8,5.5,13.6,0.2,19.7c-1.2,1.4-2.6,2.6-4.3,3.4c-1.7,0.8-3.5,1.2-5.3,1.3c-4.1-0.1-8.2-1.4-11.6-3.8
	c2.3,8.2,3.1,18.7-5.2,24c-1.8,1.2-3.8,2-5.8,2.3c-2.1,0.3-4.2,0.2-6.3-0.4c-4.3-1.4-8.1-4-11-7.4c0.4,8.1-0.9,17.3-8.4,20.8
	c-1.4,0.6-2.8,1-4.4,1.1c-1.5,0.1-3-0.2-4.4-0.8c-5.5-2-10.4-8-13.8-13.2c-1.3,7-4.4,15.5-12.1,17.9c-8.4,2.6-15.5-4.5-20-11.1
	c-1.6,10.6-6.3,25.6-20.9,26.2L916.3,862.7z"/>
<path d="M966.8,667.3c-4.7,0-9.2-1.5-13-4.1c-3.8-2.7-6.8-6.4-8.4-10.8c-0.3-0.8-0.2-1.6,0.1-2.3c0.3-0.7,0.9-1.3,1.7-1.6
	c0.7-0.3,1.6-0.3,2.3,0c0.7,0.3,1.3,0.9,1.6,1.6c1.5,3.9,4.4,7.2,8.1,9.1c3.8,1.9,8.1,2.3,12.1,1.2c2.5-0.7,4.7-2.1,6.5-3.9
	c1.8-1.8,3.2-4,4-6.4c0.1-0.4,0.3-0.7,0.6-1c0.3-0.3,0.6-0.5,1-0.7c0.4-0.2,0.8-0.3,1.2-0.3c0.4,0,0.8,0,1.2,0.2
	c0.4,0.1,0.7,0.3,1,0.6c0.3,0.3,0.6,0.6,0.7,1c0.2,0.4,0.3,0.8,0.3,1.2c0,0.4,0,0.8-0.2,1.2c-1.1,3.3-3,6.4-5.6,8.8
	c-2.5,2.5-5.6,4.3-9,5.3C971.1,667,969,667.3,966.8,667.3z"/>
<path d="M884.5,651.6h-0.2c-0.5,0-13-0.9-19-8.1c-1.2-1.5-2.2-3.3-2.7-5.2c-0.5-1.9-0.6-3.9-0.3-5.8c0.2-1.9,0.8-3.8,1.8-5.5
	c1-1.7,2.4-3.1,4-4.2c7.4-4.6,18.2-1.2,19.5-0.8c0.8,0.3,1.4,0.8,1.8,1.5c0.4,0.7,0.4,1.6,0.2,2.4c-0.3,0.8-0.8,1.4-1.5,1.8
	c-0.7,0.4-1.6,0.4-2.4,0.2c-2.5-0.8-10.1-2.5-14.3,0.2c-0.9,0.6-1.6,1.4-2.1,2.3c-0.5,0.9-0.8,1.9-0.9,3c-0.2,1.1-0.2,2.2,0.1,3.3
	c0.3,1.1,0.8,2.1,1.5,2.9c3.5,4.3,11.7,5.7,14.6,5.9c0.4,0,0.8,0.1,1.2,0.3c0.4,0.2,0.7,0.4,1,0.7c0.3,0.3,0.5,0.6,0.6,1
	c0.1,0.4,0.2,0.8,0.2,1.2c0,0.4-0.1,0.8-0.3,1.2c-0.2,0.4-0.4,0.7-0.7,1c-0.3,0.3-0.6,0.5-1,0.6
	C885.4,651.6,884.9,651.6,884.5,651.6L884.5,651.6z"/>
<path d="M882.4,718.7c-3.4,0-6.8-0.2-10.2-0.7c-0.8-0.2-1.5-0.6-1.9-1.3c-0.4-0.7-0.6-1.5-0.5-2.3c0.1-0.8,0.6-1.5,1.2-2
	c0.7-0.5,1.5-0.7,2.3-0.5c2.3,0.4,56.9,9.4,87.1-49.2c0.4-0.7,1-1.3,1.8-1.5c0.4-0.1,0.8-0.2,1.2-0.1c0.4,0,0.8,0.1,1.2,0.3
	c0.4,0.2,0.7,0.4,0.9,0.8c0.3,0.3,0.5,0.7,0.6,1.1c0.1,0.4,0.2,0.8,0.1,1.2c0,0.4-0.1,0.8-0.3,1.2
	C941.6,712.8,901.2,718.7,882.4,718.7z"/>
<path class="st0" d="M829.2,647.2c22.2-8.3,28.2-46.9,13.5-86.1c-14.7-39.2-44.7-64.3-66.9-55.9c-22.2,8.3-28.2,46.9-13.5,86.1
	C777,630.5,807,655.6,829.2,647.2z"/>
<path d="M820.4,651.8c-22.2,0-47.7-24.2-61-59.5c-15.3-40.7-8.5-81.2,15.3-90.1c23.8-8.9,55.5,17,70.8,57.7
	c15.3,40.7,8.5,81.2-15.3,90.1C827.2,651.2,823.8,651.8,820.4,651.8z M785,506.5c-2.8,0-5.5,0.5-8.1,1.5
	c-20.6,7.7-25.8,44.6-11.7,82.2s42.4,61.9,62.9,54.1c20.6-7.7,25.8-44.6,11.7-82.2C827.5,529.2,804.3,506.5,785,506.5z"/>
<path d="M787.8,567.3c1,5.2,2.4,10.2,4.2,15.2l0.6,1.5h25.7l-13.3,21.7c11.9,15.1,27.6,23.5,41.9,21.4c6.1-16.8,5.1-41.3-4.2-66.1
	c-2.6-7.1-5.9-13.9-9.7-20.4C817.5,560.7,792,566.5,787.8,567.3z"/>
<path d="M756.6,574.6c-0.8,0-1.6-0.3-2.2-0.9c-0.6-0.6-0.9-1.4-0.9-2.2c0-0.8,0.3-1.6,0.9-2.2c0.6-0.6,1.4-0.9,2.2-0.9
	c27.6-0.7,54.2-10.7,75.4-28.4c0.6-0.5,1.4-0.7,2.2-0.6c0.8,0.1,1.5,0.5,2,1.1c0.5,0.6,0.8,1.4,0.7,2.2c0,0.8-0.4,1.5-0.9,2.1
	C813.7,563.3,785.7,573.8,756.6,574.6L756.6,574.6z"/>
<path class="st0" d="M947.1,602.9c22.2-8.3,28.2-46.9,13.5-86.1c-14.7-39.2-44.7-64.3-66.9-55.9c-22.2,8.3-28.2,46.9-13.5,86.1
	C895,586.2,924.9,611.2,947.1,602.9z"/>
<path d="M938.4,607.4c-22.2,0-47.7-24.2-61-59.5c-7.4-19.5-9.9-39.4-7.3-56.2c2.7-17.4,10.8-29.5,22.6-33.9
	c11.8-4.4,25.8-0.7,39.3,10.6c13,10.9,24.2,27.6,31.6,47.1c15.3,40.7,8.5,81.2-15.3,90.1C945.1,606.8,941.8,607.4,938.4,607.4z
	 M902.8,462.2c-2.7,0-5.4,0.5-8,1.4c-9.6,3.6-16.3,14-18.6,29.1c-2.5,15.7,0,34.5,7,53.1c14.1,37.6,42.4,61.9,62.9,54.1
	c20.6-7.8,25.8-44.6,11.7-82.2c-7-18.5-17.5-34.3-29.8-44.5C919.4,465.9,910.6,462.2,902.8,462.2z"/>
<path d="M905.8,522.9c1,5.2,2.4,10.2,4.2,15.2l0.6,1.5h25.7L923,561.3c11.9,15.1,27.6,23.5,41.9,21.4c6.1-16.8,5.1-41.3-4.2-66.1
	c-2.7-7.1-5.9-13.9-9.7-20.4C935.5,516.4,910,522.1,905.8,522.9z"/>
<path d="M874.6,530.2c-0.8,0-1.6-0.3-2.2-0.9c-0.6-0.6-0.9-1.4-0.9-2.2c0-0.8,0.3-1.6,0.9-2.2c0.6-0.6,1.4-0.9,2.2-0.9
	c27.6-0.7,54.2-10.7,75.4-28.4c0.3-0.3,0.7-0.5,1-0.6c0.4-0.1,0.8-0.2,1.2-0.1c0.4,0,0.8,0.1,1.2,0.3c0.4,0.2,0.7,0.4,0.9,0.7
	c0.3,0.3,0.5,0.7,0.6,1c0.1,0.4,0.2,0.8,0.1,1.2c0,0.4-0.1,0.8-0.3,1.2c-0.2,0.4-0.4,0.7-0.7,0.9
	C931.6,518.9,903.7,529.5,874.6,530.2L874.6,530.2z"/>
<path d="M1277.2,579.8c-13.8-24.7-54-40.2-123-47.4c-20.1-2.1-39.4-3.1-55.4-3.6c0.4,4.4,2.5,8.3,4,12.4c1.2,4,2,8.1,2.3,12.3
	c62.7,2.5,136.4,13.1,150.4,38.3c2.1,3.5,3.3,7.3,3.6,11.4c0.3,4-0.3,8-1.7,11.8c-12.5,35.5-83.3,70.8-109.6,81.4
	c-3,1.2-5.5,3.6-6.7,6.6c-1.3,3-1.3,6.4-0.1,9.4c1.2,3,3.6,5.5,6.6,6.7c3,1.3,6.4,1.3,9.4,0.1c10.7-4.3,105.1-43.7,123.6-96.1
	c2.7-7,3.7-14.6,3.1-22C1283.2,593.5,1280.9,586.3,1277.2,579.8z"/>
<path class="st0" d="M1155.4,672.2c-10.8-15.2-24.2,7.7-24.2,7.7s-6.4-10.3-22.2-12c0,0-18.7-63-44.7-51.8
	c-22.6,9.7,7.6,65.1,7.6,65.1l-22.3,6.8c-52.9,12.1-18.8,36.8-18.8,36.8c-19,19.2,4.1,35.1,4.1,35.1s-0.7,5.3-0.8,6.1
	c-0.2,2.7,0.1,5.3,1.1,7.8c2.1,5,5.6,9.3,10,12.5c7.5,5.3,16.6,8.1,25.8,7.9c18,0.3,35.8-4,51.8-12.3c20.9-10.8,27.1-27.5,32.9-37.2
	c5.7,1.6,15.5,0.1,18.3-2.5c2.1-2.2,3.6-4.9,4.2-7.9c0.6-3,0.4-6.1-0.6-8.9C1173.5,712.4,1163.6,683.8,1155.4,672.2z"/>
<path d="M1073.3,797.5h-2.5c-11.4-0.3-20.4-3.1-27.6-8.6c-4.9-3.5-8.7-8.3-11-13.9c-1.1-2.9-1.6-6.1-1.3-9.2c0-0.5,0.4-2.8,0.6-4.4
	c-3.2-2.7-10.5-9.5-11.3-18.9c-0.2-3.1,0.2-6.3,1.2-9.3c1-3,2.7-5.7,4.8-8c-4-3.6-10.9-11.3-9.1-19.9c1.8-9.1,12.3-15.7,31.7-20.2
	l18.7-5.5c-5.1-10.1-18.9-40-13.3-56.3c0.7-2.2,1.8-4.2,3.4-5.9c1.5-1.7,3.4-3.1,5.5-4c2.5-1.1,5.2-1.6,7.9-1.6
	c2.7,0.1,5.4,0.7,7.8,1.9c17.8,8.4,29.9,42.8,32.7,51.5c7.4,1,14.4,4.4,19.7,9.7c3.1-4.2,8.9-10.6,15.7-10.9c3-0.1,7.4,0.9,11.3,6.5
	c8.2,11.6,17.7,38.8,22.6,53.9c1.2,3.4,1.4,7.1,0.6,10.6c-0.8,3.5-2.6,6.8-5.1,9.3c-3.5,3.4-12.6,4.7-18.9,3.8
	c-0.6,1-1.2,2.1-1.8,3.3c-5.5,10-12.9,23.7-31.2,33.2C1108.6,792.9,1091.1,797.3,1073.3,797.5z M1070.4,618c-1.7,0-3.4,0.4-4.9,1.1
	c-1.3,0.6-2.5,1.4-3.4,2.4c-0.9,1.1-1.7,2.3-2.1,3.7c-4.9,14,8.9,44.2,14.6,54.7c0.2,0.4,0.3,0.8,0.4,1.3c0,0.5-0.1,0.9-0.2,1.3
	c-0.2,0.4-0.4,0.8-0.8,1.1c-0.3,0.3-0.7,0.5-1.2,0.7l-22.4,6.8c-20.9,4.8-26.4,11-27.1,15.4c-1.6,7.7,9.3,15.8,9.4,15.9
	c0.4,0.3,0.7,0.6,0.9,1c0.2,0.4,0.3,0.8,0.4,1.3c0,0.4,0,0.9-0.2,1.3c-0.1,0.4-0.4,0.8-0.7,1.1c-4.9,4.9-7,9.9-6.6,14.8
	c0.9,9.1,10.2,15.5,10.3,15.6c0.5,0.3,0.8,0.8,1.1,1.3c0.2,0.5,0.3,1.1,0.2,1.7c0,0-0.7,5.3-0.8,6c-0.2,2.2,0.1,4.4,0.9,6.4
	c1.9,4.5,5,8.3,9,11.1c6.2,4.7,13.8,7.1,24,7.4c17.5,0.3,34.9-3.9,50.4-12.1c16.6-8.6,23.5-21.3,28.6-30.7c1.1-1.9,2.1-3.8,3.1-5.4
	c0.4-0.6,0.9-1,1.5-1.3c0.6-0.2,1.3-0.3,2-0.1c4.9,1.4,13.5-0.2,15.3-1.8c1.7-1.8,2.9-4,3.4-6.4c0.5-2.4,0.3-4.9-0.5-7.2
	c-3.9-11.9-13.7-40.9-21.8-52.3c-2.9-4-5.2-3.9-6-3.9c-5.3,0.2-11.3,8.5-13,11.4c-0.3,0.5-0.7,0.8-1.1,1.1s-1,0.4-1.5,0.4
	s-1.1-0.1-1.5-0.4s-0.9-0.6-1.1-1.1c-0.2-0.3-5.9-9-20-10.5c-0.6-0.1-1.2-0.3-1.6-0.7c-0.5-0.4-0.8-0.9-1-1.5
	c0-0.4-12.3-41.4-29.9-49.6C1074.4,618.5,1072.5,618,1070.4,618z"/>
<path d="M1030.7,728c-0.8,0-1.5-0.3-2-0.8c-0.6-0.5-0.9-1.2-1-2c-0.1-0.7,0.1-1.5,0.6-2.1c0.4-0.6,1.1-1,1.8-1.2l24.5-4.8
	c0.8-0.1,1.6,0.1,2.2,0.5c0.6,0.5,1.1,1.1,1.2,1.9c0.2,0.8,0,1.6-0.4,2.2c-0.4,0.7-1.1,1.1-1.8,1.3l-24.5,4.9L1030.7,728z"/>
<path d="M1034.8,763c-0.8,0-1.5-0.3-2.1-0.8c-0.6-0.5-0.9-1.2-1-2c-0.1-0.8,0.2-1.5,0.6-2.2c0.5-0.6,1.1-1,1.9-1.2l24.7-4.7
	c0.4-0.1,0.8-0.1,1.2,0c0.4,0.1,0.8,0.2,1.1,0.5c0.3,0.2,0.6,0.5,0.8,0.9c0.2,0.3,0.4,0.7,0.4,1.1c0.1,0.4,0.1,0.8,0,1.2
	c-0.1,0.4-0.2,0.8-0.5,1.1c-0.2,0.3-0.5,0.6-0.9,0.8s-0.7,0.4-1.1,0.5l-24.7,4.7C1035.2,763,1035,763,1034.8,763z"/>
<path class="st2" d="M676.2,213.4c0,0,17.3,101.1,151.4,95.2c134.1-5.9,192.9-86.8,270.4-81.6C1098,226.9,942.6-9.8,676.2,213.4z"/>
<path d="M816.6,311.8c-63.5,0-98.8-25-117.4-46.7c-12.9-14.6-21.9-32.3-26.2-51.3c-0.1-0.5,0-1.1,0.1-1.6c0.2-0.5,0.5-1,0.9-1.3
	c88.7-74.4,174.9-106,255.8-94.1c108.9,16.1,169.9,107.4,170.5,108.3c0.3,0.5,0.5,1,0.5,1.6c0,0.6-0.2,1.1-0.5,1.6
	c-0.3,0.5-0.7,0.9-1.2,1.2c-0.5,0.3-1.1,0.4-1.7,0.3c-34.7-2.5-66.1,13.3-102.4,31.4c-44.4,22.1-94.4,47.1-167.6,50.3
	C823.9,311.8,820.2,311.8,816.6,311.8z M679.6,214.5c4.4,17.3,12.9,33.4,24.7,46.8c26.9,31.2,69.6,46.4,123.3,44.1
	c71.9-3.2,121.5-27.9,165.2-49.6c34.5-17.3,64.7-32.2,98.1-32.2h1.1c-14.4-19.2-71.3-87.1-162.7-100.6
	C850.4,111.4,766.4,142.2,679.6,214.5z"/>
<path d="M1098,230c-0.6,0-1.1-0.1-1.6-0.4c-61.2-36.7-135.8-72.3-245.4-30.5c-110.3,42.1-175,16.4-177.8,15.3
	c-0.4-0.2-0.7-0.4-1-0.7c-0.3-0.3-0.5-0.6-0.7-1c-0.1-0.4-0.2-0.8-0.2-1.2c0-0.4,0.1-0.8,0.3-1.2c0.2-0.4,0.4-0.7,0.7-1
	c0.3-0.3,0.6-0.5,1-0.7c0.4-0.1,0.8-0.2,1.2-0.2c0.4,0,0.8,0.1,1.2,0.3c0.6,0.2,65.5,25.8,173.3-15.3c106.7-40.7,183.5-9.1,250.6,31
	c0.6,0.3,1,0.9,1.3,1.5c0.2,0.6,0.3,1.3,0.1,2c-0.2,0.6-0.6,1.2-1.1,1.6C1099.3,229.8,1098.6,230,1098,230L1098,230z"/>
<path d="M847.8,263.6c-0.8,0-1.6-0.3-2.2-0.9c-0.4-0.4-40.9-39.9-73.3-42.9c-0.8-0.1-1.6-0.5-2.1-1.1c-0.5-0.6-0.8-1.4-0.7-2.3
	c0.1-0.8,0.5-1.6,1.1-2.1c0.6-0.5,1.4-0.8,2.3-0.7c34.5,3.3,75.3,43,77,44.7c0.6,0.6,0.9,1.4,0.9,2.2s-0.3,1.6-0.9,2.2
	c-0.3,0.3-0.6,0.5-1,0.7C848.6,263.6,848.2,263.6,847.8,263.6z"/>
<path d="M830.8,206c-0.5,0-1-0.1-1.4-0.3c-0.4-0.2-0.8-0.5-1.1-0.9c-0.5-0.7-0.7-1.5-0.6-2.3c0.1-0.8,0.5-1.5,1.2-2
	c0.3-0.2,33.1-24.8,39.1-41.3c0.1-0.4,0.3-0.7,0.6-1c0.3-0.3,0.6-0.5,1-0.7c0.4-0.2,0.8-0.3,1.2-0.3c0.4,0,0.8,0,1.2,0.2
	c0.4,0.1,0.7,0.4,1,0.6c0.3,0.3,0.5,0.6,0.7,1c0.2,0.4,0.3,0.8,0.3,1.2c0,0.4-0.1,0.8-0.2,1.2c-6.7,18.2-39.8,43.1-41.2,44.1
	C832.1,205.7,831.5,206,830.8,206z"/>
<path d="M952.7,222.2c-0.8,0-1.6-0.3-2.1-0.9c-0.3-0.3-28.4-27.1-61.1-34.5c-0.8-0.2-1.5-0.7-1.9-1.4c-0.4-0.7-0.6-1.5-0.4-2.3
	c0.2-0.8,0.7-1.5,1.4-1.9c0.7-0.4,1.5-0.6,2.3-0.4c34.5,7.7,62.9,35,64.1,36.1c0.3,0.3,0.5,0.6,0.7,1c0.2,0.4,0.2,0.8,0.2,1.2
	c0,0.4-0.1,0.8-0.2,1.2c-0.2,0.4-0.4,0.7-0.7,1C954.3,221.9,953.5,222.2,952.7,222.2z"/>
<path class="st0" d="M946.1,404.9c23.7-17.3,91.2,58.3,78.6,72.3C1012.1,491.1,922.4,422.1,946.1,404.9z"/>
<path class="st0" d="M1050.6,525.8c15.6-2.8,12.3-27.9-4.4-27.4C1029.4,499,1034.9,528.6,1050.6,525.8z"/>
</svg>
