<?xml version="1.0" encoding="utf-8"?>
<!-- Generator: Adobe Illustrator 25.2.3, SVG Export Plug-In . SVG Version: 6.00 Build 0)  -->
<svg version="1.1" id="Layer_1" xmlns="http://www.w3.org/2000/svg" xmlns:xlink="http://www.w3.org/1999/xlink" x="0px" y="0px"
	 viewBox="0 0 1500 911.1" style="enable-background:new 0 0 1500 911.1;" xml:space="preserve">
<style type="text/css">
	.st0{fill:#FFFFFF;}
	.st1{fill:#9752CE;}
	.st2{fill:#558203;}
	.st3{fill:#FBBE06;}
	.st4{fill:#F11F2A;}
	.st5{fill:#FFFFFF;stroke:#000000;stroke-width:2;}
</style>
<path class="st0" d="M484,663.6l-31.6,7l-4.9,4.5c0,0-49.8-21.8-55.8,13.2c-5.2,29.8,37.6,29.6,64.5,23.6
	C483.1,706,513.3,705.1,484,663.6z"/>
<path d="M428.2,716.7c-13.2,0-25.5-2.5-32.5-9.2c-5-4.8-6.9-11.3-5.5-19.4c1.4-8.4,5.4-14.4,11.8-17.8c15.6-8.3,40.1,1,45.2,3.1
	l4.2-3.8c0.2-0.2,0.4-0.3,0.7-0.4l31.6-7c0.3-0.1,0.6,0,0.9,0.1c0.3,0.1,0.5,0.3,0.7,0.5c10.8,15.2,14.4,25.9,11.3,33.6
	c-3.9,9.8-17.6,12.5-32.1,15.4c-2.6,0.5-5.3,1.1-7.9,1.6C447.2,715.5,437.7,716.6,428.2,716.7z M417.4,670c-4.9-0.2-9.7,0.9-14,3
	c-5.5,3-9,8.2-10.3,15.6c-1.2,7,0.3,12.6,4.6,16.8c10.6,10.1,36.8,9.9,58.1,5.2c2.7-0.6,5.4-1.1,8-1.7c13.7-2.7,26.6-5.3,29.9-13.6
	c2.6-6.5-0.8-16.3-10.4-29.9l-30.3,6.6l-4.6,4.2c-0.2,0.2-0.5,0.3-0.8,0.4c-0.3,0-0.6,0-0.8-0.1C446.7,676.5,431.6,670,417.4,670
	L417.4,670z"/>
<path class="st0" d="M489.7,654.9c-3.2-3.5-11.8-4.1-19.5-2.9c-12.2,1.9-24.4,8-23.7,15.1c0.2,2,1.4,3.5,3.9,4.5
	c8.7,3.6,28.4-0.6,37.1-7.9c1.9-1.6,4-4,3.5-6.6C490.7,656.3,490.3,655.6,489.7,654.9z"/>
<path d="M458.6,674.5c-3,0.1-6-0.4-8.8-1.4c-2.9-1.2-4.5-3.1-4.8-5.7c-0.8-8.3,12.3-14.8,25-16.8c7.6-1.2,17-0.9,20.8,3.3
	c0.8,0.8,1.3,1.8,1.5,2.9c0.6,2.6-0.8,5.4-4,8.1C481.5,670.7,468.6,674.5,458.6,674.5z M477.4,653c-2.3,0-4.7,0.2-7,0.6
	c-11.3,1.7-23,7.6-22.4,13.5c0.1,1,0.5,2.2,3,3.2c8.1,3.3,27.3-0.8,35.5-7.7c1.3-1.1,3.4-3.2,3-5.2c-0.1-0.6-0.4-1.1-0.8-1.5
	C486.9,654,482.6,653,477.4,653z"/>
<path d="M451.2,686.1c-0.3,0-0.6-0.1-0.8-0.3c-0.2-0.2-0.4-0.4-0.5-0.7l-3.7-9.4c-0.1-0.3-0.1-0.5-0.1-0.8c0-0.3,0.2-0.5,0.4-0.7
	c0.2-0.2,0.4-0.4,0.7-0.4c0.3-0.1,0.5-0.1,0.8,0c3.6,1,7,2.6,10,4.8c0.2,0.1,0.3,0.3,0.4,0.4c0.1,0.2,0.2,0.4,0.2,0.6
	c0,0.2,0,0.4,0,0.6c-0.1,0.2-0.2,0.4-0.3,0.5c-0.1,0.2-0.3,0.3-0.5,0.4c-0.2,0.1-0.4,0.2-0.6,0.2c-0.2,0-0.4,0-0.6-0.1
	c-0.2-0.1-0.4-0.2-0.5-0.3c-1.8-1.4-3.8-2.5-6-3.3l2.5,6.4c0.1,0.4,0.1,0.8,0,1.1c-0.2,0.4-0.5,0.6-0.8,0.8
	C451.5,686,451.4,686.1,451.2,686.1z"/>
<path class="st0" d="M214.2,678l-32.3,3.2l-5.4,3.9c0,0-46.8-27.6-57,6.4c-8.6,29,33.8,33.8,61.3,31.2
	C208.2,720,238.4,722.6,214.2,678z"/>
<path d="M167.3,724.8c-18.1,0-37.6-3.6-46-13.8c-4.4-5.4-5.5-12.1-3.1-19.9c2.4-8.1,7.1-13.6,13.9-16.2c16.4-6.4,39.7,5.8,44.5,8.5
	l4.6-3.3c0.2-0.2,0.5-0.2,0.7-0.3l32.3-3.2c0.3,0,0.6,0,0.8,0.2c0.3,0.1,0.5,0.3,0.6,0.6c8.9,16.4,11.1,27.4,7.2,34.7
	c-5,9.2-19,10.3-33.7,11.5c-2.7,0.2-5.4,0.4-8.1,0.7C176.6,724.5,172,724.8,167.3,724.8z M142.5,675.9c-3.2-0.1-6.4,0.5-9.5,1.6
	c-5.9,2.3-9.9,7.1-12.1,14.3c-2.1,6.8-1.2,12.6,2.6,17.2c9.3,11.3,35.4,14.2,57.1,12.1c2.7-0.3,5.5-0.5,8.1-0.7
	c13.9-1.1,27.1-2.1,31.3-9.9c3.3-6.1,1.2-16.3-6.7-31l-30.9,3.1l-5.1,3.6c-0.2,0.2-0.5,0.3-0.8,0.3c-0.3,0-0.6-0.1-0.8-0.2
	C175.6,686.2,158,675.9,142.5,675.9z"/>
<path class="st0" d="M221,670c-2.7-3.9-11.2-5.4-19-5.2c-12.3,0.4-25.1,5.1-25.3,12.2c0,2,1,3.6,3.3,4.9c8.2,4.6,28.2,2.8,37.7-3.4
	c2.1-1.3,4.5-3.5,4.2-6.1C221.8,671.5,221.5,670.7,221,670z"/>
<path d="M193.2,686c-5.6,0-10.8-0.9-14.1-2.8c-2.8-1.5-4.1-3.6-4.1-6.3c0.2-8.3,14-13.2,26.8-13.6c7.6-0.3,17,1.2,20.3,5.8
	c0.7,0.9,1.1,2,1.2,3.1c0.2,2.7-1.4,5.3-4.9,7.5C212.2,683.7,202.1,686,193.2,686z M203.6,666.3h-1.6c-11.4,0.4-23.7,4.8-23.9,10.7
	c0,1,0.2,2.3,2.5,3.6c7.6,4.3,27.2,2.4,36.2-3.3c1.4-0.9,3.7-2.8,3.6-4.8c-0.1-0.6-0.3-1.1-0.6-1.6
	C217.7,668.1,211.2,666.3,203.6,666.3z"/>
<path d="M179.1,696.3c-0.3,0-0.7-0.1-0.9-0.3c-0.3-0.2-0.4-0.5-0.5-0.8l-2.6-9.8c-0.1-0.3-0.1-0.6,0-0.8c0.1-0.3,0.2-0.5,0.4-0.7
	c0.2-0.2,0.5-0.3,0.7-0.3c0.3,0,0.6,0,0.8,0.1c3.5,1.4,6.6,3.5,9.4,6c0.1,0.1,0.2,0.3,0.3,0.5c0.1,0.2,0.1,0.4,0.1,0.6
	c0,0.2,0,0.4-0.1,0.6c-0.1,0.2-0.2,0.3-0.3,0.5c-0.1,0.1-0.3,0.2-0.5,0.3c-0.2,0.1-0.4,0.1-0.6,0.1c-0.2,0-0.4,0-0.6-0.1
	c-0.2-0.1-0.3-0.2-0.5-0.3c-1.6-1.6-3.5-2.9-5.5-4l1.7,6.7c0.1,0.4,0,0.8-0.2,1.1c-0.2,0.3-0.5,0.6-0.9,0.7
	C179.4,696.3,179.3,696.3,179.1,696.3z"/>
<path class="st0" d="M315.6,620.8L297,647.4l-0.6,6.6c0,0-51.4,17.4-32.4,47.4c16.3,25.5,47.7-3.5,63.6-26.1
	C343.5,652.8,365.2,631.7,315.6,620.8z"/>
<path d="M280.4,712.9h-0.5c-7-0.2-12.7-3.7-17.1-10.7c-4.6-7.2-5.6-14.3-3.2-21.1c5.8-16.6,30.3-26.4,35.5-28.2l0.5-5.7
	c0-0.3,0.1-0.5,0.3-0.7l18.6-26.6c0.2-0.2,0.4-0.4,0.7-0.5c0.3-0.1,0.6-0.1,0.9-0.1c18.2,4,28,9.5,31,17.2c3.7,9.8-4.6,21.1-13.3,33
	c-1.6,2.1-3.2,4.4-4.8,6.6C316.9,693.2,297.1,712.9,280.4,712.9z M298.5,647.9l-0.5,6.2c0,0.3-0.1,0.6-0.3,0.8
	c-0.2,0.2-0.4,0.4-0.7,0.5c-0.3,0.1-28.6,9.9-34.6,26.7c-2.1,6-1.1,12.2,2.9,18.5c3.8,6,8.7,9.1,14.7,9.3
	c14.7,0.3,33.9-17.5,46.4-35.4c1.6-2.2,3.2-4.5,4.8-6.6c8.3-11.3,16.1-21.9,12.9-30.2c-2.5-6.5-11.6-11.5-27.8-15.2L298.5,647.9z"/>
<path class="st0" d="M314,610.6c-4.8-0.5-11.4,4.9-16.3,11c-7.7,9.6-12.6,22.4-7.3,27.2c1.5,1.4,3.4,1.6,5.9,0.7
	c8.8-3.2,20.5-19.6,22.1-30.8c0.3-2.4,0.3-5.7-1.9-7.2C315.7,611,314.8,610.7,314,610.6z"/>
<path d="M293.5,651.5c-1.6,0-3.1-0.6-4.2-1.6c-6.1-5.6-0.9-19.2,7.2-29.2c4.8-6,12-12.1,17.6-11.6c1.1,0.1,2.2,0.5,3.1,1.2
	c2.2,1.6,3.1,4.6,2.5,8.6c-1.6,11.8-13.7,28.6-23,32C295.7,651.3,294.6,651.5,293.5,651.5z M313.4,612c-3.6,0-9.6,4.2-14.6,10.5
	c-7.2,8.9-12,21.1-7.5,25.2c0.7,0.7,1.9,1.3,4.4,0.4c8.2-3,19.6-19,21.1-29.6c0.2-1.7,0.4-4.6-1.3-5.8c-0.5-0.3-1.1-0.5-1.6-0.6
	L313.4,612L313.4,612z"/>
<path d="M305.5,660c-0.2,0-0.5-0.1-0.7-0.2l-9.1-4.5c-0.2-0.1-0.5-0.3-0.6-0.6c-0.1-0.2-0.2-0.5-0.2-0.8c0-0.3,0.1-0.5,0.2-0.8
	c0.1-0.2,0.4-0.4,0.6-0.6c3.3-1.7,7-2.8,10.7-3.2c0.4,0,0.7,0.1,1,0.4c0.3,0.3,0.4,0.6,0.5,1c0,0.4-0.1,0.8-0.3,1
	c-0.2,0.3-0.6,0.5-1,0.5c-2.3,0.2-4.5,0.8-6.6,1.6l6.2,3c0.2,0.1,0.3,0.2,0.5,0.4c0.1,0.1,0.2,0.3,0.3,0.5c0.1,0.2,0.1,0.4,0.1,0.6
	c0,0.2-0.1,0.4-0.2,0.6c-0.1,0.3-0.3,0.5-0.6,0.6C306.1,659.9,305.8,660,305.5,660z"/>
<path d="M198.9,677.5c0.6,0,1.2-0.1,1.7-0.3c1.5-0.5,2.8-1.5,3.5-2.9c0.7-1.4,0.9-3,0.5-4.6c-14.3-47.1-18.9-112.2,2.8-151.3
	c0.8-1.4,1-3,0.5-4.6c-0.4-1.5-1.5-2.8-2.8-3.6c-1.4-0.8-3-1-4.5-0.5c-1.5,0.4-2.8,1.5-3.6,2.8c-23.4,42.2-18.8,111-3.8,160.6
	c0.4,1.2,1.1,2.3,2.2,3.1C196.4,677.1,197.6,677.5,198.9,677.5z"/>
<path d="M467.8,664.8c0.6-0.1,1.2-0.2,1.7-0.5c1.5-0.6,2.6-1.8,3.2-3.3c0.6-1.5,0.5-3.1-0.1-4.6c-19.8-45-32.2-109.1-15.3-150.5
	c0.3-0.7,0.4-1.5,0.4-2.3s-0.2-1.6-0.5-2.3c-0.3-0.7-0.7-1.4-1.3-1.9c-0.6-0.6-1.2-1-1.9-1.3c-0.7-0.3-1.5-0.4-2.3-0.4
	c-0.8,0-1.6,0.2-2.3,0.5c-0.7,0.3-1.4,0.7-1.9,1.3c-0.6,0.6-1,1.2-1.3,1.9c-18.2,44.7-5.4,112.5,15.4,159.9c0.5,1.2,1.4,2.2,2.5,2.8
	C465.3,664.7,466.5,665,467.8,664.8z"/>
<path d="M301.8,634.4c1.6,0,3.1-0.6,4.3-1.6c1.1-1.1,1.8-2.6,1.9-4.2c0-1.6-0.6-3.1-1.6-4.3c-1.1-1.2-2.6-1.8-4.2-1.9
	c-17.1-0.9-45.2-16.2-60.7-39.5c-7.5-11.2-14.9-28.8-7.7-48.9c0.5-1.5,0.5-3.1-0.2-4.6c-0.7-1.4-1.9-2.5-3.4-3.1
	c-1.5-0.5-3.1-0.5-4.6,0.2c-1.4,0.7-2.5,1.9-3.1,3.4c-7,19.6-3.9,40.2,9,59.5c17.8,26.7,49.6,43.8,70,44.9H301.8z"/>
<path class="st0" d="M559.5,494.1l21.4,24.4l6.3,2.1c0,0,4.8,54.2,38.4,42.7c28.6-9.8,7.9-47.2-10.3-68
	C597.1,474.5,581.8,448.4,559.5,494.1z"/>
<path d="M616.7,566.4c-4.2,0-8.3-1.2-11.9-3.5c-14.7-9.6-18.4-35.7-19-41.2l-5.4-1.8c-0.3-0.1-0.5-0.2-0.6-0.4l-21.4-24.4
	c-0.2-0.2-0.3-0.5-0.4-0.8c0-0.3,0-0.6,0.1-0.9c8.1-16.8,15.8-25,24-26.1c10.4-1.3,19.4,9.4,28.9,20.8c1.7,2,3.5,4.1,5.3,6.2
	c13.8,15.8,28.4,40,24,56.3c-1.8,6.7-6.6,11.5-14.4,14.1C623.1,565.8,619.9,566.4,616.7,566.4z M581.8,517.2l5.9,2
	c0.3,0.1,0.5,0.3,0.7,0.5c0.2,0.2,0.3,0.5,0.3,0.8c0,0.3,2.8,30.2,17.8,39.9c5.3,3.4,11.5,3.9,18.7,1.5c6.7-2.3,10.9-6.4,12.4-12.1
	c3.8-14.1-9-37.1-23.4-53.5c-1.8-2-3.6-4.2-5.3-6.2c-9-10.7-17.5-20.8-26.3-19.7c-6.9,0.9-13.9,8.6-21.3,23.5L581.8,517.2z"/>
<path class="st0" d="M549.2,493.3c-1.6,4.5,2.1,12.3,6.9,18.5c7.5,9.8,18.8,17.5,24.6,13.5c1.7-1.2,2.4-3,2.1-5.6
	c-1-9.3-14.2-24.6-24.7-28.7c-2.3-0.9-5.5-1.6-7.5,0.1C550,491.7,549.5,492.5,549.2,493.3z"/>
<path d="M577,527.9c-6.8,0-15.8-7-22.1-15.2c-4.7-6.1-9-14.5-7.1-19.9c0.4-1.1,1-2,1.8-2.7c2-1.8,5.1-1.9,9-0.4
	c11.1,4.4,24.5,20,25.7,29.9c0.3,3.2-0.6,5.5-2.7,7C580.2,527.4,578.6,527.9,577,527.9z M550.6,493.8c-1.2,3.4,1.5,10.4,6.6,17.1
	c7,9.1,17.7,16.6,22.6,13.2c0.8-0.6,1.7-1.5,1.4-4.2c-1-8.7-13.8-23.6-23.8-27.6c-1.6-0.6-4.4-1.4-6-0.1c-0.4,0.4-0.8,0.9-1,1.4
	L550.6,493.8z"/>
<path d="M587.2,522.1c-0.1,0-0.2,0-0.3,0c-0.3-0.1-0.5-0.2-0.7-0.4c-0.2-0.2-0.3-0.4-0.4-0.7c-0.9-3.6-1-7.4-0.6-11.1
	c0.1-0.4,0.3-0.7,0.6-1c0.3-0.2,0.7-0.3,1.1-0.2c0.4,0.1,0.7,0.3,1,0.6c0.2,0.3,0.3,0.7,0.2,1.1c-0.3,2.3-0.3,4.6,0,6.8l4.4-5.3
	c0.3-0.3,0.6-0.5,1-0.5c0.4,0,0.8,0.1,1.1,0.3c0.3,0.3,0.5,0.6,0.5,1s-0.1,0.8-0.3,1.1l-6.5,7.8c-0.1,0.2-0.3,0.3-0.5,0.4
	C587.7,522.1,587.4,522.1,587.2,522.1z"/>
<path d="M531.1,589.6c-6.6,5.2-13.6,7.7-21,7.5c-3.7,0-7.4-0.9-10.8-2.4c-3.4-1.5-6.5-3.8-9-6.5c-20.3-21.2-19.1-75.6-19-77.9
	c0-0.8,0.2-1.6,0.5-2.3c0.3-0.7,0.8-1.4,1.3-1.9c1.2-1.1,2.7-1.7,4.3-1.6c0.8,0,1.6,0.2,2.3,0.5s1.4,0.8,1.9,1.3
	c0.5,0.6,1,1.2,1.2,2c0.3,0.7,0.4,1.5,0.4,2.3c-0.4,14.3,1.7,54.6,15.7,69.2c1.4,1.6,3.2,2.9,5.1,3.8c1.9,0.9,4.1,1.4,6.2,1.4
	c25.3,0.4,42.4-53.7,46.8-74.5c0.2-0.8,0.5-1.5,0.9-2.2c0.4-0.7,1-1.2,1.7-1.7c0.7-0.4,1.4-0.7,2.2-0.9c0.8-0.1,1.6-0.1,2.4,0
	s1.5,0.5,2.2,0.9c0.7,0.5,1.2,1,1.6,1.7c0.4,0.7,0.7,1.4,0.9,2.2c0.1,0.8,0.1,1.6-0.1,2.4c-3.2,14-7.6,27.8-13.3,41
	C548.2,570.7,540,582.6,531.1,589.6z"/>
<path d="M148.4,433.4c1.5-0.5,2.7-1.5,3.4-2.9c0.7-1.4,0.9-3,0.5-4.4c-0.4-1.5-1.4-2.7-2.7-3.5c-1.3-0.8-2.9-1-4.4-0.6
	c-29,7.5-48.4,5.5-57.6-6c-17.7-22.1,3.7-77.1,13.4-96.4c0.7-1.4,0.8-3.1,0.3-4.6c-0.5-1.5-1.6-2.8-3-3.5c-1.4-0.7-3.1-0.8-4.6-0.3
	c-1.5,0.5-2.8,1.6-3.5,3c-1.6,3.1-38.3,76.8-12.1,109.3c12.4,15.4,35.9,18.8,69.9,10.1L148.4,433.4z"/>
<path class="st0" d="M68.8,272.3c5.9-14.4,19.5-6.5,20.8-3.1c1.4-13.5,3.8-38.6,16.8-34.7c16.2,4.9,2.2,42.2,2.2,42.2
	s17.9-33.8,30-23.2c9.3,8.1-8.1,36.1-16,44.2c0,0,9.9,16,4.5,25.2c-5.4,9.2-17.2,9.6-17.2,9.6s6.6,13-8.5,14.6
	c-15.1,1.6-45.7-6-34.5-23.3c0,0-15.7-12,1.1-27.7C68,295.9,62.8,286.9,68.8,272.3z"/>
<path d="M97.2,348.7c-11.6,0-27.5-4-32.5-12.2c-1.7-2.7-2.8-6.9,0.3-12.6c-1.9-1.8-5.9-6.3-6.2-12.5c-0.3-5.4,2.2-10.7,7.4-15.8
	c-1.2-2.9-3.9-11.5,1.2-23.9c3.3-8.2,9-9.3,12.2-9.3c3.2,0.1,6.3,1.2,8.9,3.2c1.2-11.5,3.3-26.8,10.5-31.6c1.1-0.8,2.5-1.3,3.8-1.4
	c1.4-0.2,2.8,0,4.1,0.4c1.5,0.5,2.9,1.2,4.1,2.3c1.2,1,2.1,2.3,2.8,3.7c3.5,7.1,1.8,18.7-0.3,27.2c4.8-6.8,11.6-14.9,18.4-16.1
	c1.4-0.3,2.9-0.2,4.2,0.2c1.4,0.4,2.6,1.1,3.7,2.1c1,1,1.8,2.1,2.4,3.4c0.5,1.3,0.8,2.7,0.8,4.1c0.4,11.7-11.4,30.5-18.3,38
	c2.1,3.8,8.9,17.1,3.9,25.7c-4.4,7.5-12.5,9.6-16.4,10.1c0.8,2.3,1.5,6-0.3,9.3c-1.8,3.3-5.1,4.9-10.2,5.5
	C100.1,348.7,98.6,348.7,97.2,348.7z M79.4,265.4c-4.1,0-7.2,2.5-9.2,7.4c-5.6,13.8-0.9,22.3-0.9,22.3c0.2,0.3,0.2,0.6,0.2,1
	c0,0.3-0.2,0.6-0.5,0.9c-5.1,4.7-7.5,9.5-7.3,14.2c0.3,6.7,6,11.2,6,11.2c0.3,0.2,0.5,0.6,0.6,0.9c0.1,0.4,0,0.7-0.2,1.1
	c-2.5,4-2.8,7.4-0.9,10.5c5,8.1,23.5,11.7,34,10.6c4.1-0.4,6.7-1.7,7.9-3.9c1.9-3.5-0.5-8.4-0.6-8.5c-0.1-0.2-0.2-0.5-0.2-0.7
	c0-0.3,0.1-0.5,0.2-0.7c0.1-0.2,0.3-0.4,0.5-0.5c0.2-0.1,0.5-0.2,0.7-0.2c0.1,0,11-0.5,16-8.9c4.9-8.3-4.3-23.5-4.4-23.6
	c-0.2-0.3-0.2-0.6-0.2-1c0-0.3,0.2-0.6,0.4-0.9c6.5-6.6,18.6-25.9,18.2-36.6c0-1-0.1-2-0.5-2.9c-0.4-0.9-0.9-1.8-1.6-2.5
	c-0.7-0.7-1.6-1.2-2.5-1.4c-0.9-0.3-1.9-0.3-2.9-0.1c-10.2,1.9-22.2,24.2-22.3,24.4c-0.2,0.3-0.5,0.5-0.8,0.7
	c-0.3,0.1-0.7,0.1-1.1-0.1c-0.3-0.1-0.6-0.4-0.8-0.7c-0.2-0.3-0.2-0.7-0.1-1.1c0.1-0.3,9.2-24.9,3.8-35.9c-0.5-1.1-1.2-2-2-2.8
	c-0.9-0.8-1.9-1.3-3-1.7c-0.9-0.3-1.8-0.4-2.8-0.3c-0.9,0.1-1.8,0.4-2.6,1c-6.6,4.4-8.5,22.6-9.5,32.3v0.4c0,0.3-0.2,0.6-0.4,0.9
	c-0.2,0.2-0.5,0.4-0.9,0.4c-0.3,0-0.7,0-1-0.2c-0.3-0.2-0.5-0.4-0.6-0.8c-0.5-1.2-4.3-4.1-8.7-4.2L79.4,265.4z"/>
<path d="M86.6,327.6h-0.1c-0.4,0-0.8-0.2-1-0.5c-0.3-0.3-0.4-0.7-0.3-1.1c0.5-6,2.6-10.5,6.2-13.5c2.6-2.1,5.8-3.4,9.2-3.6
	c-2.5-5.8-8.3-21.3,0.1-27.8c0.9-0.8,2-1.3,3.2-1.6c1.2-0.3,2.4-0.3,3.6,0c8.4,1.8,15.9,16,16.2,16.6c0.2,0.4,0.2,0.8,0.1,1.1
	c-0.1,0.4-0.4,0.7-0.7,0.9c-0.4,0.2-0.8,0.2-1.1,0.1s-0.7-0.4-0.9-0.7c-2-3.8-8.4-13.8-14.2-15.1c-0.7-0.2-1.5-0.2-2.3,0
	c-0.7,0.2-1.4,0.5-2,1c-6.8,5.3-1,20.7,1.8,26.3c0.1,0.2,0.2,0.5,0.2,0.8c0,0.3-0.1,0.5-0.3,0.8c-0.2,0.2-0.4,0.4-0.6,0.5
	c-0.2,0.1-0.5,0.2-0.8,0.1c-3.4-0.2-6.8,0.9-9.5,2.9c-2.9,2.4-4.6,6.3-5.1,11.4c0,0.4-0.2,0.7-0.5,1
	C87.3,327.4,86.9,327.6,86.6,327.6z"/>
<path class="st0" d="M89.1,268.7c0,0,6.8,29.4-2.1,32.2c-8.9,2.8-12.8-18-12.8-18"/>
<path d="M85.4,302.7c-1.2,0-2.4-0.4-3.5-1c-6.3-3.8-9-17.8-9.1-18.4c0-0.2,0-0.4,0-0.6c0-0.2,0.1-0.4,0.2-0.5
	c0.1-0.2,0.3-0.3,0.4-0.4c0.2-0.1,0.3-0.2,0.5-0.2c0.2,0,0.4,0,0.6,0c0.2,0,0.4,0.1,0.5,0.2c0.2,0.1,0.3,0.3,0.4,0.4
	c0.1,0.2,0.2,0.4,0.2,0.5c0.7,3.7,3.4,13.8,7.7,16.4c0.5,0.3,1,0.5,1.5,0.6c0.5,0.1,1.1,0,1.6-0.2c5.2-1.6,3.8-18.8,1.1-30.5
	c-0.1-0.2-0.1-0.4-0.1-0.6c0-0.2,0.1-0.4,0.2-0.6c0.1-0.2,0.2-0.3,0.4-0.5c0.2-0.1,0.4-0.2,0.5-0.3c0.2,0,0.4-0.1,0.6,0
	c0.2,0,0.4,0.1,0.6,0.2s0.3,0.3,0.4,0.4c0.1,0.2,0.2,0.4,0.2,0.6c1.2,5.2,6.6,31-3.1,34C86.8,302.5,86.1,302.7,85.4,302.7z"/>
<path d="M371.2,336.1c-0.7,0-1.3-0.1-1.9-0.4c-0.6-0.3-1.1-0.6-1.6-1.1C331.6,296,315.5,252,310.1,234c-26.1,28.5-52.7,83-53,83.6
	c-0.3,0.6-0.6,1.1-1.1,1.5c-0.5,0.4-1,0.8-1.6,1s-1.2,0.3-1.9,0.3c-0.6,0-1.3-0.2-1.8-0.5c-0.6-0.3-1.1-0.7-1.5-1.2
	c-0.4-0.5-0.7-1-0.9-1.7c-0.2-0.6-0.3-1.3-0.2-1.9c0.1-0.6,0.2-1.3,0.5-1.8c1.3-2.6,31.7-64.9,60.8-92.1c0.6-0.6,1.4-1,2.2-1.2
	c0.8-0.2,1.7-0.2,2.5,0.1c0.8,0.2,1.5,0.7,2.1,1.3c0.6,0.6,1,1.4,1.2,2.2c0.1,0.6,13.6,57.5,57.5,104.4c0.6,0.7,1.1,1.5,1.2,2.5
	c0.2,0.9,0,1.9-0.3,2.7c-0.4,0.9-1,1.6-1.8,2.1C373.1,335.8,372.2,336.1,371.2,336.1L371.2,336.1z"/>
<path class="st1" d="M174.9,507.3c-8.1,6.8-11.1,17.4-6.1,21c7.6,5.5,17.1-7.2,17.1-7.2s-2.8,11.4,2.6,13.5
	c5.4,2.1,11.7-6.5,11.7-6.5s-3.3,13.5,2.8,14.9c6.1,1.4,11-10.6,11-10.6s-2.8,13.4,5.4,14.2c7,0.7,9.2-12.1,9.2-12.1
	s0.9,11.9,7.8,10.5c5.8-1.1,4.9-10.9,4.9-10.9s7.5,14.2,14.9,8.4c4.6-3.6,0.3-12.9-3.5-19.2c25.5-4.2,48.7-17.3,65.6-36.8
	c16.9-19.6,26.4-44.5,26.9-70.3c0.5-25.9-8-51.1-24.2-71.3c-16.1-20.2-38.8-34.2-64.1-39.4c-25.3-5.2-51.7-1.4-74.5,10.8
	s-40.6,32-50.4,55.9c-9.8,24-10.8,50.6-3.1,75.3C137,472.1,153.2,493.3,174.9,507.3z"/>
<path class="st0" d="M215.1,399c5-19.5-0.5-37.8-12.3-40.8c-11.7-3-25.3,10.4-30.3,29.9c-5,19.5,0.5,37.8,12.3,40.8
	C196.6,431.9,210.1,418.5,215.1,399z"/>
<path d="M188.2,430.8c-1.3,0-2.5-0.2-3.8-0.5c-6.2-1.6-11-7-13.5-15.2c-2.4-8-2.4-17.7,0.1-27.4c5.2-20.3,19.6-34.2,32.1-31
	c6.2,1.6,11,7,13.5,15.2c2.4,8,2.4,17.7-0.1,27.4c-2.5,9.7-7.1,18.3-13,24.1C198.7,428.3,193.3,430.8,188.2,430.8z M199.4,359.3
	c-10.2,0-21.1,12.2-25.4,29.2c-2.4,9.2-2.4,18.3-0.2,25.8c2.2,7.2,6.2,11.9,11.3,13.2c5.2,1.3,10.9-0.9,16.3-6.1
	c5.5-5.5,9.9-13.5,12.2-22.8c2.4-9.2,2.4-18.3,0.2-25.8c-2.2-7.2-6.2-11.9-11.3-13.2C201.5,359.4,200.4,359.3,199.4,359.3z"/>
<path d="M206.9,360c-1.2-0.8-2.6-1.4-4-1.8c-11.7-3-25.3,10.4-30.3,29.9c-5,19.6,0.5,37.8,12.3,40.8c1.4,0.4,2.9,0.5,4.4,0.4
	L206.9,360z"/>
<path d="M202.8,359.7c-0.1,0-0.2,0-0.4,0c-0.4-0.1-0.7-0.3-0.9-0.7c-0.2-0.3-0.3-0.7-0.2-1.1l2.6-10.2c0.1-0.4,0.4-0.7,0.7-0.9
	c0.3-0.2,0.7-0.2,1.1-0.1c0.4,0.1,0.7,0.3,0.9,0.7c0.2,0.3,0.3,0.7,0.2,1.1l-2.6,10.2c-0.1,0.3-0.3,0.6-0.5,0.8
	C203.5,359.6,203.2,359.7,202.8,359.7z"/>
<path d="M193.4,360c-0.3,0-0.6-0.1-0.9-0.3c-0.3-0.2-0.4-0.5-0.5-0.8l-2.8-10.1c-0.1-0.4-0.1-0.8,0.1-1.1c0.2-0.3,0.5-0.6,0.9-0.7
	c0.4-0.1,0.8-0.1,1.1,0.1c0.3,0.2,0.6,0.5,0.7,0.9l2.8,10.1c0.1,0.2,0.1,0.4,0,0.6c0,0.2-0.1,0.4-0.2,0.6c-0.1,0.2-0.2,0.3-0.4,0.4
	c-0.2,0.1-0.3,0.2-0.5,0.3C193.6,360,193.5,360,193.4,360z"/>
<path d="M211,364.5c-0.3,0-0.6-0.1-0.8-0.3c-0.2-0.2-0.4-0.4-0.5-0.7c-0.1-0.3-0.1-0.6-0.1-0.9c0.1-0.3,0.2-0.6,0.4-0.8l7.3-7.5
	c0.1-0.2,0.3-0.3,0.5-0.4c0.2-0.1,0.4-0.1,0.6-0.1c0.2,0,0.4,0,0.6,0.1c0.2,0.1,0.4,0.2,0.5,0.3c0.1,0.1,0.3,0.3,0.3,0.5
	s0.1,0.4,0.1,0.6c0,0.2,0,0.4-0.1,0.6c-0.1,0.2-0.2,0.4-0.4,0.5l-7.3,7.5c-0.1,0.1-0.3,0.3-0.5,0.3
	C211.4,364.5,211.2,364.5,211,364.5z"/>
<path d="M182.1,441.2c-0.1,0-0.2,0-0.4,0c-0.2,0-0.4-0.1-0.5-0.2c-0.2-0.1-0.3-0.3-0.4-0.4c-0.1-0.2-0.2-0.4-0.2-0.6
	c0-0.2,0-0.4,0-0.6l2.6-10.2c0.1-0.4,0.3-0.7,0.7-0.9c0.3-0.2,0.8-0.3,1.1-0.2c0.4,0.1,0.7,0.3,0.9,0.7c0.2,0.3,0.3,0.8,0.2,1.1
	l-2.6,10.2c-0.1,0.3-0.3,0.6-0.5,0.8C182.7,441.1,182.4,441.2,182.1,441.2z"/>
<path d="M197,440.9c-0.3,0-0.6-0.1-0.9-0.3c-0.3-0.2-0.4-0.5-0.5-0.8l-2.8-10.1c-0.1-0.4-0.1-0.8,0.1-1.1c0.2-0.3,0.5-0.6,0.9-0.7
	c0.4-0.1,0.8-0.1,1.1,0.1c0.3,0.2,0.6,0.5,0.7,0.9l2.8,10.1c0.1,0.4,0.1,0.8-0.1,1.1c-0.2,0.3-0.5,0.6-0.9,0.7
	C197.3,440.9,197.2,440.9,197,440.9z"/>
<path d="M169.2,433.8c-0.3,0-0.6-0.1-0.8-0.2s-0.4-0.4-0.6-0.7c-0.1-0.3-0.1-0.6-0.1-0.9c0.1-0.3,0.2-0.6,0.4-0.8l7.3-7.5
	c0.3-0.3,0.7-0.4,1.1-0.4c0.4,0,0.8,0.1,1.1,0.4c0.3,0.3,0.4,0.7,0.5,1.1c0,0.4-0.1,0.8-0.4,1.1l-7.3,7.5c-0.1,0.1-0.3,0.3-0.5,0.3
	C169.5,433.7,169.3,433.8,169.2,433.8z"/>
<path class="st0" d="M185.8,388.2l14.2,10l3-11.9L185.8,388.2z"/>
<path class="st0" d="M279.1,415.3c5-19.5-0.5-37.8-12.3-40.8c-11.7-3-25.3,10.4-30.3,29.9c-5,19.5,0.5,37.8,12.3,40.8
	C260.6,448.3,274.1,434.9,279.1,415.3z"/>
<path d="M252.2,447.2c-1.3,0-2.5-0.2-3.8-0.5c-6.2-1.6-11-7-13.5-15.2c-2.4-8-2.4-17.7,0.1-27.4c5.2-20.3,19.6-34.2,32.1-31
	c6.2,1.6,11,7,13.5,15.2c2.4,8,2.4,17.7-0.1,27.4c-2.5,9.7-7.1,18.3-12.9,24.1C262.7,444.7,257.3,447.2,252.2,447.2z M263.4,375.7
	c-10.2,0-21.1,12.2-25.4,29.2c-2.4,9.2-2.4,18.3-0.2,25.8c2.2,7.2,6.2,11.9,11.3,13.2c5.2,1.3,10.9-0.9,16.3-6.1
	c5.5-5.5,9.9-13.5,12.2-22.8c2.3-9.2,2.4-18.3,0.2-25.8c-2.2-7.2-6.2-11.9-11.3-13.2C265.5,375.7,264.5,375.6,263.4,375.7z"/>
<path d="M270.9,376.3c-1.2-0.8-2.6-1.4-4-1.8c-11.7-3-25.3,10.4-30.3,29.9c-5,19.5,0.5,37.8,12.3,40.7c1.4,0.4,2.9,0.5,4.4,0.4
	L270.9,376.3z"/>
<path d="M266.8,376.1c-0.1,0-0.2,0-0.4,0c-0.2,0-0.4-0.1-0.5-0.2c-0.2-0.1-0.3-0.3-0.4-0.4c-0.1-0.2-0.2-0.4-0.2-0.6
	c0-0.2,0-0.4,0-0.6l2.6-10.2c0-0.2,0.1-0.4,0.2-0.5c0.1-0.2,0.3-0.3,0.4-0.4c0.2-0.1,0.4-0.2,0.5-0.2c0.2,0,0.4,0,0.6,0
	c0.2,0,0.4,0.1,0.5,0.3c0.2,0.1,0.3,0.3,0.4,0.4c0.1,0.2,0.2,0.4,0.2,0.6c0,0.2,0,0.4,0,0.6l-2.6,10.2c-0.1,0.3-0.3,0.6-0.5,0.8
	C267.5,376,267.2,376.1,266.8,376.1z"/>
<path d="M257.4,376.3c-0.3,0-0.6-0.1-0.9-0.3c-0.3-0.2-0.5-0.5-0.5-0.8l-2.8-10.1c-0.1-0.4,0-0.8,0.2-1.1c0.2-0.3,0.5-0.6,0.9-0.7
	c0.4-0.1,0.8-0.1,1.1,0.1c0.3,0.2,0.6,0.5,0.7,0.8l2.8,10.1c0.1,0.2,0.1,0.5,0,0.7c0,0.2-0.1,0.4-0.3,0.6c-0.1,0.2-0.3,0.3-0.5,0.4
	C257.8,376.3,257.6,376.3,257.4,376.3z"/>
<path d="M275,380.8c-0.4,0-0.8-0.2-1.1-0.4c-0.3-0.3-0.4-0.7-0.4-1.1c0-0.4,0.2-0.8,0.4-1.1l7.3-7.5c0.1-0.1,0.3-0.3,0.5-0.3
	s0.4-0.1,0.6-0.1c0.2,0,0.4,0,0.6,0.1c0.2,0.1,0.3,0.2,0.5,0.3c0.1,0.1,0.3,0.3,0.3,0.5c0.1,0.2,0.1,0.4,0.1,0.6
	c0,0.2,0,0.4-0.1,0.6c-0.1,0.2-0.2,0.3-0.3,0.5l-7.3,7.5c-0.1,0.1-0.3,0.3-0.5,0.3C275.4,380.8,275.2,380.9,275,380.8z"/>
<path d="M246.1,457.6c-0.1,0-0.2,0-0.4,0c-0.4-0.1-0.7-0.3-0.9-0.7c-0.2-0.3-0.3-0.7-0.2-1.1l2.6-10.2c0-0.2,0.1-0.4,0.2-0.5
	c0.1-0.2,0.3-0.3,0.4-0.4c0.2-0.1,0.4-0.2,0.6-0.2c0.2,0,0.4,0,0.6,0c0.2,0.1,0.4,0.1,0.5,0.3c0.2,0.1,0.3,0.3,0.4,0.5
	c0.1,0.2,0.2,0.4,0.2,0.6c0,0.2,0,0.4-0.1,0.6l-2.6,10.2c-0.1,0.3-0.3,0.6-0.5,0.8C246.7,457.5,246.4,457.6,246.1,457.6z"/>
<path d="M261,457.2c-0.3,0-0.6-0.1-0.9-0.3c-0.3-0.2-0.5-0.5-0.5-0.8l-2.8-10.1c-0.1-0.2-0.1-0.4-0.1-0.6c0-0.2,0.1-0.4,0.2-0.6
	c0.1-0.2,0.2-0.3,0.4-0.5c0.2-0.1,0.3-0.2,0.5-0.3c0.2-0.1,0.4-0.1,0.6,0c0.2,0,0.4,0.1,0.6,0.2c0.2,0.1,0.3,0.3,0.4,0.4
	c0.1,0.2,0.2,0.4,0.2,0.6l2.8,10.1c0.1,0.2,0.1,0.5,0,0.7c0,0.2-0.1,0.4-0.3,0.6c-0.1,0.2-0.3,0.3-0.5,0.4
	C261.5,457.2,261.2,457.2,261,457.2z"/>
<path d="M233.1,450.1c-0.4,0-0.8-0.2-1-0.4c-0.1-0.1-0.2-0.3-0.3-0.5c-0.1-0.2-0.1-0.4-0.1-0.6c0-0.2,0-0.4,0.1-0.6
	c0.1-0.2,0.2-0.3,0.3-0.5l7.3-7.5c0.1-0.1,0.3-0.3,0.5-0.3c0.2-0.1,0.4-0.1,0.6-0.1c0.2,0,0.4,0,0.6,0.1c0.2,0.1,0.3,0.2,0.5,0.3
	c0.1,0.1,0.3,0.3,0.3,0.5s0.1,0.4,0.1,0.6c0,0.2,0,0.4-0.1,0.6c-0.1,0.2-0.2,0.3-0.3,0.5l-7.3,7.5c-0.1,0.1-0.3,0.3-0.5,0.3
	C233.6,450.1,233.3,450.1,233.1,450.1z"/>
<path class="st0" d="M249.8,404.6l14.2,10l3-11.9L249.8,404.6z"/>
<path d="M237,477.1c-1.1,0-2.2-0.2-3.2-0.5c-2.6-0.9-4.7-2.7-6-5.1c-1.3-2.4-1.6-5.2-1-7.8c0.1-0.4,0.3-0.7,0.7-0.9
	c0.3-0.2,0.7-0.3,1.1-0.2c0.4,0.1,0.7,0.3,0.9,0.7c0.2,0.3,0.3,0.7,0.2,1.1c-0.5,1.9-0.3,3.9,0.7,5.6c0.9,1.7,2.5,3.1,4.3,3.7
	c1.1,0.4,2.3,0.5,3.5,0.3c1.2-0.2,2.3-0.7,3.3-1.4c0.2-0.1,0.3-0.2,0.5-0.2c0.2,0,0.4-0.1,0.6,0c0.2,0,0.4,0.1,0.5,0.2
	c0.2,0.1,0.3,0.2,0.4,0.4c0.1,0.2,0.2,0.3,0.2,0.5c0,0.2,0.1,0.4,0,0.6c0,0.2-0.1,0.4-0.2,0.5s-0.2,0.3-0.4,0.4
	C241.5,476.4,239.3,477.1,237,477.1z"/>
<path d="M213.1,442.3c-0.3,0-0.7-0.1-0.9-0.3c-0.2-0.1-4.8-3.9-5.1-8.3c-0.1-0.9,0-1.9,0.4-2.7c0.3-0.9,0.8-1.7,1.5-2.3
	c0.6-0.7,1.3-1.3,2.2-1.7c0.8-0.4,1.8-0.6,2.7-0.5c4.1,0.2,7.4,4.4,7.7,4.9c0.2,0.3,0.3,0.7,0.3,1.1c-0.1,0.4-0.3,0.7-0.6,1
	c-0.3,0.2-0.7,0.3-1.1,0.3c-0.4-0.1-0.7-0.3-1-0.6c-0.8-1-3.2-3.6-5.5-3.7c-0.5,0-1,0.1-1.4,0.3c-0.4,0.2-0.8,0.5-1.1,0.9
	c-0.4,0.4-0.6,0.8-0.8,1.3c-0.2,0.5-0.3,1-0.2,1.5c0.2,2.6,3,5.3,4,6.2c0.2,0.2,0.4,0.5,0.5,0.8c0.1,0.3,0.1,0.6,0,0.9
	c-0.1,0.3-0.3,0.5-0.5,0.7C213.7,442.2,213.4,442.3,213.1,442.3z"/>
<path d="M209.2,480.2c-10.4-0.1-20.4-3.9-28.1-10.8c-0.3-0.3-0.4-0.7-0.4-1.1s0.2-0.8,0.4-1.1s0.7-0.4,1.1-0.4
	c0.4,0,0.8,0.2,1.1,0.4c0.8,0.8,19.3,18.9,46.7,4.5c0.4-0.2,0.8-0.2,1.1-0.1c0.4,0.1,0.7,0.4,0.9,0.7c0.2,0.4,0.2,0.8,0.1,1.1
	c-0.1,0.4-0.4,0.7-0.7,0.9C224.5,478.1,216.9,480.1,209.2,480.2z"/>
<path d="M209.4,488.3c-3,0-6-0.3-9-1c-0.4-0.1-0.7-0.3-0.9-0.7c-0.2-0.3-0.3-0.8-0.2-1.1c0.1-0.4,0.3-0.7,0.7-0.9
	c0.3-0.2,0.8-0.3,1.1-0.2c0.1,0,10.8,2.7,20.8-1.4c0.2-0.1,0.4-0.1,0.6-0.1c0.2,0,0.4,0,0.6,0.1c0.2,0.1,0.4,0.2,0.5,0.3
	c0.1,0.1,0.3,0.3,0.3,0.5c0.1,0.2,0.1,0.4,0.1,0.6c0,0.2,0,0.4-0.1,0.6c-0.1,0.2-0.2,0.4-0.3,0.5c-0.1,0.1-0.3,0.3-0.5,0.3
	C218.7,487.5,214.1,488.3,209.4,488.3z"/>
<path d="M235,526.3c-5.9,0-11.8-0.5-17.6-1.4c-28.5-4.5-54.2-19.9-71.7-43c-17.4-23.1-25.3-52-21.9-80.7c3.4-28.7,17.7-55,40.1-73.4
	c22.3-18.4,50.9-27.4,79.7-25.1c28.8,2.3,55.6,15.6,74.8,37.2c19.2,21.6,29.3,49.8,28.2,78.7c-1.1,28.9-13.3,56.3-34.1,76.3
	C291.7,515.1,263.9,526.3,235,526.3z M234.7,304.6c-28.2,0-55.4,11-75.7,30.6c-20.4,19.6-32.3,46.3-33.4,74.6
	c-1.1,28.3,8.8,55.8,27.5,77c18.8,21.1,45,34.2,73.1,36.4c28.2,2.2,56.1-6.6,77.9-24.5c21.8-18,35.8-43.7,39.1-71.7
	c3.3-28.1-4.4-56.4-21.5-78.9c-17.1-22.5-42.2-37.6-70.1-42C246.1,305.1,240.4,304.6,234.7,304.6z"/>
<path d="M220.1,548.1h-0.7c-1-0.1-2-0.4-2.9-0.9c-0.9-0.5-1.7-1.2-2.3-2c-1.2-1.8-1.9-4-2-6.1c-2.2,3.2-5.5,6.3-9.4,5.4
	c-0.7-0.2-1.4-0.5-2-0.9c-0.6-0.4-1.1-1-1.5-1.6c-1.5-2.4-1.6-6.1-1.3-9.2c-2.6,2.3-6.3,4.6-10,3.2c-4-1.5-4.5-6.4-4.3-10.2
	c-3.8,3.6-10.1,7.9-15.8,3.8c-1-0.7-1.7-1.7-2.3-2.8c-0.5-1.1-0.8-2.3-0.8-3.5c-0.2-5.5,3.4-12.4,9-17.2c0.3-0.3,0.7-0.4,1.1-0.3
	c0.4,0,0.8,0.2,1,0.5c0.3,0.3,0.4,0.7,0.3,1.1c0,0.4-0.2,0.8-0.5,1c-4.9,4.1-8.1,10.2-8,14.7c0,0.7,0.1,1.5,0.4,2.2
	c0.3,0.7,0.8,1.3,1.4,1.8c6.3,4.6,15-6.8,15.1-6.9c0.2-0.3,0.5-0.5,0.8-0.6c0.3-0.1,0.7,0,1,0.1c0.3,0.1,0.6,0.4,0.7,0.7
	c0.1,0.3,0.2,0.7,0.1,1c-0.6,2.6-1.7,10.4,1.7,11.7c3.4,1.3,8.4-3.8,10-6c0.2-0.3,0.5-0.5,0.8-0.5c0.3-0.1,0.7-0.1,1,0.1
	c0.3,0.1,0.6,0.4,0.7,0.7c0.2,0.3,0.2,0.6,0.1,1c-0.6,2.3-1.7,9,0.1,11.9c0.2,0.3,0.4,0.6,0.6,0.8c0.3,0.2,0.6,0.4,0.9,0.4
	c4,0.9,8.1-6.9,9.2-9.7c0.1-0.3,0.4-0.6,0.7-0.8c0.3-0.2,0.7-0.2,1.1-0.1c0.4,0.1,0.7,0.3,0.8,0.7c0.2,0.3,0.3,0.7,0.2,1.1
	c-0.4,2-1.1,7.8,1,10.7c0.4,0.5,0.8,0.9,1.4,1.2c0.5,0.3,1.1,0.5,1.7,0.5c5.6,0.6,7.6-10.7,7.6-10.8c0.1-0.4,0.2-0.7,0.5-0.9
	c0.3-0.2,0.6-0.4,1-0.3c0.4,0,0.7,0.2,1,0.4c0.3,0.3,0.4,0.6,0.4,1c0.1,1.8,1,6.8,3.4,8.6c0.4,0.3,0.8,0.5,1.3,0.6
	c0.5,0.1,0.9,0.1,1.4,0c4.3-0.8,3.7-9.2,3.7-9.3c0-0.3,0.1-0.7,0.2-1c0.2-0.3,0.5-0.5,0.8-0.6c0.3-0.1,0.7-0.1,1,0.1
	c0.3,0.1,0.6,0.4,0.7,0.7c1.2,2.2,5,8.1,8.9,8.9c0.6,0.1,1.3,0.1,2-0.1c0.6-0.2,1.2-0.5,1.7-0.9c2.8-2.2,1.4-8.5-3.8-17.2
	c-0.2-0.3-0.3-0.7-0.2-1.1c0.1-0.4,0.3-0.7,0.7-0.9c0.3-0.2,0.7-0.3,1.1-0.2c0.4,0.1,0.7,0.3,0.9,0.7c6.3,10.5,7.3,17.8,3.1,21.1
	c-0.8,0.7-1.8,1.2-2.9,1.5c-1.1,0.3-2.2,0.3-3.3,0.1c-3.4-0.7-6.4-3.8-8.4-6.4c-0.5,3.2-2,6.9-5.9,7.6c-0.9,0.2-1.8,0.2-2.6,0
	c-0.9-0.2-1.7-0.6-2.4-1.1c-1.5-1.3-2.7-3-3.3-4.9C227.1,544.1,224.5,548.1,220.1,548.1z"/>
<path class="st1" d="M421.9,515.8c-2.1,10.3,2.1,20.5,8.2,20.3c9.4-0.4,9-16.3,9-16.3s4.8,10.7,10.4,8.9c5.6-1.7,5.2-12.3,5.2-12.3
	s5.7,12.6,11.4,10s2.1-15.1,2.1-15.1s6,12.3,13,7.8c6-3.8-0.2-15.2-0.2-15.2s8.1,8.8,12.7,3.4c3.8-4.5-2.9-11.6-2.9-11.6
	s14.7,6.5,16.9-2.6c1.4-5.7-7.8-10.3-14.6-12.9c17.4-19.1,27.6-43.7,28.8-69.6c1.2-25.9-6.7-51.3-22.3-72
	c-15.6-20.7-37.9-35.2-63.1-41.1c-25.2-5.9-51.6-2.8-74.7,8.7c-23.1,11.6-41.5,30.9-51.9,54.5c-10.4,23.7-12.2,50.3-5.1,75.2
	c7.1,24.9,22.7,46.5,44.1,61.1C370.4,511.6,396.2,518.2,421.9,515.8z"/>
<path d="M411.7,517.7c-27.3,0-53.6-9.9-74.1-27.9c-20.5-18-33.7-42.9-37.2-70c-3.5-27.1,3-54.5,18.3-77.2
	c15.3-22.6,38.2-38.9,64.6-45.8c26.4-6.9,54.4-3.9,78.8,8.3c24.4,12.3,43.4,33,53.6,58.4c10.2,25.3,10.8,53.5,1.7,79.3
	c-9.1,25.8-27.2,47.3-51,60.6C449.6,512.8,430.8,517.7,411.7,517.7z M411.3,296c-27.8,0-54.5,10.5-74.8,29.4
	c-20.3,18.9-32.7,44.9-34.6,72.6c-1.9,27.7,6.7,55.2,24.2,76.7c17.5,21.6,42.5,35.7,70,39.6c27.5,3.8,55.4-2.9,78.1-18.9
	c22.7-16,38.5-40,44.3-67.2c5.7-27.2,0.9-55.6-13.4-79.3c-14.4-23.8-37.2-41.2-63.9-48.8C431.5,297.4,421.4,296,411.3,296z"/>
<path d="M429.9,537.5c-1.2,0-2.3-0.3-3.3-0.8c-1-0.5-1.9-1.3-2.6-2.2c-3.6-4.2-5-11.8-3.5-19c0-0.2,0.1-0.4,0.2-0.5
	c0.1-0.2,0.3-0.3,0.4-0.4c0.2-0.1,0.3-0.2,0.5-0.2c0.2,0,0.4,0,0.6,0c0.2,0,0.4,0.1,0.5,0.2c0.2,0.1,0.3,0.3,0.4,0.4
	c0.1,0.2,0.2,0.3,0.2,0.5c0,0.2,0,0.4,0,0.6c-1.3,6.3-0.1,13,2.8,16.5c0.4,0.6,1,1.1,1.7,1.5c0.7,0.3,1.4,0.5,2.2,0.5
	c7.8-0.3,7.6-14.6,7.6-14.7c0-0.3,0.1-0.7,0.3-1c0.2-0.3,0.5-0.5,0.9-0.5c0.3-0.1,0.7,0,1,0.1c0.3,0.2,0.6,0.4,0.7,0.7
	c1.1,2.5,5.1,9.2,8.6,8.1c3.5-1.1,4.3-8.2,4.2-10.9c0-0.3,0.1-0.7,0.3-1c0.2-0.3,0.5-0.5,0.8-0.5c0.3-0.1,0.7,0,1,0.1
	c0.3,0.2,0.6,0.4,0.7,0.7c1,2.2,4.2,8.1,7.4,9.3c0.3,0.1,0.6,0.2,1,0.2c0.3,0,0.7-0.1,1-0.2c3.7-1.7,2.1-10.4,1.3-13.3
	c-0.1-0.4-0.1-0.7,0.1-1.1c0.2-0.3,0.4-0.6,0.8-0.7c0.3-0.1,0.7-0.1,1.1,0c0.3,0.1,0.6,0.4,0.8,0.7c0.9,1.8,4,6.8,7.4,7.8
	c0.6,0.2,1.2,0.2,1.8,0.1c0.6-0.1,1.2-0.3,1.7-0.7c4.7-3-0.6-13.2-0.7-13.2c-0.2-0.3-0.2-0.7-0.1-1c0.1-0.3,0.3-0.6,0.6-0.8
	c0.3-0.2,0.6-0.3,1-0.3c0.4,0,0.7,0.2,0.9,0.4c1.2,1.3,5,4.7,7.9,4.7h0.1c0.5,0,0.9-0.1,1.3-0.3c0.4-0.2,0.8-0.5,1.1-0.9
	c2.9-3.3-2.8-9.5-2.8-9.6c-0.2-0.3-0.4-0.6-0.4-0.9c0-0.3,0.1-0.7,0.3-1c0.2-0.3,0.5-0.5,0.8-0.6c0.3-0.1,0.7-0.1,1,0.1
	c2.3,1,8.9,3.2,12.5,1.5c0.6-0.3,1.1-0.7,1.5-1.3c0.4-0.5,0.7-1.1,0.8-1.8c0.9-3.5-4.1-7.6-13.6-11.2c-0.2-0.1-0.4-0.2-0.5-0.3
	c-0.1-0.1-0.3-0.3-0.3-0.5c-0.1-0.2-0.1-0.4-0.1-0.6c0-0.2,0-0.4,0.1-0.6s0.2-0.4,0.3-0.5c0.1-0.1,0.3-0.3,0.5-0.3
	c0.2-0.1,0.4-0.1,0.6-0.1c0.2,0,0.4,0,0.6,0.1c11.4,4.4,16.8,9.5,15.5,14.7c-0.2,1.1-0.7,2.1-1.4,3c-0.7,0.9-1.5,1.6-2.5,2.1
	c-3.1,1.5-7.3,1-10.5,0.1c1.6,2.8,2.7,6.6,0.1,9.6c-0.6,0.7-1.3,1.2-2.1,1.6c-0.8,0.4-1.7,0.6-2.6,0.6c-2-0.1-4-0.7-5.6-1.8
	c1.1,4,1.5,9.1-2.5,11.6c-0.9,0.6-1.8,1-2.8,1.1c-1,0.2-2.1,0.1-3-0.2c-2.1-0.7-3.9-1.9-5.3-3.6c0.2,3.9-0.4,8.4-4.1,10.1
	c-0.7,0.3-1.4,0.5-2.1,0.5c-0.7,0-1.5-0.1-2.1-0.4c-2.7-1-5-3.9-6.7-6.4c-0.6,3.4-2.2,7.5-5.9,8.7c-4.1,1.3-7.5-2.2-9.7-5.4
	c-0.8,5.1-3.1,12.4-10.1,12.7L429.9,537.5z"/>
<path d="M454.4,442.6c-2.3,0-4.5-0.7-6.3-2c-1.9-1.3-3.3-3.1-4.1-5.2c-0.1-0.4-0.1-0.8,0.1-1.1c0.2-0.4,0.5-0.6,0.8-0.8
	c0.4-0.1,0.8-0.1,1.1,0c0.4,0.1,0.6,0.4,0.8,0.8c0.7,1.9,2.1,3.5,3.9,4.4c1.8,0.9,3.9,1.1,5.9,0.6c1.2-0.4,2.3-1,3.2-1.9
	c0.9-0.9,1.6-1.9,2-3.1c0.1-0.2,0.2-0.4,0.3-0.5c0.1-0.1,0.3-0.3,0.5-0.4c0.2-0.1,0.4-0.1,0.6-0.1c0.2,0,0.4,0,0.6,0.1
	c0.2,0.1,0.4,0.2,0.5,0.3c0.1,0.1,0.3,0.3,0.4,0.5c0.1,0.2,0.1,0.4,0.1,0.6c0,0.2,0,0.4-0.1,0.6c-0.5,1.6-1.5,3.1-2.7,4.3
	c-1.2,1.2-2.7,2.1-4.4,2.6C456.5,442.4,455.5,442.6,454.4,442.6z"/>
<path d="M414.5,435L414.5,435c-0.4,0-6.4-0.4-9.3-4c-0.6-0.7-1-1.6-1.3-2.5c-0.2-0.9-0.3-1.9-0.1-2.8c0.1-0.9,0.4-1.9,0.9-2.7
	c0.5-0.8,1.2-1.5,1.9-2c3.6-2.2,8.9-0.6,9.4-0.4c0.4,0.1,0.7,0.4,0.9,0.7c0.2,0.4,0.2,0.8,0.1,1.1c-0.1,0.4-0.4,0.7-0.7,0.9
	c-0.4,0.2-0.8,0.2-1.1,0.1c-1.2-0.4-4.9-1.2-6.9,0.1c-0.4,0.3-0.8,0.7-1,1.1c-0.3,0.4-0.4,0.9-0.4,1.5c-0.1,0.5-0.1,1.1,0.1,1.6
	s0.4,1,0.7,1.4c1.7,2.1,5.7,2.8,7.1,2.9c0.2,0,0.4,0.1,0.6,0.1c0.2,0.1,0.3,0.2,0.5,0.3c0.1,0.1,0.2,0.3,0.3,0.5
	c0.1,0.2,0.1,0.4,0.1,0.6c0,0.2-0.1,0.4-0.1,0.6c-0.1,0.2-0.2,0.3-0.3,0.5c-0.1,0.1-0.3,0.2-0.5,0.3C414.9,435,414.7,435,414.5,435
	L414.5,435z"/>
<path d="M413.5,467.6c-1.7,0-3.3-0.1-5-0.3c-0.4-0.1-0.7-0.3-0.9-0.6c-0.2-0.3-0.3-0.7-0.2-1.1c0.1-0.4,0.3-0.7,0.6-1
	c0.3-0.2,0.7-0.3,1.1-0.3c1.1,0.2,27.6,4.6,42.3-23.9c0.2-0.4,0.5-0.6,0.9-0.7c0.2-0.1,0.4-0.1,0.6-0.1c0.2,0,0.4,0.1,0.6,0.2
	c0.2,0.1,0.3,0.2,0.5,0.4c0.1,0.2,0.2,0.3,0.3,0.5c0.1,0.2,0.1,0.4,0.1,0.6c0,0.2-0.1,0.4-0.2,0.6
	C442.2,464.7,422.6,467.6,413.5,467.6z"/>
<path class="st0" d="M387.6,432.8c10.8-4.1,13.7-22.8,6.6-41.9c-7.2-19.1-21.7-31.2-32.5-27.2c-10.8,4.1-13.7,22.8-6.6,41.9
	C362.3,424.7,376.9,436.9,387.6,432.8z"/>
<path d="M383.4,435c-10.8,0-23.2-11.7-29.6-28.9c-7.4-19.8-4.1-39.4,7.4-43.8c11.5-4.3,27,8.2,34.4,28c7.4,19.8,4.1,39.4-7.4,43.8
	C386.7,434.8,385,435,383.4,435z M366.2,364.4c-1.3,0-2.7,0.2-3.9,0.7c-10,3.7-12.5,21.7-5.7,39.9c6.9,18.3,20.6,30.1,30.5,26.3
	c10-3.8,12.5-21.7,5.7-39.9C386.8,375.5,375.6,364.4,366.2,364.4z"/>
<path d="M367.6,394c0.5,2.5,1.2,5,2.1,7.4l0.3,0.7h12.5l-6.4,10.5c5.8,7.3,13.4,11.4,20.3,10.4c3-8.2,2.5-20.1-2-32.1
	c-1.3-3.4-2.9-6.7-4.7-9.9C382,390.8,369.6,393.6,367.6,394z"/>
<path d="M352.4,397.5c-0.4,0-0.8-0.2-1.1-0.4c-0.3-0.3-0.4-0.7-0.4-1.1c0-0.4,0.2-0.8,0.4-1.1c0.3-0.3,0.7-0.4,1.1-0.4
	c13.4-0.4,26.3-5.2,36.6-13.8c0.3-0.2,0.7-0.3,1.1-0.3c0.4,0,0.7,0.2,1,0.5c0.2,0.3,0.4,0.7,0.4,1c0,0.4-0.2,0.7-0.5,1
	C380.1,392.1,366.6,397.2,352.4,397.5L352.4,397.5z"/>
<path class="st0" d="M444.9,411.3c10.8-4.1,13.7-22.8,6.6-41.9c-7.2-19.1-21.7-31.2-32.5-27.2c-10.8,4.1-13.7,22.8-6.6,41.9
	C419.6,403.2,434.1,415.3,444.9,411.3z"/>
<path d="M440.6,413.5c-10.8,0-23.1-11.7-29.6-28.9c-3.6-9.4-4.8-19.2-3.5-27.3c1.3-8.5,5.2-14.3,10.9-16.5
	c5.7-2.2,12.5-0.3,19.1,5.2c6.3,5.3,11.8,13.4,15.3,22.9c7.4,19.8,4.1,39.4-7.4,43.8C443.9,413.2,442.3,413.5,440.6,413.5z
	 M423.4,342.9c-1.3,0-2.6,0.2-3.9,0.7c-4.7,1.8-7.9,6.8-9,14.1c-1.2,7.6,0,16.8,3.4,25.8c6.9,18.3,20.6,30.1,30.5,26.3
	c10-3.8,12.5-21.7,5.7-39.9c-3.4-9-8.5-16.7-14.4-21.6C431.4,344.7,427.2,342.9,423.4,342.9z"/>
<path d="M424.8,372.4c0.5,2.5,1.2,5,2.1,7.4l0.3,0.7h12.5l-6.4,10.5c5.8,7.3,13.4,11.4,20.3,10.4c3-8.2,2.5-20.1-2-32.1
	c-1.3-3.4-2.9-6.7-4.7-9.9C439.2,369.3,426.8,372,424.8,372.4z"/>
<path d="M409.7,376c-0.4,0-0.8-0.2-1.1-0.4c-0.3-0.3-0.4-0.7-0.4-1.1c0-0.4,0.2-0.8,0.4-1.1c0.3-0.3,0.7-0.4,1.1-0.4
	c13.4-0.4,26.3-5.2,36.6-13.8c0.1-0.1,0.3-0.2,0.5-0.3c0.2-0.1,0.4-0.1,0.6-0.1c0.2,0,0.4,0.1,0.6,0.2c0.2,0.1,0.3,0.2,0.5,0.4
	c0.1,0.1,0.2,0.3,0.3,0.5c0.1,0.2,0.1,0.4,0.1,0.6c0,0.2-0.1,0.4-0.2,0.6c-0.1,0.2-0.2,0.3-0.4,0.5
	C437.4,370.5,423.8,375.6,409.7,376L409.7,376z"/>
<path d="M605,400c-6.7-12-26.2-19.5-59.7-23c-9.8-1-19.1-1.5-26.9-1.7c0.2,2.1,1.2,4,2,6c0.6,2,1,4,1.1,6c30.4,1.2,66.2,6.4,73,18.6
	c1,1.7,1.6,3.6,1.8,5.5c0.2,1.9-0.1,3.9-0.8,5.7c-6.1,17.2-40.4,34.4-53.2,39.5c-1.5,0.6-2.6,1.8-3.3,3.2c-0.6,1.5-0.6,3.1,0,4.6
	c0.6,1.5,1.7,2.7,3.2,3.3c1.5,0.6,3.1,0.6,4.6,0c5.2-2.1,51-21.2,60-46.7c1.3-3.4,1.8-7.1,1.5-10.7C608,406.7,606.9,403.2,605,400z"
	/>
<path class="st0" d="M546,445c-5.2-7.4-11.7,3.8-11.7,3.8s-3.1-5-10.8-5.8c0,0-9.1-30.6-21.7-25.2c-10.9,4.7,3.7,31.6,3.7,31.6
	l-10.8,3.3c-25.7,5.9-9.1,17.9-9.1,17.9c-9.2,9.3,2,17,2,17s-0.4,2.6-0.4,3c-0.1,1.3,0.1,2.6,0.5,3.8c1,2.4,2.7,4.5,4.9,6.1
	c3.7,2.6,8,3.9,12.5,3.9c8.7,0.1,17.4-1.9,25.1-6c10.1-5.3,13.2-13.4,16-18.1c2.8,0.8,7.5,0.1,8.9-1.2c1-1.1,1.7-2.4,2.1-3.8
	c0.3-1.4,0.2-2.9-0.3-4.3C554.7,464.5,550,450.6,546,445z"/>
<path d="M506.1,505.8h-1.2c-5.5-0.1-9.9-1.5-13.4-4.2c-2.4-1.7-4.2-4-5.3-6.7c-0.6-1.4-0.8-3-0.6-4.5c0-0.2,0.2-1.4,0.3-2.2
	c-1.6-1.3-5.1-4.6-5.5-9.2c-0.1-1.5,0.1-3.1,0.6-4.5c0.5-1.4,1.3-2.8,2.3-3.9c-1.9-1.8-5.3-5.5-4.4-9.7c0.9-4.4,6-7.6,15.4-9.8
	l9.1-2.7c-2.5-4.9-9.2-19.4-6.4-27.3c0.3-1.1,0.9-2,1.6-2.9c0.7-0.8,1.7-1.5,2.7-1.9c1.2-0.5,2.5-0.8,3.8-0.8c1.3,0,2.6,0.3,3.8,0.9
	c8.7,4.1,14.5,20.8,15.9,25c3.6,0.5,7,2.1,9.6,4.7c1.5-2.1,4.3-5.2,7.6-5.3c1.4-0.1,3.6,0.4,5.5,3.1c4,5.6,8.6,18.8,11,26.2
	c0.6,1.7,0.7,3.4,0.3,5.2c-0.4,1.7-1.2,3.3-2.5,4.5c-1.7,1.6-6.1,2.3-9.2,1.9c-0.3,0.5-0.6,1-0.9,1.6c-2.7,4.9-6.3,11.5-15.1,16.1
	C523.3,503.6,514.8,505.8,506.1,505.8z M504.7,418.6c-0.8,0-1.6,0.2-2.4,0.5c-0.6,0.3-1.2,0.7-1.7,1.2c-0.5,0.5-0.8,1.1-1,1.8
	c-2.4,6.8,4.3,21.5,7.1,26.6c0.1,0.2,0.2,0.4,0.2,0.6c0,0.2,0,0.4-0.1,0.6c-0.1,0.2-0.2,0.4-0.4,0.5c-0.2,0.2-0.4,0.3-0.6,0.3
	l-10.9,3.3c-10.2,2.3-12.8,5.4-13.2,7.5c-0.8,3.7,4.5,7.7,4.5,7.7c0.2,0.1,0.3,0.3,0.4,0.5c0.1,0.2,0.2,0.4,0.2,0.6
	c0,0.2,0,0.4-0.1,0.6c-0.1,0.2-0.2,0.4-0.3,0.6c-2.4,2.4-3.4,4.8-3.2,7.2c0.4,4.4,4.9,7.5,5,7.6c0.2,0.2,0.4,0.4,0.5,0.6
	c0.1,0.3,0.2,0.5,0.1,0.8c0,0-0.4,2.6-0.4,2.9c-0.1,1.1,0,2.1,0.4,3.1c0.9,2.2,2.5,4,4.4,5.4c3,2.3,6.7,3.4,11.7,3.6
	c8.5,0.1,16.9-1.9,24.4-5.9c8.1-4.2,11.4-10.4,13.9-14.9c0.5-0.9,1-1.8,1.5-2.6c0.2-0.3,0.4-0.5,0.7-0.6c0.3-0.1,0.6-0.1,1,0
	c2.4,0.7,6.6-0.1,7.4-0.9c0.8-0.9,1.4-1.9,1.6-3.1c0.2-1.2,0.2-2.4-0.2-3.5c-1.9-5.8-6.7-19.9-10.6-25.4c-1.4-2-2.5-1.9-2.9-1.9
	c-2.6,0.1-5.5,4.1-6.3,5.5c-0.1,0.2-0.3,0.4-0.5,0.5c-0.2,0.1-0.5,0.2-0.7,0.2s-0.5-0.1-0.7-0.2c-0.2-0.1-0.4-0.3-0.5-0.5
	c-0.1-0.2-2.9-4.4-9.7-5.1c-0.3,0-0.6-0.1-0.8-0.3c-0.2-0.2-0.4-0.4-0.5-0.7c0-0.2-6-20.1-14.5-24.1
	C506.7,418.9,505.7,418.6,504.7,418.6z"/>
<path d="M485.4,472.1c-0.4,0-0.7-0.2-1-0.4c-0.3-0.2-0.4-0.6-0.5-1c0-0.4,0.1-0.7,0.3-1c0.2-0.3,0.5-0.5,0.9-0.6l11.9-2.3
	c0.4-0.1,0.8,0,1.1,0.3c0.3,0.2,0.5,0.6,0.6,0.9s0,0.8-0.2,1.1c-0.2,0.3-0.5,0.6-0.9,0.6l-11.9,2.4L485.4,472.1z"/>
<path d="M487.5,489.1c-0.4,0-0.7-0.1-1-0.4c-0.3-0.3-0.5-0.6-0.5-1c0-0.4,0.1-0.7,0.3-1c0.2-0.3,0.6-0.5,0.9-0.6l12-2.3
	c0.2,0,0.4,0,0.6,0c0.2,0,0.4,0.1,0.5,0.2c0.2,0.1,0.3,0.3,0.4,0.4c0.1,0.2,0.2,0.3,0.2,0.5c0,0.2,0,0.4,0,0.6
	c0,0.2-0.1,0.4-0.2,0.5s-0.3,0.3-0.4,0.4c-0.2,0.1-0.3,0.2-0.5,0.2l-12,2.3C487.7,489.1,487.6,489.1,487.5,489.1z"/>
<path class="st2" d="M313.4,222c0,0,8.4,49.1,73.5,46.2s93.6-42.2,131.2-39.7C518.1,228.6,442.7,113.6,313.4,222z"/>
<path d="M381.6,269.9c-30.8,0-47.9-12.1-57-22.7c-6.3-7.1-10.6-15.7-12.7-24.9c0-0.3,0-0.5,0.1-0.8c0.1-0.2,0.2-0.5,0.4-0.6
	c43.1-36.1,84.9-51.5,124.1-45.7c52.8,7.8,82.5,52.2,82.8,52.6c0.1,0.2,0.2,0.5,0.2,0.8c0,0.3-0.1,0.5-0.2,0.8
	c-0.1,0.2-0.3,0.4-0.6,0.6c-0.2,0.1-0.5,0.2-0.8,0.2c-16.9-1.2-32.1,6.5-49.7,15.2c-21.5,10.7-45.8,22.9-81.4,24.4
	C385.1,269.8,383.3,269.9,381.6,269.9z M315,222.6c2.2,8.4,6.3,16.2,12,22.8c13.1,15.2,33.8,22.6,59.8,21.4
	c34.9-1.5,59-13.5,80.2-24.1c16.7-8.4,31.4-15.7,47.6-15.7h0.5c-7-9.3-34.6-42.3-79-48.9C397.9,172.5,357.2,187.5,315,222.6z"/>
<path d="M518.1,230.1c-0.3,0-0.5-0.1-0.8-0.2c-29.7-17.8-65.9-35.1-119.1-14.8c-53.5,20.4-84.9,8-86.3,7.4c-0.2-0.1-0.3-0.2-0.5-0.3
	c-0.1-0.1-0.2-0.3-0.3-0.5c-0.1-0.2-0.1-0.4-0.1-0.6c0-0.2,0-0.4,0.1-0.6c0.1-0.2,0.2-0.3,0.3-0.5c0.1-0.1,0.3-0.2,0.5-0.3
	c0.2-0.1,0.4-0.1,0.6-0.1c0.2,0,0.4,0,0.6,0.1c0.3,0.1,31.8,12.5,84.1-7.5c51.8-19.8,89.1-4.4,121.6,15.1c0.3,0.2,0.5,0.4,0.6,0.7
	c0.1,0.3,0.1,0.6,0,1c-0.1,0.3-0.3,0.6-0.5,0.8C518.7,230,518.4,230.1,518.1,230.1L518.1,230.1z"/>
<path d="M396.7,246.5c-0.4,0-0.8-0.2-1.1-0.4c-0.2-0.2-19.9-19.4-35.6-20.9c-0.4,0-0.8-0.2-1-0.5c-0.3-0.3-0.4-0.7-0.3-1.1
	c0-0.4,0.2-0.8,0.5-1c0.3-0.3,0.7-0.4,1.1-0.3c16.7,1.6,36.5,20.9,37.4,21.7c0.3,0.3,0.4,0.7,0.4,1.1s-0.2,0.8-0.4,1.1
	c-0.1,0.1-0.3,0.3-0.5,0.3C397.1,246.4,396.9,246.5,396.7,246.5z"/>
<path d="M388.4,218.4c-0.2,0-0.5-0.1-0.7-0.2s-0.4-0.3-0.5-0.4c-0.2-0.3-0.3-0.7-0.3-1.1c0.1-0.4,0.3-0.7,0.6-1
	c0.2-0.1,16.1-12,19-20.1c0.1-0.2,0.2-0.4,0.3-0.5c0.1-0.1,0.3-0.3,0.5-0.3c0.2-0.1,0.4-0.1,0.6-0.1c0.2,0,0.4,0,0.6,0.1
	c0.2,0.1,0.4,0.2,0.5,0.3c0.1,0.1,0.3,0.3,0.3,0.5c0.1,0.2,0.1,0.4,0.1,0.6c0,0.2,0,0.4-0.1,0.6c-3.2,8.9-19.3,20.9-20,21.4
	C389.1,218.3,388.8,218.4,388.4,218.4z"/>
<path d="M447.6,226.3c-0.4,0-0.8-0.2-1-0.4c-0.1-0.1-13.8-13.2-29.7-16.8c-0.4-0.1-0.7-0.3-0.9-0.7c-0.2-0.3-0.3-0.7-0.2-1.1
	c0.1-0.4,0.3-0.7,0.7-0.9c0.3-0.2,0.7-0.3,1.1-0.2c16.7,3.7,30.5,17,31.1,17.6c0.1,0.1,0.2,0.3,0.3,0.5c0.1,0.2,0.1,0.4,0.1,0.6
	s0,0.4-0.1,0.6c-0.1,0.2-0.2,0.3-0.3,0.5C448.4,226.2,448,226.3,447.6,226.3z"/>
<path class="st0" d="M444.4,315.1c11.5-8.4,44.3,28.3,38.1,35.1C476.4,357,432.9,323.4,444.4,315.1z"/>
<path class="st0" d="M495.1,373.8c7.6-1.4,6-13.6-2.1-13.3C484.8,360.8,487.5,375.2,495.1,373.8z"/>
<path class="st0" d="M1354.8,603.1l28.1-16.1h6.6c0,0,22-49.4,50.2-27.8c24,18.4-7.8,46.9-31.7,60.7
	C1384.1,633.7,1361.1,653.2,1354.8,603.1z"/>
<path d="M1374.2,636.9c-2.2,0-4.5-0.5-6.5-1.4c-7.5-3.6-12.1-13.9-14.4-32.2c0-0.3,0-0.6,0.2-0.8c0.1-0.3,0.3-0.5,0.6-0.6l28.1-16.1
	c0.2-0.1,0.5-0.2,0.7-0.2h5.7c2.4-5,14.3-28.3,31.3-32.6c7-1.8,14,0,20.7,5.1c6.5,5,9.5,11,9.1,17.9c-1.1,16.7-22.8,34.8-40.9,45.2
	c-2.3,1.3-4.7,2.8-7,4.1C1391.9,631.2,1382.3,636.9,1374.2,636.9z M1356.4,603.8c2.2,16.4,6.3,25.9,12.6,28.9
	c8,3.9,19.3-2.9,31.3-10.1c2.3-1.4,4.7-2.8,7-4.1c18.9-10.9,38.5-28.3,39.5-42.9c0.4-5.9-2.3-11-7.9-15.4c-6-4.6-12.1-6.1-18.1-4.6
	c-17.3,4.3-29.6,31.5-29.7,31.8c-0.1,0.3-0.3,0.5-0.6,0.6c-0.2,0.2-0.5,0.2-0.8,0.2h-6.2L1356.4,603.8z"/>
<path class="st0" d="M1345.4,602.9c1.4,2.3,4.6,2.6,7,2.5c11.3-0.5,28.8-10.7,32.7-19c1.1-2.4,1.1-4.3-0.2-5.9
	c-4.3-5.6-17.5-2-27.7,4.8c-6.5,4.3-12.5,10.5-12.5,15.2C1344.7,601.3,1344.9,602.2,1345.4,602.9z"/>
<path d="M1351.6,606.9c-3.7,0-6.3-1.1-7.5-3.3c-0.6-1-0.8-2.1-0.8-3.2c0-5.7,6.8-12.2,13.2-16.4c10.7-7.1,24.7-11.1,29.7-4.5
	c1.6,2.1,1.7,4.6,0.3,7.4c-4.2,9-22,19.4-34,19.9L1351.6,606.9z M1378,579.2c-5.5,0-13.4,3-19.9,7.3c-7,4.6-11.8,10.3-11.8,13.9
	c0,0.6,0.1,1.2,0.4,1.7c1,1.7,4,1.9,5.7,1.8c10.6-0.5,27.7-10.3,31.4-18.2c1.1-2.4,0.6-3.6,0-4.4
	C1382.6,579.8,1380.5,579.2,1378,579.2L1378,579.2z"/>
<path d="M1385.6,598.2h-0.2c-0.4-0.1-0.7-0.3-1-0.6c-0.2-0.3-0.3-0.7-0.3-1.1c0.8-3.6,2.2-7.1,4.2-10.3c0.1-0.2,0.4-0.4,0.6-0.5
	c0.2-0.1,0.5-0.2,0.8-0.1c0.3,0,0.5,0.1,0.8,0.3c0.2,0.2,0.4,0.4,0.5,0.7l3.6,9.4c0.1,0.4,0.1,0.8,0,1.1c-0.2,0.4-0.5,0.6-0.8,0.8
	c-0.4,0.1-0.8,0.1-1.1,0c-0.4-0.2-0.6-0.5-0.8-0.8l-2.5-6.4c-1,2-1.8,4.2-2.2,6.4c-0.1,0.3-0.2,0.7-0.5,0.9
	C1386.3,598,1386,598.2,1385.6,598.2z"/>
<path d="M1358.6,504.1c-4.6-7-10.4-11.6-17.5-13.9c-3.6-1.1-7.3-1.6-11-1.2c-3.7,0.4-7.3,1.5-10.6,3.3
	c-26.1,13.4-42.5,64.9-43.1,67.1c-0.2,0.7-0.3,1.5-0.3,2.3c0.1,0.8,0.3,1.5,0.7,2.2c0.4,0.7,0.9,1.3,1.5,1.8c0.6,0.5,1.3,0.9,2,1.1
	c0.8,0.2,1.5,0.3,2.3,0.3c0.8-0.1,1.5-0.3,2.2-0.7c0.7-0.4,1.3-0.9,1.8-1.5c0.5-0.6,0.9-1.3,1.1-2c4.3-13.6,19.2-50.8,37.2-60.1
	c1.9-1.1,3.9-1.7,6.1-1.9c2.1-0.2,4.3,0,6.4,0.7c24.1,7.8,22.8,64.1,20.3,85.1c-0.2,1.6,0.3,3.1,1.2,4.4c1,1.2,2.4,2,4,2.2
	s3.2-0.3,4.4-1.2c1.3-1,2.1-2.4,2.2-4c1.5-14.2,1.7-28.6,0.6-42.9C1368.7,527.3,1364.8,513.5,1358.6,504.1z"/>
<path d="M1253.2,483.7c15.7-1.3,28.1-8.1,36.8-20.2c7.4-10.3,10-21.6,7.9-33.5c-5.3-29.8-39.2-53.1-40.6-54.1
	c-1.3-0.9-2.9-1.2-4.5-0.9c-1.5,0.3-2.9,1.2-3.8,2.5c-0.9,1.3-1.2,2.9-1,4.4c0.3,1.5,1.2,2.9,2.4,3.8c0.3,0.2,31.1,21.5,35.6,46.4
	c1.6,8.8-0.3,16.8-5.9,24.5c-26.2,36.5-91-3.3-91.7-3.7c-1.3-0.8-2.9-1-4.4-0.6c-1.5,0.4-2.8,1.3-3.6,2.6c-0.8,1.3-1.1,2.9-0.8,4.4
	c0.3,1.5,1.2,2.8,2.5,3.7c12.6,7.5,26.2,13.4,40.3,17.4C1233.7,483.3,1244,484.4,1253.2,483.7z"/>
<path class="st0" d="M1190.6,324.1c-13-0.3-9.6,10.1-9.6,10.1l-0.2,0.1c-2.2,1.1-5.1,2.7-5.3,5.4c-0.3,4.1,4.1,7.4,7,9.5
	c4.3,3.2,9,6,13.4,9.1c1.9,1.3,3.7,2.8,5.4,4.2c1,0.8,2,1.7,2.9,2.5c0.5,0.4,1,0.9,2.9,2.6c-5.7,0-21.2,2.1-20.8,9.2
	c0.2,4.1,5.1,7.3,12,8.7c11.1,2.4,30.7-0.8,34.2-1.8c-0.7,3.5-0.4,6.3,1.5,7.7c10.2,7.5,36.8-27.6,26.1-35.5
	c-2.5-1.8-5.7-1.2-9.1,0.9c-0.5-4.4-3.4-17.9-18.3-30.1c-7.5-6.1-18.5-8.7-28.1-9.5c-3.8-0.4-11.8-0.8-14.1,3.2
	C1190,321.6,1190.4,322.9,1190.6,324.1z"/>
<path d="M1237.5,394c-1.5,0-2.9-0.4-4.1-1.3c-1.4-1-2.8-3-2.4-7c-6.4,1.2-22.6,3.5-32.7,1.3c-8-1.7-12.9-5.5-13.2-10.1
	c0-0.9,0.1-1.8,0.4-2.6c0.3-0.8,0.8-1.6,1.5-2.2c3.6-3.8,11.5-5.3,16.7-5.8l-0.2-0.2c-1-0.8-1.9-1.7-2.9-2.5
	c-1.8-1.5-3.6-2.8-5.4-4.2c-2-1.5-4.2-2.9-6.3-4.2c-2.4-1.5-4.8-3.1-7.2-4.8c-3.2-2.4-8-6-7.6-10.9c0.3-3.3,3.2-5.2,5.2-6.2
	c-0.3-1.2-0.3-2.5,0-3.7c0.2-1.2,0.7-2.4,1.4-3.4c1.6-2.2,4.4-3.4,8.2-3.6c-0.1-1,0-2,0.5-2.9c1.9-3.4,7-4.8,15.5-4
	c8.5,0.8,20.7,3.2,29,9.9c13.4,11,17.4,22.8,18.5,29c4.3-2,7.2-1,8.9,0.2c6.3,4.7,2.1,16.2-4.8,25.5
	C1251,387.6,1243.4,394,1237.5,394z M1232.7,382.3c0.2,0,0.4,0,0.6,0.1c0.2,0.1,0.4,0.2,0.5,0.4c0.1,0.2,0.2,0.4,0.3,0.6
	c0.1,0.2,0.1,0.4,0,0.7c-0.4,1.8-0.7,5,0.9,6.2c4.3,3.1,12.9-3.7,18.9-11.7c6-8,9.9-18.1,5.5-21.3c-1.8-1.3-4.3-1-7.4,0.9
	c-0.2,0.1-0.5,0.2-0.7,0.2s-0.5,0-0.7-0.1c-0.2-0.1-0.4-0.3-0.6-0.5c-0.1-0.2-0.2-0.4-0.3-0.7c-0.5-3.8-3.1-17.1-17.8-29.2
	c-7.7-6.2-19.1-8.5-27.3-9.2c-8.8-0.8-11.7,0.9-12.6,2.5c-0.2,0.7-0.2,1.4,0,2.1c0,0.2,0.1,0.4,0.1,0.6c0,0.2,0,0.4-0.1,0.6
	c-0.1,0.2-0.2,0.4-0.3,0.6c-0.1,0.2-0.3,0.3-0.5,0.4c-0.2,0.1-0.4,0.1-0.6,0.1c-3.7-0.1-6.2,0.7-7.5,2.4c-1.7,2.3-0.7,5.7-0.6,5.7
	c0.1,0.3,0.1,0.7,0,1c-0.1,0.3-0.4,0.6-0.7,0.8l-0.8-1.2l0.7,1.3c-2.1,1-4.3,2.4-4.5,4.2c-0.3,3.3,3.7,6.2,6.4,8.2
	c2.3,1.7,4.8,3.3,7.1,4.8c2.1,1.4,4.3,2.8,6.4,4.3c1.8,1.3,3.7,2.8,5.5,4.3l3,2.5l0.7,0.6l2.2,1.9c0.2,0.2,0.4,0.5,0.5,0.8
	c0.1,0.3,0,0.6-0.1,0.9c-0.1,0.3-0.3,0.5-0.5,0.7c-0.2,0.2-0.5,0.3-0.8,0.3c-4.2,0-14.6,1.3-18.2,5c-0.4,0.3-0.6,0.7-0.8,1.2
	c-0.2,0.5-0.3,0.9-0.3,1.4c0.2,3.2,4.3,6,10.8,7.3c11,2.3,30.4-0.9,33.5-1.7C1232.5,382.4,1232.6,382.3,1232.7,382.3L1232.7,382.3z"
	/>
<path class="st0" d="M1220.9,336.5c-9.2-6.1-19.5-10.3-30.3-12.4L1220.9,336.5z"/>
<path d="M1220.9,338c-0.3,0-0.6-0.1-0.9-0.3c-9-6-19.1-10.1-29.7-12.1c-0.2,0-0.4-0.1-0.6-0.2c-0.2-0.1-0.3-0.2-0.5-0.4
	c-0.1-0.2-0.2-0.4-0.3-0.6c0-0.2,0-0.4,0-0.6c0-0.2,0.1-0.4,0.2-0.6c0.1-0.2,0.3-0.3,0.4-0.4c0.2-0.1,0.4-0.2,0.6-0.2
	c0.2,0,0.4,0,0.6,0c11.1,2.1,21.6,6.4,30.9,12.6c0.3,0.2,0.5,0.6,0.6,1c0.1,0.4,0,0.8-0.3,1.1c-0.1,0.2-0.3,0.3-0.5,0.5
	C1221.3,337.9,1221.1,338,1220.9,338z"/>
<path class="st0" d="M1208.3,347.3c0,0-12.5-10.2-27.3-13.1L1208.3,347.3z"/>
<path d="M1208.3,348.8c-0.3,0-0.7-0.1-0.9-0.3c-0.1-0.1-12.4-10-26.6-12.8c-0.4-0.1-0.7-0.3-0.9-0.6c-0.2-0.3-0.3-0.7-0.2-1.1
	c0.1-0.4,0.3-0.7,0.6-0.9c0.3-0.2,0.7-0.3,1.1-0.2c14.9,2.9,27.4,13,27.9,13.4c0.2,0.2,0.4,0.5,0.5,0.8c0.1,0.3,0.1,0.6,0,0.9
	c-0.1,0.3-0.3,0.5-0.6,0.7C1208.9,348.7,1208.6,348.8,1208.3,348.8z"/>
<path class="st3" d="M1434.1,607c2.6-53-187.2-4.7-260.1-213.7c-9.8-28.4-16-57.9-18.7-87.8c-0.9-10.4-2.5-20.8-4.8-31
	c-1.9-8.3-1.8-16.9,0.3-25.1c2.1-8.2,6.3-15.8,12-22.1c3.1-3.4,5.3-6.8,5.7-9.5c1.5-11.9-36.5-37.8-44.3-31.4
	c-3.4,2.8-4.9,14.1-5.4,26c-0.7,13.9-6.9,26.9-17.3,36.2c-44.7,40.8-115,171.9-39,292.4C1156,689,1430.7,677.8,1434.1,607z"/>
<path class="st2" d="M1153.6,290.6c-0.8-5.3-1.8-10.7-3-16.1c-1.9-8.3-1.8-16.9,0.3-25.1c2.1-8.2,6.3-15.8,12-22.1
	c3.1-3.4,5.3-6.8,5.7-9.5c1.5-11.9-36.5-37.8-44.3-31.4c-3.4,2.8-4.9,14.1-5.4,26c-0.7,13.8-6.9,26.9-17.2,36.2
	c-3.1,2.8-6.3,6.1-9.6,9.7c-0.5,3.2,0,6,2.2,7.6c8.6,6,18.8-2.8,18.8-2.8s-5.3,21.4,4.5,24.8c9.8,3.4,17.4-15.5,17.4-15.5
	S1140.3,291.6,1153.6,290.6z"/>
<path d="M1313.1,658.8c-33.5-0.1-66.8-4.6-99.1-13.4c-48.2-13.3-113.8-42-152.7-103.7c-42-66.7-37.3-133.2-25.9-177.2
	c14.4-55.6,44.1-97.8,65.2-117c5-4.5,9-9.9,11.9-15.9c2.9-6,4.5-12.6,4.8-19.2c1-23.1,4.7-26.1,6-27.1c4.4-3.6,14.2,0.9,19.6,3.9
	c11.6,6.4,28.3,19.9,27.2,28.8c-0.4,2.9-2.3,6.3-6,10.4c-5.6,6.1-9.6,13.5-11.7,21.5c-2.1,8-2.2,16.4-0.3,24.4
	c2.3,10.3,3.9,20.7,4.8,31.2c2.6,29.8,8.9,59.2,18.6,87.4c47.3,135.6,142.2,161.8,205,179.1c32.6,9,56.1,15.5,55.2,35.1
	c-0.9,19.3-20.7,35-55.6,44.1C1360.3,656.3,1337.3,658.8,1313.1,658.8z M1127.7,186.8c-0.9-0.1-1.8,0.2-2.5,0.7
	c-1.5,1.2-4,6-4.8,24.9c-0.3,7.1-2,14-5.1,20.4c-3,6.4-7.3,12.1-12.6,16.9c-20.9,19-50.2,60.7-64.4,115.6
	c-11.2,43.5-15.9,109.2,25.6,174.9c66.4,105.2,228.6,130.7,315.4,108.1c33.1-8.6,52.6-23.7,53.4-41.4c0.8-17.2-20.6-23.1-53-32.1
	c-31.4-8.7-70.4-19.5-108.6-45.5c-45.2-30.8-77.4-75.2-98.5-135.5c-9.8-28.5-16.1-58.1-18.7-88.1c-0.9-10.4-2.5-20.7-4.8-30.8
	c-2-8.5-1.9-17.4,0.3-25.8c2.2-8.5,6.4-16.2,12.3-22.7c3.2-3.5,5-6.5,5.3-8.8c0.8-6.3-12.9-18.9-25.7-25.9
	C1135.7,188.5,1130.7,186.8,1127.7,186.8z"/>
<path d="M1152.5,292.1c-10,0-15.5-10.2-17.7-15.8c-2.9,5.6-9.4,15.8-17.7,12.9c-8.3-2.8-7.3-16.2-6.2-22.9c-4,2.4-11,5.2-17.5,0.7
	c-2.6-1.8-3.6-4.8-2.9-9c0.1-0.4,0.3-0.7,0.6-1c0.3-0.2,0.7-0.3,1.1-0.3c0.4,0.1,0.7,0.3,1,0.6c0.2,0.3,0.3,0.7,0.3,1.1
	c-0.5,3,0,5,1.6,6.1c7.5,5.2,16.9-2.7,17-2.7c0.2-0.2,0.5-0.3,0.8-0.3c0.3,0,0.6,0.1,0.9,0.2c0.3,0.2,0.5,0.4,0.6,0.7
	c0.1,0.3,0.1,0.6,0.1,0.9c-1.4,5.6-3.4,20.6,3.6,23c7,2.4,13.6-9.8,15.6-14.7c0.1-0.3,0.3-0.5,0.6-0.7c0.3-0.2,0.6-0.2,0.9-0.2
	c0.3,0,0.6,0.1,0.9,0.3c0.2,0.2,0.4,0.5,0.5,0.8c0,0.2,4.8,17.2,16.1,17.2h0.9c0.2,0,0.4,0,0.6,0.1s0.4,0.2,0.5,0.3
	c0.2,0.1,0.3,0.3,0.4,0.5c0.1,0.2,0.1,0.4,0.1,0.6c0,0.2,0,0.4-0.1,0.6c-0.1,0.2-0.2,0.4-0.3,0.5c-0.1,0.1-0.3,0.3-0.5,0.4
	c-0.2,0.1-0.4,0.1-0.6,0.2C1153.3,292.1,1152.9,292.1,1152.5,292.1z"/>
<path d="M1420.5,587.1c-4.2,8.6-7.8,23.6,7.9,35.7c3.5-4.6,5.5-10.1,5.8-15.8C1434.6,598,1429.5,592,1420.5,587.1z"/>
<path d="M1074.2,498.8v0.1c0.1,1.3-0.3,2.5-1,3.5c-0.7,1-1.7,1.8-2.9,2.3c-19.2,6.7-44.8,20-42.3,42.3c4,36.4,64.4,51.7,65,51.8
	l-2.9,11.6c-2.8-0.7-69.2-17.4-74.1-62.1c-3.3-30.4,27.8-47,50.3-54.9c0.9-0.3,1.8-0.4,2.7-0.2c0.9,0.1,1.8,0.5,2.5,1
	c0.8,0.5,1.4,1.2,1.8,2C1073.9,497,1074.1,497.9,1074.2,498.8z"/>
<path class="st0" d="M1099.5,587.4c5.6-8.2,13.1,3.9,13.1,3.9s3.3-5.6,11.8-6.6c0,0,9.3-33.8,23.4-28.1c12.2,4.9-3.3,34.8-3.3,34.8
	l12.1,3.4c28.5,5.8,10.5,19.4,10.5,19.4c10.4,10-1.8,18.8-1.8,18.8s0.5,2.9,0.5,3.3c0.2,1.4,0,2.9-0.5,4.2c-1.1,2.7-2.9,5-5.2,6.8
	c-4,3.2-8.8,4.3-13.8,4.5c-9.7,0.3-19.3-1.7-28-6c-11.3-5.5-14.8-14.4-18.1-19.5c-3,0.9-8.3,0.2-9.8-1.2c-1.2-1.1-2-2.6-2.4-4.2
	c-0.4-1.6-0.3-3.2,0.2-4.8C1090.3,609,1095.2,593.7,1099.5,587.4z"/>
<path d="M1143.9,653.2c-9.1-0.1-18.1-2.2-26.3-6.3c-9.9-4.8-14-12-17.1-17.3c-0.4-0.6-0.7-1.3-1.1-1.8c-3.3,0.6-8.2,0-10.1-1.8
	c-1.4-1.3-2.3-3-2.8-4.9c-0.5-1.8-0.4-3.8,0.2-5.6c2.5-8.2,7.2-22.8,11.5-29c1.6-2.4,3.6-3.6,5.9-3.5c3.7,0.1,6.9,3.5,8.5,5.7
	c2.8-2.9,6.6-4.9,10.6-5.5c1.3-4.5,7.4-23.2,16.9-27.8c1.3-0.7,2.7-1,4.1-1.1c1.4-0.1,2.9,0.2,4.2,0.7c1.1,0.4,2.1,1.1,3,2
	c0.8,0.9,1.5,1.9,1.8,3c3.2,8.7-4,25-6.6,30.2l10.3,2.9c10.3,2.1,15.9,5.5,17,10.3c1,4.6-2.7,8.8-4.8,10.7c1.2,1.2,2.1,2.6,2.7,4.2
	c0.6,1.6,0.9,3.2,0.8,4.9c-0.4,5-4.2,8.8-5.9,10.2c0.1,0.9,0.3,2.2,0.4,2.5c0.2,1.6,0,3.3-0.6,4.9c-1.2,3-3.2,5.5-5.7,7.5
	c-3.8,3-8.5,4.6-14.6,4.9C1145.5,653.2,1144.7,653.2,1143.9,653.2z M1100.2,624.6c0.3,0,0.5,0.1,0.7,0.2s0.4,0.3,0.5,0.5
	c0.5,0.9,1.1,1.8,1.7,2.8c2.9,4.9,6.8,11.7,15.8,16.1c8.5,4.2,17.8,6.2,27.3,5.9c5.5-0.3,9.6-1.6,12.9-4.2c2.1-1.6,3.8-3.7,4.8-6.1
	c0.4-1.1,0.6-2.3,0.4-3.5c0-0.4-0.5-3.2-0.5-3.2c0-0.3,0-0.6,0.1-0.8c0.1-0.3,0.3-0.5,0.5-0.6c0,0,5-3.7,5.4-8.6
	c0.2-2.7-1.1-5.4-3.7-7.9c-0.2-0.2-0.3-0.3-0.4-0.5c-0.1-0.2-0.1-0.4-0.1-0.6c0-0.2,0.1-0.4,0.2-0.6c0.1-0.2,0.2-0.4,0.4-0.5
	c1.6-1.2,5.7-5.2,4.9-8.7c-0.6-2.4-3.6-5.7-14.8-8l-12.2-3.4c-0.2-0.1-0.4-0.2-0.6-0.3c-0.2-0.1-0.3-0.3-0.4-0.5
	c-0.1-0.2-0.1-0.4-0.1-0.6c0-0.2,0.1-0.4,0.2-0.6c0.1-0.2,10.6-20.5,7.2-29.5c-0.2-0.7-0.6-1.4-1.2-2c-0.5-0.6-1.2-1-1.9-1.3
	c-0.9-0.4-1.9-0.6-2.9-0.5c-1,0-2,0.3-2.9,0.8c-9.4,4.6-15.6,26.7-15.6,26.9c-0.1,0.3-0.2,0.5-0.5,0.7c-0.2,0.2-0.5,0.3-0.8,0.4
	c-7.6,1-10.6,5.7-10.8,6c-0.1,0.2-0.3,0.4-0.5,0.5c-0.2,0.1-0.5,0.2-0.7,0.2c-0.3,0-0.5-0.1-0.7-0.2c-0.2-0.1-0.4-0.3-0.6-0.5
	c-1-1.7-4.3-6-7.2-6h0c-1.2,0-2.2,0.7-3.2,2.2c-4.2,6.1-9.2,21.8-11.1,28.2c-0.4,1.3-0.5,2.6-0.2,3.9c0.3,1.3,1,2.5,1.9,3.5
	c1,0.9,5.6,1.7,8.4,0.8C1099.9,624.6,1100,624.6,1100.2,624.6L1100.2,624.6z"/>
<path d="M1167.1,615.6h-0.2l-13-1.9c-0.4-0.1-0.7-0.3-1-0.6c-0.2-0.3-0.3-0.7-0.3-1.1c0-0.2,0.1-0.4,0.2-0.6
	c0.1-0.2,0.2-0.3,0.4-0.4c0.2-0.1,0.3-0.2,0.5-0.2c0.2,0,0.4-0.1,0.6,0l13,1.9c0.4,0,0.7,0.2,1,0.5c0.2,0.3,0.4,0.7,0.3,1.1
	c0,0.4-0.2,0.7-0.5,1C1167.8,615.5,1167.5,615.6,1167.1,615.6L1167.1,615.6z"/>
<path d="M1165.3,634.4h-0.2l-14.2-1.6c-0.2,0-0.4-0.1-0.6-0.2c-0.2-0.1-0.3-0.2-0.5-0.4c-0.1-0.2-0.2-0.3-0.3-0.5
	c-0.1-0.2-0.1-0.4-0.1-0.6c0-0.2,0.1-0.4,0.2-0.6c0.1-0.2,0.2-0.3,0.4-0.4c0.2-0.1,0.3-0.2,0.5-0.3c0.2,0,0.4-0.1,0.6,0l14.2,1.6
	c0.4,0,0.7,0.2,1,0.5c0.2,0.3,0.4,0.7,0.3,1c0,0.4-0.2,0.7-0.5,1C1166,634.2,1165.6,634.4,1165.3,634.4L1165.3,634.4z"/>
<path d="M1158.3,500.5c-0.3,0-0.6-0.1-0.8-0.3c-0.2-0.2-0.4-0.4-0.6-0.7c-0.1-0.3-0.1-0.6-0.1-0.9c0.1-0.3,0.2-0.6,0.4-0.8
	c0.8-0.7,2.8-3.1,2.8-5.1c0-0.4-0.1-0.8-0.3-1.1c-0.2-0.4-0.4-0.7-0.7-0.9c-0.2-0.3-0.5-0.5-0.9-0.6c-0.3-0.1-0.7-0.2-1.1-0.1
	c-1.8,0.2-3.6,2.5-4.1,3.3c-0.2,0.3-0.6,0.6-0.9,0.7c-0.4,0.1-0.8,0-1.1-0.2c-0.3-0.2-0.6-0.6-0.7-0.9c-0.1-0.4,0-0.8,0.2-1.1
	c0.3-0.4,2.8-4.2,6.2-4.6c0.8-0.1,1.6,0,2.4,0.3c0.8,0.3,1.4,0.7,2,1.3c0.6,0.5,1.1,1.2,1.4,1.9c0.3,0.7,0.5,1.5,0.5,2.3
	c0,3.7-3.4,6.9-3.8,7.3C1159.1,500.4,1158.7,500.5,1158.3,500.5z"/>
<path d="M1133.7,525.7c-1.7,0-3.3-0.5-4.7-1.3c-0.2-0.1-0.3-0.2-0.4-0.4c-0.1-0.2-0.2-0.3-0.2-0.5c0-0.2-0.1-0.4,0-0.6
	c0-0.2,0.1-0.4,0.2-0.5c0.1-0.2,0.2-0.3,0.4-0.4c0.2-0.1,0.3-0.2,0.5-0.2c0.2,0,0.4-0.1,0.6,0s0.4,0.1,0.6,0.2
	c0.8,0.5,1.7,0.8,2.7,0.9c0.9,0.1,1.9-0.1,2.8-0.4c1.4-0.6,2.6-1.8,3.2-3.2c0.6-1.4,0.7-3,0.2-4.5c-0.1-0.4-0.1-0.8,0.1-1.1
	c0.2-0.3,0.5-0.6,0.9-0.7c0.4-0.1,0.8-0.1,1.1,0.1c0.4,0.2,0.6,0.5,0.8,0.8c0.7,2.2,0.6,4.5-0.3,6.6c-0.9,2.1-2.6,3.8-4.7,4.7
	C1136,525.5,1134.9,525.7,1133.7,525.7z"/>
<path d="M1152.1,526.2c-4.5,0-8.9-0.7-13.2-2.1c-0.4-0.1-0.7-0.4-0.9-0.8c-0.2-0.4-0.2-0.8-0.1-1.1c0.1-0.4,0.4-0.7,0.8-0.9
	c0.4-0.2,0.8-0.2,1.1-0.1c18.3,6.2,36.7-4.4,38.8-5.6c1-1.2,2.7-4,1.9-5.2c-0.1-0.1-0.1-0.2-0.2-0.2c-0.1-0.1-0.2-0.1-0.3-0.1
	c-1.6-0.3-4.9,1.4-6.7,2.7c-0.2,0.2-0.3,0.3-0.5,0.4c-0.2,0.1-0.4,0.1-0.6,0.1c-0.2,0-0.4-0.1-0.6-0.2c-0.2-0.1-0.4-0.3-0.5-0.4
	c-0.1-0.2-0.2-0.4-0.3-0.6c0-0.2,0-0.4,0-0.6c0.1-0.2,0.2-0.4,0.3-0.6c0.1-0.2,0.3-0.3,0.5-0.4c0.6-0.4,5.6-3.8,9-3.1
	c0.5,0.1,1,0.3,1.4,0.5c0.4,0.3,0.8,0.6,1.1,1c2.4,3.6-1.7,8.4-2.2,9c-0.1,0.1-0.2,0.2-0.3,0.3
	C1179.8,518.5,1167.5,526.2,1152.1,526.2z"/>
<path d="M1170,532.5c-0.4,0-0.7-0.1-1-0.4s-0.4-0.6-0.5-0.9c0-0.4,0-0.7,0.3-1c0.2-0.3,0.5-0.5,0.9-0.6c5.5-1.3,13.8-4.5,14.1-7.2
	c0.1-1.2-1.6-2.7-4.7-4.2c-0.2-0.1-0.3-0.2-0.5-0.4c-0.1-0.1-0.2-0.3-0.3-0.5s-0.1-0.4-0.1-0.6c0-0.2,0.1-0.4,0.1-0.6
	c0.1-0.2,0.2-0.3,0.4-0.5c0.1-0.1,0.3-0.2,0.5-0.3c0.2-0.1,0.4-0.1,0.6-0.1s0.4,0.1,0.6,0.1c4.6,2.2,6.6,4.5,6.3,7.1
	c-0.7,5.8-13.8,9.2-16.4,9.8C1170.2,532.4,1170.1,532.4,1170,532.5z"/>
<path d="M1150.5,439.1l1.3-6.2l-6.4,0.3c-0.5-0.5-3.8-3-4.3-3.4c-1.3-1.1-2.1-2.6-2.3-4.3c-0.2-1.7,0.3-3.4,1.3-4.7
	c1-1.3,2.5-2.2,4.2-2.5c1.7-0.3,3.4,0.1,4.8,1c7.2,4.7,23.3,19.3,35.8,61.6c0.5,1.8,0.3,3.6-0.6,5.2c-0.9,1.6-2.4,2.8-4.1,3.3
	c-1.8,0.5-3.6,0.3-5.3-0.5c-1.6-0.9-2.8-2.3-3.4-4C1165.4,465,1156.8,448.2,1150.5,439.1z"/>
<path d="M1096.6,457.4l1.3-6.2l-6.3,0.3c-0.5-0.5-3.8-3-4.3-3.4c-1.3-1.1-2.1-2.6-2.2-4.3c-0.2-1.7,0.3-3.3,1.3-4.7
	c1-1.3,2.5-2.2,4.2-2.5c1.7-0.3,3.4,0.1,4.8,1c7.2,4.7,23.3,19.3,35.8,61.6c0.4,1.7,0.2,3.5-0.7,5.1c-0.9,1.5-2.3,2.7-4.1,3.2
	c-1.7,0.5-3.6,0.3-5.2-0.5c-1.6-0.8-2.8-2.2-3.4-3.9C1111.6,483.3,1102.9,466.4,1096.6,457.4z"/>
<path class="st0" d="M1279,698.8l32.1-4.9l6.2,2.4c0,0,38.5-38.2,56.9-8c15.7,25.8-24.3,41-51.6,45.2
	C1295.3,737.8,1266.7,747.8,1279,698.8z"/>
<path d="M1294.5,738.8c-6.3,0-11.6-1.3-15.2-5.2c-5.7-6-6.2-17.2-1.7-35.2c0.1-0.3,0.2-0.5,0.4-0.7c0.2-0.2,0.5-0.3,0.8-0.4l32.1-5
	c0.3,0,0.5,0,0.8,0.1l5.3,2c4-3.8,23.6-21.3,41.1-19.2c7.2,0.9,13.1,5,17.5,12.2c4.2,7,4.9,13.7,2,20c-7.1,15.2-33.9,24.3-54.6,27.5
	c-2.7,0.4-5.4,0.9-8,1.3C1307.6,737.6,1300.6,738.8,1294.5,738.8z M1280.2,700.1c-3.9,16.1-3.5,26.4,1.2,31.5
	c6.1,6.5,19.1,4.2,32.8,1.8c2.6-0.5,5.4-0.9,8.1-1.4c21.6-3.3,46.2-12.6,52.4-25.8c2.5-5.3,1.9-11.1-1.8-17.2
	c-3.9-6.4-9-10-15.3-10.8c-17.7-2.2-39.1,18.8-39.3,19c-0.2,0.2-0.5,0.3-0.8,0.4c-0.3,0.1-0.6,0-0.9-0.1l-5.8-2.3L1280.2,700.1z"/>
<path class="st0" d="M1270.3,695.3c0.4,2.6,3.3,4.1,5.6,4.9c10.7,3.6,30.6,0.3,37.4-6.1c1.9-1.8,2.5-3.6,2-5.6
	c-1.9-6.8-15.6-8.1-27.6-5.4c-7.6,1.7-15.5,5.3-17.1,9.7C1270.3,693.6,1270.2,694.4,1270.3,695.3z"/>
<path d="M1286.9,703.1c-3.9,0.1-7.7-0.5-11.4-1.6c-3.9-1.3-6.2-3.4-6.6-6c-0.2-1.1,0-2.2,0.4-3.3c2-5.3,10.8-9,18.2-10.6
	c12.5-2.8,27.1-1.5,29.4,6.5c0.7,2.5-0.1,4.9-2.4,7C1309.2,700,1297.4,703.1,1286.9,703.1z M1299.1,683.3c-3.7,0-7.4,0.4-11.1,1.2
	c-8.2,1.8-14.8,5.4-16.1,8.8c-0.2,0.6-0.3,1.1-0.2,1.7c0.3,2,3,3.2,4.6,3.7c10.1,3.4,29.6,0.3,35.9-5.7c1.9-1.8,1.8-3.1,1.6-4.1
	C1312.8,685.1,1306.5,683.3,1299.1,683.3L1299.1,683.3z"/>
<path d="M1317.2,707.9c-0.4,0-0.8-0.2-1.1-0.4c-0.3-0.3-0.4-0.7-0.4-1.1v-6.9c-1.7,1.5-3.2,3.3-4.4,5.2c-0.1,0.2-0.2,0.3-0.4,0.5
	c-0.2,0.1-0.3,0.2-0.5,0.3c-0.2,0.1-0.4,0.1-0.6,0c-0.2,0-0.4-0.1-0.6-0.2c-0.2-0.1-0.3-0.2-0.4-0.4c-0.1-0.2-0.2-0.3-0.3-0.5
	c0-0.2-0.1-0.4,0-0.6c0-0.2,0.1-0.4,0.2-0.6c2-3.1,4.6-5.9,7.6-8.1c0.2-0.2,0.5-0.3,0.8-0.3c0.3,0,0.6,0,0.8,0.2
	c0.2,0.1,0.5,0.3,0.6,0.5c0.1,0.2,0.2,0.5,0.2,0.8v10.1c0,0.2,0,0.4-0.1,0.6c-0.1,0.2-0.2,0.3-0.3,0.5c-0.1,0.1-0.3,0.2-0.5,0.3
	C1317.6,707.8,1317.4,707.9,1317.2,707.9z"/>
<path d="M1318.5,607.9c-1.7-8.1-5.5-14.5-11.2-19.2c-2.9-2.3-6.3-4.1-9.9-5.1c-3.6-1-7.4-1.3-11.1-0.8
	c-29.3,3.2-63.2,45.4-64.6,47.1c-0.9,1.2-1.3,2.8-1.1,4.3c0.2,1.5,1,2.9,2.2,3.9c1.2,1,2.8,1.4,4.3,1.3c1.5-0.1,3-0.9,4-2.1
	c8.9-11.1,36.4-40.5,56.5-42.7c2.1-0.3,4.3-0.2,6.4,0.4c2.1,0.6,4,1.5,5.7,2.9c19.6,15.9-2,67.9-12,86.7c-0.4,0.7-0.7,1.5-0.8,2.3
	c-0.1,0.8,0,1.6,0.2,2.4s0.6,1.5,1.1,2.1c0.5,0.6,1.1,1.1,1.8,1.5s1.5,0.6,2.3,0.7c0.8,0.1,1.6,0,2.4-0.3c0.8-0.2,1.5-0.6,2.1-1.2
	c0.6-0.5,1.1-1.2,1.5-1.9c6.6-12.7,12-26,16.1-39.7C1319.5,633.1,1320.9,618.9,1318.5,607.9z"/>
<path d="M1071,384.6h-0.2c-0.4-0.1-0.7-0.3-1-0.6c-0.2-0.3-0.3-0.7-0.3-1.1c10.7-74,42-120.2,42.3-120.8c0.2-0.3,0.6-0.6,1-0.6
	c0.4-0.1,0.8,0,1.1,0.2c0.3,0.2,0.6,0.6,0.6,1c0.1,0.4,0,0.8-0.2,1.1c-0.3,0.5-31.2,46.2-41.8,119.5c-0.1,0.4-0.2,0.7-0.5,0.9
	C1071.7,384.5,1071.4,384.6,1071,384.6z"/>
<path d="M1135,339.8c-0.4,0-0.7-0.1-1-0.4c-0.3-0.2-0.4-0.6-0.5-0.9c-4.8-30.5-0.1-66.1,0-66.4c0.1-0.4,0.3-0.7,0.6-1
	c0.3-0.2,0.7-0.3,1.1-0.3c0.4,0.1,0.7,0.3,1,0.6c0.2,0.3,0.3,0.7,0.3,1.1c0,0.3-4.8,35.5,0,65.6c0.1,0.4,0,0.8-0.3,1.1
	c-0.2,0.3-0.6,0.5-0.9,0.6L1135,339.8z"/>
<path d="M1352.6,614.7h-0.7c-0.2,0-0.4,0-0.6-0.1s-0.3-0.2-0.5-0.3c-0.1-0.1-0.2-0.3-0.3-0.5c-0.1-0.2-0.1-0.4-0.1-0.6
	c0-0.4,0.2-0.8,0.4-1.1c0.3-0.3,0.7-0.4,1.1-0.4c0.2,0,0.5,0,0.7,0c22.7,0,72.2-7.6,72.7-7.7c0.2,0,0.4,0,0.6,0
	c0.2,0,0.4,0.1,0.5,0.2c0.2,0.1,0.3,0.3,0.4,0.4c0.1,0.2,0.2,0.4,0.2,0.5c0,0.2,0,0.4,0,0.6c0,0.2-0.1,0.4-0.2,0.5
	c-0.1,0.2-0.3,0.3-0.4,0.4c-0.2,0.1-0.4,0.2-0.5,0.2C1425.3,607,1375.6,614.7,1352.6,614.7z"/>
<path class="st0" d="M1243.2,534.4c-5.4,8.3,19.5,23.5,25.5,17.4C1274.7,545.7,1248.6,526.1,1243.2,534.4z"/>
<path class="st0" d="M1279,555.4c-1.2,4.5,10.5,11.9,14.7,6.3C1297.8,556,1280.2,550.9,1279,555.4z"/>
<path class="st0" d="M1053.3,389.7c-10-0.5-10.6,28.5-2.4,30.6C1059.1,422.4,1063.3,390.1,1053.3,389.7z"/>
<path class="st0" d="M1053,431c-4.5,1.2-5.1,15,1.9,15.7C1061.9,447.5,1057.5,429.8,1053,431z"/>
<path d="M743,324.5c-2.3,0-4.4-0.9-6.1-2.4c-1.7-1.5-2.7-3.6-3-5.8c-9.5-78.7-39.6-141.8-63.2-180.6c-25.5-42.3-49.2-66.3-49.4-66.6
	c-0.9-0.9-1.6-1.9-2-3c-0.5-1.1-0.7-2.3-0.7-3.6c0-1.2,0.2-2.4,0.7-3.6c0.5-1.1,1.2-2.2,2-3c0.9-0.9,1.9-1.6,3-2
	c1.1-0.5,2.3-0.7,3.6-0.7c1.2,0,2.4,0.2,3.6,0.7s2.2,1.2,3,2c1,1,25.2,25.4,52,69.5c24.6,40.6,56.1,106.3,66,188.6
	c0.2,1.2,0.1,2.5-0.3,3.6c-0.3,1.2-0.9,2.3-1.6,3.3c-0.8,1-1.7,1.8-2.8,2.4s-2.2,1-3.5,1.1C743.9,324.4,743.5,324.5,743,324.5z"/>
<path class="st0" d="M994.2,603.2l2.7,49.2l5.5,8.4c0,0-45,69.2,6,87c43.4,15.1,53.6-49.1,51.3-90.9
	C1057.4,615.1,1063.5,569.4,994.2,603.2z"/>
<path d="M1020.8,752.4c-4.4-0.1-8.9-0.9-13-2.4c-12.2-4.2-20.1-11.7-23.6-22.1c-8.7-25.3,11.4-59.9,15.8-67l-4.7-7.3
	c-0.2-0.3-0.3-0.7-0.4-1.1l-2.8-49.2c0-0.4,0.1-0.9,0.3-1.3c0.2-0.4,0.6-0.7,1-0.9c25.4-12.4,42.3-15.1,53.1-8.6
	c13.7,8.2,14.4,29.4,15.2,51.9c0.1,4.1,0.3,8.2,0.5,12.3c1.7,31.8-3.5,74.4-23.9,89.7C1033.2,750.3,1027.1,752.4,1020.8,752.4z
	 M999.2,651.7l5.2,7.9c0.2,0.4,0.4,0.8,0.4,1.2s-0.1,0.9-0.4,1.2c-0.3,0.4-24.8,38.7-16.1,64.3c3.1,9.1,10.1,15.5,20.9,19.3
	c10.2,3.6,19,2.6,26.2-2.8c17.8-13.4,23.9-52.7,22.1-85.9c-0.2-4.1-0.4-8.3-0.5-12.4c-0.7-21.2-1.4-41.2-13-48.2
	c-9.1-5.5-24.6-2.8-47.4,8.2L999.2,651.7z"/>
<path class="st0" d="M982.6,592.4c-6.1,3.9-9,16.7-9.1,28.5c-0.2,18.7,6,38.5,16.8,39.3c3.1,0.2,5.6-1.3,7.7-4.7
	c7.5-12.1,6-42.7-2.7-57.4c-1.8-3.2-5-7-9.1-6.8C984.9,591.3,983.7,591.7,982.6,592.4z"/>
<path d="M990.8,662.6h-0.7c-12.5-0.9-19.1-22-18.9-41.5c0.1-11.6,2.8-25.7,10.1-30.4c1.4-0.9,3.1-1.5,4.8-1.5
	c4.1-0.2,7.9,2.5,11.1,7.9c9.2,15.6,10.6,46.9,2.7,59.8C997.5,660.6,994.5,662.6,990.8,662.6z M986.5,593.5h-0.2
	c-0.9,0.1-1.8,0.3-2.5,0.8c-4.6,3-7.9,13.9-8,26.6c-0.2,17.4,5.7,36.3,14.7,37c1.5,0.1,3.5-0.2,5.6-3.6c7-11.3,5.5-41.2-2.7-55.1
	C992,597.1,989.5,593.6,986.5,593.5L986.5,593.5z"/>
<path d="M1002.5,663c-0.3,0-0.7-0.1-1-0.2c-0.3-0.1-0.6-0.4-0.8-0.6c-0.3-0.3-0.4-0.7-0.5-1.1c-0.1-0.4,0-0.8,0.2-1.2
	c2.4-5.2,5.7-9.9,9.7-13.9c0.2-0.2,0.5-0.4,0.8-0.4c0.3-0.1,0.6-0.1,0.9-0.1c0.3,0,0.6,0.1,0.9,0.2c0.3,0.1,0.5,0.3,0.7,0.5
	c0.2,0.2,0.4,0.5,0.4,0.8c0.1,0.3,0.1,0.6,0.1,0.9c0,0.3-0.1,0.6-0.2,0.9c-0.1,0.3-0.3,0.5-0.5,0.7c-2.5,2.4-4.6,5.1-6.3,8.2
	l10.2-2.2c0.3-0.1,0.6-0.1,0.9,0c0.3,0.1,0.6,0.2,0.8,0.3c0.3,0.2,0.5,0.4,0.6,0.6c0.2,0.3,0.3,0.5,0.3,0.8c0.1,0.6,0,1.2-0.3,1.7
	c-0.3,0.5-0.9,0.9-1.5,1l-15,3.2L1002.5,663z"/>
<path d="M870.8,690.6c-12.7,0-23.5-3.5-32.2-10.6c-4.4-3.6-8.1-8-10.7-13s-4.2-10.5-4.6-16.2c-4.4-44.4,47.9-108.1,50.1-110.9
	c1.5-1.9,3.8-3,6.2-3.3c2.4-0.2,4.8,0.5,6.7,2c1.9,1.5,3,3.8,3.3,6.2c0.2,2.4-0.5,4.8-2,6.7c-13.8,16.7-49.1,66.8-46,97.4
	c0.2,3.3,1.1,6.4,2.6,9.3c1.5,2.9,3.6,5.5,6.1,7.5c29.9,24.1,100.8-24.4,125.7-45.2c0.9-0.8,2-1.4,3.1-1.8c1.2-0.4,2.4-0.5,3.6-0.4
	c1.2,0.1,2.4,0.4,3.5,1c1.1,0.6,2,1.3,2.8,2.3c0.8,0.9,1.4,2,1.7,3.2c0.4,1.2,0.5,2.4,0.3,3.6c-0.1,1.2-0.5,2.4-1.1,3.4
	c-0.6,1.1-1.4,2-2.3,2.8c-16.9,13.8-35,26-54.2,36.5C908.9,684.1,888.1,690.6,870.8,690.6z"/>
<path class="st0" d="M768.4,693.7l-15.8,46.6l2,9.9c0,0-67.6,47.4-27,82.9c34.5,30.2,68-25.4,81.5-65.1
	C822.6,728.3,845.3,688.2,768.4,693.7z"/>
<path d="M748,844c-7.5,0-14.9-3.1-21.8-9.2c-9.7-8.5-14.3-18.3-13.7-29.3c1.4-26.7,32.9-51.3,39.7-56.3l-1.7-8.4
	c-0.1-0.4,0-0.8,0.1-1.2l15.8-46.6c0.1-0.4,0.4-0.8,0.8-1.1c0.4-0.3,0.8-0.4,1.2-0.5c28.2-2,44.9,1.8,52.5,11.9
	c9.6,12.7,2.4,32.7-5.3,53.8c-1.4,3.8-2.8,7.7-4.1,11.6c-10.3,30.1-31,67.7-55.7,74.3C753.1,843.6,750.6,844,748,844z M754.9,740.4
	l1.8,9.3c0.1,0.4,0,0.9-0.1,1.3c-0.2,0.4-0.4,0.8-0.8,1c-0.4,0.3-37.5,26.6-38.9,53.7c-0.5,9.5,3.6,18.2,12.2,25.7
	c8.1,7.1,16.7,9.5,25.3,7.3c21.5-5.8,41.8-40,52.6-71.4c1.3-3.9,2.8-7.9,4.2-11.7c7.3-20,14.1-38.8,5.9-49.5
	c-6.4-8.5-21.8-11.8-47-10.2L754.9,740.4z"/>
<path class="st0" d="M761.5,679.4c-7.1,1.3-14.5,12.1-19.1,23c-7.2,17.3-8.8,38,0.9,42.7c2.8,1.3,5.7,0.9,8.9-1.5
	c11.4-8.4,21.5-37.3,19-54.3c-0.6-3.6-2-8.4-5.9-9.7C764.1,679.3,762.8,679.2,761.5,679.4z"/>
<path d="M746.5,748.2c-1.4,0-2.8-0.3-4.1-1c-11.3-5.5-9.5-27.6-2-45.6c4.4-10.7,12.2-22.8,20.8-24.4c1.7-0.3,3.4-0.2,5,0.3
	c3.9,1.3,6.4,5.3,7.3,11.5c2.7,17.9-7.7,47.5-19.9,56.4C751.5,747.1,749.1,748.1,746.5,748.2z M762,681.7c-5.5,1-12.6,10-17.4,21.7
	c-6.7,16-8.3,35.8-0.2,39.8c1.4,0.7,3.3,1.1,6.5-1.3c10.7-7.9,20.5-36.1,18.1-52.1c-0.4-2.5-1.5-6.9-4.3-7.9
	C763.8,681.5,762.9,681.5,762,681.7z"/>
<path d="M769.6,755.1h-0.4l-15.1-2.7c-0.4-0.1-0.8-0.3-1.1-0.5c-0.3-0.3-0.6-0.6-0.7-1c-0.1-0.4-0.1-0.8,0-1.2s0.3-0.8,0.6-1.1
	c4.1-3.9,8.9-7,14.2-9.2c0.6-0.2,1.2-0.2,1.7,0.1c0.5,0.3,1,0.7,1.2,1.3c0.2,0.6,0.2,1.2-0.1,1.7c-0.3,0.5-0.7,1-1.3,1.2
	c-3.2,1.3-6.2,3-8.9,5.2l10.3,1.8c0.6,0.1,1.1,0.4,1.4,0.9c0.3,0.4,0.5,1,0.5,1.6c0,0.6-0.3,1.1-0.7,1.5
	C770.7,754.8,770.2,755,769.6,755.1L769.6,755.1z"/>
<path d="M621.3,728.6c-11.8-4.7-20.4-12-25.9-21.8c-2.8-5-4.5-10.4-5.1-16.1c-0.6-5.6,0-11.3,1.8-16.8
	c12.5-42.9,84.8-82.4,87.9-84.1c2.1-1.1,4.6-1.3,6.8-0.6c2.3,0.7,4.2,2.3,5.3,4.3c1.1,2.1,1.4,4.5,0.8,6.8c-0.6,2.3-2.1,4.2-4.2,5.4
	c-19.1,10.3-70.5,43.6-79.1,73.2c-1,3.1-1.4,6.4-1.1,9.6c0.3,3.3,1.3,6.4,2.9,9.3c18.7,33.5,102.7,15,133.4,5.1
	c1.1-0.4,2.4-0.6,3.6-0.5c1.2,0.1,2.4,0.4,3.5,0.9c1.1,0.5,2.1,1.3,2.9,2.2c0.8,0.9,1.4,2,1.8,3.1c0.4,1.2,0.5,2.4,0.4,3.6
	c-0.1,1.2-0.4,2.4-1,3.5s-1.3,2-2.3,2.8c-0.9,0.8-2,1.3-3.2,1.7c-20.9,6.5-42.3,11-64,13.6C659,736.8,637.2,735.1,621.3,728.6z"/>
<path d="M937.5,444.4c-2.2-0.7-4.1-2.3-5.2-4.4c-1.1-2.1-1.4-4.5-0.7-6.8c0.7-2.3,2.2-4.2,4.2-5.4c2-1.2,4.5-1.5,6.8-0.9
	c44.1,11.3,73.5,8.3,87.5-9.1c27-33.5-5.6-117-20.4-146.3c-0.6-1.1-0.9-2.2-1.1-3.5s0-2.4,0.4-3.6c0.4-1.2,1-2.2,1.7-3.2
	c0.8-0.9,1.8-1.7,2.8-2.2c1.1-0.5,2.3-0.9,3.5-1c1.2-0.1,2.4,0.1,3.6,0.5c1.1,0.4,2.2,1,3.1,1.8c0.9,0.8,1.6,1.8,2.2,2.9
	c2.4,4.7,58.2,116.5,18.4,165.9c-18.8,23.4-54.5,28.6-106.2,15.3L937.5,444.4z"/>
<path class="st0" d="M1058.5,199.9c-8.9-21.8-29.7-9.9-31.6-4.8c-2.1-20.4-5.8-58.6-25.6-52.6c-24.6,7.4-3.4,64.1-3.4,64.1
	s-27.3-51.3-45.7-35.3c-14.1,12.3,12.2,54.8,24.4,67.1c0,0-15,24.2-6.8,38.2c8.3,13.9,26.1,14.5,26.1,14.5s-10.1,19.7,12.9,22.1
	c23,2.4,69.4-9.1,52.5-35.4c0,0,23.8-18.2-1.8-42C1059.7,235.8,1067.6,222.1,1058.5,199.9z"/>
<path d="M1015.3,315.9c-2.2,0-4.4-0.1-6.7-0.3c-7.7-0.8-13-3.6-15.5-8.3c-2.7-5-1.5-10.7-0.4-14.1c-5.8-0.9-18.2-4-24.9-15.4
	c-7.7-13,2.7-33.3,5.9-39c-10.4-11.3-28.4-40-27.8-57.7c0-2.1,0.4-4.3,1.2-6.2c0.8-2,2.1-3.7,3.6-5.2c1.6-1.5,3.5-2.6,5.6-3.2
	c2.1-0.6,4.3-0.7,6.4-0.3c10.2,1.8,20.7,14.1,27.9,24.5c-3.2-13-5.9-30.6-0.5-41.3c1-2.2,2.4-4.1,4.2-5.7c1.8-1.6,3.9-2.7,6.2-3.4
	c2-0.7,4.1-0.9,6.2-0.6c2.1,0.3,4.1,1,5.8,2.2c10.9,7.3,14.1,30.4,16,47.9c3.9-2.9,8.6-4.6,13.5-4.8c4.7,0,13.4,1.6,18.5,14
	c7.7,18.8,3.7,31.9,1.8,36.3c7.9,7.8,11.7,15.8,11.3,24c-0.5,9.5-6.5,16.4-9.4,19c4.7,8.5,2.9,15,0.4,19
	C1057.1,309.7,1033,315.9,1015.3,315.9z M960.2,170.5c-2.4,0-4.6,0.9-6.3,2.5c-1.1,1.1-1.9,2.3-2.5,3.7c-0.6,1.4-0.8,2.9-0.8,4.4
	c-0.6,16.2,17.9,45.6,27.7,55.6c0.4,0.4,0.6,0.8,0.6,1.3c0.1,0.5-0.1,1-0.3,1.5c-0.1,0.2-14.2,23.2-6.7,35.8
	c7.5,12.6,24.1,13.5,24.3,13.5c0.4,0,0.7,0.1,1,0.3c0.3,0.2,0.6,0.5,0.8,0.8c0.2,0.3,0.3,0.7,0.3,1.1c0,0.4-0.1,0.8-0.3,1.1
	c0,0-3.8,7.5-0.9,12.9c1.8,3.3,5.8,5.3,12,5.9c16,1.7,44.1-3.6,51.7-16c2.9-4.7,2.5-9.9-1.4-15.9c-0.3-0.5-0.4-1.1-0.3-1.6
	c0.1-0.6,0.4-1.1,0.9-1.4c0,0,8.7-6.9,9.1-17c0.3-7.2-3.4-14.4-11.1-21.6c-0.4-0.4-0.6-0.8-0.7-1.3c-0.1-0.5,0-1,0.3-1.5
	c0-0.1,7.3-13.1-1.3-33.9c-3.1-7.5-7.7-11.2-13.9-11.2h-0.1c-6.7,0.1-12.5,4.6-13.2,6.4c-0.2,0.5-0.5,0.9-1,1.2
	c-0.4,0.3-1,0.4-1.5,0.3c-0.5-0.1-1-0.3-1.3-0.7c-0.4-0.4-0.6-0.9-0.6-1.4v-0.6c-1.5-14.8-4.4-42.4-14.5-49.1
	c-1.2-0.8-2.5-1.3-4-1.5s-2.8,0-4.2,0.5c-1.7,0.5-3.2,1.4-4.6,2.5c-1.3,1.2-2.4,2.6-3.1,4.2c-8.2,16.6,5.7,54.1,5.8,54.5
	c0.2,0.5,0.1,1.1-0.1,1.6c-0.2,0.5-0.6,0.9-1.1,1.1c-0.5,0.2-1.1,0.3-1.6,0.1c-0.5-0.2-1-0.5-1.3-1c-0.2-0.3-18.3-34.1-33.9-37
	C961.4,170.6,960.8,170.5,960.2,170.5L960.2,170.5z"/>
<path class="st4" d="M895.6,298.8c-51.8-30.8-102.5-7.5-127.7,8.8c-5.1,3.3-11,5.4-17,6.1c-6.1,0.7-12.2,0.1-18-2
	c-30.4-10.6-91.9-21-135.3,44.3c-59.8,90,22.3,244.3,88.1,250.7c27.8,2.7,49.1-1.7,64.2-7.7c21.5-8.5,44.9-11.3,67.8-7.9
	c28.1,4.2,66.7,0.4,96-38.9C962,487.5,978.8,348.3,895.6,298.8z"/>
<path d="M702.2,609.8c-5.5,0-11-0.3-16.7-0.8c-30.6-3-65.2-36.3-88.4-85c-22.9-48.2-35.3-118-1.3-169.1
	c43.8-65.9,105.2-56.6,137.9-45.2c5.4,1.9,11.3,2.6,17,1.9c5.7-0.7,11.2-2.7,16.1-5.8c26-16.7,77.4-40.2,130.1-8.8
	c28.9,17.2,48.2,46.6,55.8,85c11.1,55.9-4.5,128.1-37.1,171.8c-30.2,40.5-70,44-98.1,39.8c-22.5-3.3-45.5-0.6-66.6,7.8
	C735.3,607.1,718.8,610,702.2,609.8z M688.5,306.1c-29,0-62.4,11.1-89.1,51.2c-32.9,49.5-20.7,117.6,1.7,164.7
	c22.1,46.5,56.2,79.7,84.7,82.5c23.4,2.3,44.7-0.3,63.2-7.5c21.9-8.7,45.7-11.5,69-8.1c26.9,4,65,0.7,93.9-38
	c31.9-42.7,47.1-113.5,36.2-168.2c-7.4-37.1-26-65.4-53.7-81.9c-50.6-30.1-100.2-7.5-125.3,8.7c-5.4,3.5-11.6,5.7-18,6.5
	c-6.4,0.8-12.9,0-19-2.1C718.1,308.9,703.4,306.3,688.5,306.1z"/>
<path class="st2" d="M644.9,87.8c0,0-30.3,69.2,54.8,119.9c85,50.7,154,24.5,199.7,59.1C899.3,266.8,899.4,58.1,644.9,87.8z"/>
<path d="M899.3,269c-0.5,0-1-0.2-1.4-0.5c-20.4-15.5-46.1-18.5-75.8-22.1c-36.2-4.3-77.3-9.2-123.7-36.9
	C653.8,183,641,151.1,638.1,129c-2-14.2-0.4-28.7,4.7-42.1c0.2-0.4,0.4-0.7,0.7-0.9c0.3-0.2,0.7-0.4,1.1-0.4
	c84.8-9.9,150.7,5.5,195.7,45.4c60.6,53.9,61.3,134.9,61.3,135.7c0,0.4-0.1,0.8-0.3,1.2c-0.2,0.4-0.5,0.6-0.9,0.8
	C900,268.9,899.7,269,899.3,269z M646.5,89.9c-4.3,12.5-5.6,25.7-3.8,38.8c4,30.1,24.1,56.8,58.2,77c45.6,27.2,86.1,32,121.9,36.3
	c28.6,3.4,53.5,6.4,74.2,20.3c-1.1-17.6-8.7-82.5-59.6-127.8C793.5,95.4,729.3,80.5,646.5,89.9z"/>
<path d="M899.3,269c-0.4,0-0.8-0.1-1.2-0.3c-0.4-0.2-0.7-0.6-0.8-0.9c-22.9-47.4-54.4-99.5-138.8-118.1
	c-85-18.7-114.5-60.8-115.8-62.6c-0.3-0.5-0.5-1.1-0.4-1.7c0.1-0.6,0.5-1.1,1-1.5c0.5-0.3,1.1-0.5,1.7-0.4c0.6,0.1,1.1,0.5,1.5,1
	c0.3,0.4,29.9,42.4,113,60.7c82.3,18.2,116.9,68.7,142,120.6c0.1,0.3,0.2,0.6,0.2,0.9c0,0.3,0,0.6-0.1,0.9c-0.1,0.3-0.3,0.5-0.4,0.8
	c-0.2,0.2-0.4,0.4-0.7,0.5C900,268.9,899.7,269,899.3,269z"/>
<path d="M731.5,188.6c-0.5,0-1-0.2-1.4-0.5c-0.4-0.3-0.7-0.8-0.8-1.3c-0.1-0.4-9.1-41.2-27.8-56.1c-0.5-0.4-0.8-0.9-0.9-1.5
	c-0.1-0.6,0.1-1.2,0.5-1.7s0.9-0.8,1.5-0.9c0.6-0.1,1.2,0.1,1.7,0.5c20,16,29.1,57,29.4,58.7c0.1,0.3,0.1,0.6,0,0.9
	s-0.2,0.6-0.3,0.8c-0.2,0.3-0.4,0.5-0.6,0.6c-0.3,0.2-0.5,0.3-0.8,0.3C731.8,188.4,731.7,188.5,731.5,188.6z"/>
<path d="M744.4,146.1c-0.6,0-1.2-0.2-1.6-0.6s-0.7-1-0.7-1.6c0-0.6,0.2-1.2,0.6-1.6c0.4-0.4,1-0.7,1.6-0.7c0.3,0,30.4-1.8,40.8-9.6
	c0.5-0.3,1.1-0.4,1.6-0.3c0.6,0.1,1.1,0.4,1.4,0.9c0.3,0.5,0.5,1,0.4,1.6c-0.1,0.6-0.3,1.1-0.8,1.5c-11.5,8.5-42,10.4-43.3,10.5
	L744.4,146.1z"/>
<path d="M812.9,205.5c-0.5,0-1-0.2-1.4-0.5c-0.4-0.3-0.7-0.8-0.8-1.3c0-0.3-6.5-28.3-23.6-46c-0.2-0.2-0.4-0.5-0.5-0.7
	c-0.1-0.3-0.2-0.6-0.2-0.9c0-0.3,0.1-0.6,0.2-0.9c0.1-0.3,0.3-0.5,0.5-0.7c0.2-0.2,0.5-0.4,0.7-0.5c0.3-0.1,0.6-0.2,0.9-0.2
	c0.3,0,0.6,0.1,0.9,0.2c0.3,0.1,0.5,0.3,0.7,0.5c18.2,18.7,24.6,47,24.8,48.2c0.1,0.3,0.1,0.7,0,1s-0.2,0.6-0.4,0.9
	c-0.2,0.3-0.5,0.5-0.8,0.6C813.7,205.3,813.3,205.4,812.9,205.5L812.9,205.5z"/>
<path class="st0" d="M740.7,425.7c4.6-22.9-10.3-45.2-33.2-49.8s-45.2,10.3-49.8,33.2c-4.6,22.9,10.3,45.2,33.2,49.8
	S736.1,448.7,740.7,425.7z"/>
<path d="M699.2,462.1c-11.9-0.3-23.2-5.2-31.5-13.8c-8.3-8.6-12.9-20-12.7-31.9c0.1-11.9,5-23.3,13.4-31.7
	c8.5-8.4,19.9-13.1,31.8-13.1c11.9,0,23.3,4.7,31.8,13.1c8.5,8.4,13.3,19.7,13.4,31.7c0.1,11.9-4.4,23.4-12.7,31.9
	c-8.3,8.6-19.6,13.5-31.5,13.8C700.5,462.1,699.8,462.1,699.2,462.1z M699.2,377.4c-0.6,0-1.2,0-1.8,0c-10.6,0.5-20.6,5.1-27.8,12.9
	c-7.2,7.8-10.9,18.2-10.5,28.8c0.5,10.6,5.1,20.6,12.9,27.8c7.8,7.2,18.2,10.9,28.8,10.5c5.3-0.2,10.4-1.5,15.2-3.7
	c4.8-2.2,9.1-5.4,12.6-9.2c3.6-3.9,6.3-8.4,8.1-13.4c1.8-5,2.6-10.2,2.3-15.5c-0.5-10.3-4.9-19.9-12.3-27
	C719.4,381.5,709.5,377.5,699.2,377.4L699.2,377.4z"/>
<path d="M722.7,416.5c0.2,4.7-0.9,9.3-3.4,13.3c-2.4,4-6,7.2-10.2,9.2c-4.2,2-9,2.7-13.6,2c-4.6-0.7-8.9-2.8-12.4-5.9
	c-3.5-3.2-5.9-7.3-7-11.8c-1.1-4.5-0.8-9.3,0.8-13.7c1.6-4.4,4.5-8.2,8.3-11c3.8-2.8,8.3-4.3,13-4.5c3.1-0.1,6.2,0.3,9.1,1.4
	c2.9,1.1,5.6,2.7,7.9,4.8c2.3,2.1,4.1,4.6,5.4,7.4C721.9,410.3,722.6,413.4,722.7,416.5z"/>
<path class="st0" d="M703.8,404.8c0.1,2.5,0.9,4.9,2.4,6.9c1.5,2,3.5,3.5,5.8,4.4c2.3,0.8,4.9,1,7.3,0.4c2.4-0.6,4.6-1.9,6.3-3.7
	c1.7-1.8,2.8-4.1,3.1-6.6c0.4-2.4,0-5-1-7.2c-1-2.2-2.7-4.1-4.9-5.4c-2.1-1.3-4.6-1.9-7-1.8c-3.3,0.1-6.4,1.6-8.7,4
	C704.8,398.2,703.6,401.4,703.8,404.8z"/>
<path d="M665.7,393.9c-0.5,0-0.9-0.1-1.3-0.4l-8.8-6.1c-0.3-0.2-0.5-0.4-0.6-0.6c-0.2-0.3-0.3-0.5-0.3-0.8c-0.1-0.3-0.1-0.6,0-0.9
	c0.1-0.3,0.2-0.6,0.4-0.8c0.2-0.2,0.4-0.5,0.6-0.6c0.3-0.2,0.5-0.3,0.8-0.3c0.3-0.1,0.6,0,0.9,0c0.3,0.1,0.6,0.2,0.8,0.4l8.8,6.1
	c0.4,0.3,0.7,0.7,0.9,1.1c0.2,0.5,0.2,1,0,1.4c-0.1,0.5-0.4,0.9-0.8,1.2C666.7,393.8,666.2,393.9,665.7,393.9z"/>
<path d="M686.3,379.5c-0.4,0-0.9-0.1-1.2-0.4c-0.4-0.2-0.7-0.6-0.8-1l-5.5-11.5c-0.3-0.5-0.3-1.2-0.1-1.7c0.2-0.6,0.6-1,1.2-1.3
	c0.3-0.1,0.6-0.2,0.9-0.2c0.3,0,0.6,0,0.9,0.1c0.3,0.1,0.5,0.3,0.8,0.5c0.2,0.2,0.4,0.4,0.5,0.7l5.5,11.5c0.1,0.3,0.2,0.6,0.2,0.9
	c0,0.3,0,0.6-0.1,0.9c-0.1,0.3-0.3,0.5-0.5,0.8c-0.2,0.2-0.4,0.4-0.7,0.5C687,379.4,686.6,379.5,686.3,379.5z"/>
<path d="M709,378.6c-0.3,0-0.5,0-0.7-0.1c-0.6-0.2-1-0.6-1.3-1.1c-0.3-0.5-0.3-1.2-0.1-1.7l4.2-12.4c0.2-0.6,0.6-1,1.1-1.3
	c0.5-0.3,1.2-0.3,1.7-0.1c0.6,0.2,1,0.6,1.3,1.1c0.3,0.5,0.3,1.2,0.1,1.7l-4.2,12.4c-0.2,0.4-0.4,0.8-0.8,1.1
	C709.9,378.4,709.4,378.6,709,378.6z"/>
<path d="M730.5,391.3c-0.5,0-0.9-0.1-1.3-0.4c-0.4-0.3-0.7-0.7-0.8-1.1c-0.2-0.4-0.2-0.9,0-1.4c0.1-0.5,0.4-0.9,0.8-1.2l9.1-7.4
	c0.2-0.2,0.5-0.3,0.8-0.4c0.3-0.1,0.6-0.1,0.9-0.1c0.3,0,0.6,0.1,0.9,0.3c0.3,0.1,0.5,0.3,0.7,0.6c0.2,0.2,0.3,0.5,0.4,0.8
	c0.1,0.3,0.1,0.6,0.1,0.9c0,0.3-0.1,0.6-0.3,0.8c-0.1,0.3-0.3,0.5-0.6,0.7l-9.1,7.4C731.5,391.1,731,391.3,730.5,391.3z"/>
<path class="st0" d="M869.8,447.4c16.5-16.5,16.5-43.3,0-59.9c-16.5-16.5-43.3-16.5-59.9,0c-16.5,16.5-16.5,43.3,0,59.9
	C826.4,463.9,853.2,463.9,869.8,447.4z"/>
<path d="M839.8,462.1c-11.8-0.3-23-5.2-31.2-13.7c-8.2-8.5-12.7-19.9-12.6-31.7c0.1-11.8,4.9-23.1,13.3-31.4
	c8.4-8.3,19.7-13,31.5-13c11.8,0,23.1,4.7,31.5,13s13.2,19.6,13.3,31.4c0.1,11.8-4.4,23.2-12.6,31.7c-8.2,8.5-19.4,13.4-31.2,13.7
	C841.1,462.1,840.5,462.1,839.8,462.1z M839.8,377.4c-0.6,0-1.2,0-1.8,0c-5.3,0.2-10.4,1.5-15.2,3.7c-4.8,2.2-9,5.4-12.6,9.2
	c-3.5,3.9-6.3,8.4-8.1,13.4s-2.6,10.2-2.4,15.4c0.2,5.3,1.5,10.4,3.7,15.2c2.2,4.8,5.4,9,9.2,12.6c3.9,3.6,8.4,6.3,13.4,8.1
	c4.9,1.8,10.2,2.6,15.4,2.4c10.6-0.2,20.7-4.7,28-12.4c7.3-7.7,11.3-18,11.1-28.6c-0.2-10.6-4.7-20.7-12.4-28
	c-7.7-7.3-18-11.3-28.6-11.1L839.8,377.4z"/>
<path d="M863.4,416.5c0.2,4.7-0.9,9.3-3.4,13.3c-2.4,4-6,7.2-10.2,9.2c-4.2,2-9,2.7-13.6,2c-4.6-0.7-8.9-2.8-12.4-5.9
	c-3.5-3.2-5.9-7.3-7-11.8c-1.1-4.5-0.8-9.3,0.8-13.7c1.6-4.4,4.5-8.2,8.3-11c3.8-2.8,8.3-4.3,13-4.5c6.2-0.3,12.3,2,16.9,6.2
	C860.3,404.4,863.1,410.2,863.4,416.5z"/>
<path class="st0" d="M844.4,404.8c0.1,2.5,0.9,4.9,2.4,6.9c1.5,2,3.5,3.5,5.8,4.4c2.3,0.8,4.9,1,7.3,0.4c2.4-0.6,4.6-1.9,6.3-3.7
	c1.7-1.8,2.8-4.1,3.1-6.6c0.4-2.4,0-5-1-7.2c-1-2.2-2.7-4.1-4.9-5.4c-2.1-1.3-4.6-1.9-7-1.8c-3.3,0.1-6.4,1.6-8.7,4
	C845.4,398.2,844.3,401.4,844.4,404.8z"/>
<path d="M806.3,393.9c-0.5,0-0.9-0.1-1.3-0.4l-8.8-6.1c-0.3-0.2-0.5-0.4-0.7-0.6c-0.2-0.3-0.3-0.5-0.4-0.8c-0.1-0.3-0.1-0.6,0-0.9
	c0.1-0.3,0.2-0.6,0.4-0.9c0.2-0.3,0.4-0.5,0.7-0.6c0.3-0.2,0.6-0.3,0.9-0.3c0.3,0,0.6,0,0.9,0.1c0.3,0.1,0.6,0.2,0.8,0.4l8.8,6.1
	c0.2,0.2,0.5,0.4,0.6,0.6c0.2,0.2,0.3,0.5,0.3,0.8c0.1,0.3,0,0.6,0,0.9c-0.1,0.3-0.2,0.6-0.4,0.8c-0.2,0.3-0.5,0.5-0.8,0.7
	C807.1,393.8,806.7,393.9,806.3,393.9z"/>
<path d="M826.9,379.5c-0.4,0-0.9-0.1-1.2-0.4c-0.4-0.2-0.7-0.6-0.8-1l-5.5-11.5c-0.3-0.5-0.3-1.2-0.1-1.7c0.2-0.6,0.6-1,1.2-1.3
	c0.5-0.3,1.2-0.3,1.7-0.1c0.6,0.2,1,0.6,1.3,1.2l5.5,11.5c0.3,0.5,0.3,1.2,0.1,1.7c-0.2,0.6-0.6,1-1.2,1.3
	C827.6,379.4,827.3,379.5,826.9,379.5z"/>
<path d="M849.5,378.6c-0.2,0-0.5,0-0.7-0.1c-0.6-0.2-1-0.6-1.3-1.1c-0.3-0.5-0.3-1.2-0.1-1.7l4.2-12.4c0.2-0.6,0.6-1,1.2-1.3
	c0.5-0.3,1.2-0.3,1.7-0.1c0.6,0.2,1,0.6,1.3,1.1c0.3,0.5,0.3,1.2,0.1,1.7l-4.2,12.4c-0.2,0.5-0.4,0.8-0.8,1.1
	C850.5,378.4,850,378.6,849.5,378.6z"/>
<path d="M871.1,391.3c-0.3,0-0.7-0.1-1-0.2c-0.3-0.1-0.6-0.4-0.8-0.6c-0.2-0.2-0.3-0.5-0.4-0.8c-0.1-0.3-0.1-0.6-0.1-0.9
	c0-0.3,0.1-0.6,0.3-0.8c0.1-0.3,0.3-0.5,0.6-0.7l9.1-7.4c0.2-0.2,0.5-0.3,0.8-0.4c0.3-0.1,0.6-0.1,0.9-0.1c0.3,0,0.6,0.1,0.8,0.3
	c0.3,0.1,0.5,0.3,0.7,0.6c0.2,0.2,0.3,0.5,0.4,0.8c0.1,0.3,0.1,0.6,0.1,0.9s-0.1,0.6-0.3,0.8c-0.1,0.3-0.3,0.5-0.6,0.7l-9.1,7.4
	C872.1,391.1,871.6,391.3,871.1,391.3z"/>
<path d="M768.6,543.4c-14.9,0-26.7-4.6-35-13.6c-15.1-16.4-13.2-41.4-13.1-42.5c0.1-0.6,0.4-1.1,0.8-1.5c0.5-0.4,1-0.6,1.6-0.5
	c0.6,0,1.1,0.3,1.5,0.8c0.4,0.4,0.6,1,0.6,1.6c0,0.3-1.8,24.2,12,39.1c7.4,8,18,12.1,31.6,12.1c14.4,0,25.8-4.3,33.7-12.8
	c14.5-15.6,12.7-40.3,12.7-40.6c0-0.3,0-0.6,0.1-0.9c0.1-0.3,0.2-0.5,0.4-0.8c0.4-0.5,1-0.7,1.6-0.8c0.6,0,1.2,0.2,1.7,0.5
	c0.5,0.4,0.7,1,0.8,1.6c0,1.1,1.8,27-14,44C796.8,538.6,784.3,543.4,768.6,543.4z"/>
<path d="M716.1,489.8c-1.7,0-3.4-0.2-5.1-0.5c-0.6-0.1-1.1-0.5-1.4-1c-0.3-0.5-0.4-1.1-0.3-1.7c0.1-0.6,0.5-1.1,1-1.4
	c0.5-0.3,1.1-0.4,1.7-0.3c0.5,0.1,10.9,2.5,16.8-5.9c0.3-0.5,0.9-0.8,1.5-0.9c0.6-0.1,1.2,0,1.7,0.4c0.5,0.3,0.8,0.9,0.9,1.5
	c0.1,0.6,0,1.2-0.4,1.7c-1.8,2.7-4.3,4.8-7.2,6.2C722.5,489.3,719.3,490,716.1,489.8z"/>
<path d="M823.6,487.6c-3.3,0.1-6.6-0.7-9.5-2.3c-2.9-1.6-5.3-3.9-7-6.8c-0.2-0.3-0.3-0.6-0.3-0.9c0-0.3,0-0.6,0.1-0.9
	c0.1-0.3,0.2-0.6,0.4-0.8c0.2-0.2,0.4-0.4,0.7-0.6c0.3-0.1,0.6-0.2,0.9-0.2c0.3,0,0.6,0,0.9,0.1c0.3,0.1,0.6,0.3,0.8,0.5
	c0.2,0.2,0.4,0.5,0.5,0.8c0.2,0.4,5.5,10,19.8,5.3c0.3-0.1,0.6-0.1,0.9-0.1c0.3,0,0.6,0.1,0.9,0.2s0.5,0.3,0.7,0.6
	c0.2,0.2,0.3,0.5,0.4,0.8c0.1,0.3,0.1,0.6,0.1,0.9c0,0.3-0.1,0.6-0.3,0.9c-0.1,0.3-0.3,0.5-0.6,0.7s-0.5,0.3-0.8,0.4
	C829.5,487,826.6,487.5,823.6,487.6z"/>
<path d="M769.4,484.3c-2.6,0-11.3-0.4-16.2-5c-1.1-1-2-2.2-2.6-3.6c-0.6-1.4-0.9-2.8-0.9-4.3c-0.1-1.5,0.2-3,0.7-4.3
	c0.5-1.4,1.3-2.6,2.4-3.7c5.5-5.6,16.4-5.9,16.7-5.9c0.6,0,1.2,0.2,1.6,0.7c0.4,0.4,0.7,1,0.7,1.6c0,0.6-0.2,1.2-0.7,1.6
	s-1,0.7-1.6,0.7c-0.1,0-9.4,0.2-13.5,4.5c-0.6,0.6-1.1,1.4-1.4,2.2c-0.3,0.8-0.5,1.7-0.4,2.6c0,0.9,0.2,1.7,0.5,2.5
	c0.3,0.8,0.9,1.5,1.5,2.1c3.5,3.3,11,3.8,13.6,3.7c0.3,0,0.6,0,0.9,0.1c0.3,0.1,0.5,0.3,0.8,0.5c0.2,0.2,0.4,0.4,0.5,0.7
	c0.1,0.3,0.2,0.6,0.2,0.9c0,0.3,0,0.6-0.1,0.9c-0.1,0.3-0.3,0.5-0.5,0.8c-0.2,0.2-0.4,0.4-0.7,0.5c-0.3,0.1-0.6,0.2-0.9,0.2
	L769.4,484.3z"/>
<path d="M768.2,558.9c-5.9,0.1-11.7-0.9-17.1-3.1c-0.5-0.3-0.9-0.7-1.1-1.3c-0.2-0.5-0.2-1.1,0.1-1.6s0.6-0.9,1.2-1.2
	c0.5-0.2,1.1-0.3,1.6-0.1c0.3,0.1,18.8,8.1,42.2-4.5c0.5-0.2,1.1-0.3,1.7-0.1c0.6,0.2,1,0.6,1.3,1.1c0.3,0.5,0.3,1.1,0.2,1.7
	c-0.2,0.6-0.5,1-1,1.3C788.4,556.1,778.4,558.8,768.2,558.9z"/>
<path d="M480.2,530c4.6-47.1,82.7-51.9,103.2-52.3c-1.8-5.9-3.2-12-4.8-18.1c-29.1,1.1-110.6,9.5-116.4,68.6
	c-6.7,68.3,86.7,113.8,90.7,115.7l7.9-16.4C559.8,627.2,474.8,585.7,480.2,530z"/>
<path class="st0" d="M582.5,621.7c0,0-7-18.7-16.9-8.9c-7.6,7.5-18.5,27.4-23.3,36.3c-1.1,2-1.7,4.2-1.6,6.5
	c0.1,2.3,0.8,4.5,2.1,6.4c1.8,2.4,8.8,4.7,13.2,4.3c3.1,7.9,5.5,21.1,19.6,31.8c10.7,8.3,23.4,13.8,36.8,16.1
	c6.8,1.3,13.9,0.4,20.1-2.6c3.7-1.8,6.8-4.5,9.1-8c1-1.7,1.7-3.7,1.8-5.7c0-0.6,0.2-4.6,0.2-4.6s19.2-8.8,7.6-25.4
	c0,0,16.1-23-27.5-37.4c-2.4-0.8,13-10.5,13-10.5s-2.6-17.3-17-18.8C606.5,599.9,591.2,606.4,582.5,621.7z"/>
<path d="M619,716.9c-2.3,0-4.6-0.2-6.9-0.5c-13.8-2.2-26.8-7.8-37.8-16.4c-12.3-9.4-16-20.4-18.8-28.6c-0.3-0.9-0.6-1.8-0.9-2.7
	c-4.7-0.1-11.3-2.3-13.4-5.2c-1.5-2.2-2.4-4.8-2.5-7.6c-0.1-2.7,0.5-5.4,1.8-7.8c5.6-10.6,16.1-29.5,23.6-37c3.6-3.6,7-3.8,9.1-3.3
	c4.5,1,7.8,5.6,9.7,9.1c8.7-12.5,22.9-19.5,37.1-18c12.7,1.3,18,14.1,19,20.7c0.1,0.4,0,0.9-0.2,1.3c-0.2,0.4-0.5,0.7-0.9,1
	c-3.9,2.4-8.3,5.5-10.7,7.3c15.6,5.6,25,13.1,28.1,22.2c0.9,2.7,1.2,5.5,0.9,8.3c-0.2,2.8-1.1,5.5-2.4,8c1.5,2.1,2.5,4.4,2.9,6.9
	c0.5,2.5,0.4,5-0.2,7.5c-1.8,6.8-8.1,11-10.9,12.5c0,1.3-0.1,3-0.1,3.4c-0.2,2.4-0.9,4.6-2.1,6.7c-2.4,3.8-5.9,6.8-9.9,8.8
	C628.9,715.8,624,717,619,716.9z M556.1,664.2c0.5,0,0.9,0.1,1.3,0.4c0.4,0.3,0.7,0.6,0.8,1c0.5,1.3,1,2.8,1.6,4.4
	c2.6,7.5,6.1,17.9,17.3,26.4c10.4,8,22.7,13.3,35.7,15.4c7.6,1.1,13.5,0.4,18.7-2.3c3.3-1.6,6.1-4,8.1-7.1c0.9-1.4,1.4-3,1.5-4.6
	c0-0.6,0.2-4.6,0.2-4.6c0-0.4,0.2-0.8,0.4-1.2c0.2-0.4,0.6-0.6,0.9-0.8c0,0,7.8-3.6,9.6-10.3c1-3.6,0-7.6-2.9-11.8
	c-0.3-0.4-0.4-0.8-0.4-1.3c0-0.5,0.1-0.9,0.4-1.3c1.3-2,2.1-4.3,2.4-6.7c0.3-2.4,0.1-4.8-0.7-7c-2.7-8.1-12.4-15.1-28-20.2
	c-0.5-0.2-0.9-0.4-1.2-0.8c-0.3-0.4-0.5-0.8-0.6-1.3c-0.1-1.3-0.4-3.1,13-11.5c-0.9-3.9-4.3-14.3-14.7-15.4
	c-13.8-1.4-27.5,6.2-35,19.3c-0.2,0.4-0.5,0.7-0.9,0.9c-0.4,0.2-0.8,0.3-1.2,0.3c-0.4,0-0.8-0.2-1.2-0.4c-0.3-0.3-0.6-0.6-0.8-1
	c-0.9-2.4-4.3-9.3-8.2-10.2c-0.6-0.1-2.3-0.5-5,2.1c-7.4,7.3-18.5,27.5-22.9,35.9c-0.9,1.6-1.4,3.4-1.3,5.3c0.1,1.9,0.6,3.7,1.7,5.2
	c1.1,1.5,7.3,3.8,11.1,3.3H556.1z"/>
<path d="M651.2,670.2c-0.3,0-0.5,0-0.8-0.1l-20.6-7.4c-0.3-0.1-0.6-0.2-0.8-0.4c-0.2-0.2-0.4-0.4-0.6-0.7c-0.1-0.3-0.2-0.6-0.2-0.9
	c0-0.3,0-0.6,0.1-0.9c0.1-0.3,0.3-0.6,0.5-0.8c0.2-0.2,0.5-0.4,0.8-0.5c0.3-0.1,0.6-0.2,0.9-0.2c0.3,0,0.6,0.1,0.9,0.2l20.6,7.4
	c0.5,0.2,0.9,0.5,1.2,1c0.3,0.5,0.4,1,0.3,1.5c-0.1,0.5-0.4,1-0.8,1.3C652.2,670,651.7,670.1,651.2,670.2z"/>
<path d="M643.5,696.2c-0.3,0-0.6-0.1-0.9-0.2l-18.8-8.2c-0.3-0.1-0.5-0.3-0.7-0.5c-0.2-0.2-0.4-0.5-0.5-0.7
	c-0.1-0.3-0.2-0.6-0.2-0.9c0-0.3,0.1-0.6,0.2-0.9c0.1-0.3,0.3-0.5,0.5-0.7c0.2-0.2,0.5-0.4,0.7-0.5c0.3-0.1,0.6-0.2,0.9-0.2
	c0.3,0,0.6,0.1,0.9,0.2l18.8,8.2c0.5,0.2,0.9,0.6,1.1,1c0.2,0.5,0.3,1,0.2,1.5c-0.1,0.5-0.4,1-0.8,1.3
	C644.6,696,644.1,696.2,643.5,696.2z"/>
<path d="M1031.5,283.8c-0.6,0-1.1-0.2-1.5-0.6c-0.4-0.4-0.7-0.9-0.7-1.5c-0.7-7.8-3.3-13.6-7.8-17.3c-4.1-3.2-9.2-4.8-14.4-4.4
	c-0.4,0-0.8,0-1.2-0.2c-0.4-0.2-0.7-0.4-0.9-0.8c-0.2-0.3-0.4-0.7-0.4-1.1c0-0.4,0-0.8,0.2-1.2c0.2-0.3,15.2-30.2,2.7-39.9
	c-0.9-0.7-1.9-1.3-3.1-1.5c-1.1-0.3-2.3-0.3-3.4,0c-8.8,1.8-18.6,17.2-21.6,22.9c-0.3,0.5-0.8,0.9-1.3,1.1c-0.6,0.2-1.2,0.1-1.7-0.2
	c-0.5-0.3-0.9-0.8-1.1-1.3c-0.2-0.6-0.1-1.2,0.2-1.7c0.5-0.9,12-22.5,24.7-25.2c1.8-0.4,3.6-0.4,5.4,0c1.8,0.4,3.4,1.2,4.8,2.4
	c12.7,9.8,3.9,33.5,0,42.2c5.1,0.4,10,2.3,14,5.5c5.5,4.5,8.6,11.4,9.4,20.4c0,0.3,0,0.6-0.1,0.9c-0.1,0.3-0.2,0.5-0.4,0.8
	c-0.2,0.2-0.4,0.4-0.7,0.6c-0.3,0.1-0.6,0.2-0.8,0.2H1031.5z"/>
<path class="st0" d="M1027.7,194.4c0,0-10.3,44.7,3.1,48.9c13.5,4.3,19.4-27.3,19.4-27.3"/>
<path d="M1033.2,246c-1.1,0-2.1-0.2-3.2-0.5c-14.7-4.6-6.5-43.8-4.7-51.6c0.1-0.6,0.5-1.1,1-1.4c0.5-0.3,1.1-0.4,1.7-0.3
	c0.6,0.1,1.1,0.5,1.4,1c0.3,0.5,0.4,1.1,0.3,1.7c-4.1,17.7-6.3,43.7,1.6,46.2c0.8,0.3,1.6,0.3,2.4,0.2c0.8-0.1,1.6-0.4,2.3-0.8
	c6.5-3.9,10.7-19.3,11.7-24.9c0.1-0.3,0.2-0.6,0.3-0.8c0.2-0.3,0.4-0.5,0.6-0.6c0.2-0.2,0.5-0.3,0.8-0.3c0.3-0.1,0.6-0.1,0.9,0
	c0.3,0.1,0.6,0.2,0.8,0.3c0.2,0.2,0.5,0.4,0.6,0.6c0.2,0.2,0.3,0.5,0.3,0.8c0.1,0.3,0.1,0.6,0,0.9c-0.2,0.9-4.3,22.2-13.9,28
	C1036.9,245.5,1035.1,246,1033.2,246z"/>
<path class="st0" d="M871.6,314.7c12.9-9.3,49.5,31.7,42.7,39.3C907.5,361.6,858.6,324,871.6,314.7z"/>
<path class="st0" d="M928.2,382.3c7.6-1.4,6-13.6-2.1-13.3C917.9,369.3,920.6,383.7,928.2,382.3z"/>
<path class="st5" d="M308.2,773.5c0.3,0.6,0.6,1.4,0.9,2.3c1.1,2.9,2.2,6.8,3.3,10.7c1.1,4,2,7.9,2.7,10.9c0.3,1.5,0.6,2.7,0.8,3.6
	c0.1,0.4,0.2,0.8,0.2,1c0,0.1,0,0.2,0.1,0.3c0,0,0,0.1,0,0.1c0,0,0,0,0,0v0l0,0l0.3,1.3l1.3,0.2l0,0c0,0,0,0,0,0c0,0,0,0,0.1,0
	c0.1,0,0.1,0,0.2,0c0.2,0,0.5,0.1,0.9,0.2c0.8,0.2,1.9,0.4,3.3,0.7c2.7,0.6,6.4,1.4,10,2.4c3.7,1,7.3,2.1,10,3.3
	c1.4,0.6,2.4,1.1,3,1.7c0.3,0.2,0.4,0.4,0.5,0.5c-0.1,0.1-0.2,0.2-0.3,0.4c-0.5,0.5-1.4,1.1-2.6,1.7c-2.4,1.3-5.7,2.6-9,3.7
	c-3.4,1.2-6.8,2.2-9.3,2.9c-1.3,0.4-2.3,0.6-3.1,0.8c-0.4,0.1-0.7,0.2-0.9,0.2c-0.1,0-0.2,0-0.2,0.1c0,0,0,0-0.1,0c0,0,0,0,0,0l0,0
	l-1.3,0.3l-0.2,1.3v0c0,0,0,0,0,0l-0.1,0.3c0,0.2-0.1,0.6-0.2,1c-0.2,0.9-0.4,2.2-0.7,3.7c-0.6,3.1-1.4,7.2-2.4,11.2
	c-1,4.1-2.1,8.1-3.3,11.1c-0.6,1.5-1.2,2.6-1.7,3.3c-0.1,0.2-0.2,0.3-0.3,0.4c-0.1-0.1-0.2-0.2-0.3-0.4c-0.5-0.7-1.1-1.8-1.7-3.3
	c-1.2-3-2.4-7-3.5-11.1c-1.1-4.1-1.9-8.2-2.6-11.3c-0.3-1.5-0.6-2.8-0.7-3.7c-0.1-0.4-0.2-0.8-0.2-1c0-0.1,0-0.2,0-0.3
	c0,0,0-0.1,0-0.1c0,0,0,0,0,0l0,0l-0.2-1.4l-1.4-0.2l0,0c0,0,0,0,0,0c0,0,0,0-0.1,0c0,0-0.1,0-0.2,0c-0.2,0-0.5-0.1-0.8-0.1
	c-0.7-0.1-1.8-0.3-3-0.6c-2.5-0.5-5.8-1.2-9.1-2c-3.3-0.8-6.5-1.7-8.9-2.6c-1.1-0.4-1.9-0.8-2.4-1.1c0.6-0.5,1.5-1.1,2.7-1.7
	c2.4-1.3,5.6-2.8,9-4.1c3.3-1.4,6.6-2.6,9.1-3.5c1.2-0.5,2.3-0.8,3-1.1c0.4-0.1,0.6-0.2,0.8-0.3c0.1,0,0.2-0.1,0.2-0.1
	c0,0,0,0,0.1,0c0,0,0,0,0,0h0l1.1-0.4l0.2-1.2l0,0c0,0,0,0,0,0c0,0,0,0,0-0.1c0-0.1,0-0.2,0-0.3c0-0.2,0.1-0.6,0.2-1
	c0.2-0.9,0.4-2.2,0.7-3.7c0.6-3,1.3-7.1,2.2-11.2c0.9-4.1,1.9-8.1,2.8-11.2C307.6,775.2,307.9,774.3,308.2,773.5z"/>
<path class="st5" d="M1348.4,121.7c0.3,0.6,0.6,1.4,0.9,2.3c1.1,2.9,2.2,6.8,3.3,10.7c1.1,4,2,7.9,2.7,10.9c0.3,1.5,0.6,2.7,0.8,3.6
	c0.1,0.4,0.2,0.8,0.2,1c0,0.1,0,0.2,0.1,0.3c0,0,0,0.1,0,0.1c0,0,0,0,0,0v0l0,0l0.3,1.3l1.3,0.2l0,0c0,0,0,0,0,0c0,0,0,0,0.1,0
	c0.1,0,0.1,0,0.2,0c0.2,0,0.5,0.1,0.9,0.2c0.8,0.2,1.9,0.4,3.3,0.7c2.7,0.6,6.4,1.4,10,2.4c3.7,1,7.3,2.1,10,3.3
	c1.4,0.6,2.4,1.1,3,1.7c0.3,0.2,0.4,0.4,0.5,0.5c-0.1,0.1-0.2,0.2-0.3,0.4c-0.5,0.5-1.4,1.1-2.6,1.7c-2.4,1.3-5.7,2.6-9,3.7
	c-3.4,1.2-6.8,2.2-9.3,2.9c-1.3,0.4-2.3,0.6-3.1,0.8c-0.4,0.1-0.7,0.2-0.9,0.2c-0.1,0-0.2,0-0.2,0.1c0,0,0,0-0.1,0c0,0,0,0,0,0l0,0
	l-1.3,0.3l-0.2,1.3v0c0,0,0,0,0,0l-0.1,0.3c0,0.2-0.1,0.6-0.2,1c-0.2,0.9-0.4,2.2-0.7,3.7c-0.6,3.1-1.4,7.2-2.4,11.2
	c-1,4.1-2.1,8.1-3.3,11.1c-0.6,1.5-1.2,2.6-1.7,3.3c-0.1,0.2-0.2,0.3-0.3,0.4c-0.1-0.1-0.2-0.2-0.3-0.4c-0.5-0.7-1.1-1.8-1.7-3.3
	c-1.2-3-2.4-7-3.5-11.1c-1.1-4.1-1.9-8.2-2.6-11.3c-0.3-1.5-0.6-2.8-0.7-3.7c-0.1-0.4-0.2-0.8-0.2-1c0-0.1,0-0.2,0-0.3
	c0,0,0-0.1,0-0.1c0,0,0,0,0,0l0,0l-0.2-1.4l-1.4-0.2l0,0c0,0,0,0,0,0c0,0,0,0-0.1,0c0,0-0.1,0-0.2,0c-0.2,0-0.5-0.1-0.8-0.1
	c-0.7-0.1-1.8-0.3-3-0.6c-2.5-0.5-5.8-1.2-9.1-2c-3.3-0.8-6.5-1.7-8.9-2.6c-1.1-0.4-1.9-0.8-2.4-1.1c0.6-0.5,1.5-1.1,2.7-1.7
	c2.4-1.3,5.6-2.8,9-4.1c3.3-1.4,6.6-2.6,9.1-3.5c1.2-0.5,2.3-0.8,3-1.1c0.4-0.1,0.6-0.2,0.8-0.3c0.1,0,0.2-0.1,0.2-0.1
	c0,0,0,0,0.1,0c0,0,0,0,0,0h0l1.1-0.4l0.2-1.2l0,0c0,0,0,0,0,0c0,0,0,0,0-0.1c0-0.1,0-0.2,0-0.3c0-0.2,0.1-0.6,0.2-1
	c0.2-0.9,0.4-2.2,0.7-3.7c0.6-3.1,1.3-7.1,2.2-11.2c0.9-4.1,1.9-8.1,2.8-11.2C1347.8,123.3,1348.1,122.4,1348.4,121.7z"/>
<path class="st5" d="M1164.2,740.6c7.2,0.3,12,7.4,12,14.9c0,3.6-1.1,7-3.5,9.3c-2.3,2.3-6.1,3.9-11.7,3.4c-5.7-0.4-9-2.5-10.7-5
	c-1.8-2.5-2.2-5.9-1.4-9.4C1150.5,746.7,1156.9,740.3,1164.2,740.6z"/>
<path class="st5" d="M523.1,113.1c3-13,14.6-25,28.3-24.3c13.6,0.6,22.4,14,22.5,27.5c0,6.6-2.1,13-6.5,17.4
	c-4.4,4.4-11.4,7.3-21.7,6.5c-10.3-0.8-16.5-4.6-19.9-9.4C522.4,125.9,521.6,119.5,523.1,113.1z"/>
<path class="st5" d="M134.5,134.3c5.5,0.3,9.4,5.8,9.4,11.7c0,2.9-0.9,5.5-2.7,7.3c-1.8,1.8-4.7,3-9.2,2.7c-4.6-0.4-7.1-2-8.5-3.9
	c-1.4-2-1.7-4.6-1.1-7.3C123.8,139.1,128.8,134.1,134.5,134.3z"/>
</svg>
