<?xml version="1.0" encoding="utf-8"?>
<!-- Generator: Adobe Illustrator 25.2.3, SVG Export Plug-In . SVG Version: 6.00 Build 0)  -->
<svg version="1.1" id="Layer_1" xmlns="http://www.w3.org/2000/svg" xmlns:xlink="http://www.w3.org/1999/xlink" x="0px" y="0px"
	 viewBox="0 0 1500 1864.3" style="enable-background:new 0 0 1500 1864.3;" xml:space="preserve">
<style type="text/css">
	.st0{fill:#FFFFFF;}
	.st1{fill:#9FD22D;}
</style>
<path d="M1163,1609.4c3.8,0,7.4-1.3,10.5-3.5c3-2.2,5.3-5.3,6.5-8.9c1.2-3.6,1.3-7.4,0.2-11c-1.1-3.6-3.3-6.8-6.2-9.1
	c-215.3-167.7-238.7-373.4-238.9-375.4c-0.2-2.4-0.9-4.7-2.1-6.8c-1.1-2.1-2.7-4-4.5-5.5c-1.9-1.5-4-2.7-6.3-3.3
	c-2.3-0.7-4.7-0.9-7.1-0.7c-2.4,0.2-4.7,0.9-6.8,2.1c-2.1,1.1-4,2.7-5.5,4.5c-1.5,1.9-2.7,4-3.3,6.3c-0.7,2.3-0.9,4.7-0.7,7.1
	c0.9,9,25.4,223.2,252.8,400.3C1154.7,1608,1158.8,1609.4,1163,1609.4z"/>
<path class="st0" d="M1198.7,1521.2c0,0-33.9-19.2-69.4,28.6c-42.6,57.4-34.5,100.2,21.8,140.9c51.7,37.3,76.9,21.6,123.4-36
	c46.5-57.5,133.6-63.7,117.1-152C1376.7,1423.3,1246.9,1406.3,1198.7,1521.2z"/>
<path d="M1199.2,1715.4c-15,0-31.3-6.7-50.8-20.9c-29.8-21.6-46.1-43.5-49.9-67.6c-3.7-24.1,5.2-50.1,27.1-79.8
	c29.8-39.9,59.5-35.5,70.7-31.8c29.4-65.7,84.2-84.4,122.8-80.3c39.9,4.3,70.2,30.5,77,66.9c11.4,61.1-24.7,85-62.9,110.3
	c-19.5,12.9-39.7,26.2-55.1,45.4C1248,1694.6,1225.6,1715.3,1199.2,1715.4z M1181.3,1521.9c-12,0-29.8,5.5-48.5,30.7
	c-20.5,27.5-28.8,51.4-25.4,72.8c3.4,21.4,18.4,41.6,46.2,61.7c48.3,34.9,70.6,22.5,117.3-35.2c16.4-20.2,37.1-34,57.2-47.2
	c37.2-24.6,69.3-45.9,59-101c-6.1-32.3-33.1-55.7-68.9-59.5c-38-4-88.3,14.5-115.3,78.9c-0.3,0.6-0.6,1.1-1.1,1.5
	c-0.5,0.4-1,0.8-1.6,1c-0.6,0.2-1.2,0.3-1.9,0.2c-0.6-0.1-1.2-0.2-1.8-0.6C1191.9,1522.9,1186.6,1521.8,1181.3,1521.9z"/>
<path d="M1167.8,1706.3c-1.2,0-2.3-0.4-3.1-1.2c-20.7-19.4-8.9-56.4,32.4-101.3c17.7-19.3,26.4-38,34.8-56.1
	c12.4-26.6,24-51.8,62-73.6c47.2-27,92.5,6.1,93,6.4c0.5,0.3,1,0.8,1.3,1.3c0.3,0.5,0.6,1.1,0.7,1.7c0.1,0.6,0.1,1.2,0,1.8
	s-0.4,1.2-0.8,1.7c-0.4,0.5-0.8,0.9-1.4,1.2c-0.5,0.3-1.1,0.5-1.8,0.6c-0.6,0.1-1.2,0-1.8-0.2c-0.6-0.2-1.1-0.5-1.6-0.9
	c-1.7-1.2-41.2-29.9-83-5.8c-35.5,20.3-46,43.2-58.3,69.6c-8.7,18.8-17.6,38.1-36.3,58.4c-36.3,39.5-48.9,73.5-32.7,88.6
	c0.4,0.4,0.8,0.9,1,1.4c0.2,0.5,0.4,1.1,0.4,1.7c0,0.6-0.1,1.2-0.3,1.7c-0.2,0.6-0.5,1.1-0.9,1.5c-0.4,0.5-1,0.9-1.6,1.1
	C1169.2,1706.2,1168.5,1706.3,1167.8,1706.3z"/>
<path d="M1191.2,1556.9h-1c-1.2-0.3-2.2-1-2.8-2c-0.6-1-0.9-2.2-0.6-3.4c1.9-8.6,6.4-29,7.7-31.9c0.2-0.6,0.6-1.1,1-1.5
	c0.4-0.4,0.9-0.8,1.5-1c0.6-0.2,1.1-0.3,1.7-0.3c0.6,0,1.2,0.1,1.7,0.4c1.1,0.5,2,1.4,2.4,2.5c0.4,1.1,0.4,2.4,0,3.5
	c-0.7,1.9-4.2,16.9-7.3,30.2c-0.2,1-0.8,1.8-1.6,2.5C1193.2,1556.5,1192.2,1556.8,1191.2,1556.9z"/>
<path class="st0" d="M325.6,1252.3l-55.4,81.2l-18.1,8.7c0,0,5.4,164.7-100,142.5c-89.8-18.9-41-139.1,6.1-208.3
	C205.4,1207.2,242.1,1123,325.6,1252.3z"/>
<path d="M170.8,1491.2c-6.6,0-13.2-0.8-19.6-2.2c-24.3-5.1-40.6-17.6-48.4-37.2c-19-47.2,16-125.5,51.7-178
	c4.6-6.7,9.2-13.7,13.6-20.5c24.5-37.6,47.6-73.1,79.4-73.1c25.4,0,51.3,22.1,81.9,69.6c0.5,0.7,0.8,1.6,0.8,2.5
	c0,0.9-0.3,1.8-0.8,2.5l-55.4,81.4c-0.5,0.6-1.1,1.2-1.8,1.5l-15.5,7.3c0,16.7-1.3,96.5-42.2,130.8
	C202.3,1486,186.8,1491.5,170.8,1491.2z M247.5,1189.4c-26.9,0-48.7,33.4-71.8,68.9c-4.4,6.8-9,13.8-13.6,20.6
	c-37.3,54.7-67.4,128.3-50.8,169.5c6.7,16.6,20.8,27.3,41.9,31.8c22.3,4.7,41,0.9,55.6-11.4c41.4-34.7,38.7-125.6,38.7-126.6
	c0-0.9,0.2-1.7,0.7-2.5c0.5-0.7,1.1-1.3,1.9-1.7l17-8.2l53-77.7C292.3,1210,268.6,1189.4,247.5,1189.4z"/>
<path class="st0" d="M351.9,1246.7c32.4,21.8-36.8,128.7-74.4,109.3S319.8,1225.1,351.9,1246.7z"/>
<path d="M287.4,1362.8c-4.1,0-8.2-0.9-11.8-2.8c-5.6-2.9-12.2-9-12.3-22.2c-0.3-30.7,34.5-78.6,61.7-93.3
	c14.5-7.9,24.1-5.2,29.5-1.6c18.8,12.7,9,45.2-5.2,69.2C333,1339.5,308.3,1362.8,287.4,1362.8z M342.6,1248.5
	c-4.7,0.3-9.2,1.7-13.2,4c-26.9,14.5-57.3,59.9-57,85.2c0,7.3,2.5,11.7,7.3,14.2c17.1,8.8,44.9-15.7,61.7-44.4
	c12.7-21.6,20.6-48.6,7.9-57.1c-2-1.3-4.4-2-6.7-2H342.6z"/>
<path d="M461.2,1553.5c15,5.3,31.3,5.4,46.4,0.3c133.5-44.9,96.1-261.9,94.3-271.1c-0.9-4.7-3.6-8.9-7.5-11.7c-4-2.8-8.8-3.8-13.6-3
	c-4.7,0.9-8.9,3.6-11.7,7.5c-2.7,4-3.8,8.8-3,13.6c0.4,2,33.6,195.4-70.2,230.3c-4.9,1.6-10.2,2.1-15.3,1.6
	c-5.2-0.6-10.1-2.2-14.6-4.8c-56.4-29-108.3-163.6-123.4-213c-0.7-2.3-1.8-4.4-3.4-6.2c-1.5-1.8-3.4-3.4-5.5-4.5
	c-2.1-1.1-4.4-1.8-6.8-2c-2.4-0.2-4.8,0-7,0.7c-2.3,0.7-4.4,1.8-6.2,3.4c-1.8,1.5-3.4,3.4-4.5,5.5c-1.1,2.1-1.8,4.4-2,6.8
	c-0.2,2.4,0,4.8,0.7,7c6.1,19.7,61.7,193.5,141.5,234.6C453.2,1550.5,457.1,1552.1,461.2,1553.5z"/>
<path class="st0" d="M222.1,1321.7l30.1,20.5c0.2-15.9-9.7-41-9.7-41"/>
<path d="M252.1,1346.7c-0.9,0-1.8-0.3-2.5-0.8l-30.1-20.5c-1-0.7-1.7-1.7-1.9-2.9c-0.2-1.2,0-2.4,0.7-3.4c0.7-1,1.7-1.7,2.9-1.9
	c1.2-0.2,2.4,0,3.4,0.7l22.2,15.2c-1.9-10.3-4.8-20.5-8.6-30.3c-0.4-1.1-0.4-2.4,0.1-3.5c0.5-1.1,1.4-2,2.5-2.4
	c1.1-0.4,2.4-0.4,3.5,0.1c1.1,0.5,2,1.4,2.4,2.5c0.4,1.1,10.2,26.2,10,42.8c0,0.8-0.2,1.6-0.7,2.3c-0.4,0.7-1,1.3-1.8,1.6
	C253.6,1346.5,252.8,1346.7,252.1,1346.7z"/>
<path class="st1" d="M828.6,242.5c-59.1-26.9-110.5-64.4-147.4-111.9c-14.5-18.5-32.9-31.8-55.5-27.1c-21.3,4.4-35.2,21.3-44.2,41.4
	c-24.8,54.9-62,103.2-108.8,141.1c-95.2,77.7-226,244.8-195.9,566c30.8,329.2,204,438.4,316,474.6c55,17.4,105.7,46.1,149,84.2
	c18.8,16.8,41,29.4,63.7,26.2c18.9-2.7,33.1-16.3,43.5-33.1c32.9-52.4,76.9-96.9,128.9-130.3c112.5-73.1,268.7-240.4,190.3-586.1
	C1106.3,413.7,940.8,293.6,828.6,242.5z"/>
<path d="M798.3,1441.9c-18.9,0-38.8-9.3-59.5-27.8c-42.7-37.9-92.9-66.3-147.3-83.5c-74.4-24.1-140.4-68.7-190.5-128.6
	c-71.6-85.4-114.9-203.2-128.6-349.6C259,709,276.3,582.4,323.8,475.8c32.8-75.1,82.9-141.3,146.2-193.3
	c46.3-37.4,83.1-85.2,107.5-139.4c11.2-25,27.1-39.9,47.4-44c21.5-4.4,41.7,5.3,60,28.8c34.8,44.8,85.2,83,145.7,110.5
	c72.5,32.9,137.2,80.6,190.2,139.9c73.1,81.8,124.3,185.4,152.1,307.9c34.9,153.9,26.9,287.8-23.8,398.1
	c-45.2,98.2-116.5,159.1-168.4,192.8c-51.5,33-95.1,77-127.5,128.9c-13,20.8-28.7,32.7-46.8,35.2
	C803.6,1441.6,801,1441.9,798.3,1441.9z M634.6,107c-2.7,0-5.4,0.3-8,0.8c-17.2,3.6-31,16.6-40.9,38.8
	c-24.9,55.6-62.6,104.5-110,142.7c-104.6,85.4-223.2,252.3-194.3,562c31,331.6,209.4,437.2,312.9,470.7
	c55.6,17.5,106.9,46.5,150.6,85.2c21.5,19.2,41.7,27.6,60,25c15.3-2.2,29-12.6,40.4-31c33.2-53,77.7-98,130.3-131.7
	c104.2-67.7,267.3-233.1,188.3-581.3c-60.2-265.5-216.7-386.8-337.4-441.7c-61.9-28.2-113.4-67.3-149.1-113.2
	C664,115.8,649.6,107,634.6,107z"/>
<path d="M1189,796.2c0.3,12.6,1.8,25,2.6,37.5c60.7,11.5,155,41.2,156,114.7c1.8,111.6-174.2,180.4-175.8,181.1l13,33.9
	c8.2-3.2,201.4-78.6,199.1-215.6C1382.3,843.8,1258.4,808.1,1189,796.2z"/>
<path class="st0" d="M1129.5,1114.4c0,0,16.8-36.1,35-14.9c13.9,16.1,32.4,57.4,40.5,76.2c1.9,4.1,2.7,8.7,2.1,13.3
	c-0.6,4.5-2.4,8.8-5.3,12.4c-3.8,4.4-18.1,8-26.9,6.4c-7.3,15.2-14.5,41-44,60.1c-22.7,14.7-48.8,23.5-75.8,25.7
	c-13.8,0.9-27.5-0.7-39.6-8.3c-7-4.1-12.8-10.1-16.7-17.3c-1.8-3.6-2.7-7.5-2.7-11.5c0-1.2,0.4-9.3,0.4-9.3s-36.8-20.5-10.9-51.8
	c0,0-55.2-36.3,25.4-61.7c4.9-1.6-1.6-24.2,10.9-41.9c1.9-2.6,15.1-20.7,37.1-23.9C1084.9,1063.9,1114.6,1082.4,1129.5,1114.4z"/>
<path d="M1048.6,1298.2c-12.5,0.4-24.8-2.7-35.6-9.1c-7.7-4.6-14.1-11.2-18.4-19.2c-2.1-4.2-3.2-8.9-3.2-13.6c0-0.8,0-4.3,0.3-6.8
	c-5.2-3.6-16.9-12.7-19.5-26.7c-0.8-4.7-0.5-9.4,0.6-14c1.2-4.6,3.3-8.9,6.2-12.6c-6.4-5.3-18.4-17.1-16.4-31.4
	c2-14.3,17.2-26.1,45.4-35.1c0.3-2.1,0.4-4.1,0.5-6.2c0.4-9,1.1-22.5,9.5-34.4c3.6-5.2,17.5-22.5,40.2-25.8
	c26.7-3.9,55.2,13,71.5,41.7c4.3-6.6,11.5-15.2,20.6-16.4c4.4-0.6,10.9,0.3,17.7,8.1c13.9,16.1,31.8,55.4,41.2,77.4
	c2.2,4.9,3.1,10.4,2.4,15.7c-0.7,5.4-2.9,10.4-6.3,14.6c-4.8,5.5-18.1,8.7-27.6,8.2c-0.8,1.6-1.5,3.4-2.3,5.2
	c-6.8,15.7-16.1,37.1-42,53.8c-23.4,15.1-50.2,24.2-77.9,26.4C1052.9,1298.1,1050.8,1298.2,1048.6,1298.2z M1065.6,1071.7
	c-2.1,0-4.1,0.1-6.2,0.4c-19.5,2.8-31.7,18.9-34,22.1c-6.9,9.7-7.3,21.2-7.8,29.6c-0.3,7-0.6,12.4-5.5,14c-25,7.9-39,17.6-40.4,28.2
	c-1.8,13.1,16.1,25.4,16.3,25.4c0.5,0.4,1,0.8,1.3,1.4c0.3,0.5,0.6,1.1,0.7,1.8c0.1,0.6,0.1,1.3-0.1,1.9c-0.2,0.6-0.5,1.2-0.9,1.7
	c-6.5,7.9-9.1,15.6-7.8,23c2.5,13.4,17.4,21.8,17.5,22c0.7,0.4,1.3,1,1.7,1.8c0.4,0.7,0.6,1.6,0.6,2.4c0,0-0.4,7.9-0.4,9.1
	c0,3.3,0.7,6.5,2.2,9.5c3.5,6.4,8.7,11.8,15,15.5c9.9,6.2,21.8,8.6,36.9,7.7c26.2-2.1,51.5-10.7,73.6-25
	c23.6-15.2,32.3-35.2,38.6-49.8c1.3-3.1,2.5-5.9,3.6-8.5c0.4-0.9,1.2-1.6,2.1-2.1c0.9-0.4,1.9-0.6,2.9-0.4
	c7.7,1.4,20.3-2.1,22.7-4.9c2.3-2.9,3.7-6.4,4.2-10.1c0.4-3.7-0.2-7.4-1.8-10.7c-7.3-17.3-26.2-59.3-39.9-75.1
	c-4.9-5.6-8.4-5.2-9.5-5c-7.9,1.1-15.8,14.5-18.1,18.9c-0.4,0.8-1,1.4-1.7,1.9c-0.7,0.5-1.6,0.7-2.4,0.7c-0.9,0-1.7-0.2-2.4-0.7
	c-0.7-0.5-1.3-1.1-1.7-1.9C1113,1089.5,1088.6,1071.7,1065.6,1071.7z"/>
<path d="M1010.7,1138c-1.1,0-2.2-0.4-3-1.1c-0.8-0.7-1.4-1.7-1.5-2.8c-0.1-1.1,0.1-2.2,0.7-3.1c0.6-0.9,1.6-1.6,2.6-1.9
	c1.3-0.4,31.4-8.7,45.5-8.5c1.2,0,2.4,0.5,3.2,1.3c0.8,0.8,1.3,2,1.3,3.2c0,1.2-0.5,2.4-1.3,3.2c-0.8,0.9-2,1.3-3.2,1.3h-0.5
	c-13,0-42.1,8.1-42.4,8.2C1011.7,1138,1011.2,1138,1010.7,1138z"/>
<path d="M985.5,1199.7c-1.1,0-2.1-0.4-2.9-1.1c-0.8-0.7-1.3-1.7-1.5-2.8c-0.1-1.1,0.1-2.2,0.7-3.1c0.6-0.9,1.5-1.6,2.5-1.9
	l42.1-11.5c0.6-0.2,1.2-0.2,1.8-0.2c0.6,0.1,1.2,0.2,1.7,0.5c0.5,0.3,1,0.7,1.4,1.2c0.4,0.5,0.7,1,0.8,1.6c0.2,0.6,0.2,1.2,0.1,1.8
	s-0.3,1.2-0.6,1.7c-0.3,0.5-0.7,1-1.2,1.3c-0.5,0.4-1,0.6-1.6,0.8l-42.1,11.5C986.3,1199.7,985.9,1199.7,985.5,1199.7z"/>
<path d="M996.5,1252.8c-1.1,0-2.1-0.4-2.9-1.1c-0.8-0.7-1.4-1.6-1.5-2.7s0-2.1,0.6-3.1c0.5-0.9,1.4-1.6,2.4-2l38.8-13.3
	c1.1-0.4,2.4-0.3,3.5,0.2c1.1,0.5,1.9,1.5,2.3,2.6c0.4,1.1,0.3,2.4-0.2,3.5c-0.5,1.1-1.5,1.9-2.6,2.3l-38.8,13.2
	C997.4,1252.7,996.9,1252.8,996.5,1252.8z"/>
<path d="M347.9,860.4v0.4c0.1,3.8-1,7.6-3.1,10.8c-2.1,3.2-5.2,5.6-8.8,6.9c-58.1,20.5-135.6,60.9-128.2,129
	c12,111,195.1,157.4,196.9,157.9l-8.7,35.2c-8.5-2.1-209.6-53-224.3-189.2c-10-92.7,84.1-143.1,152.4-167.2c2.7-0.9,5.5-1.1,8.2-0.7
	c2.8,0.4,5.4,1.4,7.7,3c2.3,1.6,4.2,3.7,5.6,6.1C347,854.9,347.7,857.7,347.9,860.4z"/>
<path class="st0" d="M445,1145c0,0-21.2-33.7-36.6-10.4c-11.8,17.7-25,61-30.7,80.7c-1.4,4.4-1.5,9-0.4,13.4
	c1.1,4.4,3.4,8.4,6.7,11.6c4.4,3.9,19.1,5.7,27.5,2.9c9.3,14.2,19.4,38.9,51.2,54.2c24.4,11.8,51.3,17.3,78.4,16.1
	c13.8-0.2,27.3-4.8,38.3-13.2c6.5-5,11.5-11.6,14.5-19.2c1.3-3.8,1.8-7.8,1.3-11.8c0-1.2-1.6-9.1-1.6-9.1s34-24.9,4.5-52.8
	c0,0,50.2-42.9-32.7-58.1c-5-0.9-1.4-24.2-16.1-40.2c-2.2-2.4-17.6-18.7-39.9-19.2C482.9,1089.5,455.7,1111.5,445,1145z"/>
<path d="M532.8,1318.2c-25-0.2-49.6-5.9-72.1-16.8c-27.8-13.3-39.7-33.4-48.4-48.1c-1-1.7-2-3.4-2.9-4.9c-9.3,1.7-23,0-28.4-4.8
	c-3.9-3.7-6.7-8.5-8.1-13.7c-1.4-5.2-1.2-10.7,0.4-15.9c6.6-23,19.5-64.2,31.3-82c5.6-8.4,11.9-10.2,16.4-10.2h0.2
	c9.2,0,17.4,7.7,22.5,13.8c12.5-30.1,38.1-50.2,64.8-50.2h1.1c22.8,0.5,38.7,15.9,43,20.6c9.9,10.9,12.2,24.2,13.7,33
	c0.4,2.1,0.8,4.7,1.2,6.1c29,5.6,45.6,15.4,49.4,29.2c3.7,13.9-6.6,27.1-12.4,33.2c3.3,3.4,6,7.4,7.7,11.8c1.7,4.4,2.5,9.1,2.4,13.9
	c-0.9,14.1-11.4,24.8-16.1,29c0.4,2.5,1,5.9,1.1,6.7c0.6,4.7,0.1,9.4-1.5,13.9c-3.2,8.4-8.7,15.8-15.8,21.3
	c-10.5,8.5-23.8,13.2-40.9,14.2C538.5,1318.1,535.6,1318.2,532.8,1318.2z M411.5,1238.7c0.7,0,1.4,0.2,2.1,0.6
	c0.6,0.4,1.2,0.9,1.6,1.5c1.6,2.4,3.2,5.1,4.8,7.9c8.1,13.7,19.2,32.7,44.5,44.6c23.7,11.5,49.9,16.9,76.2,15.6
	c15.2-0.9,26.6-4.8,35.7-12.2c5.8-4.5,10.3-10.4,13-17.2c1.1-3.1,1.5-6.4,1.1-9.7c0-1.1-1.5-9-1.5-9c-0.1-0.8-0.1-1.7,0.3-2.5
	c0.3-0.8,0.8-1.5,1.5-2c0,0,13.8-10.4,14.5-24c0.5-7.3-3.1-14.8-10.6-21.8c-0.5-0.4-0.9-0.9-1.1-1.5c-0.3-0.6-0.4-1.2-0.4-1.8
	c0-0.6,0.1-1.3,0.4-1.8c0.3-0.6,0.6-1.1,1.1-1.5c0.2,0,16.5-14.5,13-27.3c-2.8-10.2-17.9-18.1-43.5-22.9c-5.1-0.9-6-6.3-7.3-13.2
	c-1.4-8.3-3.4-19.6-11.4-28.4c-2.6-2.9-16.8-17.3-36.5-17.7H508c-24.7,0-49.4,21.8-59.1,52c-0.3,0.8-0.8,1.6-1.4,2.1
	c-0.7,0.6-1.5,0.9-2.3,1c-0.9,0.1-1.7,0-2.5-0.4c-0.8-0.4-1.4-1-1.9-1.7c-2.7-4.2-12.2-16.4-20.1-16.5c-1.2,0-4.8,0-8.9,6.2
	c-11.5,17.3-24.9,61.3-30.1,79.4c-1.1,3.5-1.3,7.3-0.4,10.9c0.9,3.6,2.7,6.9,5.4,9.5c2.8,2.4,15.7,4.4,23.1,2
	C410.2,1238.8,410.9,1238.7,411.5,1238.7z"/>
<path d="M565.2,1153.8h-0.7c-0.3,0-31-4.5-43.5-2.8c-1.2,0.2-2.4-0.2-3.4-0.9c-1-0.7-1.6-1.8-1.8-3c-0.2-1.2,0.1-2.4,0.9-3.4
	c0.7-1,1.8-1.6,3-1.8c13.9-1.9,44.9,2.6,46.2,2.8c1.1,0.2,2.1,0.8,2.8,1.7c0.7,0.9,1,2,0.9,3.1c-0.1,1.1-0.6,2.2-1.4,2.9
	C567.4,1153.3,566.4,1153.8,565.2,1153.8L565.2,1153.8z"/>
<path d="M597.9,1211.9h-0.6l-43.2-6.3c-0.6,0-1.2-0.2-1.8-0.5c-0.5-0.3-1-0.7-1.4-1.2c-0.4-0.5-0.7-1-0.8-1.6
	c-0.2-0.6-0.2-1.2-0.1-1.8c0.1-0.6,0.3-1.2,0.6-1.7c0.3-0.5,0.8-1,1.3-1.3c0.5-0.4,1.1-0.6,1.7-0.7c0.6-0.1,1.2-0.1,1.8,0l43.2,6.1
	c1.2,0.1,2.2,0.7,2.9,1.6c0.7,0.9,1.1,2,1,3.2c-0.1,1.2-0.6,2.2-1.5,3c-0.9,0.8-2,1.2-3.1,1.2V1211.9z"/>
<path d="M593.6,1265.9c-0.3,0-0.6,0-0.9,0l-40.2-8.3c-0.6-0.1-1.1-0.3-1.6-0.7c-0.5-0.3-0.9-0.8-1.2-1.3s-0.6-1.1-0.7-1.6
	c-0.1-0.6-0.1-1.2,0-1.8c0.1-0.6,0.4-1.1,0.7-1.6c0.3-0.5,0.8-0.9,1.3-1.2c0.5-0.3,1.1-0.6,1.6-0.7c0.6-0.1,1.2-0.1,1.8,0l40.2,8.3
	c1.1,0.2,2.1,0.8,2.8,1.7c0.7,0.9,1,2.1,0.9,3.2c-0.1,1.1-0.7,2.2-1.5,2.9c-0.9,0.8-2,1.2-3.1,1.1V1265.9z"/>
<path d="M613.9,942.7c-4.2,0-8.3-0.2-12.5-0.7c-0.6-0.1-1.2-0.2-1.7-0.5c-0.5-0.3-1-0.7-1.4-1.1c-0.4-0.5-0.7-1-0.8-1.6
	c-0.2-0.6-0.2-1.2-0.2-1.8s0.2-1.2,0.5-1.7c0.3-0.5,0.7-1,1.1-1.4c0.5-0.4,1-0.7,1.6-0.8c0.6-0.2,1.2-0.2,1.8-0.2
	c13.2,1.4,26.5,0.4,39.3-2.9c50.2-12.8,82.5-57.2,71.8-98.8c-10.7-41.6-60.2-65-110.5-52.1c-29,7.3-53.6,26.1-65.7,49.9
	c-0.5,1.1-1.5,1.9-2.6,2.2c-1.1,0.4-2.4,0.3-3.4-0.3c-1.1-0.5-1.9-1.5-2.3-2.6c-0.4-1.1-0.3-2.4,0.2-3.5
	c13.3-26.2,39.9-46.5,71.5-54.6c55.1-14.1,109.6,12.2,121.5,58.6c11.9,46.5-23.2,95.7-78.3,109.9
	C634.1,941.4,624.1,942.6,613.9,942.7z"/>
<path class="st0" d="M858.7,546.1C964.5,537.8,943,782,943,782c-38.1-21-79.6-13.4-124,18.8C819.1,800.7,752.9,554.5,858.7,546.1z"
	/>
<path d="M819.1,805.2c-0.5,0-1-0.1-1.5-0.3c-0.7-0.2-1.3-0.7-1.8-1.2c-0.5-0.5-0.9-1.2-1-1.9c-1.9-7-45.4-171.4-0.3-235.2
	c4.9-7.3,11.4-13.3,19.1-17.6c7.6-4.3,16.1-6.8,24.9-7.4c9-0.9,18,0.3,26.5,3.4c8.5,3.1,16.1,8.2,22.3,14.7
	c54.4,54.9,41,215.8,40.4,222.6c-0.1,0.8-0.3,1.5-0.7,2.1c-0.4,0.6-1,1.2-1.7,1.5c-0.7,0.4-1.4,0.6-2.2,0.6c-0.8,0-1.5-0.2-2.2-0.6
	c-35.8-19.7-74.7-13.7-119.1,18.5C820.9,805,820,805.2,819.1,805.2z M859,550.6c-7.4,0.4-14.6,2.5-21.1,6.2c-6.5,3.7-12,8.8-16.1,15
	c-37.9,53.7-7.5,190.3,0,221.3c42.2-29,81.6-35.1,117.1-18.4c2-31.3,7.3-162.8-38.3-208.7c-5.3-5.6-11.8-9.9-19-12.6
	C874.3,550.8,866.6,549.8,859,550.6L859,550.6z"/>
<path class="st0" d="M593,546.1c105.8-8.4,84.3,235.8,84.3,235.8c-47.2-21.2-88-12.9-124,18.8C553.4,800.7,487.2,554.5,593,546.1z"
	/>
<path d="M553.4,805.2c-0.4,0-0.9-0.1-1.3-0.2c-0.7-0.2-1.4-0.6-2-1.2c-0.5-0.6-0.9-1.2-1.1-2c-1.9-7-45.3-171.4-0.3-235.2
	c4.9-7.3,11.4-13.3,19.1-17.6c7.6-4.3,16.1-6.8,24.9-7.4c9-0.9,18,0.3,26.5,3.4c8.5,3.1,16.1,8.2,22.3,14.7
	c54.4,54.9,41,215.8,40.4,222.6c0,0.7-0.3,1.5-0.7,2.1c-0.4,0.6-0.9,1.2-1.6,1.5c-0.6,0.4-1.3,0.6-2.1,0.6c-0.7,0-1.5-0.1-2.1-0.4
	c-43.9-19.8-82.9-13.9-119.1,18.1C555.5,805,554.5,805.3,553.4,805.2z M593.3,550.6c-7.4,0.4-14.7,2.5-21.1,6.2
	c-6.5,3.7-12,8.8-16.1,15c-37.6,53.3-7.9,188.7,0,220.7c35.6-28.5,75-34.4,117.3-17.3c1.9-30.4,7.4-163-38.3-209.2
	c-5.3-5.6-11.8-9.9-19-12.6c-7.2-2.7-15-3.6-22.6-2.8H593.3z"/>
<path d="M546.4,579.4c30.9-14.1,49.9,19.1,61.7,63.2l-26.6,43.5l37.1,9.8c4.2,29,6.2,57.1,7.3,75.1c-27.1-0.2-53.1,10.2-72.6,29
	C550.4,789.3,513.8,646,546.4,579.4z"/>
<path d="M750.3,928.9c-4.5,0-9-0.6-13.3-1.8c-17.2-4.6-28.3-18.8-31.5-39.9c-0.1-0.6-0.1-1.2,0-1.8c0.1-0.6,0.4-1.2,0.7-1.6
	c0.4-0.5,0.8-0.9,1.3-1.2c0.5-0.3,1.1-0.5,1.7-0.6c0.6-0.1,1.2-0.1,1.8,0.1c0.6,0.1,1.1,0.4,1.6,0.8c0.5,0.4,0.9,0.8,1.2,1.3
	c0.3,0.5,0.5,1.1,0.6,1.7c1.9,12.3,7.7,27.8,25,32.7c22.8,6.2,42.7-7.8,52.3-24.3c0.6-1,1.6-1.8,2.8-2.1c1.2-0.3,2.4-0.1,3.5,0.5
	c1,0.6,1.8,1.6,2.1,2.8c0.3,1.2,0.1,2.4-0.5,3.4C788.4,917.8,769.7,928.9,750.3,928.9z"/>
<path d="M879.5,942.7c-4.2,0-8.3-0.2-12.5-0.7c-0.6-0.1-1.2-0.2-1.7-0.5c-0.5-0.3-1-0.7-1.4-1.1c-0.4-0.5-0.7-1-0.8-1.6
	c-0.2-0.6-0.2-1.2-0.2-1.8c0.1-0.6,0.2-1.2,0.5-1.7c0.3-0.5,0.7-1,1.1-1.4c0.5-0.4,1-0.7,1.6-0.8c0.6-0.2,1.2-0.2,1.8-0.2
	c13.2,1.4,26.5,0.4,39.3-2.9c23.6-5.7,44.5-19.5,59-38.9c13.4-18.6,17.9-39.9,12.8-59.9c-10.7-41.6-60.2-65-110.5-52.1
	c-29,7.3-53.6,26.1-65.7,49.9c-0.3,0.5-0.6,1-1.1,1.4s-1,0.7-1.5,0.9c-0.6,0.2-1.2,0.3-1.8,0.2c-0.6,0-1.2-0.2-1.7-0.5
	c-0.5-0.3-1-0.6-1.4-1.1c-0.4-0.5-0.7-1-0.9-1.5s-0.3-1.2-0.2-1.8c0-0.6,0.2-1.2,0.5-1.7c13.3-26.2,39.9-46.5,71.5-54.6
	c55.1-14.1,109.6,12.2,121.5,58.6c5.8,22.6,0.8,46.6-14.2,67.4c-15.8,21.2-38.4,36.2-64.1,42.5C899.7,941.4,889.6,942.6,879.5,942.7
	z"/>
<path d="M812.1,579.4c30.9-14.1,49.9,19.1,61.7,63.2l-26.6,43.5l37.1,9.8c4.2,29,6.2,57.1,7.3,75.1c-27.1-0.2-53.1,10.2-72.6,29
	C816.1,789.3,779.5,646,812.1,579.4z"/>
<path d="M807,912c-0.6,0-1.1-0.1-1.6-0.3c-0.7-0.3-18.1-7.3-19.2-35c0-1.2,0.4-2.4,1.2-3.2c0.8-0.9,2-1.4,3.2-1.4s2.4,0.4,3.3,1.2
	c0.9,0.8,1.4,2,1.4,3.2c0.7,21.3,13,26.7,13.5,26.9c1,0.4,1.8,1.1,2.3,2c0.5,0.9,0.7,2,0.5,3c-0.2,1-0.8,2-1.6,2.6
	C809,911.7,808,912,807,912z"/>
<path d="M771.3,829.3c-1,0-1.9-0.3-2.7-0.9c-0.8-0.6-1.4-1.4-1.6-2.3c-0.3-0.9-0.3-1.9,0-2.8c0.3-0.9,0.9-1.7,1.6-2.3
	c0.3-0.2,26.4-19.9,16.9-33.3c-0.6-0.8-1.3-1.5-2.2-2.1c-0.9-0.5-1.8-0.8-2.8-1c-8.1-1.2-20.8,6.8-25,10c-1,0.7-2.2,1.1-3.4,0.9
	c-1.2-0.2-2.3-0.8-3-1.8c-0.7-1-1.1-2.2-0.9-3.4c0.2-1.2,0.8-2.3,1.8-3c1.9-1.4,18.4-13.8,31.8-11.8c2.2,0.3,4.3,1.1,6.1,2.2
	c1.9,1.2,3.5,2.7,4.7,4.5c14.9,20.8-17.5,44.8-18.9,45.9C773.1,828.9,772.2,829.2,771.3,829.3z"/>
<path class="st0" d="M527.1,380.6c21.8,33.9-84.6,122.1-102.8,104C406.2,466.4,505.3,346.7,527.1,380.6z"/>
<path class="st0" d="M381.7,547.3c16.9,18.9,49-7.3,34.2-30C401.1,494.6,364.8,528.4,381.7,547.3z"/>
</svg>
