<?xml version="1.0" encoding="utf-8"?>
<!-- Generator: Adobe Illustrator 25.2.3, SVG Export Plug-In . SVG Version: 6.00 Build 0)  -->
<svg version="1.1" id="Layer_1" xmlns="http://www.w3.org/2000/svg" xmlns:xlink="http://www.w3.org/1999/xlink" x="0px" y="0px"
	 viewBox="0 0 1500 1666.7" style="enable-background:new 0 0 1500 1666.7;" xml:space="preserve">
<style type="text/css">
	.st0{fill:#FFFFFF;}
	.st1{fill:#558203;}
	.st2{fill:#F11F2A;}
</style>
<path d="M1200.6,434.5c1-4.1,0.6-8.3-1.1-12.1c-1.7-3.8-4.7-6.9-8.4-8.9c-3.7-1.9-7.9-2.6-12.1-1.8c-4.1,0.8-7.8,2.9-10.6,6.1
	c-36.2,38.6-79.8,69.5-128,91.2C939.7,552.4,842.3,536,751,460.1c-3.8-3.2-8.7-4.7-13.6-4.2c-4.9,0.4-9.4,2.8-12.6,6.6
	c-3.2,3.8-4.7,8.7-4.2,13.6c0.4,4.9,2.8,9.4,6.6,12.6c128.7,107,250.1,88.3,329.2,53.8c53-23.7,100.8-57.8,140.3-100.4
	C1198.6,439.9,1199.9,437.3,1200.6,434.5z"/>
<path class="st0" d="M1134.7,405.3c-1.4-3.5-2.6-7.1-3.7-10.6c-1.4-4.7-1.7-9.7-0.7-14.5c0.9-4.8,3-9.3,6.1-13.2
	c2.2-3,18.6-13.8,18.9-16.1c0-1.1,0-2.2,0-3.2c8-119.2,105.1-96.7,105.1-96.7s100.7-99.9,133.5-78.5c37,24.2-51,94.3-74,111.8
	c6.6-4.1,14.2-6.2,21.9-6c7.7,0.2,15.2,2.7,21.6,7.1c3.5,2.3,6.6,5.1,9.2,8.3c5.6,7.3,8.2,16.4,7.4,25.5
	c-0.8,9.1-5.1,17.6-11.9,23.7c-1.1,1.1-2.3,2.1-3.7,2.8c7.7-2.5,18.1-0.3,25.3,2.6c5.9,2.3,11,6.4,14.4,11.8
	c3.4,5.3,5.1,11.6,4.7,18c-0.9,11.2-8,20.6-15.5,28.1c-8.1,8-17.1,15.2-26.6,21.4c-13.6,9-28.1,16.5-42.4,24.7c-1.7,1-3.3,1.9-5,2.7
	c-45.6,23.5-77.5,1.6-77.5,1.6l-12.5,12.8c-3,3-6.7,5.1-10.8,6.1c-4.1,1.1-8.4,1-12.4-0.1c-16-4.6-30.6-13.2-42.3-25
	C1151,437.5,1141.1,422.2,1134.7,405.3z"/>
<path d="M1212.2,480.9c-2.5,0-5-0.3-7.4-1c-16.7-4.8-32-13.7-44.3-26c-13.2-13.4-23.5-29.4-30.1-47c-1.4-3.5-2.6-7.2-3.7-11.2
	c-1.6-5.4-1.9-11.1-0.9-16.6c1.1-5.5,3.4-10.7,6.9-15.1c3-3.1,6.3-5.9,9.8-8.3c2.7-2.1,6.7-5.1,8.3-6.6c0-0.1,0-0.2,0-0.2
	c0-0.5,0-1,0-1.4c2.8-40.6,15.7-69.7,38.6-86.7c27.5-20.3,60.2-16.5,69.6-14.9c16.6-16.3,103.8-99.3,137.3-77.5
	c3.3,1.9,6,4.6,7.9,7.9c1.9,3.2,3.1,6.9,3.2,10.7c0.9,25.6-37.9,62.5-66.5,86.2c8.9,0.2,17.6,3,25,7.9c3.9,2.5,7.4,5.7,10.3,9.3
	c5.5,7.1,8.5,15.7,8.6,24.7c0.1,8.9-2.7,17.7-8.1,24.9c5,0.6,9.9,1.8,14.6,3.7c6.8,2.7,12.6,7.4,16.6,13.6
	c3.9,6.2,5.8,13.5,5.4,20.8c-0.9,10.3-6.6,20.8-16.9,31c-8.4,8.2-17.5,15.6-27.3,21.9c-9.9,6.7-20.4,12.5-30.6,18.2
	c-4.1,2.3-8.1,4.5-12.1,6.8l-1.2,0.7c-1.4,0.8-2.8,1.5-4.1,2.2c-39.3,20.2-68.8,8.4-78.6,3.2l-10,10.2
	C1227.2,477.7,1219.9,480.8,1212.2,480.9z M1242.5,254c-17-0.4-33.6,4.7-47.5,14.4c-20.6,15.2-32.3,42-34.8,79.5c0,0.3,0,1,0,1.6
	c0,0.7,0,0.9,0,1.3c0,0.3,0,0.5,0,0.8c-0.5,2.7-2.7,4.6-11.8,11.5c-2.9,2-5.6,4.2-8.3,6.5c-2.6,3.3-4.4,7.1-5.2,11.2
	c-0.8,4.1-0.6,8.3,0.6,12.3c1,3.7,2.2,7,3.5,10.2c6.1,16.3,15.6,31.2,27.9,43.6c11.2,11.3,25,19.5,40.2,23.8c3.3,0.9,6.7,0.9,10,0.1
	c3.3-0.9,6.2-2.6,8.6-4.9l12.5-12.7c0.8-0.8,1.8-1.3,2.9-1.4c1.1-0.1,2.2,0.2,3.1,0.8c1.2,0.8,30.3,19.9,72.7-1.9
	c1.4-0.6,2.5-1.3,3.7-1.9l1.2-0.7c4-2.3,8.1-4.5,12.1-6.8c10-5.6,20.3-11.2,30-17.8c9.4-6,18.1-13,26-20.8
	c8.7-8.7,13.5-17.1,14.2-25.2c0.3-5.3-1.1-10.6-4-15.1c-2.9-4.5-7.2-7.9-12.2-9.8c-6.6-2.7-16-4.5-22.1-2.5c-1.1,0.4-2.4,0.4-3.5,0
	c-1.1-0.5-2-1.3-2.5-2.4c-0.5-1.1-0.5-2.4-0.1-3.5c0.4-1.1,1.3-2.1,2.4-2.6c1-0.5,1.9-1.2,2.7-2c6-5.4,9.7-12.7,10.5-20.7
	c0.8-8-1.5-15.9-6.3-22.3c-2.3-2.9-5.1-5.4-8.2-7.4c-5.6-4-12.2-6.2-19-6.4c-6.8-0.2-13.6,1.6-19.4,5.3c-1,0.5-2.1,0.6-3.1,0.3
	c-1.1-0.3-2-0.9-2.6-1.8c-0.6-0.9-0.9-2-0.9-3c0.1-1.1,0.5-2.1,1.3-2.9c39.7-30.2,81.8-70.7,81.1-93c-0.1-2.3-0.8-4.5-2-6.5
	s-2.9-3.6-4.9-4.7c-21.6-14.1-89.7,40.4-127.5,78.1c-0.6,0.6-1.2,1-2,1.2s-1.6,0.2-2.3,0.1c-5.6-1.1-11.4-1.7-17.1-1.7V254z"/>
<path d="M1236.6,276.4c-1,0-1.9-0.3-2.7-0.8c-0.8-0.5-1.4-1.3-1.7-2.2c-0.3-0.9-0.4-1.9-0.1-2.8c0.2-0.9,0.8-1.7,1.5-2.4l24-20.6
	c0.5-0.4,1-0.8,1.6-1c0.6-0.2,1.2-0.3,1.8-0.3c0.6,0,1.2,0.2,1.8,0.5c0.6,0.3,1.1,0.7,1.5,1.2c0.4,0.5,0.7,1,0.9,1.6
	c0.2,0.6,0.2,1.2,0.2,1.9c-0.1,0.6-0.3,1.2-0.6,1.8c-0.3,0.5-0.7,1-1.2,1.4l-24,20.6C1238.7,276,1237.7,276.4,1236.6,276.4z"/>
<path d="M1287.3,312.2c-0.7,0-1.5-0.2-2.1-0.5c-0.6-0.3-1.2-0.8-1.6-1.4c-0.7-1-1-2.2-0.8-3.5c0.2-1.2,0.9-2.3,1.9-3l32.6-23.2
	c1-0.5,2.1-0.6,3.2-0.4c1.1,0.3,2,0.9,2.7,1.8c0.7,0.9,1,2,0.9,3.1c-0.1,1.1-0.6,2.1-1.4,2.9l-32.6,23.2
	C1289.3,311.8,1288.3,312.1,1287.3,312.2z"/>
<path d="M1336,366.6c-1,0-2-0.4-2.8-1c-0.8-0.6-1.4-1.5-1.6-2.5s-0.2-2,0.2-3c0.4-0.9,1.1-1.7,1.9-2.3l28.3-16.1
	c0.5-0.3,1.1-0.5,1.7-0.6c0.6-0.1,1.2-0.1,1.8,0.1c0.6,0.2,1.2,0.4,1.6,0.8c0.5,0.4,0.9,0.8,1.2,1.4c0.3,0.5,0.5,1.1,0.6,1.7
	s0,1.2-0.1,1.8c-0.2,0.6-0.5,1.2-0.8,1.6c-0.4,0.5-0.9,0.9-1.4,1.2l-28.3,16.2C1337.6,366.4,1336.8,366.6,1336,366.6z"/>
<path class="st0" d="M816.4,1137.7l62.6,79l3,20.4c0,0,162.8,44.9,109,141.3c-45.9,82.1-148.8-2.3-202-69.5
	C735.7,1241.8,664.3,1180.2,816.4,1137.7z"/>
<path d="M938.3,1416.9c-51.2,0-113.9-55.8-153-105.1c-5.2-6.5-10.6-13.1-15.9-19.5c-29.3-35.4-57-68.9-47.2-100
	c7.7-24.7,37.2-43.4,93-59c0.9-0.2,1.8-0.2,2.7,0.1c0.9,0.3,1.6,0.8,2.2,1.5l62.6,79.1c0.5,0.6,0.9,1.4,1,2.2l2.6,17.4
	c16.4,4.9,94.1,30.7,115.1,81.2c8.7,20.8,6.6,43-6.3,66c-12.4,22.3-29.8,34.3-51.2,36C941.9,1416.8,940.1,1416.9,938.3,1416.9z
	 M814.7,1143c-49.8,14.2-77.2,31.2-83.7,52.1c-8.3,26.3,17.9,57.9,45.6,91.3c5.3,6.4,10.8,13,16,19.6
	c42.2,52.9,105.1,105,150.4,101.2c18.3-1.5,33-12,43.9-31.4c11.4-20.3,13.3-39.8,5.8-57.8c-21.3-51-111.1-76.3-112.1-76.6
	c-0.9-0.2-1.6-0.7-2.2-1.4c-0.6-0.7-1-1.5-1.1-2.3l-2.8-19.2L814.7,1143z"/>
<path class="st0" d="M812.5,1108.7c-6.5,5.2-6.1,15.2-4.6,22.7c6.7,34.4,46.1,83.2,73.9,91.6c7.8,2.3,13.7,1.3,18.1-3.2
	c15.5-15.7-1.9-54.5-27.6-82.9c-16.3-18-38-33.5-52.6-31.3C817.1,1106,814.6,1107,812.5,1108.7z"/>
<path d="M889.2,1228.8c-3,0-5.9-0.5-8.7-1.4c-29.8-8.9-70-58.7-77.1-95.1c-2.5-12.6-0.3-22,6.2-27.3c2.7-2.2,6-3.6,9.4-4.1
	c17.5-2.7,40.9,15.1,56.8,32.8c26.8,29.6,45.5,70.9,27.5,89.3c-1.8,1.9-4,3.4-6.4,4.4C894.4,1228.4,891.8,1228.8,889.2,1228.8z
	 M822.6,1110c-0.7,0-1.5,0-2.2,0c-1.8,0.2-3.6,1-5,2.2c-4.9,3.9-3.9,13.1-2.9,18.2c6.4,32.5,44.6,80.2,70.7,88
	c7.8,2.4,11.2,0,13.5-2c12.9-13.2-3.9-50.2-27.7-76.5C852.5,1121.9,834,1110,822.6,1110L822.6,1110z"/>
<path d="M854.5,1257.2c-1,0-2-0.3-2.8-1c-0.8-0.6-1.4-1.5-1.7-2.5s-0.2-2.1,0.2-3c0.4-0.9,1.1-1.7,2-2.2l18.6-10.5
	c-6.7-2.3-13.7-3.5-20.8-3.7c-1.2,0-2.4-0.5-3.3-1.4c-0.9-0.9-1.4-2.1-1.4-3.3c0-1.2,0.5-2.4,1.4-3.3c0.9-0.9,2.1-1.4,3.3-1.4
	c11.6,0.7,23,3.4,33.7,8c0.8,0.4,1.5,0.9,1.9,1.6c0.5,0.7,0.8,1.5,0.8,2.4c0,0.9-0.2,1.7-0.6,2.5c-0.4,0.8-1,1.4-1.8,1.8l-27.4,15.4
	C856.1,1257.1,855.3,1257.2,854.5,1257.2z"/>
<path d="M1123.9,1103.9c19.5-17.4,31.1-37.4,34.9-60c1.9-11.5,1.5-23.2-1.3-34.5c-2.8-11.3-7.9-21.9-14.9-31.1
	c-53.6-74-220.1-100.4-227.2-101.6c-2.4-0.4-5-0.4-7.4,0.1c-2.4,0.5-4.7,1.6-6.7,3c-2,1.4-3.7,3.3-5,5.4c-1.3,2.1-2.2,4.5-2.5,6.9
	c-0.4,2.5-0.3,5,0.3,7.4c0.6,2.4,1.7,4.7,3.2,6.7c1.5,2,3.4,3.6,5.5,4.9c2.2,1.2,4.5,2,7,2.4c43.9,6.8,165.8,35.7,202.7,86.7
	c4.1,5.3,7.1,11.3,8.8,17.8c1.7,6.5,2,13.2,0.9,19.8c-12.9,77.5-187.5,99.6-253.7,101.6c-4.9,0.1-9.6,2.2-13,5.8
	c-3.4,3.6-5.2,8.4-5.1,13.3c0.1,4.9,2.2,9.6,5.8,13c3.6,3.4,8.4,5.2,13.3,5.1c44.7-1.9,89.1-7.9,132.6-17.9
	C1056.9,1145.6,1097.5,1127.3,1123.9,1103.9z"/>
<path class="st0" d="M589.5,1433.7l-100.6,5.6l-17.2,11.2c0,0-141.7-92-178,12.3c-30.9,88.8,100.4,109.6,186,105
	S658.7,1575.6,589.5,1433.7z"/>
<path d="M456.3,1573.1c-61.1,0-132.3-12.6-159.9-49.5c-13-17.3-15.4-38.2-7-62.2c8.7-24.9,23.9-41.2,45.2-48.3
	c51.7-17.7,122.5,23.2,137.1,32.2l14.9-9.7c0.7-0.4,1.5-0.7,2.3-0.8l100.6-5.6c0.9,0,1.8,0.2,2.6,0.6s1.4,1.1,1.8,2
	c25.4,52.1,30.9,86.5,17.6,108.7c-16.8,28-60.2,29.5-106.2,31.1c-8.3,0.3-16.8,0.6-25.2,1C472.3,1572.9,464.4,1573.1,456.3,1573.1z
	 M362.6,1417.8c-8.5-0.1-17,1.1-25.2,3.7c-18.6,6.3-31.8,20.7-39.4,42.8c-7.4,20.9-5.4,38.9,5.7,53.6
	c27.4,36.4,107.9,48.9,175.7,45.2c8.4-0.4,17-0.8,25.3-1c43.4-1.5,84.3-2.9,98.6-26.6c11.2-18.6,5.7-50.4-16.7-97.1l-96.3,5.4
	l-16.2,10.6c-0.8,0.5-1.6,0.8-2.5,0.8s-1.8-0.3-2.5-0.8C468.4,1454.1,412,1417.8,362.6,1417.8z"/>
<path class="st0" d="M611.3,1409.9c-8-12.4-34.1-18.4-58.4-18.6c-38.3-0.4-78.8,12.3-80.3,34.4c-0.4,6.3,2.7,11.4,9.6,15.7
	c24.7,15.2,87.4,12.3,117.6-5.5c6.6-3.9,14.4-10.3,13.9-18.6C613.6,1414.6,612.7,1412.1,611.3,1409.9z"/>
<path d="M530.7,1455.9c-20.3,0-39.3-3.5-50.9-10.6c-8.4-5.2-12.4-11.9-11.8-20c1.8-25.7,45.2-39.2,85-38.7
	c23.8,0.2,52.6,5.8,62.2,20.7c1.9,2.9,3,6.3,3.2,9.7c0.4,8.4-5.2,16.2-16.2,22.7C584.3,1450.4,556.4,1455.9,530.7,1455.9z
	 M551.4,1395.9c-35.1,0-72.9,11.9-74.1,30c-0.2,3.1,0.4,7.1,7.4,11.4c23.1,14.3,84.2,11.2,112.7-5.5c4.5-2.6,12-8,11.7-14.3
	c-0.1-1.8-0.7-3.6-1.7-5.1c-6.1-9.4-28.5-16.2-54.5-16.5L551.4,1395.9z"/>
<path d="M478.2,1486c-1.1,0-2.1-0.4-2.9-1.1c-0.8-0.7-1.4-1.6-1.6-2.7l-6.6-30.7c-0.2-0.8-0.1-1.7,0.2-2.5c0.3-0.8,0.8-1.5,1.5-2.1
	c0.7-0.5,1.5-0.9,2.3-1c0.9-0.1,1.7,0,2.5,0.4c10.6,4.9,20.2,11.6,28.4,19.9c0.8,0.9,1.2,2.1,1.2,3.4c-0.1,1.2-0.6,2.4-1.6,3.2
	c-0.5,0.4-1,0.7-1.6,0.9c-0.6,0.2-1.2,0.3-1.8,0.3c-1.2-0.1-2.4-0.6-3.2-1.6c-4.9-5.1-10.5-9.5-16.7-13l4.5,20.9
	c0.1,0.6,0.1,1.2,0,1.8c-0.1,0.6-0.4,1.2-0.7,1.7c-0.3,0.5-0.8,1-1.3,1.3c-0.5,0.3-1.1,0.6-1.7,0.7L478.2,1486z"/>
<path d="M538.9,1428.4c-4.3,0-8.4-1.5-11.7-4.2c-3.3-2.7-5.6-6.5-6.4-10.7c-26-122.1-48.8-419.6,45.6-559.6c1.3-2.1,3.1-3.8,5.1-5.2
	c2-1.4,4.3-2.4,6.8-2.8c2.4-0.5,4.9-0.5,7.3,0c2.4,0.5,4.7,1.4,6.8,2.8c2,1.4,3.8,3.2,5.2,5.2c1.4,2.1,2.3,4.4,2.7,6.8
	c0.5,2.4,0.4,4.9-0.1,7.3c-0.5,2.4-1.5,4.7-2.9,6.7c-79.2,117.5-70.7,386.4-40,531.1c0.5,2.4,0.5,4.9,0.1,7.3
	c-0.4,2.4-1.4,4.7-2.7,6.7c-1.3,2-3.1,3.8-5.1,5.2c-2,1.4-4.3,2.4-6.7,2.9C541.5,1428.1,540.2,1428.3,538.9,1428.4z"/>
<path class="st1" d="M464.6,271.6c0,0-85.5-74.4-211-79.6c-200.5-8.3-206.1,146.3-54.4,152.5C373,351.7,464.6,271.6,464.6,271.6z"/>
<path d="M503.8,378.8c3.4-0.6,6.4-2.5,8.4-5.3s2.8-6.2,2.2-9.6c-1.1-7-29.8-173.4-168.4-265.1c-1.4-0.9-3-1.6-4.7-1.9
	c-1.7-0.3-3.4-0.3-5.1,0c-1.7,0.3-3.3,1-4.7,2c-1.4,1-2.6,2.2-3.6,3.6c-0.9,1.4-1.6,3-1.9,4.7c-0.3,1.7-0.3,3.4,0,5.1
	c0.3,1.7,1,3.3,2,4.7c1,1.4,2.2,2.6,3.6,3.6c129.1,85.5,156.8,246,157,247.6c0.6,3.4,2.4,6.4,5.2,8.4c2.8,2,6.3,2.8,9.6,2.3
	L503.8,378.8z"/>
<path d="M220.7,349.6c-7.1,0-14.3-0.1-21.6-0.4c-49.6-2-88.3-20.6-103.6-49.8c-4.8-9.2-7.1-19.5-6.6-29.9c0.5-10.4,3.9-20.4,9.7-29
	c23.3-36.8,80-56.1,155.3-53c125.8,5.3,213,80,213.9,80.7c0.5,0.4,0.9,1,1.2,1.6c0.3,0.6,0.4,1.3,0.4,1.9c0,0.7-0.1,1.3-0.4,1.9
	c-0.3,0.6-0.7,1.1-1.2,1.6C466.8,275.9,380.5,349.6,220.7,349.6z M238.7,196.4c-63.7,0-112.6,17.9-132.3,49
	c-4.9,7.2-7.8,15.7-8.3,24.4c-0.5,8.8,1.4,17.5,5.6,25.2c13.7,26.3,49.5,43,95.8,44.9c149.1,6.1,237.7-53.1,257.8-68.3
	c-18.9-14.9-97-70.4-203.8-74.9C248.3,196.5,243.5,196.4,238.7,196.4z"/>
<path d="M93.5,280c-1.2,0-2.3-0.4-3.1-1.2c-0.9-0.8-1.4-1.9-1.5-3c-0.1-1.2,0.2-2.3,0.9-3.2c0.7-0.9,1.7-1.5,2.9-1.8
	c176.2-30.4,370.7-4,372.7-3.7c0.6,0.1,1.2,0.3,1.7,0.6s1,0.7,1.4,1.2c0.4,0.5,0.6,1,0.8,1.6c0.2,0.6,0.2,1.2,0.1,1.8
	c-0.1,0.6-0.3,1.2-0.6,1.7c-0.3,0.5-0.7,1-1.2,1.4c-0.5,0.4-1,0.6-1.6,0.8c-0.6,0.2-1.2,0.2-1.8,0.1c-1.9-0.3-195.1-26.4-369.8,3.7
	C94,280,93.7,280,93.5,280z"/>
<path class="st2" d="M693.3,198.6c-76.7,23.9-126.1,67.8-157.8,113.2c-11,15.9-26.2,28.5-44,36.3c-17.7,7.8-37.3,10.6-56.5,8
	c-85.3-11.9-217.4,1-303.1,160.1C-12,783.9,482.2,1196.1,709.5,1014.1c17.2-14.1,38.4-22.4,60.7-23.7c67.2-3.3,214.6-43,271.8-316.1
	C1108.2,357.7,916.2,129.3,693.3,198.6z"/>
<path d="M573.9,1063.9c-98,0-206.2-52.3-290.7-122.7c-132.3-110.2-231.6-285-155.2-427c38.6-71.8,90.7-121,154.1-146.3
	c46.5-18.6,98.3-24,153.8-16.2c18.3,2.5,37-0.1,53.9-7.6c16.9-7.5,31.4-19.5,41.9-34.8c38.7-55.2,92.6-93.9,160.3-115
	c91.8-28.6,181-9.1,251.3,54.7c47.4,43.1,82.4,103.7,101,175.3c19.9,76,20.6,162.7,2.2,250.9c-25.1,119.7-70,207.8-133.7,261.8
	c-52.6,44.6-106.5,56.2-142.4,58c-21.2,1.3-41.5,9.2-58,22.7C672,1050.3,624.3,1063.9,573.9,1063.9z M387.3,357.5
	c-83.5,0-182.2,33-251.3,161.1c-73.7,137.4,23.6,307.6,153.2,415.5c125.1,104.1,302.7,168.3,417.5,76.4c18-14.7,40.1-23.3,63.2-24.7
	c34.4-1.7,86.2-12.8,136.8-55.8c62-52.6,106-139,130.6-256.6c35.4-169-3-328.9-100.4-417.4c-67.8-61.6-153.8-80.3-242.3-52.8
	c-65.6,20.5-117.9,57.9-155.4,111.6c-11.5,16.7-27.3,29.8-45.8,38c-18.5,8.2-38.9,11-58.9,8.3C418.8,358.8,403.1,357.6,387.3,357.5z
	"/>
<path d="M600,968.9c3.2-2.7,5.4-6.3,6.3-10.4c0.9-4.1,0.3-8.3-1.5-12.1c-1.8-3.7-4.9-6.8-8.7-8.6c-3.8-1.8-8-2.3-12.1-1.4
	c-52,9.7-105.5,9.1-157.3-2c-107.1-24.3-176.1-95-205-210.1c-1.2-4.8-4.3-8.9-8.5-11.4c-4.2-2.5-9.3-3.3-14.1-2.1
	c-4.8,1.2-8.9,4.3-11.4,8.5c-2.5,4.2-3.3,9.3-2.1,14.1c40.9,162.3,149.8,218.8,234.1,237.6c56.8,12.2,115.4,12.7,172.5,1.7
	C595.1,972.1,597.7,970.8,600,968.9z"/>
<path class="st0" d="M564,906.5c1-3.7,2.1-7.3,3.4-10.7c1.6-4.6,4.3-8.8,7.9-12.1c3.6-3.3,7.9-5.8,12.6-7.1
	c3.5-1.1,23.1-0.2,24.7-1.8c0.7-0.9,1.4-1.6,2-2.5c76.8-91.6,141.8-16,141.8-16s140.1-21.5,154,15.1c15.6,41.3-96.7,46-125.7,46.6
	c9.8,1,18.9,5.4,25.7,12.5c6.8,7.1,10.9,16.4,11.5,26.2c0.3,9.2-3,18.1-9,25c-6.1,6.9-14.5,11.2-23.7,12.2c-1.6,0.2-3.2,0.2-4.7,0
	c7.7,2.5,14.9,10.5,18.9,17c3.5,5.3,5.1,11.6,4.8,18c-0.4,6.3-2.8,12.4-6.8,17.3c-7.4,8.3-18.6,11.9-29.1,13.5
	c-11.3,1.6-22.7,2.1-34.1,1.5c-16.5-0.6-32.5-3.2-48.9-5c-1.9-0.2-3.7-0.4-5.6-0.8c-50.8-8-63.4-44.5-63.4-44.5l-17.7,2.9
	c-4.2,0.6-8.4,0.2-12.3-1.4c-3.9-1.5-7.4-4.1-10-7.4c-10.3-13.1-17-28.7-19.5-45.2C558.1,942.1,559.2,923.9,564,906.5z"/>
<path d="M747.9,1066c-3.2,0-6.5,0-10-0.2c-12-0.4-24-1.9-35.5-3.3c-4.6-0.6-9.1-1.1-13.7-1.6h-1.3c-1.6-0.2-3.2-0.4-4.7-0.7
	c-43.6-6.8-60.5-33.8-65.3-43.8l-14.1,2.3c-5,0.7-10.1,0.1-14.7-1.7c-4.7-1.9-8.8-4.9-11.9-8.8c-10.7-13.7-17.7-30-20.3-47.2
	c-2.7-18.5-1.6-37.4,3.3-55.4c1-3.7,2.2-7.4,3.5-11.2c1.9-5.3,5-10.1,9.1-13.9c4.1-3.8,9.1-6.6,14.5-8.1c4.2-0.8,8.5-1.1,12.8-0.9
	c3.4,0,8.4,0,10.5-0.4v-0.2l0.9-1.1c26-31.2,53.8-47,82.3-47.2h0.5c33.9,0,57.9,22.3,64.5,29c22.9-3.3,142.4-18.9,156.6,18.6
	c1.5,3.5,2,7.3,1.7,11.1c-0.4,3.8-1.7,7.4-3.8,10.6c-14.4,21.2-67.5,28.1-104.6,30.3c7.1,5.4,12.4,12.8,15.5,21.1
	c1.7,4.3,2.6,8.9,2.9,13.6c0.3,8.9-2.4,17.7-7.6,25c-5.2,7.3-12.6,12.7-21.2,15.3c3.7,3.4,6.9,7.4,9.6,11.6
	c3.9,6.2,5.8,13.5,5.4,20.8c-0.5,7.3-3.2,14.3-7.9,19.9c-6.8,7.8-17.5,12.9-31.9,15.1C764.5,1065.7,756.2,1066.2,747.9,1066z
	 M620.2,1006.4c1,0,1.9,0.3,2.7,0.9c0.8,0.6,1.4,1.3,1.7,2.3c0.5,1.4,12.7,34,59.8,41.3c1.4,0.3,2.8,0.5,4.2,0.6h1.3l13.8,1.7
	c11.2,1.4,23.1,2.8,34.7,3.3c11.1,0.6,22.2,0.1,33.2-1.5c12.2-1.9,21-5.9,26.3-12c3.4-4.1,5.4-9.3,5.7-14.6c0.3-5.3-1.1-10.6-4-15.1
	c-3.7-6.1-10.3-13.1-16.4-15.1c-1.1-0.4-2-1.1-2.6-2.1c-0.6-1-0.8-2.2-0.5-3.3c0.3-1.1,0.9-2.1,1.9-2.8c0.9-0.7,2.1-1,3.3-0.8
	c1.1,0.2,2.3,0.2,3.5,0c7.9-0.8,15.3-4.6,20.6-10.5c5.3-5.9,8.2-13.6,8.1-21.6c-0.2-3.7-1-7.3-2.3-10.7c-2.2-6.5-6.2-12.2-11.6-16.4
	c-5.4-4.2-11.9-6.7-18.7-7.2c-1.2-0.1-2.3-0.6-3.1-1.5c-0.8-0.9-1.3-2-1.2-3.2c0-1.2,0.5-2.3,1.4-3.2c0.8-0.8,2-1.3,3.2-1.4
	c49.9-1,107.7-8.6,120.2-27.1c1.3-1.9,2.1-4.1,2.3-6.4c0.2-2.3-0.2-4.6-1.2-6.7c-9.1-24.1-96.2-20.3-148.8-12.2
	c-0.8,0.1-1.6,0.1-2.3-0.2c-0.7-0.3-1.4-0.7-1.9-1.3c-0.2-0.3-24.3-27.7-59.2-27.7h-0.5c-25.6,0.2-50.8,14.9-75,43.7l-1,1.3l-0.9,1
	l-0.5,0.6c-2.1,2-4.9,2.2-16.3,2.4c-3.4,0-6.9,0.2-10.3,0.5c-4,1.1-7.7,3.1-10.8,6c-3.1,2.8-5.4,6.4-6.8,10.3
	c-1.3,3.5-2.3,7-3.2,10.3c-4.7,16.8-5.7,34.3-3.2,51.5c2.4,15.7,8.8,30.5,18.6,43c2,2.6,4.7,4.6,7.8,5.9c3.1,1.3,6.4,1.7,9.7,1.3
	l17.6-2.9L620.2,1006.4z"/>
<path d="M725,863.4c-1.2,0-2.3-0.5-3.1-1.4c-0.8-0.8-1.3-1.9-1.4-3.1c0-1.2,0.3-2.3,1.1-3.2c0.8-0.9,1.8-1.5,3-1.6l31.5-2.5
	c1.2-0.1,2.4,0.3,3.4,1.1c0.9,0.8,1.5,1.9,1.6,3.2c0.1,1.2-0.3,2.4-1.1,3.4c-0.8,0.9-1.9,1.5-3.2,1.6l-31.6,2.5H725z"/>
<path d="M784.9,922.7l-40-0.5c-1.2,0-2.4-0.5-3.3-1.4c-0.9-0.9-1.4-2.1-1.4-3.3c0-1.2,0.5-2.4,1.4-3.3c0.9-0.9,2.1-1.4,3.3-1.4
	l40,0.5c1.2,0,2.4,0.5,3.3,1.4c0.9,0.9,1.4,2.1,1.4,3.3c0,1.2-0.5,2.4-1.4,3.3C787.3,922.2,786.1,922.7,784.9,922.7z"/>
<path d="M784.5,998.5h-0.7l-32.4-3.7c-0.6,0-1.3-0.2-1.8-0.5c-0.6-0.3-1.1-0.7-1.5-1.2c-0.4-0.5-0.7-1-0.9-1.6
	c-0.2-0.6-0.2-1.2-0.2-1.9c0.1-0.6,0.3-1.2,0.6-1.8c0.3-0.5,0.7-1,1.2-1.4c0.5-0.4,1.1-0.7,1.7-0.8c0.6-0.1,1.3-0.2,1.9-0.1
	l32.4,3.7c1.2,0.1,2.2,0.7,3,1.6c0.8,0.9,1.1,2.1,1.1,3.2c-0.1,1.2-0.6,2.3-1.4,3.1c-0.8,0.8-2,1.3-3.2,1.3L784.5,998.5z"/>
<path class="st0" d="M714.7,259.5c-15.9,26.3,139.5,74.1,150.4,34.4C876,254.1,730.6,233.2,714.7,259.5z"/>
<path class="st0" d="M944.7,358.5c10.9-20.9-26-47.2-36.2-33.5C898.3,338.8,933.8,379.5,944.7,358.5z"/>
<path class="st0" d="M807.7,572c34.2-16.6,39.5-76.1,11.9-132.9c-27.6-56.8-77.7-89.3-111.9-72.6c-34.2,16.6-39.5,76.1-11.9,132.9
	C723.4,556.2,773.5,588.7,807.7,572z"/>
<path d="M788.6,580.9c-33.7,0-73.4-31.2-97-79.5c-28.7-58.9-22.3-121.4,14-139.1c36.3-17.7,89.4,15.8,118.2,74.8
	c28.7,58.9,22.3,121.4-14,139.1C803.2,579.4,795.9,581,788.6,580.9z M727.4,366.7c-6.1-0.1-12.1,1.3-17.6,3.9
	c-31.8,15.5-36.2,72.3-9.7,126.7c26.4,54.4,73.9,85.9,105.7,70.5c31.8-15.5,36.2-72.3,9.7-126.7
	C793.5,396.2,757.2,366.7,727.4,366.7z"/>
<path d="M807.7,572c-4.2,2-8.6,3.4-13.2,3.9l-46.5-95.4l30.9-32.7l-44.9,4.1l-37.7-77.4c3.3-3.2,7-5.9,11.2-8
	c34.2-16.6,84.3,15.9,111.9,72.6C847.2,495.9,841.9,555.4,807.7,572z"/>
<path class="st0" d="M619.1,663.9c34.2-16.6,39.5-76.1,11.9-132.9c-27.6-56.8-77.7-89.3-111.9-72.6c-34.2,16.6-39.5,76.1-11.9,132.9
	C534.8,648.1,584.9,680.6,619.1,663.9z"/>
<path d="M599.6,672.9c-14.9-0.6-29.2-5.4-41.4-13.9c-21.8-14.2-41.4-37.5-55.2-65.7c-13.7-28.2-20-58-17.7-83.9
	c2.4-26.8,13.6-46.4,31.7-55.2c18.1-8.8,40.4-5.5,63,9.1c21.7,14.3,41.4,37.5,55.2,65.7c13.7,28.2,20,58,17.7,83.9
	c-2.4,26.8-13.6,46.4-31.7,55.2C614.4,671.3,607,673,599.6,672.9z M538.4,458.6c-6.1-0.1-12.1,1.3-17.5,3.9
	c-14.9,7.4-24.4,24.2-26.5,47.6c-2.2,24.3,3.7,52.3,16.8,79c13.1,26.7,31.4,48.7,51.8,62c19.7,12.8,38.8,15.8,53.9,8.5
	c15-7.3,24.4-24.2,26.5-47.6c2.2-24.3-3.7-52.3-16.8-79c-13.1-26.7-31.4-48.7-51.8-62C564.1,463.5,551.5,459.2,538.4,458.6z"/>
<path d="M619.1,663.9c-4.2,2-8.6,3.4-13.2,3.9l-46.5-95.4l30.9-32.8l-44.9,4.1l-37.7-77.4c3.3-3.2,7-5.9,11.2-8
	c34.2-16.7,84.3,15.8,111.9,72.6C658.5,587.8,653.3,647.2,619.1,663.9z"/>
<path d="M759.3,763.4c-37.2,0-63.7-25.4-64.1-25.8c-0.8-0.9-1.2-2-1.2-3.2c0-1.2,0.5-2.3,1.3-3.2c0.8-0.8,2-1.3,3.1-1.4
	c1.2,0,2.3,0.4,3.2,1.2c1.7,1.6,41.2,39.5,91.2,15.1c50-24.4,44.8-80.7,44.6-81.3c-0.1-0.6-0.1-1.3,0.1-1.9c0.1-0.6,0.4-1.2,0.8-1.7
	c0.4-0.5,0.9-0.9,1.4-1.3c0.6-0.3,1.2-0.5,1.8-0.6c0.6-0.1,1.3,0,1.9,0.2s1.2,0.5,1.7,0.9c0.5,0.4,0.9,0.9,1.1,1.5
	c0.3,0.6,0.4,1.2,0.4,1.8c0,0.6,6.1,63.2-49.9,90.7C785.2,760.3,772.4,763.3,759.3,763.4z"/>
<path d="M674.8,747.4c-5.5,0-10.9-1.4-15.7-3.9c-0.5-0.3-1-0.7-1.4-1.1c-0.4-0.5-0.7-1-0.9-1.6c-0.2-0.6-0.2-1.2-0.2-1.8
	c0.1-0.6,0.2-1.2,0.5-1.7c0.3-0.5,0.7-1,1.1-1.4c0.5-0.4,1-0.7,1.6-0.9c0.6-0.2,1.2-0.2,1.8-0.2c0.6,0.1,1.2,0.2,1.7,0.5
	c3.3,1.8,7,2.8,10.7,2.9c3.8,0.1,7.5-0.7,10.8-2.4c5.5-2.8,9.8-7.6,11.9-13.4c2.1-5.8,2-12.2-0.4-17.9c-0.5-1.1-0.4-2.4,0-3.6
	c0.5-1.1,1.4-2,2.6-2.5c1.1-0.5,2.4-0.4,3.6,0c1.1,0.5,2,1.4,2.5,2.6c3.2,7.9,3.3,16.7,0.4,24.6c-3,8-8.8,14.5-16.4,18.4
	C684.6,746.2,679.8,747.4,674.8,747.4z"/>
<path d="M836.8,668.5c-5.3,0-10.5-1.3-15.2-3.6c-4.7-2.4-8.8-5.8-12-10c-0.4-0.5-0.6-1-0.8-1.6c-0.2-0.6-0.2-1.2-0.1-1.8
	c0.1-0.6,0.3-1.2,0.6-1.7c0.3-0.5,0.7-1,1.2-1.4c0.5-0.4,1-0.6,1.6-0.8c0.6-0.2,1.2-0.2,1.8-0.1s1.2,0.3,1.7,0.6
	c0.5,0.3,1,0.7,1.4,1.2c3.4,4.5,8.1,7.6,13.6,9c5.4,1.4,11.1,0.8,16.2-1.6c3.6-1.8,6.6-4.4,8.9-7.6c2.3-3.2,3.7-7,4.2-11
	c0.1-0.6,0.2-1.2,0.5-1.8c0.3-0.5,0.7-1,1.2-1.4c0.5-0.4,1-0.7,1.6-0.8c0.6-0.2,1.2-0.2,1.8-0.1c0.6,0.1,1.2,0.3,1.7,0.6
	c0.5,0.3,1,0.7,1.4,1.2c0.4,0.5,0.6,1.1,0.8,1.7c0.2,0.6,0.2,1.2,0.1,1.8c-0.7,5.5-2.7,10.7-5.9,15.2c-3.2,4.5-7.5,8.1-12.4,10.5
	C846.5,667.3,841.7,668.5,836.8,668.5z"/>
<path d="M749,670.9c-1.1,0-2.1-0.4-3-1.1c-0.9-0.8-1.5-1.9-1.7-3.1c-0.1-1.2,0.3-2.4,1.1-3.4c2.7-3.2,9.4-13.5,8.4-21.5
	c-0.2-1.6-0.8-3.1-1.6-4.5c-0.9-1.4-2-2.5-3.4-3.4c-1.2-1-2.6-1.7-4.1-2.1c-1.5-0.4-3-0.4-4.5,0c-7,1.8-12.8,11.4-14.5,14.9
	c-0.2,0.6-0.6,1.1-1,1.6c-0.4,0.5-1,0.8-1.6,1.1c-0.6,0.2-1.2,0.4-1.9,0.3c-0.6,0-1.3-0.2-1.9-0.4c-0.6-0.3-1.1-0.7-1.5-1.2
	c-0.4-0.5-0.7-1.1-0.9-1.7c-0.2-0.6-0.3-1.3-0.2-1.9c0.1-0.6,0.3-1.3,0.6-1.8c0.8-1.7,8.3-16.8,20.6-20c2.8-0.7,5.8-0.7,8.6,0
	c2.8,0.6,5.5,1.9,7.7,3.7c2.4,1.6,4.4,3.7,6,6.2c1.5,2.5,2.5,5.2,2.9,8.1c1.7,13.7-10,28-10.5,28.6c-0.4,0.5-1,0.9-1.6,1.2
	C750.3,670.8,749.6,670.9,749,670.9z"/>
<path d="M773.8,789.2c-7.5,0-15-1-22.3-3c-0.6-0.1-1.2-0.4-1.8-0.7c-0.5-0.4-1-0.8-1.3-1.4c-0.3-0.5-0.6-1.1-0.7-1.8
	c-0.1-0.6-0.1-1.3,0.1-1.9c0.2-0.6,0.5-1.2,0.8-1.7c0.4-0.5,0.9-0.9,1.5-1.2c0.6-0.3,1.2-0.5,1.8-0.5c0.6-0.1,1.3,0,1.9,0.2
	c43,11.4,72.6-18.1,72.9-18.6c0.4-0.5,0.9-0.9,1.5-1.1c0.6-0.3,1.2-0.4,1.8-0.4c0.6,0,1.3,0.1,1.9,0.3c0.6,0.2,1.1,0.6,1.6,1
	c0.5,0.4,0.8,1,1,1.6c0.2,0.6,0.4,1.2,0.3,1.8c0,0.6-0.2,1.3-0.4,1.8c-0.3,0.6-0.6,1.1-1.1,1.5C817.2,780.4,795.9,788.9,773.8,789.2
	z"/>
</svg>
