<?xml version="1.0" encoding="utf-8"?>
<!-- Generator: Adobe Illustrator 25.2.3, SVG Export Plug-In . SVG Version: 6.00 Build 0)  -->
<svg version="1.1" id="Layer_1" xmlns="http://www.w3.org/2000/svg" xmlns:xlink="http://www.w3.org/1999/xlink" x="0px" y="0px"
	 viewBox="0 0 1500 2379.3" style="enable-background:new 0 0 1500 2379.3;" xml:space="preserve">
<style type="text/css">
	.st0{fill:#FFFFFF;}
	.st1{fill:#7CA719;}
	.st2{fill:#FBBE06;}
</style>
<path class="st0" d="M672.8,2000.8l-113.2,6.2l-19.4,12.6c0,0-159.4-103.6-200.3,13.8c-34.8,100,113,123.4,209.3,118.1
	C645.4,2146.2,750.6,2160.4,672.8,2000.8z"/>
<path d="M522.9,2157.7c-68.7,0-148.8-14.2-180-55.8c-14.6-19.5-17.3-43-7.9-70.1c9.8-28,26.9-46.3,50.9-54.4
	c58.2-19.9,137.9,26.2,154.3,36.3l16.7-10.9c0.8-0.5,1.6-0.8,2.6-0.8l113.3-6.3c1,0,2,0.2,2.9,0.7c0.9,0.5,1.6,1.3,2.1,2.2
	c28.5,58.6,34.9,97.4,19.9,122.3c-18.9,31.5-67.8,33.2-119.5,35c-9.3,0.3-18.9,0.7-28.3,1.2C540.9,2157.4,532,2157.7,522.9,2157.7z
	 M417.5,1982.8c-9.6-0.2-19.2,1.2-28.4,4.2c-20.9,7.1-35.7,23.3-44.4,48.1c-8.4,23.5-6,43.8,6.4,60.3c30.8,40.9,121.4,55,197.8,50.9
	c9.5-0.5,19.2-0.9,28.5-1.2c48.8-1.7,94.9-3.3,110.9-29.9c12.6-20.9,6.4-56.7-18.8-109.2l-108.3,6.1l-18.2,12
	c-0.9,0.6-1.9,0.8-2.9,0.8c-1,0-2-0.3-2.9-0.8C536.5,2023.7,472.8,1982.8,417.5,1982.8z"/>
<path class="st0" d="M697.4,1974c-9-14-38.4-20.7-65.7-20.9c-43.1-0.4-88.7,13.9-90.4,38.7c-0.5,7.1,3.1,12.9,10.8,17.7
	c27.8,17.2,98.3,13.9,132.3-6.2c7.4-4.2,16.2-11.5,15.7-20.9C699.9,1979.3,699,1976.4,697.4,1974z"/>
<path d="M606.6,2025.8c-22.9,0-44.2-3.9-57.3-12c-9.5-5.8-13.9-13.4-13.3-22.5c2-28.5,49.4-43.6,93.8-43.6h1.9
	c26.8,0.3,59.2,6.6,70,23.4c2.1,3.3,3.4,7,3.6,10.9c0.5,9.5-5.9,18.3-18.2,25.6C666.9,2019.5,635.6,2025.8,606.6,2025.8z
	 M629.9,1958.2c-39.5,0-82,13.4-83.4,33.8c-0.3,3.4,0.5,8,8.4,12.9c26,16.1,94.8,12.6,126.9-6.2c5.1-3,13.5-9,13.1-16.1
	c-0.1-2.1-0.8-4.1-1.9-5.8c-6.9-10.6-32.1-18.2-61.3-18.5H629.9z"/>
<path d="M547.6,2059.6c-1.2,0-2.4-0.4-3.3-1.2c-0.9-0.8-1.6-1.8-1.8-3l-7.5-34.6c-0.2-0.9-0.1-1.9,0.2-2.8c0.3-0.9,0.9-1.7,1.7-2.3
	c0.8-0.6,1.7-1,2.6-1.1c1-0.1,1.9,0,2.8,0.4c11.9,5.5,22.7,13.1,31.9,22.4c0.5,0.5,0.8,1.1,1,1.8c0.2,0.6,0.3,1.3,0.3,2
	c0,0.7-0.2,1.4-0.5,2c-0.3,0.6-0.7,1.2-1.2,1.6s-1.1,0.8-1.8,1c-0.6,0.2-1.3,0.3-2,0.3c-0.7,0-1.4-0.2-2-0.5
	c-0.6-0.3-1.2-0.7-1.6-1.2c-5.5-5.8-11.8-10.7-18.8-14.6l5.1,23.5c0.1,0.7,0.2,1.4,0,2.1c-0.1,0.7-0.4,1.3-0.8,1.9
	c-0.4,0.6-0.9,1.1-1.5,1.5c-0.6,0.4-1.2,0.6-1.9,0.8L547.6,2059.6z"/>
<path d="M615.8,1994.7c-4.8,0-9.5-1.7-13.2-4.7c-3.7-3-6.3-7.3-7.3-12c-29.3-137.5-54.9-472.2,51.3-629.8c1.5-2.4,3.4-4.5,5.7-6.1
	c2.3-1.6,4.9-2.8,7.7-3.4c2.8-0.6,5.6-0.6,8.4-0.1c2.8,0.5,5.4,1.6,7.7,3.2c2.3,1.6,4.3,3.6,5.9,6c1.5,2.4,2.6,5,3.1,7.8
	c0.5,2.8,0.4,5.6-0.2,8.4c-0.6,2.7-1.8,5.3-3.5,7.6c-89.1,132.3-79.5,434.9-45,597.8c1.1,5.4,0.1,11.1-3,15.7
	c-3,4.6-7.8,7.9-13.2,9.1C618.7,1994.5,617.3,1994.7,615.8,1994.7z"/>
<path class="st0" d="M857.5,2000.8l113,6.3l19.4,12.6c0,0,159.4-103.6,200.3,13.8c34.8,100-113,123.4-209.3,118.1
	C884.6,2146.3,779.6,2160.4,857.5,2000.8z"/>
<path d="M1007.4,2157.7c-9.1,0-18-0.2-26.6-0.8c-9.4-0.5-19-0.8-28.3-1.2c-51.7-1.8-100.5-3.5-119.5-35
	c-15-24.9-8.7-63.8,19.8-122.3c0.5-0.9,1.2-1.7,2.1-2.2c0.9-0.5,1.9-0.8,2.9-0.7l113,6.3c0.9,0,1.8,0.3,2.6,0.8l16.7,10.9
	c16.5-10.1,96.3-56.2,154.3-36.3c24,8.4,41.1,26.6,50.9,54.4c9.4,27,6.8,50.6-7.9,70.1C1156.1,2143.4,1076,2157.7,1007.4,2157.7z
	 M860.9,2006.2c-25.1,52.6-31.3,88.3-18.8,109.2c16,26.6,62.1,28.2,110.9,29.9c9.4,0.3,19,0.6,28.6,1.2
	c76.2,4.2,166.9-10,197.7-50.9c12.6-16.5,14.6-36.8,6.4-60.3c-8.6-24.8-23.6-41-44.4-48.1c-59-20.2-147.3,36.4-148.1,37
	c-0.9,0.6-1.8,0.8-2.9,0.8c-1,0-2-0.3-2.9-0.8l-18.2-12L860.9,2006.2z"/>
<path class="st0" d="M830.1,1982.3c-0.5,9.3,8.4,16.5,15.7,20.9c34,20.1,104.6,23.4,132.3,6.2c7.7-4.8,11.3-10.5,10.8-17.7
	c-1.7-24.7-47.3-39.1-90.4-38.7c-27.3,0.3-56.7,7-65.7,20.9C831.2,1976.5,830.3,1979.3,830.1,1982.3z"/>
<path d="M923.7,2025.8c-29,0-60.3-6.2-80.4-18.1c-12.6-7.3-18.7-16.2-18.3-25.6c0.2-3.9,1.4-7.7,3.6-10.9
	c10.8-16.7,43.3-23.1,70-23.4h1.9c44.4,0,91.8,15.1,93.8,43.6c0.6,9.1-3.8,16.7-13.3,22.5C967.8,2021.9,946.4,2025.8,923.7,2025.8z
	 M900.4,1958.2h-1.8c-29.3,0.3-54.4,8-61.3,18.5c-1.1,1.7-1.8,3.7-1.9,5.8c-0.4,7,8.1,13.1,13.1,16.1
	c32.1,18.9,100.9,22.3,126.9,6.2c7.8-4.8,8.6-9.4,8.4-12.9c-1.5-20.4-44-33.8-83.5-33.8H900.4z"/>
<path d="M982.6,2059.6h-1.1c-1.4-0.3-2.6-1.1-3.4-2.3c-0.8-1.2-1.1-2.6-0.8-4l5.1-23.5c-6.9,3.9-13.3,8.8-18.8,14.6
	c-0.9,1-2.2,1.7-3.6,1.7c-1.4,0.1-2.7-0.4-3.8-1.3c-1-0.9-1.7-2.2-1.7-3.6c-0.1-1.4,0.4-2.7,1.3-3.8c9.2-9.3,20-16.9,31.9-22.4
	c0.9-0.4,1.9-0.5,2.8-0.4c1,0.1,1.9,0.5,2.6,1.1c0.8,0.6,1.3,1.4,1.7,2.3c0.3,0.9,0.4,1.9,0.2,2.8l-7.5,34.6
	c-0.3,1.1-0.9,2.1-1.8,2.8C984.9,2059.2,983.8,2059.6,982.6,2059.6z"/>
<path d="M914.4,1994.7c4.8,0,9.5-1.7,13.2-4.7c3.7-3,6.3-7.3,7.3-12c29.3-137.5,54.9-472.2-51.3-629.8c-1.5-2.4-3.4-4.5-5.7-6.1
	c-2.3-1.6-4.9-2.8-7.7-3.4c-2.8-0.6-5.6-0.6-8.4-0.1c-2.8,0.5-5.4,1.6-7.7,3.2c-2.3,1.6-4.3,3.6-5.9,6c-1.5,2.4-2.6,5-3.1,7.8
	s-0.4,5.6,0.2,8.4c0.6,2.7,1.8,5.3,3.5,7.6c89.1,132.3,79.5,434.9,45.1,597.8c-1.1,5.4-0.1,11.1,2.9,15.7c3,4.6,7.8,7.9,13.2,9.1
	C911.5,1994.5,912.9,1994.7,914.4,1994.7z"/>
<path class="st1" d="M801.4,370.4c0,0,80.5-98.8,218.8-128.7c220.8-47.7,256.5,122.8,89.5,158.7
	C918.3,441.5,801.4,370.4,801.4,370.4z"/>
<path d="M778.6,496.5c-3.9,0-7.6-1.5-10.3-4.2c-2.7-2.7-4.3-6.4-4.4-10.3c0-8-0.4-198,136-326.5c2.9-2.5,6.6-3.8,10.4-3.7
	c3.8,0.2,7.4,1.8,10,4.6c2.6,2.8,4,6.5,4,10.3c-0.1,3.8-1.6,7.4-4.3,10.1C793.2,296.2,793.2,479.7,793.2,481.6
	c0,3.9-1.5,7.6-4.2,10.4c-2.7,2.8-6.4,4.3-10.3,4.4L778.6,496.5z"/>
<path d="M272.3,922.1c-54.9,0-100.5-20.2-133.9-60.1c-28.7-33.9-41.2-72.7-37.3-115.1c9.8-106.1,120.8-197.7,125.6-201.5
	c2.1-1.7,4.6-3,7.2-3.8c2.6-0.8,5.4-1.1,8.1-0.8c2.7,0.3,5.4,1.1,7.8,2.4c2.4,1.3,4.6,3.1,6.3,5.2c1.7,2.1,3,4.6,3.8,7.2
	c0.8,2.6,1.1,5.4,0.8,8.1s-1.1,5.4-2.4,7.8c-1.3,2.4-3.1,4.6-5.2,6.3c-1,0.8-102.2,84.5-110.3,173c-2.8,31.3,6.2,58.6,27.6,84.2
	c101.8,120.4,316-38.3,318.1-39.9c4.4-3.3,10-4.8,15.5-4c5.5,0.8,10.5,3.7,13.8,8.2c3.3,4.4,4.8,10,4,15.5
	c-0.8,5.5-3.7,10.4-8.2,13.8c-41.7,30.1-87.2,54.6-135.3,72.7C339.9,915.1,304.5,922.1,272.3,922.1z"/>
<path class="st0" d="M443.4,344.8c45.1-4.8,36.2,32.5,36.2,32.5l0.6,0.3c8.1,3.2,18.4,8,20,17.5c2.3,14.3-12.3,27.1-21.8,35.5
	c-14.1,12.6-29.7,23.3-43.9,35.7c-6.1,5.3-12,10.7-17.7,16.4c-3.2,3.1-6.4,6.4-9.5,9.6c-1.6,1.7-3.1,3.3-9.4,9.9
	c19.7-1.6,74.3,1.1,75.3,26.3c0.5,14.4-15.5,26.9-39.2,34.1c-38,11.5-107.2,6.1-119.7,3.8c3.6,12,3.2,22-3,27.4
	C277.9,623,175.1,508,210,477.2c8.4-7.2,19.6-5.9,32,0.4c0.6-15.7,6.5-63.6,55-110.9c24.3-23.7,61.9-35.8,95.2-41.9
	c13.1-2.3,40.9-6.3,49.9,7.1C444.5,335.8,443.6,340.6,443.4,344.8z"/>
<path d="M298,603.6c-20.5,0-47.2-19.5-67.3-42.5c-26.9-30.6-44.9-69.7-24.4-87.9c5.7-5,15.3-9.2,30.8-3.5
	c2.3-22.1,12.6-64.6,56-106.9c26.7-26,68-37.7,97.9-43.1s47.4-2.1,55.2,9.3c1.9,3,2.8,6.5,2.7,10.1c13.4-0.4,23.2,3,29.6,10.2
	c2.7,3.4,4.7,7.4,5.9,11.6s1.5,8.6,0.9,13c7.4,3.1,18.1,8.8,20,20.3c2.8,16.7-12.8,30.8-23.1,40c-7.8,7-15.9,13.3-23.6,19.3
	c-6.9,5.4-14,10.9-20.6,16.7c-5.9,5.1-11.8,10.5-17.5,16.1c-3.2,3.1-6.3,6.3-9.4,9.5l-0.7,0.7c18.2,0.2,46.3,3.2,59.8,15.3
	c2.4,2,4.4,4.5,5.8,7.3c1.4,2.8,2.2,5.9,2.3,9.1c0.5,16.3-15.5,31-42.9,39.3c-34.5,10.4-91.8,7.4-114.4,5
	c2.3,13.9-1.9,21.3-6.4,25.1C310,601.6,304.1,603.8,298,603.6z M223.4,477.5c-3.7-0.1-7.3,1.2-10,3.6c-14.4,12.6,1.8,46.4,25.1,73.1
	c23.3,26.7,55.3,47.7,69.2,35.6c5.5-4.8,3.2-15.8,1.4-22c-0.3-0.9-0.3-1.8-0.1-2.6c0.2-0.9,0.6-1.7,1.2-2.3c0.6-0.7,1.4-1.2,2.2-1.4
	c0.8-0.3,1.8-0.4,2.6-0.2c11.1,2.1,79.7,7.7,117.2-3.7c22.3-6.7,35.8-17.7,35.5-28.9c-0.1-1.7-0.6-3.4-1.3-4.9
	c-0.8-1.5-1.9-2.9-3.3-4c-13.6-12.1-50.2-13.6-64.9-12.3c-1.1,0.1-2.1-0.1-3-0.7c-0.9-0.5-1.7-1.3-2.1-2.3c-0.5-1-0.6-2-0.4-3.1
	c0.2-1,0.7-2,1.4-2.8l7-7.5l2.3-2.5c3.1-3.3,6.3-6.5,9.6-9.7c5.8-5.7,11.8-11.3,17.9-16.7c6.9-5.9,14.1-11.6,20.9-17
	c7.7-6,15.6-12.1,22.9-18.7c8.9-7.9,21.9-19.4,20-30.7c-1.1-6.5-9-10.5-16.7-13.5h-0.5c-1.2-0.5-2.2-1.3-2.8-2.4
	c-0.6-1.1-0.8-2.4-0.5-3.7c0,0,2.7-12.3-3.9-19.8c-4.9-5.5-13.8-7.6-26.7-6.2c-0.8,0.1-1.5,0-2.2-0.3c-0.7-0.2-1.4-0.6-1.9-1.2
	c-0.5-0.5-1-1.2-1.3-1.9c-0.3-0.7-0.4-1.5-0.4-2.2c0-0.7,0-1.5,0-2.2c0.5-2.5,0.3-5-0.7-7.4c-3.5-5.2-14.2-10.3-44.7-4.9
	c-28.5,5-67.7,16.1-92.5,40.3c-47.7,46.5-52.9,93.9-53.4,107.4c0,0.9-0.3,1.7-0.8,2.4c-0.4,0.7-1.1,1.3-1.8,1.8
	c-0.8,0.4-1.6,0.6-2.5,0.6c-0.9,0-1.8-0.2-2.5-0.6C234.1,479.3,228.8,477.8,223.4,477.5z"/>
<path class="st0" d="M341.5,397.1c30.1-24.1,64.8-41.8,101.9-52.3L341.5,397.1z"/>
<path d="M341.5,402.3c-0.8,0-1.5-0.2-2.2-0.5c-0.7-0.3-1.3-0.8-1.8-1.4c-0.9-1-1.4-2.4-1.3-3.8c0.1-1.4,0.7-2.7,1.8-3.6
	c30.7-24.6,66-42.8,103.9-53.3c0.7-0.2,1.4-0.3,2.1-0.2c0.7,0.1,1.4,0.3,2,0.6c0.6,0.3,1.2,0.8,1.6,1.3c0.4,0.6,0.8,1.2,0.9,1.9
	c0.2,0.7,0.2,1.4,0.1,2.1c-0.1,0.7-0.3,1.4-0.7,2c-0.4,0.6-0.8,1.1-1.4,1.5c-0.6,0.4-1.2,0.7-1.9,0.9
	c-36.3,10.3-70.3,27.7-99.8,51.1C344,401.8,342.7,402.3,341.5,402.3z"/>
<path class="st0" d="M388.4,431.2c0,0,40.7-39.5,91.2-53.9L388.4,431.2z"/>
<path d="M388.4,436.5c-0.7,0-1.4-0.1-2-0.4c-0.6-0.3-1.2-0.7-1.7-1.2c-0.5-0.5-0.9-1.1-1.1-1.7c-0.3-0.6-0.4-1.3-0.4-2
	c0-0.7,0.1-1.4,0.4-2c0.3-0.6,0.6-1.2,1.1-1.7c1.7-1.7,42.2-40.6,93.3-55.2c0.7-0.2,1.4-0.3,2.1-0.3c0.7,0.1,1.4,0.3,2,0.6
	c0.6,0.3,1.2,0.8,1.6,1.3c0.4,0.5,0.8,1.2,1,1.9c0.2,0.7,0.3,1.4,0.2,2.1c-0.1,0.7-0.3,1.4-0.7,2c-0.4,0.6-0.8,1.1-1.4,1.6
	c-0.6,0.4-1.2,0.7-1.9,0.9c-48.6,13.9-88.5,52.3-88.9,52.7C391.1,435.9,389.8,436.5,388.4,436.5z"/>
<path class="st2" d="M1192.4,1064.8c-69.1-117-121.4-242.8-161.2-372.9c-40.4-132.3-116.7-272.9-258.3-270.8
	C643.7,423,566.1,537.6,520.4,655.2C465.8,795.8,396,930,308.8,1052.9c-61.2,86.2-108.1,209.5-63.1,365.5
	c110.7,384,779.1,482.9,970,101.9C1307.6,1336.9,1257.2,1174.5,1192.4,1064.8z"/>
<path d="M781.4,1766.6c-20.2,0-40.6-1-61.4-2.9c-108.2-10-213.9-46.8-297.9-103.8c-91.3-62-154-145-181.4-239.8
	c-38.1-132.1-16.7-256.6,63.8-370c86.4-123.1,157.3-256.3,211-396.7c59.7-153.7,148.7-235.8,257.2-237.4h3.1
	c115.4,0,205.4,94.8,260.3,274.5c41.9,137.3,96,262.3,160.7,371.8c62.8,106.2,117.8,272.3,23.4,460.6
	C1143.4,1676.3,978.4,1766.6,781.4,1766.6z M776,426.4H773c-105.4,1.5-188.7,79.2-247.6,230.7c-56.9,146.5-128.3,280.4-212.3,399
	c-78.5,110.6-99.5,232.1-62.3,361.1c59.9,207.8,279.3,318.6,470.1,336.2c172,15.9,391.1-37.7,490.1-235.2
	c92.1-184.2,38.3-346.7-23.1-450.6c-65.1-110.2-119.5-236-161.7-374c-37.5-122.2-111.2-267.1-250.5-267.1H776z"/>
<path d="M993.5,418.1c-121.7,0-193.9-42.9-194.8-43.5c-0.6-0.4-1.2-0.9-1.6-1.5c-0.4-0.6-0.7-1.3-0.8-2.1c-0.1-0.7-0.1-1.5,0.1-2.2
	c0.2-0.7,0.5-1.4,1-2c0.8-1,83.3-100.5,221.8-130.5c83-17.9,149.4-7.3,182.4,29c8.1,8.5,13.7,18.9,16.3,30.3
	c2.6,11.4,2.1,23.3-1.6,34.4c-11.4,35.3-50.8,63.4-105.4,75.3C1072.3,413.9,1033,418.1,993.5,418.1z M809.7,368.7
	c25.1,12.9,134.9,61.7,298.9,26.4c50.9-11,87.4-36.4,97.7-68.1c3.1-9.4,3.5-19.4,1.3-29c-2.2-9.6-7-18.4-13.8-25.5
	c-29.9-33-94.3-42.7-172.4-25.8C903.8,272,827.8,348.7,809.7,368.7z"/>
<path d="M801.4,375.4c-1.2,0-2.4-0.5-3.4-1.3c-0.9-0.8-1.6-1.9-1.8-3.2c-0.2-1.2,0.1-2.5,0.7-3.6s1.7-1.9,2.9-2.2
	c2.1-0.7,212.8-67,414-67c1.4,0,2.7,0.6,3.7,1.5c1,1,1.5,2.3,1.5,3.7s-0.5,2.7-1.5,3.7c-1,1-2.3,1.5-3.7,1.5
	c-199.6,0-408.7,66-410.8,66.7C802.5,375.4,801.9,375.5,801.4,375.4z"/>
<path d="M1093,857.2c3.1,9.5,6.6,18.9,10.7,28c2.4,5.1,4.3,10.4,5.6,15.9c58.6,7.2,214.9,36.2,216.6,138.1
	c2.1,128.8-200.9,208.1-202.8,208.9l14.9,39.1c9.5-3.6,232.4-90.7,229.8-248.7C1365.2,882.1,1123.9,859.4,1093,857.2z"/>
<path class="st0" d="M1074.1,1230.5c0,0,19.4-41.6,40.4-17.2c16,18.5,37.4,66.3,46.7,87.9c2.2,4.8,3,10.1,2.4,15.3s-2.7,10.2-6,14.3
	c-4.5,5.1-20.9,9.2-31.1,7.3c-8.4,17.6-16.7,47.3-50.8,69.3c-26.2,17-56.3,27.2-87.4,29.6c-15.9,1.8-31.9-1.6-45.7-9.6
	c-8.1-4.8-14.8-11.7-19.3-20c-2.1-4.1-3.1-8.7-3.1-13.3c0-1.3,0.5-10.7,0.5-10.7s-42.4-23.7-12.6-59.8c0,0-63.7-41.9,29.3-71.2
	c5.6-1.8-1.8-27.9,12.6-48.4c2.1-3,17.4-23.9,42.8-27.6C1022.7,1172.2,1057,1193.6,1074.1,1230.5z"/>
<path d="M980.8,1442.5c-14.4,0.4-28.6-3.3-40.9-10.7c-9-5.3-16.3-12.9-21.2-22.1c-2.4-4.9-3.7-10.2-3.7-15.7c0-0.9,0-4.9,0.3-7.8
	c-6-4.2-19.5-14.7-22.5-30.8c-0.9-5.4-0.6-10.9,0.7-16.2c1.3-5.3,3.8-10.2,7.1-14.6c-7.4-6.1-21.2-19.8-18.9-36.2
	c2.3-16.5,19.9-30.1,52.3-40.5c0.3-1.6,0.4-4.6,0.5-7.2c0.5-10.3,1.2-26,10.9-39.7c4.2-6,20.2-26,46.3-29.8
	c30.8-4.4,63.6,15,82.5,48.1c4.9-7.6,13.3-17.5,23.8-18.9c5.1-0.7,12.6,0.3,20.4,9.3c16,18.6,36.7,64,47.6,89.3
	c2.6,5.7,3.5,12,2.7,18.2c-0.8,6.2-3.3,12-7.3,16.9c-5.5,6.3-20.9,10-31.9,9.5c-0.9,1.9-1.8,3.9-2.7,6
	c-7.8,18.1-18.5,42.8-48.5,62.1c-26.9,17.5-57.8,27.9-89.9,30.4C986,1442.4,983.3,1442.5,980.8,1442.5z M1000.4,1181.2
	c-2.4,0-4.8,0.2-7.1,0.5c-22.5,3.3-36.7,21.8-39.3,25.5c-8,11.2-8.4,24.4-9,34.2c-0.4,8-0.7,14.4-6.4,16.2
	c-28.8,9.1-44.9,20.3-46.6,32.5c-2.1,15.1,18.5,29.3,18.8,29.3c0.6,0.4,1.1,0.9,1.5,1.5c0.4,0.6,0.7,1.3,0.8,2
	c0.1,0.7,0.1,1.5-0.1,2.2c-0.2,0.7-0.5,1.4-1,2c-7.5,9.1-10.5,18-9,26.5c2.9,15.4,20,25.1,20.2,25.4c0.8,0.5,1.5,1.2,2,2
	c0.5,0.8,0.7,1.8,0.7,2.8c0,0-0.4,9.2-0.5,10.5c0,3.8,0.9,7.5,2.6,10.9c4.1,7.4,10.1,13.6,17.3,17.8c11.5,7.2,25.1,10,42.6,8.8
	c30.2-2.4,59.4-12.3,84.9-28.8c27.2-17.5,37.3-40.6,44.5-57.4c1.5-3.6,3-6.9,4.2-9.8c0.5-1,1.3-1.9,2.4-2.4c1-0.5,2.2-0.7,3.3-0.4
	c8.9,1.7,23.4-2.5,26.2-5.6c2.7-3.3,4.3-7.4,4.8-11.6s-0.2-8.5-2-12.4c-8.4-20-30.2-68.4-45.8-86.6c-5.6-6.5-9.7-5.9-11-5.8
	c-9.1,1.3-18.2,16.7-20.7,21.8c-0.4,0.9-1.1,1.6-1.9,2.2s-1.8,0.8-2.8,0.8c-1,0-2-0.3-2.8-0.8c-0.8-0.5-1.5-1.3-1.9-2.2
	C1055,1201.8,1026.9,1181.2,1000.4,1181.2z"/>
<path d="M937.1,1257.7c-1.3,0-2.5-0.4-3.5-1.2c-1-0.8-1.6-2-1.8-3.3c-0.2-1.3,0.1-2.6,0.8-3.6c0.7-1.1,1.8-1.8,3-2.1
	c1.5-0.4,36.3-10.1,52.4-9.8c0.7,0,1.4,0.2,2,0.4c0.6,0.3,1.2,0.7,1.7,1.2c0.5,0.5,0.8,1.1,1.1,1.7c0.2,0.6,0.4,1.3,0.4,2
	c0,1.4-0.6,2.7-1.6,3.6c-1,1-2.3,1.5-3.7,1.5c-14.5,0-49.1,9.3-49.5,9.4C938,1257.7,937.6,1257.7,937.1,1257.7z"/>
<path d="M908,1328.9c-1.3,0-2.5-0.5-3.4-1.3c-0.9-0.8-1.5-2-1.7-3.2c-0.2-1.2,0.1-2.5,0.8-3.6c0.7-1,1.7-1.8,2.9-2.2l48.6-13.2
	c1.3-0.3,2.7,0,3.8,0.7c1.1,0.7,2,1.8,2.3,3.1c0.3,1.3,0.2,2.7-0.4,3.8c-0.6,1.2-1.7,2.1-3,2.5l-48.6,13.2
	C908.9,1328.8,908.4,1328.9,908,1328.9z"/>
<path d="M920.6,1390.1c-1.1,0-2.2-0.3-3.1-1c-0.9-0.6-1.6-1.5-1.9-2.6c-0.4-1.3-0.3-2.7,0.3-4c0.6-1.2,1.7-2.2,3-2.6l44.8-15.3
	c1.3-0.4,2.8-0.4,4,0.2c1.2,0.6,2.2,1.7,2.6,3c0.4,1.3,0.4,2.8-0.3,4c-0.6,1.2-1.7,2.2-3,2.6l-44.8,15.3
	C921.8,1390,921.2,1390.1,920.6,1390.1z"/>
<path d="M737.2,1055.7c-0.7,0-1.5-0.1-2.2-0.5c-0.8-0.4-20.9-9.5-26.1-25.1c-1.1-3.2-1.5-6.7-1.2-10.1c0.3-3.4,1.4-6.7,3.1-9.7
	c1.5-3.1,3.7-5.8,6.3-7.9c2.7-2.1,5.8-3.6,9.2-4.4c15.1-3.1,31.8,10.1,32.4,10.6c0.5,0.4,1,1,1.4,1.6c0.3,0.6,0.6,1.3,0.6,2
	c0.1,0.7,0,1.4-0.1,2.1c-0.2,0.7-0.5,1.3-0.9,1.8c-0.4,0.5-1,1-1.6,1.4c-0.6,0.3-1.3,0.6-2,0.6c-0.7,0.1-1.4,0-2.1-0.1
	c-0.7-0.2-1.3-0.5-1.8-0.9c-3.7-3-15.3-10.3-23.8-8.4c-1.8,0.4-3.5,1.3-5,2.5c-1.5,1.2-2.6,2.7-3.4,4.5c-1,1.7-1.6,3.6-1.9,5.6
	c-0.2,2,0,4,0.6,5.9c3.2,9.4,15.9,16.7,20.6,18.9c1.1,0.5,2,1.3,2.5,2.4c0.5,1.1,0.7,2.3,0.4,3.5c-0.2,1.2-0.9,2.2-1.8,3
	c-0.9,0.7-2.1,1.2-3.3,1.2V1055.7z"/>
<path d="M667,890.3l41.5-12.6c4.9-69.8-14.9-126.9-46.8-130.7c-34.4-4.2-69.8,54.7-79.1,131.5s11,142.3,45.4,146.5
	c30,3.6,60.8-40.9,74.3-103.3L667,890.3z"/>
<path d="M879.3,890.3l41.5-12.6c4.9-69.8-14.9-126.9-46.8-130.7c-34.4-4.2-69.8,54.7-79.1,131.5c-9.3,76.8,11,142.3,45.4,146.5
	c30,3.6,60.8-40.9,74.3-103.3L879.3,890.3z"/>
<path d="M909.3,719.7c-1.3,0-2.6-0.5-3.6-1.4c-0.8-0.7-19-16.7-46.7-5.4c-0.6,0.3-1.3,0.4-2,0.4c-0.7,0-1.4-0.1-2-0.4
	c-0.6-0.3-1.2-0.6-1.7-1.1c-0.5-0.5-0.9-1.1-1.2-1.7c-0.3-0.6-0.4-1.3-0.4-2c0-0.7,0.1-1.4,0.4-2c0.3-0.6,0.6-1.2,1.1-1.7
	c0.5-0.5,1.1-0.9,1.7-1.2c34.1-13.9,56.8,6.5,57.8,7.4c0.5,0.5,0.9,1,1.2,1.7c0.3,0.6,0.5,1.3,0.5,2c0,0.7-0.1,1.4-0.3,2
	c-0.2,0.6-0.6,1.2-1.1,1.7c-0.5,0.5-1,0.9-1.6,1.2C910.6,719.5,910,719.7,909.3,719.7z"/>
<path d="M629,720.3c-0.8,0-1.6-0.2-2.3-0.5c-0.7-0.3-1.4-0.9-1.9-1.5c-0.8-1.1-1.2-2.5-1-3.9c0.2-1.4,0.9-2.6,2-3.5
	c29.3-22.5,56.5-8.8,57.7-8.4c1.2,0.6,2.2,1.7,2.6,3.1c0.4,1.3,0.3,2.8-0.3,4c-0.6,1.2-1.7,2.2-3.1,2.6c-1.3,0.4-2.8,0.3-4-0.3
	c-1-0.5-22.8-11.1-46.5,7.2C631.3,719.8,630.2,720.3,629,720.3z"/>
<path class="st0" d="M558.7,1119.6c-2,13.9,26.9,41.9,35.8,40.3c9-1.5,27.8-15.2,27.8-15.2l-46-49.9
	C567.9,1102.6,559.6,1112.4,558.7,1119.6z"/>
<path class="st0" d="M655.3,1197.7c6.3,12.6,46,19.1,52.4,12.8c6.4-6.4,13.8-27.5,13.8-27.5l-65.7-17.3
	C653.4,1176.9,651.9,1190.8,655.3,1197.7z"/>
<path class="st0" d="M924.7,1119.6c-1.3-9.5-15-23.2-24.6-31.1l-43.4,53.2c0,0,23.3,16.7,32.2,18.3
	C897.9,1161.6,926.7,1133.6,924.7,1119.6z"/>
<path class="st0" d="M761.3,1181.4c0,0,7.9,22.7,14.4,29c6.5,6.3,46,0,52.4-12.8c3.6-7.3,1.7-22.3-1.1-34L761.3,1181.4z"/>
<path d="M736.4,1188.2c-135.5,0-183.6-125.6-184.2-126.8c-0.3-0.6-0.4-1.4-0.4-2.1c0-0.7,0.1-1.4,0.4-2.1c0.3-0.7,0.7-1.2,1.2-1.7
	c0.5-0.5,1.1-0.9,1.8-1.1c0.7-0.2,1.4-0.4,2.1-0.3c0.7,0,1.4,0.2,2,0.5c0.6,0.3,1.2,0.7,1.7,1.3c0.5,0.5,0.8,1.2,1,1.8
	c0.5,1.2,46,120,174.3,120c128.3,0,170.9-118.7,171.3-119.9c0.5-1.3,1.4-2.3,2.7-2.9c1.2-0.6,2.6-0.6,3.9-0.2c1.3,0.4,2.3,1.4,3,2.6
	c0.6,1.2,0.7,2.6,0.3,3.9C917.1,1062.5,872,1188.2,736.4,1188.2z"/>
<path d="M593.9,1165.3c-8,0-18.4-9.3-22.7-13.5c-4.3-4.2-19.5-20.2-17.7-32.8c1.3-9.4,11.1-20.4,19.1-27.9c1-1,2.4-1.5,3.7-1.4
	c1.4,0,2.7,0.6,3.7,1.6c1,1,1.5,2.4,1.4,3.7c0,1.4-0.6,2.7-1.6,3.7c-9.2,8.7-15.3,17-15.9,21.8c-0.4,2.9,1.9,9.7,10,19
	c8.8,10.2,17.7,15.4,19.9,15.4c5.5-0.9,18.5-9.3,25.1-14.3c0.5-0.5,1.2-0.9,1.9-1.1c0.7-0.2,1.4-0.3,2.2-0.2
	c0.7,0.1,1.4,0.3,2.1,0.7c0.6,0.4,1.2,0.8,1.6,1.4c0.4,0.6,0.7,1.3,0.9,2c0.2,0.7,0.2,1.4,0,2.2c-0.1,0.7-0.4,1.4-0.9,2
	c-0.4,0.6-1,1.1-1.6,1.5c-2,1.5-20,14.6-29.9,16.2L593.9,1165.3z"/>
<path d="M696.7,1218.2c-4.3,0-8.6-0.4-12.9-1.2c-6.4-1.1-27.5-5.5-33.2-16.7c-4.4-8.9-2.3-24.2,0.3-35.6c0.3-1.4,1.1-2.5,2.3-3.3
	c1.2-0.7,2.6-1,3.9-0.7c1.4,0.3,2.5,1.1,3.3,2.3c0.7,1.2,1,2.6,0.7,3.9c-3,13.1-3.4,24.1-1.1,28.6c1.3,2.7,7.1,6.9,19,9.9
	c13,3.3,23.3,2.7,25.1,1.4c4.2-3.9,9.8-17.6,12.6-25.4c0.2-0.7,0.6-1.3,1-1.8c0.4-0.5,1-0.9,1.6-1.2c0.6-0.3,1.3-0.5,2-0.5
	c0.7,0,1.4,0.1,2,0.3c1.3,0.5,2.4,1.4,3,2.7c0.6,1.2,0.7,2.7,0.3,4c-0.8,2.3-7.9,22.6-15.1,29.6
	C707.2,1217.4,701.9,1218.7,696.7,1218.2z"/>
<path d="M889.6,1165.3c-0.5,0-1,0-1.5,0c-9.7-1.6-30.4-16.3-34.4-19.3c-0.9-0.9-1.5-2.1-1.6-3.3c-0.1-1.3,0.2-2.5,1-3.5
	c0.7-1,1.8-1.7,3.1-2c1.2-0.3,2.5-0.1,3.6,0.5c9.3,6.7,24.7,16.5,30.1,17.4c2.1,0,10.9-5.3,19.8-15.4c8.1-9.3,10.5-16,10-19
	c-0.9-6.1-10.3-17.5-22.8-27.8c-0.5-0.4-1-1-1.3-1.6c-0.3-0.6-0.5-1.3-0.6-1.9c-0.1-0.7,0-1.4,0.2-2c0.2-0.7,0.5-1.3,1-1.8
	c0.4-0.5,1-1,1.6-1.3c0.6-0.3,1.3-0.5,2-0.6c0.7-0.1,1.4,0,2,0.2c0.7,0.2,1.3,0.5,1.8,1c5.7,4.7,24.6,20.9,26.5,34.4
	c1.8,12.6-13.1,28.3-17.7,32.8C907.6,1156.5,897.5,1165.3,889.6,1165.3z"/>
<path d="M786.7,1218.2c-5.2,0.5-10.4-0.9-14.6-3.9c-7.2-7-14.8-28.6-15.7-31.1c-0.2-0.6-0.3-1.3-0.3-2c0-0.7,0.2-1.4,0.5-2
	c0.3-0.6,0.7-1.2,1.2-1.6c0.5-0.5,1.1-0.8,1.8-1c0.7-0.2,1.3-0.3,2-0.3c0.7,0,1.4,0.2,2,0.5c0.6,0.3,1.2,0.7,1.6,1.2
	c0.5,0.5,0.8,1.1,1,1.8c2.9,8.4,9,23,13.1,27c1.8,1.2,12.1,1.8,25.1-1.5c11.9-3.1,17.7-7.2,19-9.9c2.4-4.7,1.8-16.7-1.5-30.4
	c-0.2-0.7-0.2-1.4-0.1-2c0.1-0.7,0.3-1.3,0.7-1.9c0.4-0.6,0.8-1.1,1.4-1.5s1.2-0.7,1.9-0.9c0.7-0.2,1.4-0.2,2-0.1
	c0.7,0.1,1.3,0.3,1.9,0.7c0.6,0.4,1.1,0.8,1.5,1.4c0.4,0.5,0.7,1.2,0.9,1.8c2.4,9.8,5.6,27.8,0.7,37.7
	c-5.7,11.4-26.9,15.9-33.2,16.7C795.3,1217.6,791,1218.1,786.7,1218.2z"/>
<path d="M539.1,1064.7c-4.8,0-9.6-0.7-14.2-2.3c-1.3-0.5-2.3-1.5-2.9-2.8c-0.6-1.3-0.6-2.7-0.1-4c0.5-1.3,1.5-2.3,2.8-2.9
	c1.3-0.6,2.7-0.6,4-0.1c1.1,0.4,23.9,8.8,41.6-16.7c0.8-1.1,2-1.9,3.4-2.2s2.8,0.1,3.9,0.9c1.1,0.8,1.9,2,2.2,3.4
	c0.2,1.4-0.1,2.8-0.9,3.9C566,1060.6,550.3,1064.7,539.1,1064.7z"/>
<path d="M929.2,1064.7c-11.1,0-26.9-4.2-39.8-22.6c-0.5-1.1-0.6-2.4-0.3-3.5c0.3-1.2,1-2.2,2-2.9c1-0.7,2.2-1,3.4-1
	c1.2,0.1,2.4,0.6,3.3,1.5c17.7,25.4,40.6,16.7,41.6,16.7c0.6-0.3,1.3-0.4,2-0.4c0.7,0,1.4,0.2,2,0.4c0.6,0.3,1.2,0.7,1.7,1.2
	c0.5,0.5,0.9,1.1,1.1,1.7c0.2,0.6,0.4,1.3,0.4,2c0,0.7-0.2,1.4-0.4,2c-0.3,0.6-0.7,1.2-1.2,1.7c-0.5,0.5-1.1,0.9-1.7,1.1
	C938.7,1064.1,934,1064.8,929.2,1064.7z"/>
<path class="st0" d="M377.9,1499.1c-49.6,3.1-77.9-166.3-47.3-175S427.5,1496,377.9,1499.1z"/>
<path class="st0" d="M337.7,1230.8c-25.1-10-43.2,28.8-18.5,43.3C343.9,1288.6,362.8,1241,337.7,1230.8z"/>
</svg>
