<?xml version="1.0" encoding="utf-8"?>
<!-- Generator: Adobe Illustrator 25.2.3, SVG Export Plug-In . SVG Version: 6.00 Build 0)  -->
<svg version="1.1" id="Layer_1" xmlns="http://www.w3.org/2000/svg" xmlns:xlink="http://www.w3.org/1999/xlink" x="0px" y="0px"
	 viewBox="0 0 1500 1928.6" style="enable-background:new 0 0 1500 1928.6;" xml:space="preserve">
<style type="text/css">
	.st0{fill:#FFFFFF;}
	.st1{fill:#FBBE06;}
	.st2{fill:#558203;}
</style>
<path class="st0" d="M1125.9,1379.2l86.7-49.8h20.4c0,0,67.9-153.2,154.6-86.3c73.8,57-24,145.5-97.7,188.2
	C1216.1,1474,1145.3,1534.5,1125.9,1379.2z"/>
<path d="M1185.6,1483.9c-6.9,0.1-13.8-1.4-20-4.4c-23.1-11.1-37.1-42.9-44.3-99.9c-0.1-0.9,0.1-1.8,0.5-2.6c0.4-0.8,1-1.5,1.8-1.9
	l86.7-49.8c0.7-0.4,1.5-0.6,2.3-0.6h17.5c7.4-15.4,43.9-87.8,96.5-101.1c21.7-5.5,43.2,0,63.8,15.8c20,15.4,29.3,34.1,27.9,55.3
	c-3.5,51.7-70.1,107.9-126.1,140.2c-7.2,4.1-14.5,8.5-21.5,12.8C1240.1,1466.3,1210.8,1483.9,1185.6,1483.9z M1130.9,1381.5
	c6.7,51,19.4,80.3,38.7,89.7c24.7,12,59.5-9.1,96.3-31.3c7.1-4.2,14.4-8.7,21.6-12.8c58.3-33.7,118.5-87.7,121.5-132.8
	c1.2-18.2-7-34.2-24.4-47.6c-18.4-14.2-37.1-18.9-55.9-14.2c-53.3,13.5-91.2,97.8-91.6,98.7c-0.4,0.8-1,1.5-1.7,2
	c-0.7,0.5-1.6,0.7-2.5,0.7h-19.2L1130.9,1381.5z"/>
<path class="st0" d="M1096.9,1378.6c4.2,7.1,14.1,8.1,21.7,7.8c34.7-1.6,88.6-33.2,100.6-59c3.4-7.4,3.3-13.2-0.5-18.2
	c-13.2-17.5-53.8-6.1-85.4,15c-20,13.3-38.5,32.4-38.4,47C1094.9,1373.8,1095.6,1376.3,1096.9,1378.6z"/>
<path d="M1116.1,1391.1c-11.3,0-19.3-3.5-23.2-10.1c-1.7-3-2.6-6.4-2.6-9.8c0-17.6,20.8-37.8,40.6-50.9
	c32.9-22.1,76.2-34.3,91.6-13.9c4.8,6.5,5.2,14.2,1,23c-13.1,27.8-67.8,60.1-104.6,61.8L1116.1,1391.1z M1197.3,1305.1
	c-17,0-41.4,9.4-61.4,22.7c-21.4,14.3-36.4,32.1-36.3,43.2c0,1.8,0.4,3.6,1.4,5.2c3.1,5.4,12.3,5.8,17.5,5.6
	c32.8-1.5,85.2-32.1,96.7-56.5c3.5-7.4,1.8-11.1,0-13.5C1211.5,1307.2,1205.2,1305.1,1197.3,1305.1L1197.3,1305.1z"/>
<path d="M1220.9,1364h-0.7c-1.2-0.2-2.3-0.8-3-1.8c-0.7-1-1-2.2-0.9-3.4c2.3-11.3,6.7-22.1,12.8-31.9c0.5-0.7,1.1-1.3,1.9-1.7
	c0.8-0.4,1.6-0.5,2.5-0.5c0.9,0.1,1.7,0.4,2.4,0.9c0.7,0.5,1.2,1.2,1.5,2l11.1,29.2c0.4,1.1,0.4,2.4-0.1,3.5c-0.5,1.1-1.4,2-2.6,2.4
	c-1.1,0.4-2.4,0.4-3.5-0.1c-1.1-0.5-2-1.4-2.4-2.6l-7.6-19.8c-3.2,6.2-5.5,12.9-6.8,19.8c-0.2,1.1-0.7,2-1.5,2.7
	C1223,1363.6,1222,1364,1220.9,1364z"/>
<path d="M1137.8,1072.3c-14.1-21.7-32-36.1-53.8-43.1c-11-3.6-22.5-4.8-34-3.7c-11.5,1.1-22.6,4.5-32.7,10.1
	c-80.5,41.7-130.8,201.2-132.8,208c-0.7,2.3-1,4.7-0.8,7.2c0.2,2.4,0.9,4.8,2,6.9c1.1,2.2,2.7,4.1,4.5,5.6c1.9,1.6,4,2.7,6.3,3.5
	c2.3,0.7,4.7,1,7.2,0.8c2.4-0.2,4.8-0.9,6.9-2s4.1-2.6,5.6-4.5c1.6-1.9,2.7-4,3.5-6.3c13.1-42.1,59.3-157.6,114.7-186.3
	c5.8-3.3,12.1-5.3,18.7-6c6.6-0.7,13.3,0,19.6,2c74.2,24.1,70.3,198.6,62.5,263.8c-0.6,4.9,0.8,9.8,3.8,13.6c3,3.8,7.5,6.3,12.3,6.9
	c4.9,0.6,9.7-0.8,13.6-3.8c3.8-3,6.3-7.5,6.9-12.3c4.7-44.1,5.3-88.6,1.9-132.8C1168.9,1144.2,1156.9,1101.6,1137.8,1072.3z"/>
<path d="M813,1009.1c48.2-4,86.7-25.1,113.4-62.7c22.7-31.9,30.9-66.9,24.3-103.9C934.2,750.2,830,677.7,825.6,674.7
	c-4-2.7-9-3.7-13.7-2.8c-4.8,0.9-9,3.7-11.7,7.7s-3.8,8.9-2.9,13.7c0.9,4.8,3.6,9,7.5,11.8c0.9,0.7,95.9,66.7,109.6,143.9
	c4.8,27.2-1.1,52.1-18,76c-80.5,113.3-280.4-10.3-282.4-11.6c-4.1-2.4-9-3.1-13.7-2c-4.6,1.1-8.7,4-11.2,8.1
	c-2.5,4-3.4,8.9-2.4,13.6c1,4.7,3.7,8.8,7.7,11.5c38.8,23.4,80.6,41.5,124.2,53.9C753,1008,784.7,1011.5,813,1009.1z"/>
<path class="st0" d="M620.1,514.7c-40-0.8-29.5,31.2-29.5,31.2l-0.5,0.3c-6.8,3.4-15.6,8.4-16.2,16.9c-1,12.7,12.8,22.9,21.7,29.5
	c13.3,10,27.8,18.4,41.3,28.1c5.7,4.2,11.3,8.6,16.8,13.1c3,2.5,6.1,5.1,9,7.7c1.5,1.4,3,2.7,9,8c-17.5,0-65.2,6.5-64.1,28.6
	c0.6,12.7,15.6,22.5,36.9,27c34.3,7.4,94.6-2.5,105.5-5.5c-2.3,10.8-1.2,19.6,4.6,23.8c31.5,23.2,113.3-85.4,80.5-109.9
	c-7.7-5.7-17.7-3.7-28.1,2.7c-1.7-13.7-10.4-55.3-56.5-93.4c-23.1-19-57-26.9-86.7-29.5c-11.7-1.1-36.3-2.5-43.4,9.9
	C618.5,506.8,619.6,511,620.1,514.7z"/>
<path d="M764.7,731.4c-4.6,0.1-9-1.4-12.7-4.1c-4.2-3.1-8.5-9.2-7.4-21.6c-19.6,3.7-69.7,10.7-100.8,4.1
	c-24.7-5.2-39.8-16.9-40.6-31.3c-0.1-2.8,0.3-5.6,1.3-8.1s2.6-4.9,4.6-6.9c11.1-11.6,35.4-16.3,51.4-17.9l-0.7-0.6
	c-3-2.6-5.9-5.2-9-7.7c-5.4-4.5-11.1-8.8-16.5-12.9c-6.3-4.5-12.9-8.9-19.3-13.1c-7.4-4.8-14.8-9.7-22.1-15
	c-10-7.4-24.8-18.4-23.5-33.7c0.8-10.1,9.9-16,16-19.3c-0.8-3.8-0.8-7.7-0.1-11.5c0.7-3.8,2.2-7.4,4.4-10.6
	c5-6.8,13.5-10.5,25.2-11.1c-0.4-3.1,0.1-6.3,1.6-9.1c6-10.7,21.6-14.8,47.7-12.2c26.2,2.5,63.8,9.8,89.2,30.6
	c41.2,33.9,53.5,70.5,57.1,89.8c13.1-6.2,22.1-3.2,27.3,0.8c19.4,14.4,6.5,50.1-14.8,79C806.2,711.4,783,731.4,764.7,731.4z
	 M749.9,695.1c0.7,0,1.4,0.2,2,0.5c0.6,0.3,1.2,0.7,1.6,1.3c0.4,0.5,0.7,1.1,0.9,1.8c0.2,0.7,0.2,1.4,0,2
	c-1.1,5.5-2.3,15.4,2.8,19.2c13.2,9.7,39.8-11.5,58.2-36.3c18.4-24.8,30.4-56,16.8-66.1c-5.5-4.1-13.2-3.1-22.9,2.9
	c-0.7,0.4-1.4,0.7-2.2,0.7s-1.6-0.1-2.3-0.4s-1.3-0.8-1.8-1.5s-0.7-1.4-0.8-2.1c-1.4-11.8-9.6-53.1-54.8-90.4
	c-23.6-19.4-58.8-26.2-84.2-28.6c-27.2-2.5-36.2,2.8-38.9,7.6c-0.6,2.1-0.6,4.4,0,6.5c0,0.6,0.2,1.3,0.3,1.9c0.1,0.7,0,1.3-0.2,2
	c-0.2,0.6-0.5,1.2-1,1.7c-0.4,0.5-1,0.9-1.6,1.1c-0.6,0.3-1.2,0.4-1.9,0.4c-11.4-0.3-19.1,2.3-22.9,7.4c-5.3,7.1-2,17.6-2,17.7
	c0.3,1.1,0.3,2.2-0.1,3.2c-0.4,1-1.2,1.9-2.2,2.3l-2.5-3.7l2.1,4.1c-6.5,3.2-13.2,7.4-13.7,13.1c-0.8,10.1,11.5,19.3,19.6,25.3
	c7.2,5.4,14.8,10.2,21.7,14.8c6.5,4.2,13.2,8.7,19.7,13.4c5.7,4.2,11.4,8.6,17,13.2l9.2,7.8l2.2,2l6.8,6c0.7,0.6,1.2,1.4,1.4,2.4
	c0.2,0.9,0.2,1.9-0.2,2.7c-0.3,0.9-0.9,1.6-1.7,2.2c-0.8,0.5-1.7,0.8-2.6,0.8c-13,0-45.1,4-56.1,15.6c-1.1,1-2,2.3-2.6,3.7
	c-0.6,1.4-0.9,2.9-0.8,4.5c0.5,9.8,13.3,18.4,33.2,22.8c33.8,7.2,93.6-2.8,103.3-5.4C749.1,695.2,749.5,695.1,749.9,695.1
	L749.9,695.1z"/>
<path class="st0" d="M713.5,553.1c-28.2-18.9-60-32-93.3-38.4L713.5,553.1z"/>
<path d="M713.4,557.7c-1,0-1.9-0.3-2.7-0.9c-27.7-18.5-58.8-31.2-91.5-37.6c-0.6-0.1-1.2-0.3-1.8-0.6c-0.6-0.3-1-0.7-1.4-1.3
	c-0.4-0.5-0.6-1.1-0.8-1.7c-0.1-0.6-0.2-1.3,0-1.9c0.1-0.6,0.4-1.2,0.7-1.7c0.4-0.5,0.8-1,1.4-1.3c0.5-0.3,1.1-0.6,1.8-0.7
	c0.6-0.1,1.3-0.1,1.9,0.1c34.1,6.5,66.4,19.8,95.2,39.2c1,0.7,1.6,1.8,1.8,3c0.2,1.2-0.1,2.4-0.8,3.4c-0.4,0.6-1,1.1-1.7,1.4
	C714.9,557.5,714.2,557.7,713.4,557.7z"/>
<path class="st0" d="M674.7,586.5c0,0-38.6-31.7-84.1-40.6L674.7,586.5z"/>
<path d="M674.7,591.1c-1.1,0-2.1-0.4-2.9-1c-0.4-0.3-38.3-31.1-82-39.7c-1.2-0.3-2.2-1-2.8-2c-0.6-1-0.9-2.2-0.6-3.4
	c0.2-1.2,0.9-2.2,1.9-2.9c1-0.7,2.2-1,3.4-0.8c46,9.1,84.4,40.3,86,41.6c0.7,0.6,1.3,1.4,1.6,2.3c0.3,0.9,0.2,1.9-0.1,2.8
	c-0.3,0.9-0.9,1.7-1.7,2.2S675.7,591.2,674.7,591.1z"/>
<path class="st1" d="M1370.4,1391.3c7.9-164.2-576.5-14.6-801.2-662.2c-30.1-88-49.4-179.4-57.5-272.1c-2.8-32.3-7.7-64.5-14.8-96.2
	c-6-25.6-5.6-52.3,1-77.8c6.6-25.5,19.3-49,37-68.5c9.6-10.6,16.3-20.9,17.4-29.5C556.8,148.2,440,68,415.8,87.8
	c-10.6,8.7-15,43.7-16.6,80.5c-2.2,42.9-21.3,83.2-53.2,112.1C208.5,406.8-8.2,813.2,225.9,1186.6
	C513.6,1645.6,1359.9,1610.8,1370.4,1391.3z"/>
<path class="st2" d="M506.2,410.6c-2.4-16.3-5.5-33.2-9.3-49.8c-6-25.6-5.6-52.3,1-77.8c6.6-25.5,19.3-49,37-68.5
	c9.6-10.6,16.3-20.9,17.4-29.5C556.8,148.2,440,68,415.8,87.8c-10.6,8.7-15,43.7-16.6,80.5c-2.2,42.9-21.3,83.2-53.1,112.1
	c-9.5,8.7-19.4,18.9-29.5,30.2c-1.6,9.9,0,18.4,6.9,23.4c26.4,18.4,57.9-8.7,57.9-8.7s-16.4,66.4,13.9,76.8
	c30.3,10.4,53.6-48,53.6-48S465.2,413.8,506.2,410.6z"/>
<path d="M997.4,1551.9c-103.1-0.2-205.7-14.2-305.1-41.4C543.9,1469.4,341.7,1380.3,222,1189C92.5,982.4,107.1,776.3,142.2,639.7
	C186.4,467.5,278,336.7,343.1,277c15.3-13.9,27.8-30.6,36.6-49.3c8.8-18.7,13.9-39,14.8-59.6c3.1-71.5,14.5-80.8,18.4-83.9
	c13.6-11.1,43.6,2.7,60.4,12c35.8,19.7,87.1,61.8,83.7,89.4c-1.1,9.1-7.2,19.6-18.4,32.2c-17.2,19-29.5,41.8-35.9,66.5
	c-6.4,24.8-6.8,50.7-1,75.6c7.1,31.9,12,64.2,14.8,96.7c8.1,92.3,27.3,183.3,57.3,271c145.8,420.1,438.1,501.4,631.5,555.1
	c100.4,27.9,172.9,48,170,108.8c-2.8,59.9-63.7,108.5-171.3,136.5C1142.8,1544.1,1072.1,1551.9,997.4,1551.9z M426.4,89.2
	c-2.8-0.2-5.5,0.5-7.8,2.1c-4.5,3.7-12.4,18.4-14.8,77.2c-1,21.9-6.3,43.3-15.6,63.1c-9.3,19.8-22.5,37.5-38.7,52.2
	c-64.3,58.9-154.7,188-198.4,358.2c-34.6,134.8-49.1,338.3,78.7,542.1c204.4,326.1,704.2,405.1,971.5,335.1
	c101.9-26.7,161.9-73.4,164.5-128.2c2.6-53.4-63.4-71.7-163.2-99.6c-96.7-26.9-217-60.3-334.4-140.9
	c-139.2-95.6-238.4-233-303.4-420.1c-30.2-88.3-49.6-180-57.7-273c-2.8-32.1-7.7-64.1-14.8-95.5c-6.1-26.4-5.7-53.8,1.1-80
	c6.8-26.2,19.8-50.4,38-70.4c9.8-10.8,15.4-20.2,16.3-27.1c2.4-19.6-39.7-58.5-79-80.2C451.1,94.5,435.9,89.2,426.4,89.2z"/>
<path d="M503,415.4c-30.8,0-47.6-31.6-54.5-49c-8.9,17.3-28.9,48.9-54.5,40.1c-25.6-8.8-22.6-50.3-19.2-70.8
	c-12.2,7.4-34,16-53.8,2.2c-7.9-5.5-11.1-14.8-8.8-27.9c0.2-1.2,0.9-2.3,1.9-3c1-0.7,2.2-1,3.4-0.8c1.2,0.2,2.3,0.9,3,1.9
	c0.7,1,1,2.2,0.8,3.4c-1.5,9.3,0,15.5,5,18.9c23.2,16.2,52-8.2,52.2-8.5c0.7-0.6,1.7-0.9,2.6-1c1-0.1,1.9,0.2,2.7,0.7
	s1.4,1.3,1.8,2.1c0.4,0.9,0.5,1.9,0.2,2.8c-4.2,17.3-10.6,64,11.1,71.4c21.7,7.4,41.8-30.3,48-45.5c0.3-0.9,1-1.7,1.8-2.2
	c0.8-0.5,1.8-0.8,2.8-0.7c1,0.1,1.9,0.4,2.7,1c0.8,0.6,1.3,1.4,1.6,2.4c0,0.6,14.8,53.4,49.6,53.4h2.7c0.6-0.1,1.2,0,1.8,0.2
	c0.6,0.2,1.1,0.5,1.6,0.9c0.5,0.4,0.8,0.9,1.1,1.4c0.3,0.5,0.4,1.1,0.5,1.7c0,0.6,0,1.2-0.2,1.8c-0.2,0.6-0.5,1.1-0.9,1.6
	s-0.9,0.8-1.4,1.1c-0.5,0.3-1.1,0.4-1.7,0.5C505.3,415.3,504.1,415.4,503,415.4z"/>
<path d="M1328.2,1329.6c-12.9,26.8-24,73,24.2,110.7c10.7-14.2,16.9-31.3,17.9-49C1371.8,1363.5,1356.1,1344.8,1328.2,1329.6z"/>
<path d="M261.6,1056.2v0.4c0.2,3.9-0.9,7.7-3.1,11c-2.2,3.2-5.4,5.7-9,7c-59,20.9-137.8,61.9-130.4,131.2
	c12.2,112.9,198.4,160.1,200.3,160.5l-8.8,35.8c-8.7-2.1-213.1-53.9-228.1-192.5c-10.2-94.2,85.5-145.5,155-170.1
	c2.7-0.9,5.6-1.1,8.4-0.7c2.8,0.4,5.5,1.5,7.9,3.1c2.3,1.6,4.3,3.8,5.7,6.2C260.7,1050.5,261.4,1053.3,261.6,1056.2z"/>
<path class="st0" d="M339.6,1330.7c17.3-25.4,40.3,12,40.3,12s10.3-17.3,36.5-20.6c0,0,28.6-104.8,72.1-87.2
	c37.7,15.2-10.3,107.9-10.3,107.9l37.2,10.5c87.9,18.1,32.4,60.1,32.4,60.1c32.2,31.1-5.6,58.1-5.6,58.1s1.4,8.9,1.6,10.1
	c0.5,4.4,0,8.8-1.6,13c-3.3,8.4-8.9,15.6-16.1,21c-12.4,9.8-27.2,13.4-42.4,14.1c-29.9,1-59.5-5.4-86.3-18.7
	c-34.9-17.2-45.7-44.6-55.8-60.4c-9.3,2.9-25.5,0.8-30.3-3.7c-3.6-3.5-6.1-8-7.3-12.9c-1.2-4.9-1-10,0.6-14.8
	C311.2,1397.7,326.4,1350.2,339.6,1330.7z"/>
<path d="M476.4,1534.5c-28.1-0.2-55.8-6.9-81-19.4c-30.4-15-43.2-37.3-52.6-53.6c-1.1-2-2.3-3.9-3.3-5.7c-10.2,1.8-25.3,0-31.2-5.5
	c-4.2-4.1-7.2-9.3-8.6-15c-1.4-5.7-1.2-11.7,0.7-17.3c7.6-25.3,22.1-70.6,35.5-89.9c5-7.4,11.1-11.1,18-10.8
	c11.3,0.3,21.1,10.9,26.3,17.7c8.7-9.1,20.2-15,32.6-16.9c4.1-13.9,22.8-71.8,52-86.3c3.9-2.1,8.2-3.2,12.6-3.4
	c4.4-0.2,8.8,0.6,12.9,2.3c3.4,1.4,6.5,3.5,9.1,6.2c2.5,2.7,4.5,5.9,5.7,9.4c10,26.9-12.4,77.5-20.2,93.7l31.9,8.9
	c31.8,6.6,49.1,17,52.5,31.8c3.2,14.2-8.3,27.2-14.8,33.2c3.7,3.7,6.5,8.1,8.4,12.9c1.9,4.8,2.7,10,2.5,15.2
	c-1.1,15.6-13,27.2-18.1,31.5c0.4,2.8,1.1,6.8,1.2,7.6c0.6,5.1,0,10.3-1.8,15.1c-3.7,9.1-9.8,17.1-17.6,23.1
	c-11.6,9.2-26.3,14.2-45,15.1C481.4,1534.5,478.9,1534.5,476.4,1534.5z M341.7,1446c0.8,0,1.5,0.2,2.2,0.6c0.7,0.4,1.3,0.9,1.7,1.6
	c1.7,2.7,3.4,5.6,5.2,8.8c8.8,15.3,20.8,36.2,48.7,49.9c26,13,54.9,19.2,84,18.2c16.9-0.8,29.5-4.9,39.7-13.1
	c6.5-4.9,11.6-11.5,14.8-19c1.3-3.4,1.7-7.2,1.3-10.8c0-1.3-1.5-10-1.5-10c-0.1-0.8,0-1.7,0.3-2.5c0.3-0.8,0.9-1.5,1.6-2
	c0,0,15.5-11.4,16.6-26.5c0.6-8.3-3.3-16.6-11.5-24.5c-0.5-0.5-0.9-1-1.1-1.7c-0.2-0.6-0.3-1.3-0.3-2c0-0.7,0.2-1.3,0.5-1.9
	c0.3-0.6,0.7-1.1,1.3-1.5c5.1-3.7,17.6-16.2,15.1-27.1c-1.7-7.4-11.1-17.7-45.6-24.9l-37.5-10.4c-0.7-0.2-1.3-0.5-1.8-1
	c-0.5-0.5-0.9-1-1.2-1.6c-0.3-0.6-0.4-1.3-0.4-2c0-0.7,0.2-1.4,0.5-2c0.3-0.6,32.5-63.5,22.1-91.4c-0.8-2.3-2-4.4-3.6-6.2
	c-1.7-1.8-3.7-3.1-5.9-4c-2.9-1.2-6-1.8-9.1-1.6c-3.1,0.1-6.1,1-8.9,2.4c-28.9,14.3-48,82.7-48,83.4c-0.2,0.9-0.7,1.7-1.4,2.3
	c-0.7,0.6-1.5,1-2.5,1.1c-23.4,3-32.7,17.8-33.2,18.4c-0.4,0.7-1,1.2-1.7,1.6c-0.7,0.4-1.5,0.6-2.3,0.6c-0.8,0-1.6-0.2-2.3-0.6
	c-0.7-0.4-1.3-0.9-1.7-1.6c-3.1-5.1-13.3-18.4-22.3-18.7h-0.1c-3.7,0-6.8,2.2-10,6.9c-13,19-28.3,67.4-34.3,87.3
	c-1.3,3.9-1.5,8.2-0.6,12.2c0.9,4.1,3,7.8,5.9,10.7c3.1,2.8,17.3,5.2,25.8,2.6C340.8,1446,341.2,1446,341.7,1446L341.7,1446z"/>
<path d="M547.8,1418h-0.7l-40.1-5.9c-1.2-0.2-2.3-0.8-3-1.8c-0.7-1-1-2.2-0.9-3.4c0.1-0.6,0.3-1.2,0.6-1.7c0.3-0.5,0.7-1,1.2-1.3
	c0.5-0.4,1-0.6,1.6-0.8c0.6-0.1,1.2-0.2,1.8-0.1l40.1,5.8c1.2,0.1,2.2,0.7,3,1.7c0.7,0.9,1.1,2.1,1,3.3c-0.1,1.2-0.6,2.3-1.5,3.1
	C550.1,1417.5,549,1418,547.8,1418L547.8,1418z"/>
<path d="M542.2,1476.2h-0.6l-43.7-5.1c-0.6,0-1.2-0.2-1.8-0.5c-0.6-0.3-1.1-0.7-1.4-1.2c-0.4-0.5-0.7-1-0.9-1.6
	c-0.2-0.6-0.2-1.2-0.2-1.8c0.1-0.6,0.3-1.2,0.6-1.8c0.3-0.5,0.7-1,1.2-1.4c0.5-0.4,1.1-0.6,1.7-0.8c0.6-0.2,1.2-0.2,1.9-0.1l43.7,5
	c1.2,0.2,2.2,0.7,3,1.6c0.7,0.9,1.1,2,1.1,3.2c-0.1,1.2-0.6,2.3-1.4,3.1C544.4,1475.7,543.3,1476.2,542.2,1476.2L542.2,1476.2z"/>
<path d="M520.8,1061.3c-0.9,0-1.8-0.3-2.6-0.8c-0.8-0.5-1.4-1.3-1.7-2.1c-0.3-0.9-0.4-1.8-0.2-2.7s0.7-1.7,1.3-2.4
	c2.4-2.3,8.7-9.6,8.7-15.9c0-1.2-0.3-2.4-0.8-3.5c-0.5-1.1-1.2-2-2.2-2.8c-0.7-0.8-1.7-1.5-2.7-1.9c-1-0.4-2.2-0.6-3.3-0.5
	c-5.4,0.7-11.1,7.6-12.6,10.2c-0.7,1-1.7,1.8-2.9,2c-1.2,0.3-2.4,0-3.5-0.6c-1-0.7-1.8-1.7-2-2.9c-0.3-1.2,0-2.4,0.6-3.5
	c0.8-1.3,8.6-13,19.2-14.4c2.5-0.3,4.9,0,7.3,0.8c2.3,0.8,4.4,2.2,6.2,3.9c1.8,1.6,3.3,3.7,4.3,5.9c1,2.2,1.6,4.7,1.6,7.2
	c0,11.4-10.4,21.4-11.6,22.5C523.1,1060.9,521.9,1061.3,520.8,1061.3z"/>
<path d="M444.9,1139.4c-5.1,0-10.1-1.5-14.5-4.1c-0.5-0.3-1-0.7-1.3-1.2c-0.4-0.5-0.6-1-0.8-1.6c-0.1-0.6-0.2-1.2-0.1-1.8
	c0.1-0.6,0.3-1.2,0.6-1.7c0.3-0.5,0.7-1,1.2-1.3c0.5-0.4,1-0.6,1.6-0.8c0.6-0.1,1.2-0.2,1.8-0.1c0.6,0.1,1.2,0.3,1.7,0.6
	c2.5,1.5,5.3,2.5,8.2,2.7c2.9,0.2,5.8-0.2,8.5-1.3c4.4-1.9,7.9-5.4,9.8-9.8c1.9-4.4,2.1-9.3,0.5-13.8c-0.3-1.2-0.2-2.4,0.3-3.4
	c0.6-1.1,1.5-1.9,2.6-2.2c1.1-0.4,2.4-0.3,3.4,0.2c1.1,0.5,1.9,1.4,2.3,2.5c2.3,6.7,2,14.1-0.9,20.6c-2.9,6.5-8.1,11.7-14.6,14.5
	C452.1,1138.7,448.5,1139.4,444.9,1139.4z"/>
<path d="M501.8,1140.9c-13.8,0-27.5-2.2-40.6-6.6c-1.2-0.4-2.1-1.2-2.7-2.3c-0.5-1.1-0.6-2.4-0.2-3.5c0.4-1.2,1.2-2.1,2.3-2.7
	c1.1-0.5,2.4-0.6,3.5-0.2c56.3,19.2,113.2-13.6,119.5-17.4c3.1-3.7,8.3-12.3,5.7-16.2c-0.2-0.3-0.4-0.5-0.7-0.7
	c-0.3-0.2-0.6-0.3-0.9-0.3c-4.8-0.9-15.1,4.3-20.8,8.3c-0.5,0.5-1,0.9-1.7,1.1c-0.6,0.2-1.3,0.3-2,0.3c-0.7,0-1.3-0.2-1.9-0.6
	c-0.6-0.3-1.1-0.8-1.5-1.3c-0.4-0.5-0.7-1.2-0.8-1.8c-0.1-0.7-0.1-1.4,0.1-2c0.2-0.7,0.5-1.3,0.9-1.8c0.4-0.5,1-0.9,1.6-1.2
	c1.7-1.2,17.2-11.7,27.7-9.7c1.5,0.2,3,0.8,4.3,1.7c1.3,0.8,2.4,1.9,3.3,3.2c7.4,11.1-5.3,26.2-6.8,27.9c-0.3,0.3-0.6,0.6-1,0.9
	C587.1,1116.9,549,1140.9,501.8,1140.9z"/>
<path d="M556.7,1160.3c-1.1,0-2.2-0.4-3-1.2c-0.8-0.7-1.4-1.8-1.5-2.9c-0.1-1.1,0.1-2.2,0.8-3.1c0.6-0.9,1.6-1.6,2.7-1.9
	c16.9-4,42.4-13.9,43.4-22.4c0.4-3.7-4.8-8.4-14.4-13c-0.5-0.3-1-0.6-1.4-1.1s-0.7-1-0.9-1.6c-0.2-0.6-0.3-1.2-0.2-1.8
	c0-0.6,0.2-1.2,0.5-1.7s0.6-1,1.1-1.4c0.5-0.4,1-0.7,1.6-0.9c0.6-0.2,1.2-0.3,1.8-0.2c0.6,0,1.2,0.2,1.7,0.5
	c14,6.8,20.4,14.1,19.5,22.1c-2,18-42.4,28.5-50.4,30.3C557.4,1160.2,557.1,1160.3,556.7,1160.3z"/>
<path d="M496.7,871.1l4.1-19.3l-19.6,0.9c-1.6-1.5-11.8-9.2-13.4-10.6c-4-3.4-6.5-8.2-7.1-13.4c-0.6-5.2,0.9-10.4,4-14.6
	c3.1-4.2,7.8-7,12.9-7.8c5.1-0.9,10.4,0.2,14.8,3.1c22.1,14.5,71.9,59.9,110.3,190.9c1.5,5.4,0.9,11.3-1.8,16.2
	c-2.7,5-7.3,8.6-12.7,10.3c-5.4,1.6-11.2,1-16.2-1.6c-5-2.6-8.7-7.1-10.4-12.5C542.7,951.2,516,899.2,496.7,871.1z"/>
<path d="M330.8,927.7l4.1-19.3l-19.6,0.9c-1.6-1.5-11.8-9.2-13.4-10.6c-3.9-3.4-6.4-8.2-6.9-13.3c-0.5-5.2,0.9-10.3,4-14.4
	c3.1-4.1,7.7-6.9,12.8-7.8c5.1-0.9,10.4,0.2,14.7,3c22.1,14.5,71.9,59.8,110.3,190.9c1.3,5.4,0.5,11-2.3,15.8s-7.2,8.3-12.5,9.9
	c-5.3,1.6-11,1.1-15.9-1.4c-4.9-2.5-8.7-6.8-10.5-12C376.8,1007.9,350.1,955.8,330.8,927.7z"/>
<path class="st0" d="M892.6,1675.8l98.8-15.2l19,7.4c0,0,118.5-118.5,175.2-24.7c48.3,79.8-74.8,127-158.9,140.2
	C942.7,1796.6,854.6,1827.8,892.6,1675.8z"/>
<path d="M940.3,1799.9c-19.3,0-35.8-4-46.9-16c-17.5-18.7-19.1-53.4-5.2-109.1c0.2-0.9,0.7-1.7,1.3-2.3c0.7-0.6,1.5-1,2.4-1.2
	l98.9-15.3c0.8-0.1,1.6,0,2.4,0.3l16.3,6.3c12.3-11.7,72.7-66,126.4-59.5c22.1,2.7,40.3,15.4,53.8,37.8c13.1,21.6,15.1,42.4,6,61.8
	c-21.9,47-104.3,75.3-168.2,85.2c-8.2,1.3-16.6,2.7-24.6,4.2C980.7,1796.2,959.1,1799.9,940.3,1799.9z M896.3,1679.9
	c-12.1,50-10.9,81.9,3.7,97.6c18.7,20,58.7,13,101.1,5.5c8.1-1.4,16.5-2.9,24.8-4.2c66.4-10.3,142.2-39.1,161.2-80
	c7.7-16.5,5.8-34.4-5.5-53.2c-12-19.8-27.8-31-47-33.4c-54.6-6.7-120.3,58.3-121,59c-0.6,0.6-1.4,1.1-2.3,1.2
	c-0.9,0.2-1.8,0.1-2.6-0.2l-17.9-7L896.3,1679.9z"/>
<path class="st0" d="M865.7,1664.9c1.3,8.1,10.1,12.7,17.3,15.1c33,11.1,94.4,1.1,115.2-18.8c5.8-5.6,7.8-11.1,6.1-17.2
	c-6-21-48-25.1-84.9-16.8c-23.5,5.2-47.6,16.4-52.8,30.1C865.6,1659.6,865.3,1662.3,865.7,1664.9z"/>
<path d="M916.7,1689.2c-11.9,0.2-23.8-1.4-35.2-4.9c-12-4.1-19.1-10.5-20.4-18.7c-0.5-3.4-0.1-6.9,1.1-10.1
	c6.2-16.5,33.2-27.8,56.1-32.9c38.6-8.6,83.5-4.5,90.5,20.1c2.2,7.7-0.3,15.1-7.4,21.8C985.6,1679.6,949,1689.2,916.7,1689.2z
	 M954.4,1627.7c-11.5,0-22.9,1.2-34.1,3.7c-25.2,5.6-45.5,16.8-49.5,27.2c-0.6,1.7-0.9,3.5-0.6,5.3c1,6.1,9.4,9.8,14.3,11.5
	c31.1,10.4,91.1,0.8,110.7-17.8c5.9-5.6,5.7-9.7,4.8-12.6c-3.5-11.6-22.8-17.1-45.6-17.1V1627.7z"/>
<path d="M1010.2,1703.9c-1.2,0-2.4-0.5-3.3-1.3c-0.9-0.9-1.4-2-1.4-3.3v-21.3c-5.3,4.7-9.8,10.1-13.5,16c-0.3,0.5-0.7,1-1.2,1.4
	c-0.5,0.4-1,0.7-1.6,0.8c-0.6,0.2-1.2,0.2-1.8,0.1c-0.6-0.1-1.2-0.3-1.7-0.6c-0.5-0.3-1-0.7-1.4-1.2c-0.4-0.5-0.6-1-0.8-1.6
	c-0.2-0.6-0.2-1.2-0.1-1.8c0.1-0.6,0.3-1.2,0.6-1.7c6.3-9.7,14.2-18.2,23.4-25.1c0.7-0.5,1.5-0.8,2.3-0.9c0.8-0.1,1.7,0.1,2.5,0.5
	c0.8,0.4,1.4,1,1.9,1.7c0.5,0.7,0.7,1.5,0.7,2.4v31.2c0,0.6-0.1,1.2-0.3,1.8c-0.2,0.6-0.6,1.1-1,1.5c-0.4,0.4-0.9,0.8-1.5,1
	C1011.4,1703.8,1010.8,1703.9,1010.2,1703.9z"/>
<path d="M1014.2,1394c-5.4-25.2-16.9-45.1-34.6-59.6c-8.9-7.3-19.3-12.7-30.3-15.8c-11.1-3.1-22.7-3.9-34.1-2.4
	c-90.1,9.9-194.6,140.5-199,146.1c-2.8,3.8-4.1,8.6-3.4,13.4c0.6,4.7,3.1,9,6.8,12c3.7,3,8.5,4.4,13.3,3.9c4.8-0.5,9.1-2.8,12.2-6.4
	c27.4-34.5,112.1-125.5,174.2-132.4c6.6-1,13.2-0.6,19.6,1.2c6.4,1.7,12.4,4.8,17.5,8.9c60.5,49.1-6.1,210.5-36.9,268.6
	c-1.2,2.2-2,4.5-2.3,7c-0.3,2.5-0.1,5,0.6,7.3c0.7,2.4,1.8,4.6,3.4,6.5c1.6,1.9,3.5,3.5,5.7,4.7c2.2,1.2,4.6,1.9,7.1,2.1
	c2.5,0.2,5-0.1,7.3-0.8c2.4-0.8,4.5-2,6.4-3.6c1.9-1.6,3.4-3.6,4.5-5.8c20.2-39.5,36.8-80.7,49.6-123.1
	C1017.3,1472.2,1021.5,1428.2,1014.2,1394z"/>
<path d="M251.9,702.1h-0.7c-1.2-0.2-2.3-0.8-3-1.8c-0.7-1-1.1-2.2-0.9-3.4c33-229.3,129.4-372.7,130.4-374.2c0.7-1,1.8-1.7,3-1.9
	c1.2-0.2,2.4,0,3.5,0.7c1,0.7,1.7,1.8,1.9,3c0.2,1.2,0,2.4-0.7,3.5c-1,1.4-96.2,143.2-128.8,370.3c-0.2,1.1-0.7,2.1-1.6,2.8
	C254,701.7,253,702.1,251.9,702.1z"/>
<path d="M449.1,563.1c-1.1,0-2.2-0.4-3-1.1c-0.8-0.7-1.4-1.7-1.5-2.8c-14.8-94.6-0.2-204.7,0-205.8c0.2-1.2,0.8-2.3,1.8-3.1
	c1-0.7,2.2-1.1,3.4-0.9c1.2,0.2,2.3,0.8,3.1,1.8c0.7,1,1.1,2.2,0.9,3.4c0,1.1-14.8,110,0,203.2c0.2,1.2-0.1,2.4-0.8,3.4
	c-0.7,1-1.7,1.7-2.9,1.9L449.1,563.1z"/>
<path d="M1119.3,1415.1h-2.1c-0.6,0-1.2-0.1-1.8-0.3s-1.1-0.6-1.5-1c-0.4-0.4-0.8-0.9-1-1.5c-0.2-0.6-0.3-1.2-0.3-1.8
	c0-1.2,0.5-2.4,1.3-3.3c0.9-0.9,2-1.4,3.2-1.4c0.7,0,1.5,0,2.2,0c69.9,0,222.2-23.7,223.8-23.9c0.6-0.1,1.2-0.1,1.8,0.1
	c0.6,0.1,1.1,0.4,1.6,0.8c0.5,0.4,0.9,0.8,1.2,1.3c0.3,0.5,0.5,1.1,0.6,1.7c0.1,0.6,0.1,1.2-0.1,1.8c-0.1,0.6-0.4,1.1-0.7,1.6
	c-0.4,0.5-0.8,0.9-1.3,1.2c-0.5,0.3-1.1,0.5-1.7,0.6C1343,1391.3,1190,1415.1,1119.3,1415.1z"/>
<path class="st0" d="M782.3,1166.4c-16.6,25.8,60,72.7,78.4,53.9C879.1,1201.5,798.9,1140.6,782.3,1166.4z"/>
<path class="st0" d="M892.4,1231.4c-3.7,13.8,32.2,36.9,45.2,19.4C950.5,1233.2,896.1,1217.6,892.4,1231.4z"/>
<path class="st0" d="M197.3,717.9c-30.7-1.4-32.8,88.3-7.4,94.9C215.3,819.3,228,719.3,197.3,717.9z"/>
<path class="st0" d="M196.4,845.8c-13.8,3.7-15.8,46.4,5.9,48.8C224,896.9,210.2,842,196.4,845.8z"/>
</svg>
