<?xml version="1.0" encoding="utf-8"?>
<!-- Generator: Adobe Illustrator 25.2.3, SVG Export Plug-In . SVG Version: 6.00 Build 0)  -->
<svg version="1.1" id="Layer_1" xmlns="http://www.w3.org/2000/svg" xmlns:xlink="http://www.w3.org/1999/xlink" x="0px" y="0px"
	 viewBox="0 0 1500 1461.3" style="enable-background:new 0 0 1500 1461.3;" xml:space="preserve">
<style type="text/css">
	.st0{fill:#FFFFFF;}
	.st1{fill:#F11F2A;}
	.st2{fill:#558203;}
	.st3{fill:#FBCC06;}
	.st4{fill:#FBBE06;}
	.st5{fill:#D57C00;stroke:#000000;stroke-width:5;}
	.st6{fill:#FBCC06;stroke:#000000;stroke-width:5;}
	.st7{fill:#FFDE53;}
	.st8{fill:#FBBE06;stroke:#000000;stroke-width:5;}
	.st9{fill:#D57C00;}
	.st10{fill:#9FD22D;stroke:#000000;stroke-width:2;}
</style>
<path d="M564,843.5c-0.6-1.2-1.5-2.2-2.7-2.9c-1.2-0.6-2.6-0.8-3.9-0.6c-1.3,0.3-2.5,0.9-3.4,2c-0.9,1-1.4,2.3-1.5,3.7
	c-1.5,17.2-6.4,33.9-14.4,49.1c-17,31.5-45.2,46.9-83.9,45.8c-1.6,0-3.2,0.6-4.3,1.7c-1.2,1.1-1.8,2.6-1.9,4.2
	c0,1.6,0.6,3.2,1.7,4.3c1.1,1.2,2.6,1.8,4.2,1.9c54.5,1.4,81.7-27.8,95-52.6c8.8-16.7,14.1-35.1,15.7-53.9
	C564.6,845.3,564.4,844.3,564,843.5z"/>
<path class="st0" d="M598.1,816.4c0,0,9.2-5.2,11.4-21c2.3-15.8-14.4-15.7-16.7-13.2c-0.2-2.1-1-4.2-2.2-5.9
	c-1.2-1.8-2.8-3.2-4.6-4.3c-6.6-3.9-13,3.5-13,3.5s-2.5-11.3-12.2-7.5c-9.7,3.8-15.5,18-13,23.1c0,0-15.1,7.8-15.1,18.6
	c0,10.8,10.1,17.2,10.1,17.2s-12.4,7.9,0,17c12.4,9.1,42.9,18.2,42.1-2.7C584.9,841.1,604.8,838.6,598.1,816.4z"/>
<path d="M611,795.5c-1.9,13.4-8.6,19.6-11.1,21.5c1.9,7.1,1.4,13-1.6,17.6c-2.8,4-7,6.8-11.8,7.8c-0.1,6.5-3.4,9.6-6.2,11.1
	c-9.7,5.1-28.9-1.4-38.3-8.5c-4.2-3.1-6.2-6.4-6.1-10c0.1-3.8,2.7-6.7,4.5-8.3c-3-2.4-9.1-8.5-9.1-17.2c0-9.9,11.1-17.2,14.7-19.4
	c-0.5-3.1-0.1-6.4,1.2-9.3c2-5.3,6.5-11.9,13.1-14.5c1.3-0.6,2.7-0.9,4.2-0.9c1.4,0,2.9,0.3,4.1,1c2.3,1.4,4.1,3.5,5.1,6.1
	c3.1-2.5,8.2-5,13.1-2.1c1.8,1,3.3,2.3,4.5,3.9c1.2,1.6,2.1,3.4,2.6,5.4c3.5-0.9,7.2-0.5,10.5,1c2.5,1.2,4.5,3.2,5.7,5.8
	C611.3,789.3,611.6,792.5,611,795.5z"/>
<path class="st0" d="M611,795.5c-1.9,13.4-8.6,19.6-11.1,21.5c1.9,7.1,1.4,13-1.6,17.6c-2.8,4-7,6.8-11.8,7.8
	c-0.1,6.5-3.4,9.6-6.2,11.1c-9.7,5.1-28.9-1.4-38.3-8.5c-4.2-3.1-6.2-6.4-6.1-10c0.1-3.8,2.7-6.7,4.5-8.3c-3-2.4-9.1-8.5-9.1-17.2
	c0-9.9,11.1-17.2,14.7-19.4c-0.5-3.1-0.1-6.4,1.2-9.3c2-5.3,6.5-11.9,13.1-14.5c1.3-0.6,2.7-0.9,4.2-0.9c1.4,0,2.9,0.3,4.1,1
	c2.3,1.4,4.1,3.5,5.1,6.1c3.1-2.5,8.2-5,13.1-2.1c1.8,1,3.3,2.3,4.5,3.9c1.2,1.6,2.1,3.4,2.6,5.4c3.5-0.9,7.2-0.5,10.5,1
	c2.5,1.2,4.5,3.2,5.7,5.8C611.3,789.3,611.6,792.5,611,795.5z"/>
<path d="M571.5,856.8c-10.5,0-23.3-5.3-30.4-10.6c-4.6-3.4-6.9-7.2-6.7-11.2c0.2-3.1,1.6-6,3.8-8.1c-3.6-3.2-8.3-9.1-8.4-17.3
	c0-9.9,10.2-17.4,14.5-20.1c-0.2-3.1,0.3-6.2,1.5-9.1c2.1-5.6,6.9-12.6,13.9-15.4c1.5-0.7,3.2-1,4.8-1c1.7,0,3.3,0.4,4.8,1.2
	c2.1,1.2,3.8,3,5,5.1c4.5-3,9.3-3.4,13.3-1.1c3.4,2,6.1,5.1,7.4,8.8c3.4-0.5,7,0,10.1,1.5c2.8,1.3,5.1,3.6,6.4,6.5
	c1.3,3.1,1.6,6.5,1.1,9.8c-1.8,12.7-7.7,19.2-10.9,21.8c1.7,7.1,1,13.1-2,17.8c-2.8,4-6.9,6.9-11.6,8.1c-0.5,6.5-4,9.7-6.9,11.2
	C578,856.2,574.8,856.9,571.5,856.8z M564.6,767.1c-1.3,0-2.6,0.3-3.8,0.8c-6.1,2.4-10.3,8.6-12.2,13.7c-1.2,2.6-1.6,5.5-1.1,8.4
	c0.1,0.3,0.1,0.6-0.1,0.9c-0.1,0.3-0.3,0.5-0.6,0.7c-3.3,1.9-14,8.9-14,18c0,8,5.4,13.5,8.5,16c0.2,0.1,0.3,0.3,0.4,0.5
	c0.1,0.2,0.1,0.4,0.1,0.6c0,0.2,0,0.4-0.1,0.6c-0.1,0.2-0.2,0.4-0.4,0.5c-1.4,1.2-3.9,3.9-4,7.2c-0.1,3,1.7,5.9,5.5,8.7
	c8.9,6.6,27.7,13.1,36.7,8.3c3.5-1.8,5.3-5.1,5.4-9.8c0-0.3,0.1-0.7,0.4-0.9c0.2-0.3,0.5-0.4,0.9-0.5c2.2-0.5,7.7-2.2,10.9-7.1
	c2.7-4.2,3.2-9.7,1.4-16.4c-0.1-0.3-0.1-0.6,0-0.9c0.1-0.3,0.3-0.5,0.5-0.7c2.6-1.9,8.7-7.7,10.6-20.5c0.5-2.7,0.2-5.5-0.8-8.1
	c-1-2.2-2.8-4-4.9-5c-2.9-1.4-6.2-1.7-9.4-1c-0.2,0.1-0.4,0.1-0.6,0.1s-0.4-0.1-0.6-0.2c-0.4-0.2-0.6-0.5-0.7-0.9
	c-0.5-1.8-1.3-3.4-2.4-4.8c-1.1-1.4-2.5-2.6-4.1-3.5c-4.8-2.8-9.5,0.4-11.4,1.9c-0.2,0.2-0.4,0.3-0.6,0.3c-0.2,0.1-0.5,0.1-0.7,0
	c-0.2-0.1-0.4-0.2-0.6-0.3c-0.2-0.2-0.3-0.3-0.4-0.6c-0.8-2.2-2.4-4.1-4.4-5.3C566.8,767.3,565.7,767.1,564.6,767.1z"/>
<path d="M587.2,817c-1.2,0-2.3-0.3-3.4-0.8c-1.1-0.5-2-1.3-2.8-2.2c-8.6-9.1,9.7-32.5,11.8-35.1c0.3-0.3,0.6-0.5,1-0.6
	c0.4,0,0.8,0.1,1.1,0.3c0.3,0.3,0.5,0.6,0.6,1c0,0.4-0.1,0.8-0.3,1.1c-5.3,6.6-17.7,25-11.9,31.1c0.5,0.7,1.2,1.2,2,1.6
	c0.8,0.4,1.7,0.5,2.6,0.4c3.9-0.5,7.8-6.3,8.9-8.5c0.2-0.4,0.5-0.6,0.9-0.7c0.4-0.1,0.8-0.1,1.2,0.1c0.4,0.2,0.6,0.5,0.7,0.9
	c0.1,0.4,0.1,0.8-0.1,1.2c-0.2,0.4-4.8,9.2-11.2,10.1C587.9,816.9,587.6,817,587.2,817z"/>
<path d="M569.4,783.8c-0.2,0-0.4,0-0.6-0.1c-0.2-0.1-0.4-0.2-0.5-0.3c-0.1-0.1-0.3-0.3-0.3-0.5c-0.1-0.2-0.1-0.4-0.1-0.6
	c0-0.2,0-0.4,0.1-0.6c2.2-5.5,4.3-9.6,4.4-9.7c0.1-0.2,0.2-0.3,0.4-0.5c0.2-0.1,0.3-0.2,0.5-0.3c0.2-0.1,0.4-0.1,0.6-0.1
	s0.4,0.1,0.6,0.2c0.2,0.1,0.3,0.2,0.5,0.4c0.1,0.2,0.2,0.3,0.3,0.5c0.1,0.2,0.1,0.4,0.1,0.6c0,0.2-0.1,0.4-0.2,0.6
	c0,0-2.1,4.2-4.2,9.5c-0.1,0.3-0.3,0.5-0.6,0.7C570,783.7,569.7,783.8,569.4,783.8z"/>
<path d="M573.5,811.9c-1.6,0.1-3.1-0.2-4.6-0.9c-1.4-0.7-2.7-1.6-3.7-2.9c-0.3-0.3-0.4-0.7-0.3-1.1c0-0.4,0.3-0.8,0.6-1
	c0.3-0.3,0.7-0.4,1.1-0.3c0.4,0,0.8,0.3,1,0.6c4.1,5,12,1.2,12.1,1.2c0.2-0.1,0.4-0.1,0.6-0.2c0.2,0,0.4,0,0.6,0.1
	c0.2,0.1,0.4,0.2,0.5,0.3c0.1,0.1,0.3,0.3,0.4,0.5c0.1,0.2,0.1,0.4,0.2,0.6c0,0.2,0,0.4-0.1,0.6c-0.1,0.2-0.2,0.4-0.3,0.5
	c-0.1,0.2-0.3,0.3-0.5,0.4C578.7,811.2,576.1,811.8,573.5,811.9z"/>
<path d="M567.3,834.4c-0.2,0-0.4,0-0.6-0.1c-0.4-0.1-0.7-0.4-0.8-0.8c-0.2-0.4-0.2-0.8,0-1.2c2.2-5.7,2.4-10.4,0.7-14.1
	c-1.3-2.6-3.6-4.6-6.4-5.5c-0.3-0.1-0.5-0.2-0.7-0.5c-0.2-0.2-0.3-0.5-0.4-0.8c0-0.3,0-0.6,0.1-0.9c0.1-0.3,0.3-0.5,0.6-0.6
	c0.2-0.1,19.4-11.9,14.4-22.7c-0.4-0.8-0.9-1.6-1.6-2.2c-0.7-0.6-1.5-1-2.4-1.2c-8.2-2.3-23.1,7.5-23.2,7.6
	c-0.2,0.1-0.4,0.2-0.5,0.2c-0.2,0-0.4,0-0.6,0c-0.2,0-0.4-0.1-0.5-0.2c-0.2-0.1-0.3-0.3-0.4-0.4c-0.1-0.2-0.2-0.4-0.2-0.5
	c0-0.2,0-0.4,0-0.6c0-0.2,0.1-0.4,0.2-0.5c0.1-0.2,0.3-0.3,0.4-0.4c0.7-0.4,16.2-10.6,25.7-8c1.3,0.3,2.5,1,3.5,1.8
	c1,0.9,1.8,2,2.4,3.2c5.1,10.7-7.7,21.2-13.2,25c2.4,1.4,4.3,3.4,5.6,5.9c2.2,4.4,2,10-0.6,16.5c-0.1,0.3-0.3,0.5-0.6,0.7
	C567.9,834.3,567.6,834.4,567.3,834.4z"/>
<path class="st1" d="M567.9,1080.8c-2.7-19.9-165.7-290.6-181.8-291.9c-0.3,0-0.6,0-0.9,0.1l-50.3,4
	c-19.4,1.6-182.2,269.6-174.7,297.6c3.7,13.9,38.3,33.6,84.4,47.8l0.4,0.1c43.8,13.9,111.6,21.8,165.9,15.2
	C495.9,1143.6,570.6,1100.7,567.9,1080.8z"/>
<path d="M171,1058.5l-2.8-1.2c15.7-36.2,50.9-99.7,89.6-161.7c15-24.2,65.1-103.1,76.9-104.1l51.2-4.1l0.2,3l-51.2,4.1
	C321.2,795.7,207.9,974,171,1058.5z"/>
<path d="M369.2,1157.7c-31.2-0.1-62.4-3.2-93-9.5c-44.8-9.3-73.7-23.1-77.3-36.9c-4.5-17,47.9-113.3,64.2-142.4
	c33.7-60.5,79.4-135.8,105.7-167.2c11-13.2,15.3-14.5,17.5-14.3c1.7,0.1,6.4,0.5,36,44c16.4,24.2,38.2,58.1,61.2,95.6
	c40.6,66.3,84.6,142.6,86.1,153.5c0.5,3.5-1,7.5-4.5,11.9c-18.2,23.5-84.4,54.4-153.8,62.8C397.2,1157,383.2,1157.8,369.2,1157.7z
	 M385.8,790.4c-1.2,0-5,1.4-14.8,13.2c-22.7,27.1-65,94.1-105.3,166.7c-41.5,74.8-66.6,129.8-63.8,140.2
	c3.3,12.5,32.1,25.8,75.1,34.7c44.4,9.2,94.4,11.9,133.9,7.1c67.7-8.2,134.4-39.1,151.8-61.6c2.9-3.7,4.2-7.1,3.9-9.7
	c-1.2-8.9-39.6-77.2-85.7-152.3c-58.2-94.9-89.6-137.8-94.8-138.3H385.8z"/>
<path class="st0" d="M368.4,1192.8l-6.6,32.1l2.1,6.4c0,0-40.8,36.9-11,57c25.4,17.2,42.9-22.4,48.5-49.8
	C407.2,1211.2,418.9,1182.9,368.4,1192.8z"/>
<path d="M365.1,1294c-4.7-0.1-9.2-1.7-13-4.4c-7.1-4.8-11-10.9-11.5-18.3c-1.2-17.7,17.5-36.6,21.6-40.4l-1.8-5.4
	c-0.1-0.3-0.1-0.5,0-0.8l6.6-32.1c0.1-0.3,0.2-0.6,0.4-0.8c0.2-0.2,0.5-0.4,0.8-0.4c18.5-3.6,29.8-2.5,35.7,3.5
	c7.4,7.6,4.2,21.4,0.9,36c-0.6,2.6-1.2,5.3-1.8,8c-4.3,20.8-14.9,47.3-30.7,53.7C370,1293.5,367.6,1294,365.1,1294z M363.4,1224.9
	l2,6c0.1,0.3,0.1,0.6,0,0.9c-0.1,0.3-0.2,0.5-0.4,0.7c-0.2,0.2-22.6,20.7-21.3,38.7c0.4,6.3,3.9,11.7,10.2,16c6,4,11.8,4.9,17.3,2.7
	c13.7-5.6,24.4-29.9,28.9-51.5c0.6-2.7,1.2-5.4,1.8-8c3.1-13.8,6.1-26.8-0.1-33.2c-4.9-5.1-15.4-6.1-31.9-2.9L363.4,1224.9z"/>
<path class="st0" d="M362.8,1184c-4.6,1.5-8.6,9.2-10.7,16.8c-3.3,12-2.7,25.8,4.1,28.1c1.9,0.7,3.8,0.1,5.8-1.7
	c6.9-6.5,11.2-26.5,8.1-37.4c-0.7-2.4-2-5.4-4.7-5.9C364.5,1183.6,363.6,1183.7,362.8,1184z"/>
<path d="M357.7,1230.7c-0.7,0-1.4-0.1-2.1-0.4c-7.9-2.7-8.5-17.5-5.1-30c2.1-7.5,6.2-16.1,11.7-17.8c1.1-0.4,2.2-0.4,3.3-0.2
	c2.7,0.6,4.7,3,5.8,7c3.3,11.6-1.2,32-8.5,39C361.6,1229.8,359.7,1230.6,357.7,1230.7z M363.2,1185.4c-3.5,1.1-7.5,7.6-9.7,15.7
	c-3.1,11.1-2.6,24.4,3.1,26.3c0.9,0.3,2.3,0.5,4.2-1.4c6.4-6.1,10.6-25.6,7.7-35.9c-0.5-1.6-1.5-4.4-3.5-4.8
	C364.4,1185.2,363.8,1185.2,363.2,1185.4L363.2,1185.4z"/>
<path d="M374.2,1233.3L374.2,1233.3l-10.3-0.5c-0.3,0-0.6-0.1-0.8-0.3c-0.2-0.2-0.4-0.4-0.5-0.6c-0.1-0.3-0.2-0.5-0.1-0.8
	c0-0.3,0.2-0.5,0.3-0.8c2.4-2.9,5.3-5.4,8.6-7.3c0.2-0.1,0.4-0.1,0.6-0.2c0.2,0,0.4,0,0.6,0.1c0.2,0.1,0.4,0.2,0.5,0.3
	c0.2,0.1,0.3,0.3,0.4,0.5c0.1,0.2,0.1,0.4,0.2,0.6c0,0.2,0,0.4-0.1,0.6c-0.1,0.2-0.2,0.4-0.3,0.5c-0.1,0.2-0.3,0.3-0.5,0.4
	c-2,1.1-3.9,2.5-5.5,4.2l7,0.3c0.4,0,0.8,0.2,1.1,0.5c0.3,0.3,0.4,0.7,0.4,1.1c0,0.4-0.2,0.8-0.5,1.1
	C374.9,1233.2,374.6,1233.3,374.2,1233.3z"/>
<path d="M320.3,1226.8c-17.7,5.7-37.8,9.7-51.6,5c-3.2-1-6.2-2.6-8.7-4.8s-4.6-4.9-6-7.9c-20.2-42.4,40.6-83.8,43.2-85.5
	c1.3-0.9,3-1.2,4.5-0.9c1.6,0.3,3,1.2,3.9,2.6s1.2,3,0.9,4.5c-0.3,1.6-1.2,3-2.6,3.9c-0.7,0.5-54.6,37.3-39,70.2
	c0.8,1.6,1.8,2.9,3.2,4c1.3,1.1,2.9,1.9,4.5,2.4c20,6.8,64.3-12,79.7-19.8c1.4-0.7,3.1-0.8,4.6-0.3c1.5,0.5,2.8,1.6,3.5,3
	c0.7,1.4,0.9,3.1,0.4,4.6c-0.5,1.5-1.6,2.8-3,3.5C345.7,1217.4,333.1,1222.6,320.3,1226.8z"/>
<path class="st0" d="M417.1,1292.6l26.9,18.8l2.8,6.1c0,0,55-1.2,47.1,33.9c-6.7,29.9-46.6,13.1-69.5-2.9
	C401.6,1332.5,373.7,1320,417.1,1292.6z"/>
<path d="M473,1369.5c-15.4,0-35.2-9.8-49.3-19.6c-2.2-1.6-4.5-3.1-6.8-4.6c-12.4-8.3-24.2-16.2-24.1-26.8c0.1-8.5,7.6-17,23.5-27
	c0.2-0.2,0.5-0.3,0.8-0.3c0.3,0,0.6,0.1,0.8,0.3l26.9,18.8c0.2,0.2,0.4,0.4,0.5,0.6l2.4,5.2c5.6,0,32.2,0.8,43.5,14.5
	c4.6,5.7,6.1,12.8,4.2,21.2c-1.8,8.1-6.1,13.5-12.6,16C479.7,1368.9,476.4,1369.5,473,1369.5z M417.1,1294.4
	c-14.2,9.1-21.2,17-21.3,24c-0.1,9,11,16.4,22.7,24.2c2.3,1.5,4.6,3.1,6.8,4.6c18.2,12.6,42.6,23,56.4,17.6
	c5.6-2.2,9.2-6.8,10.8-13.8c1.7-7.4,0.4-13.7-3.6-18.6c-11.4-13.8-41.6-13.4-42-13.4c-0.3,0-0.6-0.1-0.8-0.2
	c-0.2-0.2-0.4-0.4-0.6-0.6l-2.7-5.7L417.1,1294.4z"/>
<path class="st0" d="M413.2,1283.9c-1.5,2.2-0.5,5.3,0.7,7.5c5.3,10.1,22.1,21.7,31.6,21.7c2.6,0,4.4-0.9,5.4-2.7
	c3.4-6.3-5.7-16.8-16.3-23.3c-6.8-4.1-15-6.9-19.4-4.8C414.4,1282.7,413.7,1283.2,413.2,1283.9z"/>
<path d="M445.5,1314.7c-10.1,0-27.3-11.8-32.9-22.5c-1.9-3.6-2.1-6.8-0.6-9.1c0.6-0.9,1.5-1.7,2.5-2.2c5.2-2.4,14.2,0.9,20.8,4.9
	c11.1,6.7,20.8,17.9,16.9,25.3C451,1313.5,448.7,1314.7,445.5,1314.7z M418.7,1283.2c-1,0-2,0.1-2.9,0.5c-0.5,0.2-1,0.6-1.4,1.1
	c-1.2,1.7,0,4.5,0.8,6c5,9.6,21.4,20.9,30.3,20.9c2.6,0,3.5-1,4-1.9c2.8-5.3-5.9-15.3-15.7-21.3
	C428.2,1285.1,422.5,1283.1,418.7,1283.2L418.7,1283.2z"/>
<path d="M439.7,1326.4c-0.3,0-0.6-0.1-0.8-0.3c-0.2-0.2-0.4-0.4-0.6-0.7c-0.1-0.3-0.1-0.6-0.1-0.9c0.1-0.3,0.2-0.6,0.4-0.8l4.8-5
	c-2.3-0.1-4.6,0.2-6.8,0.7c-0.2,0.1-0.4,0.1-0.6,0.1c-0.2,0-0.4-0.1-0.6-0.2c-0.2-0.1-0.3-0.2-0.5-0.4c-0.1-0.2-0.2-0.3-0.3-0.5
	c-0.1-0.4-0.1-0.8,0.1-1.2c0.2-0.4,0.5-0.6,0.9-0.7c3.7-0.9,7.5-1.1,11.3-0.6c0.3,0,0.5,0.2,0.7,0.3c0.2,0.2,0.4,0.4,0.5,0.7
	c0.1,0.3,0.1,0.6,0,0.8c-0.1,0.3-0.2,0.5-0.4,0.7l-7.1,7.4C440.5,1326.2,440.1,1326.4,439.7,1326.4z"/>
<path d="M434.9,1300.8c-1.1-0.1-2.2-0.5-3.1-1.1c-0.9-0.7-1.6-1.5-2-2.6c-0.4-1-0.6-2.1-0.4-3.2c0.2-1.1,0.6-2.1,1.3-3
	c0.4-0.4,34.2-41.3,40.6-72.6c9.8-48.4-38.6-103.9-39.1-104.5c-1.1-1.2-1.6-2.8-1.5-4.4c0.1-1.6,0.8-3.1,2-4.2
	c1.2-1.1,2.8-1.6,4.4-1.5c1.6,0.1,3.1,0.8,4.2,2c2.2,2.4,52.9,60.7,41.9,114.9c-7,34.4-41.7,76.3-43.1,78c-0.6,0.7-1.4,1.3-2.3,1.7
	C436.8,1300.8,435.9,1300.9,434.9,1300.8z"/>
<path class="st2" d="M567.9,1080.8c-0.5-3.6-6.2-15.3-15.3-32.1c0,0-80.4,62.3-179.8,61.9c-84.7-0.3-177.5-40.7-203.2-52.7
	c-7.1,16.2-10.7,28-9.5,32.7c3.7,14,38.5,33.7,84.8,48c43.8,13.9,111.6,21.8,165.9,15.2C495.9,1143.6,570.6,1100.7,567.9,1080.8z"/>
<path d="M369.6,1157.7c-42.5,0-89.5-6.4-125-17.6c-47.5-14.7-82-34.4-85.9-49.1c-1.3-4.9,1.8-16,9.5-33.7c0.1-0.2,0.2-0.4,0.3-0.5
	c0.1-0.1,0.3-0.2,0.5-0.3c0.2-0.1,0.4-0.1,0.6-0.1c0.2,0,0.4,0,0.6,0.1c26.3,12.2,118.5,52.2,202.5,52.6h0.9
	c97.3,0,177.1-61,178-61.6c0.2-0.1,0.4-0.2,0.6-0.3c0.2-0.1,0.4-0.1,0.6,0c0.2,0,0.4,0.1,0.6,0.3c0.2,0.1,0.3,0.3,0.4,0.5
	c9.7,18,14.9,29,15.4,32.6c0.5,3.6-1,7.5-4.5,11.9c-18.2,23.5-84.4,54.4-153.8,62.8C397.4,1156.9,383.5,1157.7,369.6,1157.7z
	 M245.4,1137.2c47.4,15,115.3,21.2,165.3,15.2c67.7-8.2,134.4-39.1,151.8-61.6c2.9-3.7,4.2-7.1,3.9-9.7c-0.2-1.8-2.4-8.1-14.2-30
	c-11.2,8.2-87.2,61.2-178.4,61.2h-0.9c-83.2-0.3-174.3-39.2-202.4-52.2c-8.6,19.9-9.5,27.5-8.8,30.3
	C165.1,1103.5,200.4,1123.3,245.4,1137.2z"/>
<path d="M392,986.1c-0.3,0-0.6-0.1-0.8-0.2c-0.2-0.1-0.4-0.4-0.6-0.6c-0.2-0.4-0.2-0.8-0.1-1.2c0.1-0.4,0.4-0.7,0.7-0.9
	c1.2-0.6,4.6-2.8,5.4-5.4c0.1-0.5,0.2-1.1,0.1-1.6c-0.1-0.5-0.3-1-0.6-1.5c-0.2-0.5-0.6-0.8-1-1.2c-0.4-0.3-0.9-0.5-1.4-0.6
	c-2.3-0.4-5.4,1.8-6.4,2.6c-0.2,0.1-0.3,0.2-0.5,0.3c-0.2,0.1-0.4,0.1-0.6,0.1c-0.2,0-0.4-0.1-0.6-0.2s-0.3-0.2-0.5-0.4
	c-0.1-0.2-0.2-0.3-0.3-0.5c-0.1-0.2-0.1-0.4-0.1-0.6c0-0.2,0.1-0.4,0.2-0.6c0.1-0.2,0.2-0.3,0.4-0.5c0.5-0.4,4.7-4,8.8-3.3
	c0.9,0.2,1.8,0.5,2.6,1.1c0.8,0.6,1.4,1.3,1.9,2.1c0.5,0.8,0.8,1.7,1,2.6c0.1,0.9,0.1,1.9-0.2,2.8c-1.3,4.4-6.7,7.1-6.9,7.3
	C392.5,986.1,392.2,986.1,392,986.1z"/>
<path d="M340.3,991.9c58.6,19.8,93.7-3.6,93.7-3.6s5,58.8-43.2,60.5C340.8,1050.4,340.3,991.9,340.3,991.9z"/>
<path class="st0" d="M369.8,1016.4c10-5.1,18.5,2.4,18.5,2.4s9.5-9,19.8-3.7c5.8,3,11.6,10.6,15.6,16.7c-6.4,9.2-16.6,16.3-33,16.9
	c-12.6,0.4-22-3-29.1-8.2C361.6,1034,362.3,1020.3,369.8,1016.4z"/>
<path d="M394.5,1036.4c-0.3,0-0.7-0.1-1-0.3c-0.3-0.2-0.5-0.5-0.5-0.9c0-0.2-5-20.8-12.7-26.2c-0.2-0.3-0.4-0.6-0.4-0.9
	c0-0.4,0.1-0.7,0.3-1c0.2-0.3,0.5-0.5,0.9-0.6c0.3-0.1,0.7,0,1,0.1c8.7,6.1,13.7,27.1,13.9,28c0,0.2,0.1,0.4,0,0.6
	c0,0.2-0.1,0.4-0.2,0.6c-0.1,0.2-0.2,0.3-0.4,0.4c-0.2,0.1-0.3,0.2-0.5,0.2C394.8,1036.4,394.6,1036.4,394.5,1036.4z"/>
<path d="M335.4,1000.5c-0.1,0-0.3,0-0.4,0c-0.2,0-0.4-0.1-0.5-0.2c-0.2-0.1-0.3-0.3-0.4-0.4c-0.1-0.2-0.2-0.4-0.2-0.6s0-0.4,0-0.6
	c2.2-8.8,8.8-11.2,13.9-11.8c0.4,0,0.8,0.1,1.1,0.3c0.3,0.3,0.5,0.6,0.6,1c0,0.4-0.1,0.8-0.3,1.1c-0.3,0.3-0.6,0.5-1,0.6
	c-6.1,0.7-9.9,3.9-11.3,9.5c-0.1,0.3-0.3,0.6-0.6,0.8C336,1000.4,335.7,1000.5,335.4,1000.5z"/>
<path d="M440.9,996.8c-0.3,0-0.6-0.1-0.9-0.3c-0.3-0.2-0.5-0.4-0.6-0.7c-2.1-5.8-6.1-8.7-12-8.7c-0.4,0-0.8-0.2-1.1-0.4
	c-0.3-0.3-0.4-0.7-0.4-1.1c0-0.4,0.2-0.8,0.4-1.1c0.3-0.3,0.7-0.4,1.1-0.4c9,0,13,5.8,14.8,10.7c0.1,0.2,0.1,0.4,0.1,0.6
	c0,0.2-0.1,0.4-0.1,0.6c-0.1,0.2-0.2,0.3-0.3,0.5c-0.1,0.1-0.3,0.2-0.5,0.3C441.3,996.7,441.1,996.8,440.9,996.8z"/>
<path d="M386.4,1059.8c-5.4,0-17.8-0.9-26.9-8.1c-0.2-0.1-0.3-0.3-0.4-0.5c-0.1-0.2-0.2-0.4-0.2-0.6c0-0.2,0-0.4,0.1-0.6
	c0.1-0.2,0.1-0.4,0.3-0.5c0.1-0.2,0.3-0.3,0.5-0.4c0.2-0.1,0.4-0.2,0.6-0.2c0.2,0,0.4,0,0.6,0.1c0.2,0.1,0.4,0.1,0.5,0.3
	c10.6,8.5,27.2,7.4,27.4,7.4c0.2,0,0.4,0,0.6,0c0.2,0.1,0.4,0.2,0.5,0.3c0.2,0.1,0.3,0.3,0.4,0.5c0.1,0.2,0.2,0.4,0.2,0.6
	c0,0.2,0,0.4-0.1,0.6c-0.1,0.2-0.2,0.4-0.3,0.5c-0.1,0.2-0.3,0.3-0.5,0.4c-0.2,0.1-0.4,0.1-0.6,0.1
	C388.9,1059.7,388,1059.8,386.4,1059.8z"/>
<path d="M388.7,1050.3c-12.9,0-23.6-4-31.9-12c-17.6-16.9-18-45.2-18-46.4c0-0.2,0.1-0.5,0.2-0.7c0.1-0.2,0.3-0.4,0.5-0.5
	c0.2-0.1,0.4-0.2,0.7-0.3c0.2,0,0.5,0,0.7,0.1c57.2,19.4,92-3.2,92.4-3.5c0.2-0.1,0.5-0.2,0.7-0.3s0.5,0,0.8,0.1
	c0.2,0.1,0.4,0.3,0.6,0.5c0.2,0.2,0.2,0.5,0.3,0.7c0.1,1.2,2.4,30.5-13.7,48.6c-7.6,8.5-18,13.1-31,13.5L388.7,1050.3z M341.9,994
	c0.5,6.9,3,28.7,17,42.1c8.1,7.8,18.8,11.5,31.8,11.1c12.1-0.4,21.9-4.6,28.9-12.5c12.6-14.2,13.2-36.6,13-43.9
	C424,995.4,391.1,1009.9,341.9,994z"/>
<path class="st0" d="M354.3,975.2c12.5-0.6,22.2-11.6,21.6-24.7c-0.6-13.1-11.2-23.2-23.7-22.6c-12.5,0.6-22.2,11.6-21.6,24.7
	C331.2,965.6,341.8,975.8,354.3,975.2z"/>
<path d="M353.3,976.7c-12.9,0-23.6-10.6-24.2-24.1c-0.6-13.9,9.7-25.7,23-26.3c3.2-0.1,6.4,0.4,9.4,1.5c3,1.1,5.7,2.9,8,5.1
	c4.8,4.6,7.6,10.8,7.8,17.5c0.6,13.9-9.7,25.7-23,26.3L353.3,976.7z M332.1,952.5c0.5,12.2,10.4,21.8,22.1,21.2
	c11.7-0.6,20.7-10.9,20.1-23.1c-0.2-5.8-2.7-11.4-6.9-15.4c-2-2-4.4-3.5-7-4.5c-2.6-1-5.4-1.4-8.2-1.3
	C340.6,929.9,331.6,940.3,332.1,952.5z"/>
<path d="M340.2,932.1c3.5-2.6,7.6-4,11.9-4.2c12.5-0.6,23.1,9.6,23.7,22.7c0.6,13.1-9.1,24.1-21.6,24.7c-4.3,0.2-8.6-0.9-12.3-3.1
	L340.2,932.1z"/>
<path d="M352.2,929.4c-0.4,0-0.8-0.2-1-0.4c-0.3-0.3-0.4-0.6-0.5-1l-0.5-10.8c0-0.2,0-0.4,0.1-0.6c0.1-0.2,0.2-0.4,0.3-0.5
	c0.1-0.2,0.3-0.3,0.5-0.4c0.2-0.1,0.4-0.1,0.6-0.2c0.2,0,0.4,0,0.6,0.1c0.2,0.1,0.4,0.2,0.5,0.3c0.1,0.1,0.3,0.3,0.3,0.5
	c0.1,0.2,0.1,0.4,0.1,0.6l0.5,10.9c0,0.2,0,0.4-0.1,0.6c-0.1,0.2-0.2,0.4-0.3,0.5c-0.1,0.1-0.3,0.3-0.5,0.3
	C352.7,929.4,352.5,929.4,352.2,929.4L352.2,929.4z"/>
<path d="M361.7,931.6c-0.2,0-0.5-0.1-0.7-0.2c-0.2-0.1-0.3-0.2-0.5-0.4c-0.1-0.2-0.2-0.3-0.3-0.5c-0.1-0.2-0.1-0.4-0.1-0.6
	c0-0.2,0.1-0.4,0.2-0.6l5-9.7c0.2-0.4,0.5-0.6,0.9-0.7c0.4-0.1,0.8-0.1,1.2,0.1c0.4,0.2,0.6,0.5,0.7,0.9c0.1,0.4,0.1,0.8-0.1,1.2
	l-5,9.6c-0.1,0.3-0.3,0.5-0.5,0.6C362.3,931.5,362,931.6,361.7,931.6z"/>
<path d="M342.9,932.4c-0.3,0-0.5-0.1-0.7-0.2c-0.2-0.1-0.4-0.3-0.6-0.5l-5.8-9.2c-0.1-0.2-0.2-0.4-0.2-0.6c0-0.2,0-0.4,0-0.6
	c0-0.2,0.1-0.4,0.2-0.5c0.1-0.2,0.3-0.3,0.4-0.4c0.2-0.1,0.4-0.2,0.6-0.2c0.2,0,0.4,0,0.6,0c0.2,0,0.4,0.1,0.5,0.2
	c0.2,0.1,0.3,0.3,0.4,0.4l5.8,9.2c0.1,0.2,0.2,0.5,0.2,0.8s-0.1,0.5-0.2,0.8c-0.1,0.2-0.3,0.4-0.6,0.6
	C343.5,932.4,343.2,932.4,342.9,932.4z"/>
<path class="st0" d="M353.2,950.3l-16.5,7.1l-0.6-12.6L353.2,950.3z"/>
<path class="st0" d="M421.7,972.2c12.5-0.6,22.2-11.6,21.6-24.7c-0.6-13.1-11.2-23.2-23.7-22.6c-12.5,0.6-22.2,11.6-21.6,24.7
	C398.6,962.6,409.2,972.8,421.7,972.2z"/>
<path d="M420.8,973.7c-12.9,0-23.6-10.6-24.2-24.1c-0.6-13.9,9.7-25.7,23-26.2c3.2-0.1,6.4,0.4,9.4,1.5c3,1.1,5.7,2.9,8,5.1
	c4.7,4.6,7.6,10.9,7.8,17.5c0.3,6.6-1.9,13.1-6.3,18.1c-2.1,2.4-4.7,4.4-7.5,5.8c-2.9,1.4-6,2.2-9.2,2.4L420.8,973.7z M399.6,949.5
	c0.5,12.2,10.4,21.8,22.1,21.2c2.8-0.1,5.5-0.8,8-2.1c2.5-1.2,4.8-3,6.6-5.1c3.8-4.4,5.7-10.1,5.5-16c-0.3-5.8-2.7-11.3-6.9-15.4
	c-2-2-4.4-3.5-7-4.5c-2.6-1-5.4-1.4-8.2-1.3C408.1,926.9,399,937.3,399.6,949.5z"/>
<path d="M407.7,929.1c3.5-2.6,7.6-4,11.9-4.2c12.5-0.6,23.1,9.6,23.7,22.7c0.6,13.1-9.1,24.1-21.6,24.7c-4.3,0.2-8.6-0.9-12.3-3.1
	L407.7,929.1z"/>
<path d="M419.6,926.4c-0.4,0-0.8-0.2-1-0.4c-0.3-0.3-0.4-0.6-0.5-1l-0.5-10.8c0-0.2,0-0.4,0.1-0.6c0.1-0.2,0.2-0.4,0.3-0.5
	c0.1-0.1,0.3-0.3,0.5-0.4c0.2-0.1,0.4-0.1,0.6-0.1c0.4,0,0.8,0.1,1.1,0.4c0.3,0.3,0.5,0.6,0.5,1l0.5,10.9c0,0.2,0,0.4-0.1,0.6
	c-0.1,0.2-0.2,0.4-0.3,0.5c-0.1,0.1-0.3,0.3-0.5,0.4C420.1,926.4,419.9,926.4,419.6,926.4L419.6,926.4z"/>
<path d="M429.2,928.6c-0.2,0-0.5-0.1-0.7-0.2c-0.2-0.1-0.3-0.2-0.5-0.4c-0.1-0.2-0.2-0.3-0.3-0.5c-0.1-0.2-0.1-0.4-0.1-0.6
	c0-0.2,0.1-0.4,0.2-0.6l5-9.7c0.2-0.4,0.5-0.6,0.9-0.7c0.4-0.1,0.8-0.1,1.2,0.1c0.4,0.2,0.6,0.5,0.7,0.9c0.1,0.4,0.1,0.8-0.1,1.2
	l-5,9.7c-0.1,0.3-0.3,0.5-0.6,0.6C429.7,928.5,429.5,928.6,429.2,928.6z"/>
<path d="M410.4,929.5c-0.3,0-0.5-0.1-0.7-0.2c-0.2-0.1-0.4-0.3-0.6-0.5l-5.8-9.1c-0.1-0.2-0.2-0.4-0.2-0.6c0-0.2,0-0.4,0-0.6
	c0-0.2,0.1-0.4,0.2-0.5c0.1-0.2,0.3-0.3,0.4-0.4c0.2-0.1,0.4-0.2,0.6-0.2c0.2,0,0.4,0,0.6,0c0.2,0,0.4,0.1,0.5,0.2
	c0.2,0.1,0.3,0.3,0.4,0.4l5.8,9.2c0.2,0.3,0.3,0.7,0.2,1.1c-0.1,0.4-0.3,0.7-0.7,0.9C410.9,929.4,410.7,929.5,410.4,929.5z"/>
<path class="st0" d="M420.6,947.3l-16.5,7.1l-0.6-12.6L420.6,947.3z"/>
<path class="st0" d="M421.2,879.7c7.9-2.9-3.6-22.1-6.7-20.5C411.4,860.9,413.3,882.7,421.2,879.7z"/>
<path class="st0" d="M383.4,837.5c8.2-0.7,0.8-18.2-2.4-17.6C377.8,820.6,375.2,838.2,383.4,837.5z"/>
<path class="st0" d="M348.8,884.2c8,2,6.6-17,3.3-17.4C348.7,866.3,340.8,882.2,348.8,884.2z"/>
<path class="st0" d="M323.4,836.1c7.1,4.2,11.2-14.3,8.2-15.7C328.5,818.9,316.3,831.9,323.4,836.1z"/>
<path class="st0" d="M231.7,986.4c8,2,6.6-16.9,3.3-17.4C231.7,968.5,223.7,984.4,231.7,986.4z"/>
<path class="st0" d="M488.1,1023.7c8.3,0,2.3-18.1-1-17.7C483.7,1006.3,479.8,1023.7,488.1,1023.7z"/>
<path class="st0" d="M404.2,1091.9c8.2,1.1,4.8-17.6,1.5-17.7C402.3,1074.1,396,1090.8,404.2,1091.9z"/>
<path class="st0" d="M522.6,1049.2c8-2.2-2.5-18-5.6-16.8C513.9,1033.6,514.6,1051.3,522.6,1049.2z"/>
<path class="st0" d="M272.5,910.9c7.3,4.3,15-16.7,11.8-18.1C281.1,891.5,265.2,906.6,272.5,910.9z"/>
<path class="st0" d="M262.5,1046.8c8.4,0.6,6-21.6,2.5-21.4C261.5,1025.6,254.1,1046.2,262.5,1046.8z"/>
<path class="st0" d="M340.8,1097.1c7.7,0.9,4.5-17.3,1.4-17.3C339,1079.8,333.1,1096.2,340.8,1097.1z"/>
<path class="st0" d="M200.5,1042c6.9,3.6,10.5-14.4,7.6-15.6C205.2,1025.3,193.7,1038.3,200.5,1042z"/>
<path class="st0" d="M289.8,1005.9c8.5,0.6,5.8-21.7,2.3-21.4C288.7,984.7,281.5,1005.4,289.8,1005.9z"/>
<path class="st0" d="M287.9,1078.7c8.3,1.2,7.4-21.1,4-21.2C288.4,1057.5,279.5,1077.5,287.9,1078.7z"/>
<path class="st0" d="M468.7,1071.2c7.8-3.1-4.3-19.8-7.3-18.2C458.5,1054.6,460.9,1074.2,468.7,1071.2z"/>
<path class="st0" d="M482,971c7.8-3.1-4.3-19.8-7.3-18.2C471.7,954.5,474.2,974.1,482,971z"/>
<path d="M135.2,843.5c0.6-1.2,1.5-2.2,2.7-2.9c1.2-0.6,2.6-0.8,3.9-0.6c1.3,0.3,2.5,0.9,3.4,2c0.9,1,1.4,2.3,1.5,3.7
	c1.5,17.2,6.4,33.9,14.4,49.1c17,31.5,45.2,46.9,83.9,45.8c1.6,0,3.2,0.6,4.3,1.7c1.2,1.1,1.8,2.6,1.9,4.2c0,1.6-0.6,3.2-1.7,4.3
	c-1.1,1.2-2.6,1.8-4.2,1.9c-54.5,1.4-81.7-27.8-95-52.6c-8.8-16.7-14.1-35.1-15.7-53.9C134.7,845.3,134.8,844.3,135.2,843.5z"/>
<path class="st0" d="M101.1,816.4c0,0-9.2-5.2-11.4-21c-2.3-15.8,14.4-15.7,16.7-13.2c0.2-2.1,1-4.2,2.1-5.9
	c1.2-1.8,2.8-3.2,4.6-4.3c6.6-3.9,13,3.5,13,3.5s2.5-11.3,12.2-7.5c9.7,3.8,15.5,18,12.9,23.1c0,0,15.1,7.8,15.1,18.6
	c0,10.8-10.1,17.2-10.1,17.2s12.4,7.9,0,17s-42.9,18.2-42.1-2.7C114.3,841.1,94.5,838.6,101.1,816.4z"/>
<path d="M89.2,786.6c1.2-2.5,3.2-4.6,5.7-5.8c3.3-1.5,7-1.9,10.5-1c0.5-1.9,1.4-3.8,2.6-5.4c1.2-1.6,2.8-2.9,4.5-3.9
	c4.9-2.9,10-0.5,13.1,2.1c1-2.5,2.8-4.7,5.1-6.1c1.3-0.6,2.7-1,4.1-1c1.4,0,2.9,0.3,4.2,0.9c6.5,2.6,11,9.2,13.1,14.5
	c1.3,2.9,1.7,6.1,1.2,9.3c3.6,2.2,14.8,9.5,14.7,19.4c0,8.8-6.1,14.8-9.1,17.2c1.8,1.6,4.4,4.5,4.5,8.3c0.1,3.5-1.9,6.9-6.1,10
	c-9.5,7-28.7,13.6-38.3,8.5c-2.8-1.5-6.1-4.6-6.2-11.1c-4.8-1-9-3.8-11.8-7.8c-3-4.6-3.5-10.5-1.6-17.6c-2.6-1.9-9.2-8-11.2-21.5
	C87.7,792.6,88,789.5,89.2,786.6z"/>
<path class="st0" d="M89.2,786.6c1.2-2.5,3.2-4.6,5.7-5.8c3.3-1.5,7-1.9,10.5-1c0.5-1.9,1.4-3.8,2.6-5.4c1.2-1.6,2.8-2.9,4.5-3.9
	c4.9-2.9,10-0.5,13.1,2.1c1-2.5,2.8-4.7,5.1-6.1c1.3-0.6,2.7-1,4.1-1c1.4,0,2.9,0.3,4.2,0.9c6.5,2.6,11,9.2,13.1,14.5
	c1.3,2.9,1.7,6.1,1.2,9.3c3.6,2.2,14.8,9.5,14.7,19.4c0,8.8-6.1,14.8-9.1,17.2c1.8,1.6,4.4,4.5,4.5,8.3c0.1,3.5-1.9,6.9-6.1,10
	c-9.5,7-28.7,13.6-38.3,8.5c-2.8-1.5-6.1-4.6-6.2-11.1c-4.8-1-9-3.8-11.8-7.8c-3-4.6-3.5-10.5-1.6-17.6c-2.6-1.9-9.2-8-11.2-21.5
	C87.7,792.6,88,789.5,89.2,786.6z"/>
<path d="M127.8,856.8c-3.3,0.1-6.5-0.6-9.5-2c-2.9-1.6-6.4-4.8-6.9-11.2c-4.7-1.3-8.8-4.1-11.6-8.1c-3.1-4.7-3.8-10.7-2-17.8
	c-3.2-2.7-9.1-9.1-10.9-21.8c-0.6-3.3-0.2-6.7,1.1-9.8c1.3-2.9,3.6-5.2,6.4-6.5c3.1-1.5,6.7-2,10.1-1.5c1.4-3.7,4-6.8,7.4-8.8
	c4-2.3,8.8-1.9,13.3,1.1c1.1-2.2,2.8-3.9,5-5.1c1.5-0.7,3.1-1.1,4.8-1.2c1.7,0,3.3,0.3,4.8,1c7,2.8,11.8,9.8,13.9,15.4
	c1.2,2.9,1.7,6,1.5,9.1c4.4,2.7,14.6,10.1,14.5,20.1c0,8.2-4.8,14-8.4,17.3c2.2,2.2,3.6,5.1,3.8,8.1c0.1,4.1-2.1,7.8-6.7,11.2
	C151,851.5,138.2,856.8,127.8,856.8z M90.6,787.2c-1,2.6-1.3,5.4-0.8,8.1c1.8,12.7,8,18.6,10.6,20.5c0.2,0.2,0.4,0.4,0.5,0.7
	c0.1,0.3,0.1,0.6,0,0.9c-1.8,6.7-1.3,12.2,1.4,16.4c3.2,4.8,8.7,6.6,10.9,7.1c0.3,0.1,0.6,0.2,0.9,0.5c0.2,0.3,0.3,0.6,0.4,0.9
	c0.1,4.6,1.9,7.9,5.4,9.8c9,4.8,27.8-1.7,36.7-8.3c3.8-2.8,5.6-5.7,5.5-8.7c-0.1-3.3-2.6-5.9-4-7.2c-0.2-0.2-0.3-0.3-0.4-0.5
	c-0.1-0.2-0.1-0.4-0.1-0.7c0-0.2,0.1-0.4,0.2-0.6c0.1-0.2,0.2-0.4,0.4-0.5c3.2-2.6,8.5-8.1,8.5-16c0-9.1-10.7-16.1-14-18
	c-0.3-0.2-0.5-0.4-0.6-0.7c-0.1-0.3-0.2-0.6-0.1-0.9c0.4-2.8,0-5.8-1.1-8.4c-1.9-5-6.1-11.2-12.2-13.7c-1.1-0.5-2.3-0.8-3.5-0.8
	c-1.2,0-2.4,0.3-3.5,0.8c-2,1.2-3.6,3.1-4.4,5.3c-0.1,0.2-0.2,0.4-0.4,0.6c-0.2,0.2-0.4,0.3-0.6,0.3c-0.2,0.1-0.5,0.1-0.7,0
	c-0.2-0.1-0.4-0.2-0.6-0.3c-1.8-1.5-6.6-4.7-11.4-1.9c-1.6,0.9-3,2.1-4.1,3.5c-1.1,1.4-1.9,3.1-2.4,4.8c-0.1,0.4-0.4,0.7-0.7,0.9
	c-0.2,0.1-0.4,0.2-0.6,0.2c-0.2,0-0.4,0-0.6-0.1c-3.1-0.8-6.4-0.4-9.4,1C93.3,783.2,91.6,785,90.6,787.2L90.6,787.2z"/>
<path d="M112,817c-0.3,0-0.7,0-1-0.1c-6.3-0.9-11-9.7-11.2-10.1c-0.1-0.2-0.1-0.4-0.2-0.6c0-0.2,0-0.4,0.1-0.6s0.2-0.4,0.3-0.5
	c0.1-0.2,0.3-0.3,0.5-0.4c0.2-0.1,0.4-0.1,0.6-0.2c0.2,0,0.4,0,0.6,0.1s0.4,0.2,0.5,0.3c0.2,0.1,0.3,0.3,0.4,0.5
	c1.1,2.2,5,7.9,8.9,8.5c0.9,0.1,1.7-0.1,2.6-0.4c0.8-0.4,1.5-0.9,2-1.6c5.8-6.1-6.6-24.5-11.9-31.1c-0.3-0.3-0.4-0.7-0.3-1.1
	c0-0.4,0.3-0.8,0.6-1c0.3-0.3,0.7-0.4,1.1-0.3c0.4,0,0.8,0.3,1,0.6c2.1,2.6,20.4,26,11.8,35.1c-0.8,0.9-1.7,1.6-2.8,2.2
	C114.4,816.6,113.2,816.9,112,817z"/>
<path d="M129.9,783.8c-0.3,0-0.6-0.1-0.8-0.3c-0.3-0.2-0.4-0.4-0.6-0.7c-2.1-5.3-4.2-9.5-4.2-9.5c-0.2-0.4-0.2-0.8-0.1-1.2
	c0.1-0.4,0.4-0.7,0.8-0.9c0.4-0.2,0.8-0.2,1.2-0.1c0.4,0.1,0.7,0.4,0.9,0.8c0.1,0.2,2.2,4.3,4.4,9.7c0.1,0.2,0.1,0.4,0.1,0.6
	c0,0.2,0,0.4-0.1,0.6c-0.1,0.2-0.2,0.3-0.3,0.5c-0.1,0.1-0.3,0.2-0.5,0.3C130.3,783.7,130.1,783.8,129.9,783.8z"/>
<path d="M125.8,811.9c-2.6-0.1-5.1-0.6-7.5-1.7c-0.2-0.1-0.3-0.2-0.5-0.4c-0.1-0.1-0.2-0.3-0.3-0.5c-0.1-0.2-0.1-0.4-0.1-0.6
	c0-0.2,0.1-0.4,0.1-0.6c0.1-0.2,0.2-0.3,0.4-0.5c0.1-0.1,0.3-0.2,0.5-0.3c0.2-0.1,0.4-0.1,0.6-0.1c0.2,0,0.4,0.1,0.6,0.1
	c0.1,0.1,8.1,3.8,12.1-1.2c0.3-0.3,0.6-0.5,1-0.6c0.4,0,0.8,0.1,1.1,0.3c0.3,0.3,0.5,0.6,0.6,1c0,0.4-0.1,0.8-0.3,1.1
	c-1,1.2-2.3,2.2-3.7,2.9C128.9,811.6,127.4,811.9,125.8,811.9z"/>
<path d="M132,834.4c-0.3,0-0.6-0.1-0.9-0.3c-0.3-0.2-0.4-0.4-0.6-0.7c-2.6-6.6-2.7-12.1-0.6-16.5c1.2-2.5,3.2-4.5,5.6-5.9
	c-5.5-3.8-18.3-14.3-13.2-25c0.5-1.2,1.4-2.3,2.4-3.2c1-0.9,2.2-1.5,3.5-1.8c9.5-2.7,25.1,7.5,25.7,8c0.3,0.2,0.6,0.6,0.6,1
	s0,0.8-0.2,1.1c-0.2,0.3-0.6,0.6-1,0.6s-0.8,0-1.1-0.2c-0.1-0.1-15-9.9-23.2-7.6c-0.9,0.2-1.7,0.7-2.4,1.2c-0.7,0.6-1.2,1.3-1.6,2.2
	c-5.1,10.8,14.2,22.6,14.4,22.7c0.3,0.2,0.5,0.4,0.6,0.6c0.1,0.3,0.2,0.6,0.1,0.9c0,0.3-0.2,0.6-0.4,0.8c-0.2,0.2-0.4,0.4-0.7,0.5
	c-2.8,1-5.1,2.9-6.4,5.5c-1.8,3.6-1.5,8.3,0.7,14c0.1,0.4,0.1,0.8,0,1.2c-0.2,0.4-0.5,0.7-0.8,0.8
	C132.4,834.3,132.2,834.4,132,834.4z"/>
<path d="M899.7,1300.4c-1-0.8-1.7-1.9-2-3.2s-0.3-2.6,0.2-3.8c0.5-1.2,1.3-2.2,2.3-3c1.1-0.7,2.3-1.1,3.6-1.1
	c93.5,2.1,144.4-47.4,144.9-47.9c1.2-1.1,2.7-1.8,4.4-1.7c1.6,0,3.2,0.7,4.3,1.8c1.2,1.2,1.8,2.7,1.8,4.3c0,1.6-0.6,3.2-1.8,4.4
	c-2.2,2.2-55.2,53.8-154,51.5C902.2,1301.8,900.8,1301.3,899.7,1300.4z"/>
<path class="st0" d="M909.3,1269.2c0,0,13.2,2.2,12.2,22.7c-1.1,24.5-12.6,34.1-36.3,32.7c-21.8-1.2-25.1-10.9-25-36.3
	c0.1-25.4-21.7-45.8,1.8-65.8C883.3,1204.6,921.4,1228.2,909.3,1269.2z"/>
<path d="M889.6,1326.3c-1.4,0-2.9,0-4.4-0.1c-22.9-1.3-26.6-12.3-26.5-37.9c0-8.4-2.5-16.3-4.8-24c-4.7-15-9.1-29.2,7.2-42.9
	c9.7-8.2,23.4-8.6,34.9-1.1c11.2,7.3,21.6,24.1,15.2,48c3.7,1.4,12.7,6.7,11.9,23.8c-0.6,12.6-3.9,21.5-10.1,27
	C907.6,1323.9,899.9,1326.3,889.6,1326.3z M878.7,1218c-5.7,0-11.3,2-15.7,5.7c-14.7,12.4-10.8,25-6.2,39.6c2.5,7.9,5,16,5,24.9
	c-0.1,25.5,3.1,33.6,23.5,34.8c11.7,0.7,20.1-1.4,25.7-6.4c5.5-5,8.5-13.1,9-24.9c0.9-18.7-10.5-21-10.9-21.1
	c-0.2,0-0.4-0.1-0.6-0.2c-0.2-0.1-0.3-0.3-0.5-0.5s-0.2-0.4-0.2-0.6c0-0.2,0-0.4,0-0.6c6.8-23-2.5-38.8-13.5-46
	C889.7,1219.7,884.3,1218.1,878.7,1218z"/>
<path d="M878.4,1325.4c-0.4,0-0.8-0.1-1.1-0.4c-0.3-0.3-0.5-0.7-0.5-1.1c0-0.4,0.1-0.8,0.4-1.1c0.3-0.3,0.7-0.5,1.1-0.5
	c7.5-0.5,11.6-12.3,10.5-30.7c-0.6-9.4,1.2-16.5,3-23.4c2.5-9.7,4.6-18-0.4-31.1c-5.9-15.5-22.6-16.4-23.3-16.5
	c-0.2,0-0.4-0.1-0.6-0.2c-0.2-0.1-0.4-0.2-0.5-0.4s-0.2-0.3-0.3-0.5c-0.1-0.2-0.1-0.4-0.1-0.6c0-0.2,0.1-0.4,0.2-0.6
	c0.1-0.2,0.2-0.4,0.4-0.5c0.2-0.1,0.3-0.2,0.5-0.3c0.2-0.1,0.4-0.1,0.6-0.1c0.2,0,19.5,1.1,26.1,18.5c5.3,14,3,23.2,0.5,33
	c-1.7,6.6-3.4,13.5-2.9,22.4c1.2,20.9-3.6,33.3-13.4,33.9L878.4,1325.4z"/>
<path d="M904.6,1280.6c-0.3,0-0.5-0.1-0.8-0.2c-0.2-0.1-0.4-0.3-0.6-0.5c-0.1-0.2-0.2-0.5-0.2-0.8c0-0.3,0.1-0.5,0.2-0.8
	c2.1-4.2,4.4-8.9,4.7-9.6c0.1-0.4,0.4-0.7,0.8-0.9c0.4-0.2,0.8-0.2,1.2-0.1c0.4,0.1,0.7,0.4,0.9,0.7c0.2,0.4,0.2,0.8,0.1,1.2
	c-0.3,1-3.5,7.5-4.9,10.1c-0.1,0.3-0.3,0.5-0.6,0.6C905.1,1280.5,904.9,1280.6,904.6,1280.6z"/>
<path d="M1363,1300.4c1-0.8,1.7-1.9,2-3.2c0.3-1.2,0.3-2.6-0.2-3.8c-0.5-1.2-1.3-2.2-2.3-3s-2.3-1.1-3.6-1.1
	c-93.6,2.1-144.4-47.4-144.9-47.9c-0.6-0.6-1.3-1.1-2-1.4c-0.8-0.3-1.6-0.5-2.4-0.5c-0.8,0-1.6,0.2-2.4,0.5c-0.8,0.3-1.5,0.8-2,1.4
	c-0.6,0.6-1,1.3-1.4,2c-0.3,0.8-0.5,1.6-0.5,2.4c0,0.8,0.2,1.6,0.5,2.4c0.3,0.8,0.8,1.4,1.4,2c2.2,2.2,55.2,53.8,154,51.5
	C1360.6,1301.8,1362,1301.3,1363,1300.4z"/>
<path class="st0" d="M1353.5,1269.2c0,0-13.2,2.2-12.2,22.7c1.1,24.5,12.6,34.1,36.3,32.7c21.8-1.2,25.1-10.9,25-36.3
	c-0.1-25.4,21.7-45.9-1.8-65.8C1379.5,1204.6,1341.3,1228.2,1353.5,1269.2z"/>
<path d="M1373.2,1326.3c-10.4,0-18.1-2.4-23.5-7.3c-6.2-5.6-9.5-14.4-10.1-27c-0.8-17.1,8.1-22.3,11.9-23.8
	c-6.4-23.8,4.1-40.7,15.2-48c11.5-7.5,25.3-7.1,34.9,1.1c16.3,13.7,11.9,27.9,7.2,42.9c-2.4,7.7-4.9,15.6-4.8,24
	c0.1,25.6-3.6,36.6-26.5,37.9C1376.1,1326.2,1374.6,1326.3,1373.2,1326.3z M1353.7,1270.7c-0.5,0.1-11.8,2.4-11,21.1
	c0.5,11.7,3.5,19.9,9,24.9c5.5,5,13.9,7.1,25.7,6.4c20.4-1.2,23.6-9.3,23.5-34.8c0-8.9,2.5-17.1,5-24.9c4.5-14.6,8.5-27.2-6.2-39.6
	c-8.6-7.3-20.9-7.6-31.2-0.8c-11,7.2-20.3,23-13.5,46c0.1,0.2,0.1,0.4,0,0.7c0,0.2-0.1,0.4-0.2,0.6c-0.1,0.2-0.3,0.3-0.5,0.5
	C1354.1,1270.6,1353.9,1270.7,1353.7,1270.7L1353.7,1270.7z"/>
<path d="M1384.3,1325.4h-0.1c-9.7-0.7-14.6-13-13.4-33.9c0.5-9-1.2-15.8-2.9-22.4c-2.5-9.8-4.9-19,0.5-33
	c6.6-17.4,25.9-18.5,26.1-18.5c0.4,0,0.8,0.2,1,0.5c0.3,0.3,0.4,0.6,0.5,1c0,0.4-0.1,0.8-0.4,1.1c-0.3,0.3-0.6,0.5-1,0.5
	c-0.7,0-17.4,1-23.3,16.5c-5,13.1-2.9,21.4-0.4,31.1c1.8,6.9,3.6,13.9,3,23.4c-1.1,18.4,2.9,30.1,10.5,30.7c0.4,0,0.8,0.2,1.1,0.5
	c0.3,0.3,0.4,0.7,0.4,1.1c0,0.4-0.2,0.8-0.5,1.1C1385.2,1325.3,1384.8,1325.4,1384.3,1325.4L1384.3,1325.4z"/>
<path d="M1358.2,1280.6c-0.3,0-0.6-0.1-0.8-0.2c-0.2-0.1-0.4-0.4-0.6-0.6c-1.4-2.7-4.6-9.1-4.9-10.1c-0.1-0.4,0-0.8,0.2-1.1
	c0.2-0.3,0.5-0.6,0.9-0.7c0.4-0.1,0.8-0.1,1.1,0.1c0.4,0.2,0.6,0.5,0.8,0.9c0.2,0.6,2.5,5.4,4.7,9.6c0.2,0.4,0.2,0.8,0.1,1.2
	c-0.1,0.4-0.4,0.7-0.8,0.9C1358.7,1280.6,1358.4,1280.6,1358.2,1280.6z"/>
<path class="st2" d="M1126.8,990c0,0-118.7-67.7-103.8-91.2c12.6-19.9,70.3,34.7,70.3,34.7s-59.9-82-43.7-92.9
	c16.2-10.9,56.9,60.7,56.9,60.7s-18.8-85-3.7-87.6c15.1-2.6,32,73.2,32,73.2s7.8-75,23-73.3c15.3,1.8,0,87.3,0,87.3
	s38.2-73,48.6-67.2c10.4,5.9-14.9,69.3-14.9,69.3s44.5-49.4,54.6-38.2c10.2,11.1-41.8,63.8-41.8,63.8s54.4-37.3,64.2-22
	c9.8,15.3-55.2,71.4-86.9,79.3C1149.9,993.7,1126.8,990,1126.8,990z"/>
<path d="M1141.4,992.4c-5,0.1-9.9-0.2-14.9-0.9c-0.2,0-0.4-0.1-0.5-0.2c-4-2.3-98.4-56.4-105.4-84.6c-0.4-1.5-0.6-3-0.4-4.5
	c0.2-1.5,0.7-3,1.5-4.3c0.9-1.4,2-2.6,3.4-3.4c1.4-0.9,3-1.4,4.6-1.6c14.4-1.8,40.2,18.1,54.5,30.3c-14-20.3-41.5-62.7-38.8-78.6
	c0.1-1.1,0.5-2.1,1.1-3.1c0.6-0.9,1.3-1.7,2.2-2.4c1-0.7,2.2-1.1,3.4-1.3c1.2-0.2,2.5-0.1,3.7,0.2c14.8,3.5,37.3,38.1,47.2,54.2
	c-4-20-12.1-66.3-4.6-77.5c0.4-0.7,1-1.4,1.7-1.8c0.7-0.5,1.5-0.8,2.3-1c7.2-1.2,14.9,10.7,23.4,36.7c3.6,10.9,6.5,21.9,8.4,29.3
	c2.3-17.6,8.4-56.2,18.5-64.3c0.7-0.6,1.5-1.1,2.4-1.4c0.9-0.3,1.8-0.4,2.8-0.3c0.8,0.1,1.7,0.4,2.4,0.9c0.7,0.5,1.3,1.1,1.8,1.8
	c8,10.7,1.8,57-1.3,77.1c9.7-17.9,31.9-56.7,42.6-59.8c0.6-0.2,1.2-0.3,1.9-0.2c0.6,0.1,1.2,0.2,1.8,0.5c3.2,1.8,6.5,7.8-2.8,38.7
	c-2.9,9.6-6.2,18.9-8.5,25.2c10.7-11.2,34.5-34.5,46.2-34.6c1,0,1.9,0.1,2.8,0.5c0.9,0.4,1.7,0.9,2.4,1.6c4.9,5.3-0.7,17.8-17,38.1
	c-5.6,6.9-11.5,13.6-16.1,18.7c13.8-8.4,37.3-21.2,49.4-18.8c1.3,0.2,2.5,0.7,3.6,1.4c1.1,0.7,2,1.6,2.7,2.7
	c1.7,2.6,1.7,6.2-0.1,10.7c-8.9,22.4-60.5,64.2-87.7,71C1168.7,990.7,1155,992.4,1141.4,992.4z M1127.3,988.5
	c2.7,0.4,24.8,3.1,53.9-4.2c25.9-6.5,77.1-47.8,85.5-69.1c1.4-3.5,1.5-6.1,0.4-7.9c-0.5-0.7-1.1-1.3-1.9-1.8
	c-0.7-0.5-1.6-0.8-2.4-0.9c-16-3.2-57.3,24.9-57.7,25.2c-0.3,0.2-0.7,0.3-1.1,0.2c-0.4-0.1-0.7-0.2-1-0.5c-0.2-0.3-0.4-0.7-0.4-1
	c0-0.4,0.2-0.7,0.4-1c19.7-20,48.5-54.4,41.8-61.7c-0.4-0.4-0.8-0.7-1.3-0.9c-0.5-0.2-1-0.3-1.6-0.2c-11.5,0-39.6,28.4-49.4,39.4
	c-0.2,0.3-0.6,0.4-0.9,0.5c-0.4,0.1-0.7,0-1-0.2c-0.3-0.2-0.5-0.5-0.7-0.8s-0.1-0.7,0-1.1c10.3-25.8,21.9-63.8,15.6-67.4
	c-0.2-0.1-0.4-0.1-0.6-0.1c-0.2,0-0.4,0-0.6,0.1c-10.1,3-36.1,49.1-45.2,66.6c-0.2,0.3-0.5,0.6-0.8,0.7c-0.3,0.1-0.7,0.2-1.1,0
	c-0.4-0.1-0.7-0.4-0.8-0.7c-0.2-0.3-0.3-0.7-0.2-1.1c3.6-19.9,11.1-73.7,3.4-84c-0.2-0.4-0.5-0.7-0.9-0.9c-0.4-0.2-0.8-0.4-1.2-0.5
	c-0.5,0-1.1,0-1.5,0.2c-0.5,0.2-1,0.5-1.3,0.8c-10,8-16.6,53.8-18.4,70.8c0,0.4-0.2,0.7-0.5,1c-0.3,0.3-0.6,0.4-1,0.4
	c-0.4,0-0.7-0.1-1-0.3c-0.3-0.2-0.5-0.6-0.6-0.9c-6.4-28.8-20.3-73.8-30.2-72c-0.4,0.1-0.8,0.3-1.2,0.5c-0.3,0.3-0.6,0.6-0.8,1
	c-7.2,10.7,2.6,64.4,7,84.2c0.1,0.4,0,0.7-0.1,1.1c-0.2,0.3-0.5,0.6-0.8,0.7c-0.3,0.1-0.7,0.1-1.1,0s-0.6-0.4-0.8-0.7
	c-0.3-0.6-32.3-56.7-50-60.8c-0.8-0.2-1.6-0.3-2.4-0.2c-0.8,0.1-1.6,0.4-2.3,0.8c-0.5,0.4-1,0.9-1.3,1.5c-0.3,0.6-0.5,1.2-0.6,1.9
	c-3.4,19.4,45.5,86.6,46,87.3c0.2,0.3,0.3,0.7,0.3,1.1c0,0.4-0.2,0.8-0.5,1c-0.3,0.3-0.7,0.4-1.1,0.4c-0.4,0-0.8-0.2-1-0.4
	c-0.4-0.4-43.4-40.9-62.1-38.6c-1.2,0.1-2.3,0.5-3.3,1.1c-1,0.6-1.8,1.5-2.5,2.5c-0.6,1-0.9,2-1,3.1c-0.1,1.1,0,2.2,0.3,3.3
	C1030.1,932.2,1121.7,985.3,1127.3,988.5z"/>
<path class="st3" d="M1240.9,990.4c-41.5-58.9-142.1-64.4-186.3-2.8c-41.4,57.8-86.5,222.8-31.8,292.1
	c54.7,69.3,199.5,72.2,246.3,6.3C1316.4,1219.6,1287.8,1057,1240.9,990.4z"/>
<path class="st4" d="M1216.7,1308.8c17.6-6.4,34.9-13.7,51.7-21.8c0.2-0.3,0.5-0.6,0.7-0.9c1.1-1.6,2.2-3.2,3.2-5l-0.9,0.5
	c-10.2-6.3-25.8-16.2-45.2-28.8c16.3-7.2,33.4-15.3,51.3-24.5c3.8,2.4,7.6,4.8,11.4,7.1c0.2-1.2,0.5-2.5,0.7-3.7l-8.4-5.2
	c3.3-1.7,6.6-3.4,10-5.2c0.2-1.4,0.3-2.8,0.5-4.2c-4.7,2.5-9.4,5-14,7.3c-14.9-9.4-30.5-19.4-46.3-29.8
	c24.2-10.4,45.2-19.9,61.4-27.5c-0.1-1.8-0.2-3.5-0.3-5.3c-10.9-6.6-26.2-15.9-44-26.9c13.1-6.6,25.9-13.6,38-21
	c-0.2-1.2-0.4-2.5-0.7-3.7c-13,8-26.7,15.5-40.8,22.5c-15.2-9.4-32.1-19.9-49.5-30.8c22.1-9.3,41.6-18.1,58-25.8
	c10.4,6,20,11.6,28.6,16.4c-0.4-1.6-0.7-3.1-1.1-4.6c-7.3-4.1-15.2-8.6-23.6-13.5c6.5-3.1,12.4-5.9,17.7-8.5l-1-3.4
	c-6,2.9-12.8,6.2-20.3,9.8c-15.7-9.1-32.9-19.4-50.5-29.9c17.1-9.2,33.7-19.3,49.6-30.4l1.2,0.4c-0.8-1.6-1.6-3.1-2.4-4.6
	c-16.2-6-32-12.9-47.4-20.6c8.9-5.8,15.8-10.7,20.7-14.5c-0.9-0.8-1.8-1.6-2.7-2.3c-5.2,3.9-12.4,9-21.6,14.9
	c-14.5-7.4-28.4-15.9-41.7-25.2c6.1-4,11.9-8.1,17.4-12.4c-1.5-0.4-3-0.7-4.5-1c-5.1,3.8-10.4,7.6-16,11.2c-6-4.4-11.8-9-17.4-13.9
	c-1.6,0.1-3.3,0.2-4.9,0.4c6.1,5.5,12.6,10.7,19.2,15.6c-14.3,9.1-29.1,17.5-44.3,25.1c-12.4-7.7-23.4-14.3-31.8-19.5
	c-1,0.7-2,1.5-3,2.3c8.2,5,18.8,11.6,31.1,19.1c-17.9,8.8-35,16.3-48.7,21.9c-3.6-2.8-6.9-5.4-9.8-7.8c-0.6,1-1.1,2-1.7,3
	c2.4,2,5,4.1,7.8,6.3c-5.3,2.1-10,4-14,5.5c-0.7,1.5-1.5,3-2.2,4.6c5-1.9,11.7-4.4,19.4-7.6c10.2,7.8,22.9,16.9,37.1,26.6
	c-17.3,6.6-36.3,13.1-56.9,19.2c-4.4-3.2-8.4-6.1-11.9-8.7c-0.4,1.1-0.8,2.3-1.2,3.4l8.9,6.5c-4,1.2-8.1,2.3-12.3,3.4
	c-0.4,1.3-0.9,2.7-1.2,4c5.8-1.6,11.6-3.2,17.2-4.8c11.5,8.4,25.6,18.5,41.5,29.9l-5.2,1.7c-16.8,5.4-32.7,10-47,13.8
	c-4.9-4-9.8-8-14.6-12.1l-0.9,3.7c3.8,3.1,7.6,6.3,11.4,9.4c-5,1.3-9.7,2.5-14.3,3.6c-0.3,1.2-0.5,2.5-0.8,3.7
	c5.8-1.4,11.9-3,18.4-4.7c14.6,11.8,29.4,23.4,44.2,34.7c-17.5,5.7-35.6,11.2-54.1,16.3c-5.8-4.9-10.5-8.8-13.9-11.8
	c-0.2,1.4-0.3,2.8-0.4,4.2c2.8,2.4,6.2,5.3,10.3,8.7c-3.7,1-7.5,2-11.2,3c-0.1,1.2-0.2,2.5-0.2,3.7c5-1.3,9.9-2.6,14.8-4
	c10.8,8.9,25.1,20.6,42.3,34.1c-22.1,5.6-41.4,10-56.2,13.1c0.3,2.8,0.7,5.6,1.1,8.3c15.3,13.8,30.9,26.6,46.4,38.2
	c-10.4,3.1-20.8,6.1-31,8.8c0.6,1.1,1.2,2.1,1.9,3.1c10.8-2.9,21.7-6,32.6-9.3c16,12,31.9,22.8,46.9,32.3c-2,0.5-3.9,1-5.7,1.4
	c-15.5,3.8-29.2,6.5-40.9,8.4c1.4,1,2.9,1.9,4.4,2.8c10.4-1.8,22-4.1,34.7-7.1c3.7-0.9,7.6-1.8,11.6-2.9
	c17.8,11.2,34.5,20.8,49,28.6c-7.5,2-15.3,3.9-23.4,5.8c3.5,0.4,7,0.8,10.5,1.1c6-1.5,11.8-3,17.4-4.5c3.3,1.7,6.5,3.4,9.5,5
	c2.3-0.1,4.6-0.2,6.9-0.4c-3.6-1.8-7.4-3.7-11.4-5.9c19.7-5.4,37.3-11.1,53.1-16.7c4.8,3,9.6,5.9,14.5,8.7c1.2-0.6,2.6-1.2,3.8-1.8
	C1226.1,1314.5,1221.4,1311.7,1216.7,1308.8z M1274.1,1226.2c-18,9.1-35.1,17.2-51.4,24.3c-14.4-9.4-30.8-20.3-48.4-32.3
	c18.8-7.5,36.8-14.9,53.3-22.1C1243.5,1206.6,1259.1,1216.7,1274.1,1226.2z M1188,1101.4c-18.2,7.6-38,15.5-59.1,23.3
	c-15.8-11-30.9-21.7-44.7-31.5c17.7-6,37.2-13.1,57.3-21.5C1156.8,1081.6,1172.6,1091.7,1188,1101.4z M1100.1,1040
	c20-7.9,37.7-15.9,53.1-23.6c14,8.5,28.5,17.3,42.9,25.9c-18.1,9.5-36.4,18-54.2,25.5C1127.3,1058.3,1113.1,1048.9,1100.1,1040z
	 M1177,1162.2c-19.1,7.3-37.9,13.7-55.5,19.2c-15.2-10.9-30.7-22.3-46.3-34.1c18.4-6.1,36.2-12.3,53.2-18.7
	C1144.1,1139.6,1160.4,1150.9,1177,1162.2z M1180.6,1164.6c14.5,9.9,29.1,19.7,43.5,29.3c-16.5,7.1-34.5,14.5-53.3,22
	c-14.6-10-29.9-20.7-45.7-32C1142.7,1178.3,1161.5,1171.9,1180.6,1164.6L1180.6,1164.6z M1166.9,1217.5
	c-17.9,7.1-36.5,14.1-55.4,20.9c-17.8-12.9-34.1-25.2-48.6-36.5c14-3.7,29-7.8,44.6-12.4c4.4-1.3,8.9-2.7,13.4-4.1
	C1136.8,1196.6,1152.3,1207.4,1166.9,1217.5L1166.9,1217.5z M1170.4,1219.8c17.6,12,34,22.9,48.5,32.3c-20,8.7-38.6,16-55.8,22.2
	c-16.9-11.3-33-22.7-48.1-33.6C1134,1234,1152.6,1226.9,1170.4,1219.8L1170.4,1219.8z M1290.1,1164.5c-16.4,7.6-37.7,17.3-62.1,27.8
	c-14.5-9.6-29-19.3-43.5-29.2c20.1-7.8,40.6-16.5,60.3-26.3C1263.1,1148,1278.8,1157.6,1290.1,1164.5L1290.1,1164.5z M1241.3,1134.6
	c-19.8,9.6-40.2,18.3-60.3,26c-16.6-11.3-33-22.6-48.6-33.6c21.2-7.9,41.1-15.9,59.2-23.5C1209,1114.7,1226,1125.2,1241.3,1134.6
	L1241.3,1134.6z M1249.8,1074.1c-16.4,7.6-35.9,16.4-57.9,25.6c-15.4-9.7-31.2-19.8-46.5-29.7c17.8-7.6,36.1-16.2,54.2-25.7
	C1217,1054.8,1234.2,1064.9,1249.8,1074.1L1249.8,1074.1z M1200.8,989.4c15.6,7.9,31.6,15,48,21.2c-15.8,10.8-32.2,20.8-49.1,29.8
	c-14.4-8.6-28.9-17.4-42.8-25.8C1174.6,1005.4,1189.3,996.8,1200.8,989.4L1200.8,989.4z M1155.7,962c13.2,9.4,27.1,18,41.5,25.5
	c-11.7,7.4-26.3,15.9-43.9,24.8c-14.8-9-28.9-17.6-41.5-25.3C1126.9,979.4,1141.6,971.1,1155.7,962L1155.7,962z M1059.1,1011
	c14-5.8,31.1-13.3,49-22.2c12.6,7.7,26.7,16.3,41.5,25.3c-15.5,7.7-33.2,15.7-53.1,23.4C1082.3,1027.9,1069.5,1018.9,1059.1,1011
	L1059.1,1011z M1039.3,1060.9c20.6-6.1,39.5-12.7,56.8-19.4c13,8.9,27.2,18.3,41.8,27.8c-20.2,8.3-39.6,15.4-57.2,21.3
	C1065,1079.4,1051,1069.4,1039.3,1060.9L1039.3,1060.9z M1027.7,1110.1c13.7-3.7,28.7-8.1,44.6-13.1c2.5-0.8,5.1-1.7,7.7-2.5
	c13.8,9.9,28.9,20.5,44.8,31.6c-16.9,6.2-34.7,12.4-53.1,18.5C1057.1,1133.5,1042.3,1121.9,1027.7,1110.1L1027.7,1110.1z
	 M1016.9,1165c18.6-5.2,36.6-10.7,54.2-16.4c15.6,11.8,31.1,23.2,46.2,34.1c-3.7,1.1-7.3,2.2-10.8,3.3c-16.5,5-32.3,9.3-47.1,13.2
	C1042.3,1185.8,1027.9,1174.1,1016.9,1165L1016.9,1165z M999.7,1216.7c15.4-3.2,35.7-7.8,58.8-13.8c14.5,11.3,31,23.8,48.9,36.8
	c-18.8,6.7-38,13.1-57,18.9C1033.7,1246,1016.6,1232,999.7,1216.7L999.7,1216.7z M1054,1261.2c19-5.8,38.1-12.3,56.9-19
	c15.1,10.9,31.2,22.3,48,33.6c-21.8,7.7-41.1,13.5-57.6,17.8C1086.3,1284.1,1070.3,1273.3,1054,1261.2L1054,1261.2z M1154.8,1324.6
	c-14.5-7.7-31.3-17.2-49.3-28.5c16.6-4.4,35.7-10.3,57.1-17.9c14.8,10,30.2,19.9,46,29.7C1192.7,1313.7,1174.8,1319.3,1154.8,1324.6
	L1154.8,1324.6z M1166.7,1276.8c17.2-6.2,35.8-13.6,55.7-22.3c19.1,12.4,34.8,22.4,45.3,28.9c-17.8,8.7-36.1,16.4-54.8,23.1
	C1197.1,1296.7,1181.6,1286.8,1166.7,1276.8L1166.7,1276.8z"/>
<path d="M1153.7,1335.2c-55.1,0-105.3-20.6-132-54.5c-33-41.8-27-112.9-20.5-151.6c9.1-54.3,30.1-111.5,52.3-142.4
	c20.3-28.3,53.7-44.5,91.7-44.5h0.5c39.7,0.2,75.9,17.8,96.6,47.3c23.4,33.2,42.5,90.2,49.8,148.6c8,64.2,0.1,118.5-21.5,148.9
	c-20.6,28.9-62.1,46.9-111.2,48.2C1157.4,1335.2,1155.5,1335.2,1153.7,1335.2z M1145,945.3c-37,0-69.5,15.7-89.2,43.2
	c-42.5,59.3-85.2,222.7-31.8,290.3c27,34.2,78.8,54.6,135.1,53.2c48.1-1.2,88.7-18.7,108.7-46.9c21.1-29.8,28.8-83.2,20.9-146.7
	c-7.2-58-26-114.4-49.2-147.2c-20.2-28.6-55.3-45.8-94.1-46H1145z"/>
<path d="M1357.8,1154.1c-4.2-48.9-60.9-76.4-80.9-84.6c1.7,5.1,3,10.2,4,15.5c22.1,10.5,61.4,34.2,64.5,70.2
	c3.7,44-41.4,56.8-43.4,57.3c-1.5,0.4-2.7,1.3-3.6,2.6c-0.8,1.3-1.2,2.8-1,4.3c0.2,1.5,0.9,2.9,2.1,3.9c1.1,1,2.6,1.5,4.1,1.5
	c0.5,0,1.1-0.1,1.6-0.2c10.1-3.1,19.5-7.9,27.8-14.3C1351.2,1196.1,1359.8,1176.7,1357.8,1154.1z"/>
<path class="st0" d="M1235,1246.1c-12.8-4.1-5.9-13.2-5.9-13.2l-0.1-0.1c-1.8-1.8-4-4.4-3.3-7.2c1.1-4.2,6.6-5.9,10.2-7
	c5.3-1.7,10.8-2.8,16.2-4.4c2.3-0.7,4.5-1.5,6.8-2.3c1.2-0.5,2.5-1,3.7-1.5l3.7-1.6c-5.5-1.9-20-9.2-17.2-16.2
	c1.6-4,7.5-5.4,14.7-4.5c11.7,1.5,29.7,11.2,32.8,13.3c0.5-3.7,1.8-6.4,4.1-7.1c12.6-3.9,26.5,39.7,13.3,43.8c-3.1,1-6-0.7-8.6-4
	c-2,4.2-9.4,16.5-28.3,23.5c-9.4,3.5-21.1,2.3-30.8-0.1c-3.8-0.9-11.8-3.2-12.6-7.9C1233.6,1248.5,1234.4,1247.3,1235,1246.1z"/>
<path d="M1263.7,1261.5c-5.9-0.1-11.9-0.9-17.6-2.3c-3.1-0.8-12.7-3.1-13.8-9.2c-0.2-1,0-2.1,0.5-3c-3.6-1.5-5.9-3.6-6.8-6.3
	c-0.3-1.3-0.4-2.6-0.2-3.9c0.2-1.3,0.6-2.5,1.3-3.7c-1.6-1.7-3.8-4.6-3-7.9c1.2-5,7.2-6.8,11.1-8.1c3-0.9,5.9-1.7,8.7-2.4
	c2.5-0.6,5.1-1.2,7.6-2.1c2.2-0.7,4.5-1.4,6.7-2.3c1.2-0.5,2.5-1,3.7-1.5l0.3-0.1c-4.9-2.3-12.1-6.4-14.3-11.3
	c-0.4-0.8-0.7-1.8-0.7-2.7c0-0.9,0.1-1.9,0.5-2.7c1.8-4.5,7.9-6.6,16.3-5.5c10.6,1.3,25.7,9,31.5,12.4c1-4.1,3.1-5.5,4.8-6.1
	c7.6-2.4,14.6,8.2,18.2,19.8c3.6,11.5,3.9,24.5-3.9,27c-2.1,0.7-5.3,0.7-8.7-2.7c-3.3,5.7-11.2,16-28.1,22.3
	C1273.3,1260.9,1268.5,1261.7,1263.7,1261.5z M1259.8,1189.4c-4.9,0-8.3,1.4-9.3,3.8c-0.2,0.5-0.3,1-0.2,1.5c0,0.5,0.2,1,0.4,1.5
	c2.2,4.9,12,9.7,16.1,11.1c0.3,0.1,0.6,0.3,0.7,0.5c0.2,0.3,0.3,0.6,0.3,0.9c0,0.3-0.1,0.6-0.2,0.9c-0.2,0.3-0.4,0.5-0.7,0.6
	l-2.8,1.2l-0.9,0.4c-1.3,0.5-2.5,1-3.7,1.5c-2.3,0.9-4.6,1.6-6.9,2.3c-2.6,0.8-5.2,1.5-7.7,2.1c-2.8,0.7-5.7,1.4-8.4,2.3
	c-3.4,1.1-8.3,2.7-9.1,5.9c-0.5,1.9,1.2,3.9,2.9,5.7l0.1,0.1c0.3,0.3,0.4,0.6,0.4,1c0,0.4-0.1,0.7-0.3,1c0,0-2.2,3-1.3,5.9
	c0.7,2.1,2.8,3.7,6.4,4.9c0.2,0.1,0.4,0.2,0.6,0.3c0.2,0.2,0.3,0.3,0.4,0.5c0.1,0.2,0.1,0.4,0.1,0.7c0,0.2-0.1,0.4-0.2,0.6l-0.3,0.6
	c-0.4,0.6-0.7,1.3-0.7,2.1c0.3,1.8,2.6,4.5,11.5,6.7c8.3,2.1,20.3,3.7,29.9,0.2c18.5-6.9,25.7-19.1,27.4-22.7
	c0.1-0.2,0.3-0.4,0.5-0.6c0.2-0.2,0.5-0.2,0.7-0.3c0.3,0,0.5,0,0.8,0.1c0.2,0.1,0.5,0.3,0.6,0.5c2.4,3,4.7,4.1,6.9,3.4
	c5.4-1.7,5-13.2,1.9-23.1c-3.1-9.9-9.2-19.3-14.3-17.8c-2.1,0.6-2.8,3.9-3,5.8c0,0.3-0.1,0.5-0.3,0.7c-0.2,0.2-0.4,0.4-0.6,0.5
	c-0.2,0.1-0.5,0.2-0.8,0.1c-0.3,0-0.5-0.1-0.7-0.3c-2.8-1.9-20.7-11.7-32.2-13.1C1262.3,1189.5,1261.1,1189.4,1259.8,1189.4
	L1259.8,1189.4z"/>
<path class="st0" d="M1229.1,1232.9c0,0,12.4,1.9,35.8-4.4L1229.1,1232.9z"/>
<path d="M1234.3,1234.8c-1.8,0-3.6-0.1-5.4-0.3c-0.2,0-0.4-0.1-0.6-0.2c-0.2-0.1-0.3-0.2-0.5-0.4c-0.1-0.2-0.2-0.4-0.3-0.6
	c-0.1-0.2-0.1-0.4,0-0.6c0-0.2,0.1-0.4,0.2-0.6c0.1-0.2,0.3-0.3,0.4-0.5s0.4-0.2,0.6-0.2c0.2,0,0.4,0,0.6,0c0.1,0,12.4,1.7,35.1-4.4
	c0.4-0.1,0.8-0.1,1.2,0.2c0.4,0.2,0.6,0.5,0.7,0.9c0.1,0.4,0.1,0.8-0.2,1.2c-0.2,0.4-0.5,0.6-0.9,0.7
	C1250.5,1234,1240.1,1234.8,1234.3,1234.8z"/>
<path class="st0" d="M1235,1246.1c12.6,0.9,25.4-0.5,37.5-4.1L1235,1246.1z"/>
<path d="M1242.2,1248c-2.5,0-5-0.1-7.5-0.3c-0.2,0-0.4-0.1-0.6-0.2c-0.2-0.1-0.4-0.2-0.5-0.4c-0.1-0.2-0.2-0.3-0.3-0.6
	c-0.1-0.2-0.1-0.4-0.1-0.6c0-0.2,0.1-0.4,0.2-0.6s0.2-0.3,0.4-0.5c0.2-0.1,0.4-0.2,0.6-0.3c0.2-0.1,0.4-0.1,0.6,0
	c12.4,0.9,24.9-0.5,36.9-4.1c0.2-0.1,0.4-0.1,0.6-0.1c0.2,0,0.4,0.1,0.6,0.2c0.2,0.1,0.3,0.2,0.5,0.4c0.1,0.2,0.2,0.3,0.3,0.5
	c0.1,0.2,0.1,0.4,0.1,0.6c0,0.2-0.1,0.4-0.2,0.6c-0.1,0.2-0.2,0.3-0.4,0.5c-0.2,0.1-0.3,0.2-0.6,0.3
	C1262.9,1246.5,1252.6,1248,1242.2,1248z"/>
<path d="M993.3,1212.5c-1.9-0.5-47.1-13.3-43.4-57.3c3-35.2,40.6-58.6,63-69.5c0.3-1.2,0.7-2.5,1-3.7c1-3.8,2.5-7.9,3-11.8
	c-21.3,9-75.3,36.3-79.3,84c-1.9,22.6,6.6,42,24.8,56.1c8.3,6.4,17.7,11.3,27.8,14.3c0.5,0.1,1.1,0.2,1.6,0.2c1.5,0,3-0.6,4.1-1.5
	c1.1-1,1.9-2.4,2.1-3.9c0.2-1.5-0.2-3-1-4.3C996,1213.8,994.7,1212.9,993.3,1212.5z"/>
<path class="st0" d="M1060.4,1246.1c12.8-4.1,5.9-13.2,5.9-13.2l0.1-0.1c1.8-1.8,4-4.4,3.3-7.2c-1.1-4.2-6.6-5.9-10.2-7
	c-5.3-1.7-10.8-2.8-16.2-4.4c-2.3-0.7-4.5-1.5-6.8-2.3c-1.2-0.5-2.5-1-3.7-1.5l-3.7-1.6c5.5-1.9,20-9.2,17.2-16.2
	c-1.6-4-7.5-5.4-14.7-4.5c-11.7,1.5-29.7,11.2-32.8,13.3c-0.5-3.7-1.8-6.4-4.1-7.1c-12.6-3.9-26.5,39.7-13.4,43.8c3.1,1,6-0.7,8.6-4
	c2,4.2,9.4,16.5,28.3,23.5c9.4,3.5,21.1,2.3,30.8-0.1c3.8-0.9,11.8-3.2,12.7-7.9C1061.8,1248.5,1060.9,1247.3,1060.4,1246.1z"/>
<path d="M1031.6,1261.5c-4.8,0.1-9.6-0.7-14.1-2.3c-16.8-6.2-24.8-16.6-28.1-22.3c-3.5,3.4-6.6,3.4-8.7,2.8
	c-7.8-2.5-7.6-15.4-3.9-27c3.7-11.7,10.7-22.1,18.2-19.8c1.7,0.5,3.7,2,4.8,6.1c5.8-3.4,20.9-11.1,31.5-12.4
	c8.4-1.1,14.5,1,16.4,5.5c0.3,0.9,0.5,1.8,0.5,2.7c0,0.9-0.3,1.9-0.7,2.7c-2.2,4.9-9.4,9.1-14.3,11.3l0.3,0.1c1.2,0.5,2.5,1,3.7,1.5
	c2.2,0.8,4.5,1.6,6.7,2.3c2.5,0.8,5.1,1.4,7.6,2.1c2.8,0.7,5.8,1.4,8.6,2.4c4,1.2,10,3.2,11.2,8.1c0.9,3.3-1.4,6.2-3,7.9
	c0.7,1.1,1.1,2.4,1.3,3.7c0.2,1.3,0.1,2.6-0.2,3.9c-0.8,2.7-3.1,4.8-6.7,6.3c0.5,0.9,0.6,2,0.5,3c-1.1,6-10.7,8.4-13.8,9.2
	C1043.6,1260.7,1037.6,1261.5,1031.6,1261.5z M989.8,1232.7h0.2c0.3,0,0.5,0.1,0.7,0.3c0.2,0.1,0.4,0.4,0.5,0.6
	c1.8,3.6,8.9,15.9,27.4,22.7c9.6,3.6,21.5,1.9,29.9-0.2c8.9-2.2,11.2-4.9,11.5-6.7c0-0.8-0.3-1.5-0.7-2.1l-0.3-0.6
	c-0.1-0.2-0.1-0.4-0.1-0.6c0-0.2,0-0.4,0.1-0.6c0.1-0.2,0.2-0.4,0.4-0.5c0.2-0.2,0.4-0.3,0.6-0.3c3.6-1.2,5.8-2.8,6.4-4.9
	c0.9-2.9-1.2-5.9-1.3-5.9c-0.2-0.3-0.3-0.7-0.3-1c0-0.4,0.2-0.7,0.4-1l0.2-0.1c1.7-1.7,3.4-3.7,2.9-5.7c-0.9-3.3-5.8-4.9-9-5.9
	c-2.9-0.9-5.8-1.6-8.5-2.4c-2.5-0.6-5.2-1.2-7.7-2.1c-2.3-0.7-4.6-1.5-6.9-2.3c-1.3-0.5-2.5-1-3.7-1.5c-0.3-0.1-0.5-0.2-0.9-0.4
	l-2.8-1.2c-0.3-0.1-0.5-0.3-0.7-0.6c-0.2-0.3-0.3-0.6-0.2-0.9c0-0.3,0.1-0.6,0.3-0.9c0.2-0.3,0.5-0.4,0.7-0.5
	c4.1-1.4,13.8-6.2,16.1-11.1c0.2-0.5,0.4-1,0.4-1.5c0-0.5-0.1-1-0.2-1.5c-1.2-3.1-6.2-4.4-13.1-3.6c-11.5,1.4-29.4,11.2-32.2,13.1
	c-0.2,0.1-0.5,0.2-0.7,0.3c-0.3,0-0.5,0-0.8-0.1c-0.2-0.1-0.5-0.3-0.6-0.5c-0.2-0.2-0.3-0.5-0.3-0.7c-0.2-1.9-1-5.2-3-5.8
	c-5.2-1.6-11.3,8-14.3,17.8c-3.1,9.8-3.5,21.4,1.9,23.1c2.2,0.7,4.5-0.5,6.9-3.4c0.1-0.2,0.3-0.3,0.5-0.4
	C989.4,1232.8,989.6,1232.8,989.8,1232.7z"/>
<path class="st0" d="M1066.3,1232.9c0,0-12.4,1.9-35.8-4.4L1066.3,1232.9z"/>
<path d="M1061.1,1234.8c-5.8,0-16.2-0.8-31-4.8c-0.4-0.1-0.7-0.4-0.9-0.7c-0.2-0.4-0.3-0.8-0.2-1.2c0.1-0.4,0.4-0.7,0.7-0.9
	c0.4-0.2,0.8-0.3,1.2-0.2c22.7,6.2,35,4.4,35.1,4.4c0.2,0,0.4,0,0.6,0c0.2,0,0.4,0.1,0.6,0.3s0.3,0.3,0.4,0.5
	c0.1,0.2,0.2,0.4,0.2,0.6c0,0.2,0,0.4,0,0.6s-0.1,0.4-0.3,0.6c-0.1,0.2-0.3,0.3-0.5,0.4c-0.2,0.1-0.4,0.2-0.6,0.2
	C1064.7,1234.7,1062.9,1234.8,1061.1,1234.8z"/>
<path class="st0" d="M1060.4,1246.1c-12.7,0.9-25.4-0.5-37.5-4.1L1060.4,1246.1z"/>
<path d="M1053.1,1248c-10.4,0-20.7-1.5-30.7-4.5c-0.4-0.1-0.7-0.4-0.9-0.8c-0.2-0.4-0.2-0.8-0.1-1.2c0.1-0.4,0.4-0.7,0.7-0.9
	c0.4-0.2,0.8-0.2,1.2-0.1c11.9,3.6,24.4,5,36.9,4.1c0.4,0,0.8,0.1,1.1,0.3c0.3,0.3,0.5,0.6,0.6,1c0,0.4-0.1,0.8-0.3,1.1
	c-0.3,0.3-0.6,0.5-1,0.6C1058.1,1247.9,1055.6,1248,1053.1,1248z"/>
<path d="M1145.3,1142.1c-0.2,0-0.4-0.1-0.6-0.1c-0.2-0.1-6.2-2.9-7.9-7.6c-0.3-1-0.5-2-0.4-3c0.1-1,0.4-2,0.9-2.9
	c0.4-0.9,1.1-1.8,1.9-2.4c0.8-0.6,1.8-1.1,2.8-1.3c4.5-0.9,9.5,3,9.8,3.2c0.2,0.1,0.3,0.3,0.4,0.5c0.1,0.2,0.2,0.4,0.2,0.6
	c0,0.2,0,0.4,0,0.6c-0.1,0.2-0.1,0.4-0.3,0.6c-0.1,0.2-0.3,0.3-0.5,0.4c-0.2,0.1-0.4,0.2-0.6,0.2c-0.2,0-0.4,0-0.6,0
	c-0.2-0.1-0.4-0.1-0.5-0.3c-1.1-0.9-4.6-3.1-7.2-2.6c-0.5,0.1-1.1,0.4-1.5,0.8c-0.4,0.4-0.8,0.8-1,1.3c-0.3,0.5-0.5,1.1-0.6,1.7
	c-0.1,0.6,0,1.2,0.2,1.8c1,2.8,4.8,5.1,6.2,5.7c0.2,0.1,0.4,0.2,0.5,0.3c0.1,0.2,0.2,0.3,0.3,0.5c0.1,0.2,0.1,0.4,0.1,0.6
	c0,0.2-0.1,0.4-0.1,0.6c-0.1,0.3-0.3,0.5-0.6,0.7C1145.9,1142,1145.6,1142.1,1145.3,1142.1z"/>
<path d="M1123.6,1088.8l11.5-3.5c1.4-19.3-4.1-35.2-13-36.2c-9.5-1.1-19.3,15.2-21.9,36.5c-2.6,21.3,3,39.5,12.6,40.6
	c8.3,1,16.9-11.3,20.6-28.6L1123.6,1088.8z"/>
<path d="M1188.2,1088.8l11.5-3.5c1.4-19.3-4.1-35.2-13-36.2c-9.5-1.1-19.3,15.2-21.9,36.5c-2.6,21.3,3,39.5,12.6,40.6
	c8.3,1,16.9-11.3,20.6-28.6L1188.2,1088.8z"/>
<path d="M1197.2,1040.9c-0.4,0-0.8-0.1-1.1-0.4c-0.2-0.2-5.7-5-14.1-1.6c-0.2,0.1-0.4,0.1-0.6,0.1c-0.2,0-0.4,0-0.6-0.1
	c-0.2-0.1-0.4-0.2-0.5-0.3c-0.1-0.1-0.3-0.3-0.3-0.5c-0.1-0.2-0.1-0.4-0.1-0.6c0-0.2,0-0.4,0.1-0.6c0.1-0.2,0.2-0.4,0.3-0.5
	c0.1-0.1,0.3-0.3,0.5-0.3c10.3-4.2,17.1,2,17.4,2.2c0.3,0.3,0.5,0.7,0.5,1.1c0,0.4-0.1,0.8-0.4,1.1
	C1198,1040.7,1197.6,1040.8,1197.2,1040.9z"/>
<path d="M1112.7,1041c-0.3,0-0.6-0.1-0.9-0.3c-0.3-0.2-0.5-0.5-0.6-0.8c-0.1-0.3-0.1-0.6,0-1c0.1-0.3,0.3-0.6,0.5-0.8
	c8.7-6.8,17-2.7,17.3-2.5c0.4,0.2,0.6,0.5,0.8,0.9c0.1,0.4,0.1,0.8-0.1,1.2c-0.2,0.4-0.5,0.6-0.9,0.8c-0.4,0.1-0.8,0.1-1.2-0.1
	c-0.3-0.1-6.9-3.4-14,2.2C1113.4,1040.9,1113.1,1041,1112.7,1041z"/>
<path class="st0" d="M1201.9,1146.6c-3.2-2.4-7.2-3.7-11.2-3.7c-4,0-8,1.3-11.2,3.7c-3.7,2.7-7.5,5.1-11.6,7.2
	c-6.8,3.6-14.4,5.5-22.1,5.5c-7.7,0-15.3-1.9-22.1-5.5c-4-2.1-7.9-4.5-11.6-7.2c-3.2-2.4-7.2-3.7-11.2-3.7s-8,1.3-11.2,3.7
	c-3.1,2.3-5.3,5.6-6.4,9.3c-1.1,3.7-1,7.6,0.2,11.3c0.2,0.5,0.3,0.9,0.5,1.4c20.8,58.2,102.9,58.2,123.7,0l0.5-1.4
	c1.2-3.6,1.3-7.6,0.2-11.3C1207.2,1152.2,1204.9,1148.9,1201.9,1146.6z"/>
<path d="M1145.8,1213.8c-29.2,0-53.5-17.1-63.3-44.7c-0.2-0.5-0.3-0.9-0.5-1.4c-1.3-4-1.4-8.2-0.2-12.2c1.2-4,3.6-7.5,6.9-10.1
	c3.5-2.6,7.8-4,12.1-4c4.4,0,8.6,1.4,12.1,4c3.6,2.6,7.4,5,11.4,7.1c6.6,3.5,13.9,5.3,21.4,5.3c7.5,0,14.8-1.8,21.4-5.3
	c4-2.1,7.8-4.5,11.4-7.1c3.5-2.6,7.8-4,12.2-4c4.4,0,8.6,1.4,12.1,4c3.3,2.5,5.7,6.1,6.9,10.1c1.2,4,1.1,8.3-0.2,12.2l-0.5,1.4
	C1199.2,1196.7,1175,1213.8,1145.8,1213.8z M1100.7,1144.5c-3.6,0-7.2,1.2-10.1,3.4c-2.8,2.2-4.8,5.1-5.8,8.5c-1,3.4-1,7,0.2,10.3
	l0.5,1.3c11.2,31.5,38.6,42.6,60.4,42.6c21.8,0,49.1-11.2,60.4-42.6c0.2-0.4,0.3-0.9,0.5-1.3c1.1-3.3,1.2-6.9,0.2-10.3
	c-1-3.4-3.1-6.3-5.9-8.5c-3-2.2-6.6-3.4-10.3-3.4c-3.7,0-7.3,1.2-10.3,3.4c-3.7,2.7-7.7,5.2-11.8,7.3c-7,3.7-14.9,5.6-22.8,5.6
	c-8,0-15.8-1.9-22.8-5.6c-4.1-2.2-8-4.6-11.7-7.3C1108.1,1145.7,1104.4,1144.5,1100.7,1144.5L1100.7,1144.5z"/>
<path d="M1145.8,1213.2c-0.4,0-0.8-0.2-1.1-0.5c-0.3-0.3-0.5-0.7-0.5-1.1v-52.3c0-0.4,0.2-0.8,0.5-1.1c0.3-0.3,0.7-0.5,1.1-0.5
	c0.4,0,0.8,0.2,1.1,0.5c0.3,0.3,0.5,0.7,0.5,1.1v52.3c0,0.4-0.2,0.8-0.5,1.1C1146.6,1213,1146.2,1213.2,1145.8,1213.2z"/>
<path d="M1113.2,1204.5c-0.2,0-0.4,0-0.5-0.1c-0.2-0.1-0.4-0.2-0.5-0.3c-0.1-0.1-0.3-0.3-0.4-0.5c-0.1-0.2-0.1-0.4-0.1-0.6
	c0-0.2,0-0.4,0.1-0.6l16.5-45.1c0.1-0.4,0.4-0.7,0.8-0.9c0.4-0.2,0.8-0.2,1.2-0.1c0.4,0.1,0.7,0.4,0.9,0.8c0.2,0.4,0.2,0.8,0.1,1.2
	l-16.5,45.1c-0.1,0.3-0.3,0.5-0.6,0.7C1113.8,1204.4,1113.5,1204.5,1113.2,1204.5z"/>
<path d="M1090.2,1180.7c-0.3,0-0.6-0.1-0.9-0.2c-0.3-0.2-0.5-0.4-0.6-0.7c-0.1-0.3-0.2-0.6-0.1-0.9c0-0.3,0.2-0.6,0.4-0.8l25.2-29.4
	c0.1-0.2,0.3-0.3,0.5-0.4c0.2-0.1,0.4-0.2,0.6-0.2c0.2,0,0.4,0,0.6,0.1c0.2,0.1,0.4,0.2,0.5,0.3c0.2,0.1,0.3,0.3,0.4,0.5
	c0.1,0.2,0.1,0.4,0.2,0.6c0,0.2,0,0.4-0.1,0.6c-0.1,0.2-0.2,0.4-0.3,0.5l-25.2,29.4c-0.1,0.2-0.3,0.3-0.5,0.4
	C1090.6,1180.6,1090.4,1180.6,1090.2,1180.7z"/>
<path d="M1178.4,1204.5c-0.3,0-0.6-0.1-0.9-0.3c-0.3-0.2-0.5-0.4-0.6-0.7l-16.5-45.1c-0.1-0.4-0.1-0.8,0.1-1.2
	c0.2-0.4,0.5-0.7,0.9-0.8c0.4-0.1,0.8-0.1,1.2,0.1c0.4,0.2,0.7,0.5,0.8,0.9l16.5,45.1c0.1,0.2,0.1,0.4,0.1,0.6
	c0,0.2-0.1,0.4-0.1,0.6c-0.1,0.2-0.2,0.3-0.4,0.5c-0.2,0.1-0.3,0.2-0.5,0.3C1178.7,1204.4,1178.5,1204.5,1178.4,1204.5z"/>
<path d="M1201.3,1180.7c-0.2,0-0.5,0-0.7-0.1c-0.2-0.1-0.4-0.2-0.6-0.4l-25.2-29.4c-0.2-0.3-0.4-0.7-0.3-1.1c0-0.4,0.2-0.8,0.5-1
	c0.3-0.3,0.7-0.4,1.1-0.4c0.4,0,0.8,0.2,1,0.5l25.2,29.4c0.2,0.2,0.3,0.5,0.4,0.8c0,0.3,0,0.6-0.1,0.9c-0.1,0.3-0.3,0.5-0.6,0.7
	c-0.3,0.2-0.6,0.2-0.9,0.2H1201.3z"/>
<path d="M1075.6,1170.8c-0.3,0-0.6-0.1-0.9-0.3c-0.3-0.2-0.5-0.4-0.6-0.7c-2-4.4-2.6-9.3-1.8-14.1c0.8-4.8,3-9.2,6.3-12.8
	c0.3-0.3,0.7-0.4,1.1-0.4c0.4,0,0.8,0.2,1,0.5c0.3,0.3,0.4,0.7,0.4,1.1c0,0.4-0.1,0.8-0.4,1.1c-2.9,3.1-4.8,6.9-5.5,11.1
	c-0.7,4.2-0.1,8.4,1.7,12.3c0.1,0.2,0.1,0.4,0.1,0.6c0,0.2,0,0.4-0.1,0.6c-0.1,0.2-0.2,0.4-0.3,0.5c-0.1,0.1-0.3,0.3-0.5,0.3
	C1076.1,1170.8,1075.8,1170.8,1075.6,1170.8z"/>
<path d="M1215.8,1170.7c-0.2,0-0.4,0-0.5-0.1c-0.4-0.1-0.7-0.4-0.9-0.8c-0.2-0.4-0.2-0.8,0-1.2c1.6-3.9,2-8.2,1.1-12.4
	c-0.9-4.1-3-7.9-6.1-10.8c-0.3-0.3-0.5-0.7-0.5-1.1c0-0.4,0.1-0.8,0.4-1.1c0.3-0.3,0.7-0.5,1.1-0.5c0.4,0,0.8,0.1,1.1,0.4
	c3.5,3.4,5.9,7.7,7,12.4c1,4.7,0.7,9.7-1.1,14.2c-0.1,0.3-0.3,0.6-0.6,0.7C1216.4,1170.6,1216.1,1170.7,1215.8,1170.7z"/>
<path class="st0" d="M1181.2,971.1c12-8.6,46,29.4,39.7,36.5C1214.4,1014.6,1169.2,979.8,1181.2,971.1z"/>
<path class="st0" d="M1233.9,1032.1c7.9-1.4,6.2-14.1-2.2-13.8C1223.2,1018.6,1226,1033.6,1233.9,1032.1z"/>
<path class="st5" d="M443,409.2c97.7-176.8,320.3-240.8,497-143.1l0,0c0.2,0.1,0.5,0.3,0.7,0.4l0.7,0l1.4,0.8l0,0l0,0c0,0,0,0,0,0
	c0,0,0,0,0.1,0c0.1,0,0.1,0.1,0.2,0.1c0.2,0.1,0.5,0.3,0.9,0.5c0.8,0.4,1.9,1.1,3.2,1.8c2.7,1.5,6.5,3.7,10.8,6.1
	c8.6,4.8,19.1,10.8,26.9,15c176.8,97.7,240.8,320.3,143.1,497c-97.7,176.8-320.3,240.8-497,143.1c-6.6-3.7-22.7-12.7-34.4-19.3
	c-3.5-1.8-7-3.6-10.5-5.6C409.4,808.5,345.3,586,443,409.2z"/>
<path class="st6" d="M504,327c142.9-142.9,374.6-142.9,517.6,0c142.9,142.9,142.9,374.6,0,517.6s-374.6,142.9-517.6,0
	S361.1,470,504,327z"/>
<path class="st7" d="M466.1,421.2c96.1-173.9,320.7-228.5,494.6-132.3c9.9,5.4,19.3,11.3,28.5,17.5c-16.1-13.1-33.6-24.9-52.4-35.3
	C762.9,174.9,544.1,237.9,448,411.9c-90.7,164.1-39.7,368.2,112.3,471.5C427.1,775.7,380.4,576.3,466.1,421.2z"/>
<path class="st8" d="M551.5,374.5c116.7-116.7,305.9-116.7,422.6,0c116.7,116.7,116.7,305.9,0,422.6
	c-116.7,116.7-305.9,116.7-422.6,0C434.7,680.4,434.7,491.2,551.5,374.5z"/>
<path class="st9" d="M666.4,837c-141.8-78.4-193.1-256.8-114.8-398.5c42.8-77.4,115.5-127.9,195.8-145c-97.9,5-191.1,58.9-242,151
	c-78.4,141.7-27,320.1,114.8,398.5c64.3,35.5,136.2,44.4,202.8,30.2C770.2,876,716.1,864.5,666.4,837z"/>
<path class="st10" d="M144.1,316.4c5-0.7,8.6,1.4,11.5,5.1c2.9,3.8,4.9,9.4,6.3,15.3c1.3,5.9,1.9,11.8,2.2,16.4
	c0.1,2.3,0.2,4.2,0.2,5.5c0,0.7,0,1.2,0,1.5c0,0.2,0,0.3,0,0.4c0,0,0,0.1,0,0.1v0l4.3,1.2l0,0c0,0,0,0,0,0c0,0,0-0.1,0.1-0.1
	c0-0.1,0.1-0.2,0.2-0.4c0.2-0.3,0.5-0.8,0.9-1.5c0.8-1.3,1.9-3.1,3.2-5.1c2.8-4.2,6.6-9.6,10.8-14.4c4.3-4.9,8.8-8.9,12.9-10.8
	c2-0.9,3.8-1.2,5.3-0.9c1.5,0.3,3,1.1,4.5,2.9c3,3.6,3.1,7.5,1.6,11.6c-1.6,4.2-5.1,8.5-9.2,12.4c-4.1,3.9-8.6,7.3-12.1,9.7
	c-1.8,1.2-3.3,2.2-4.3,2.8c-0.5,0.3-0.9,0.6-1.2,0.7c-0.1,0.1-0.2,0.1-0.3,0.2c0,0-0.1,0-0.1,0l0,0l-5.4,3.1l6.1,1.1v0c0,0,0,0,0,0
	c0,0,0,0,0,0c0,0,0.1,0,0.1,0c0.1,0,0.2,0,0.4,0.1c0.4,0.1,1,0.2,1.7,0.4c1.5,0.3,3.6,0.8,6.1,1.4c5,1.3,11.5,3.2,17.7,5.8
	c6.3,2.6,12,5.7,15.6,9.3c1.8,1.8,2.9,3.6,3.4,5.5c0.5,1.8,0.4,3.8-0.6,6c-1,2.3-2.3,3.7-3.7,4.6c-1.5,0.9-3.3,1.3-5.4,1.3
	c-4.3,0-9.5-1.8-14.7-4.5c-5.1-2.6-10-5.9-13.6-8.5c-1.8-1.3-3.3-2.5-4.3-3.3c-0.5-0.4-0.9-0.7-1.2-1c-0.1-0.1-0.2-0.2-0.3-0.3
	c0,0-0.1-0.1-0.1-0.1c0,0,0,0,0,0c0,0,0,0,0,0l-3.5,2.8l0,0c0,0,0,0,0,0.1c0,0.1,0.1,0.2,0.2,0.4c0.2,0.3,0.4,0.8,0.7,1.4
	c0.6,1.2,1.4,2.9,2.3,4.9c1.8,4.1,4,9.5,5.4,14.9c1.5,5.5,2.2,10.6,1.4,14.2c-0.4,1.8-1.1,3.1-2.1,3.9c-1,0.9-2.5,1.5-4.9,1.6
	c-4.7,0.1-8.1-1.9-10.6-5.3c-2.6-3.4-4.4-8.2-5.5-13.3c-1.1-5-1.5-10.1-1.7-13.9c-0.1-1.9-0.1-3.5-0.1-4.6c0-0.6,0-1,0-1.3
	c0-0.1,0-0.3,0-0.3c0,0,0-0.1,0-0.1v0l-4.3-1.3c0,0,0,0,0,0c0,0,0,0,0,0c0,0,0,0.1-0.1,0.1c-0.1,0.1-0.1,0.2-0.2,0.4
	c-0.2,0.3-0.5,0.8-0.9,1.5c-0.8,1.3-2,3.1-3.4,5.2c-2.9,4.2-7,9.7-11.7,14.6c-4.7,5-9.9,9.3-14.9,11.4c-4.9,2.1-9.6,2-13.9-1.3
	c-2.2-1.7-3.3-3.5-3.8-5.2c-0.4-1.8-0.3-3.7,0.5-5.9c1.6-4.5,5.6-9.3,10.5-13.9c4.9-4.6,10.4-8.6,14.7-11.6c2.2-1.5,4-2.7,5.3-3.5
	c0.7-0.4,1.2-0.7,1.5-0.9c0.2-0.1,0.3-0.2,0.4-0.2c0,0,0.1,0,0.1-0.1c0,0,0,0,0,0l0,0h0l6.3-3.7l-7.2-0.6h0c0,0,0,0,0,0
	c0,0-0.1,0-0.1,0c-0.1,0-0.3,0-0.5,0c-0.4,0-1.1-0.1-1.9-0.2c-1.6-0.2-4-0.4-6.8-0.8c-5.6-0.8-12.8-2-19.7-4c-7-1.9-13.2-4.5-17-7.6
	c-1.9-1.6-3-3.2-3.4-4.8c-0.4-1.6-0.3-3.4,0.9-5.7c1.2-2.3,2.8-3.8,4.6-4.7c1.8-0.9,4-1.4,6.5-1.3c5.1,0.1,11.1,2.1,17,4.9
	c5.8,2.8,11.4,6.3,15.5,9c2,1.4,3.7,2.6,4.9,3.5c0.6,0.4,1,0.8,1.3,1c0.2,0.1,0.3,0.2,0.3,0.3c0,0,0.1,0.1,0.1,0.1c0,0,0,0,0,0l0,0
	l0,0l3.5-2.8l0,0c0,0,0,0,0,0c0,0,0-0.1-0.1-0.1c0-0.1-0.1-0.2-0.2-0.4c-0.2-0.4-0.4-0.9-0.8-1.6c-0.7-1.4-1.6-3.4-2.6-5.7
	c-2.1-4.8-4.5-11.1-6.3-17.6c-1.8-6.5-2.7-12.8-1.9-17.5c0.4-2.3,1.2-4.1,2.4-5.4C139.9,317.6,141.6,316.7,144.1,316.4z"/>
<path class="st9" d="M892.8,718.3c-51.3,38.6-113.1-79-113.1-79s-34.8,155.7-94.4,127.4c-59.6-28.3,35.7-131.5,35.7-131.5
	s-127.3,60.9-126.8-2c0.5-62.9,118.6-52.8,118.6-52.8s-134-84.6-87-140.6c46.9-56,124.9,88.4,124.9,88.4s20.1-174.5,80.4-140
	c60.3,34.4-39.7,150.4-39.7,150.4s147.2-68.5,153.5-0.7c6.3,67.8-134.3,59.3-134.3,59.3S944.2,679.6,892.8,718.3z"/>
<path class="st10" d="M1316.5,640.2c3.4-14.3,16.8-27.7,32.9-26.9c15.9,0.7,26,15.6,26.1,30.4c0.1,7.3-2.4,14.3-7.5,19.2
	c-5.1,4.9-13.3,8.1-25.2,7.2c-12-0.9-19.2-5.1-23.1-10.4C1315.7,654.2,1314.8,647.3,1316.5,640.2z"/>
<path class="st10" d="M727.3,1074.8L727.3,1074.8c9,0.4,14.8,8.7,14.9,17.1c0,4.1-1.4,8-4.3,10.7c-2.9,2.7-7.5,4.5-14.5,4
	c-7.1-0.5-11.2-2.9-13.3-5.8c-2.2-2.9-2.7-6.8-1.7-10.7C710.4,1081.9,718.2,1074.4,727.3,1074.8z"/>
<path class="st10" d="M1039,80c0.3,0.7,0.7,1.6,1.1,2.6c1.2,3.3,2.5,7.8,3.8,12.4c1.2,4.6,2.3,9.1,3.1,12.6c0.4,1.7,0.7,3.2,0.9,4.2
	c0.1,0.5,0.2,0.9,0.3,1.2c0,0.1,0.1,0.2,0.1,0.3c0,0,0,0.1,0,0.1c0,0,0,0,0,0v0l0,0l0.3,1.5l1.5,0.3l0,0c0,0,0,0,0,0c0,0,0,0,0.1,0
	c0.1,0,0.2,0,0.3,0.1c0.2,0,0.6,0.1,1.1,0.2c0.9,0.2,2.2,0.5,3.8,0.8c3.2,0.7,7.4,1.7,11.6,2.8c4.2,1.2,8.4,2.5,11.5,3.8
	c1.6,0.7,2.7,1.3,3.5,1.9c0.3,0.2,0.5,0.4,0.6,0.6c-0.1,0.1-0.2,0.2-0.4,0.4c-0.6,0.6-1.6,1.2-3,2c-2.7,1.5-6.5,3-10.4,4.3
	c-3.9,1.3-7.8,2.5-10.7,3.3c-1.5,0.4-2.7,0.7-3.6,1c-0.4,0.1-0.8,0.2-1,0.3c-0.1,0-0.2,0.1-0.3,0.1c0,0-0.1,0-0.1,0c0,0,0,0,0,0l0,0
	l-1.5,0.4l-0.2,1.5v0c0,0,0,0,0,0l-0.1,0.4c0,0.3-0.1,0.7-0.2,1.2c-0.2,1-0.5,2.5-0.8,4.3c-0.7,3.5-1.6,8.3-2.8,13
	c-1.1,4.7-2.5,9.4-3.8,12.8c-0.7,1.7-1.3,3-1.9,3.8c-0.1,0.2-0.2,0.3-0.3,0.4c-0.1-0.1-0.2-0.3-0.3-0.4c-0.6-0.8-1.3-2.1-2-3.9
	c-1.4-3.4-2.8-8.1-4-12.8c-1.2-4.7-2.2-9.4-3-13c-0.4-1.8-0.7-3.3-0.9-4.3c-0.1-0.5-0.2-0.9-0.2-1.2c0-0.1,0-0.2-0.1-0.3
	c0,0,0-0.1,0-0.1c0,0,0,0,0,0l0,0l-0.3-1.6l-1.6-0.3l0,0c0,0,0,0,0,0c0,0,0,0-0.1,0c-0.1,0-0.1,0-0.3,0c-0.2,0-0.5-0.1-1-0.2
	c-0.8-0.2-2-0.4-3.5-0.7c-2.9-0.6-6.7-1.3-10.5-2.3c-3.8-0.9-7.5-2-10.3-3c-1.2-0.5-2.1-0.9-2.8-1.3c0.7-0.6,1.7-1.2,3.1-2
	c2.8-1.5,6.5-3.2,10.3-4.8c3.8-1.6,7.6-3,10.5-4.1c1.4-0.5,2.6-1,3.5-1.2c0.4-0.1,0.7-0.3,1-0.3c0.1,0,0.2-0.1,0.3-0.1
	c0,0,0.1,0,0.1,0c0,0,0,0,0,0h0l1.3-0.4l0.2-1.3l0,0c0,0,0,0,0,0c0,0,0,0,0-0.1c0-0.1,0-0.2,0.1-0.3c0-0.3,0.1-0.7,0.2-1.2
	c0.2-1,0.4-2.5,0.8-4.2c0.6-3.5,1.6-8.2,2.6-12.9c1-4.7,2.1-9.4,3.2-12.9C1038.3,81.9,1038.7,80.9,1039,80z"/>
</svg>
